M48
METRIC,LZ,000.000
;FILE_FORMAT=3:3
;TYPE=PLATED
;Layer: PTH_Through_Via
;EasyEDA v6.5.54, 2026-06-22 22:14:46
;820ba6ca1dbf42d8ad26d6661cbbd738,d3e2394e42c544d094782fd7389e907f,10
;Gerber Generator version 0.2
;Holesize 1 = 0.305 mm
T01C0.305
;Holesize 2 = 0.310 mm
T02C0.310
;Holesize 3 = 0.381 mm
T03C0.381
;Holesize 4 = 0.407 mm
T04C0.407
;Holesize 5 = 0.508 mm
T05C0.508
;Holesize 6 = 1.800 mm
T06C1.800
%
G05
G90
T01
X-001111Y-006509
X000000Y-001111
X-000635Y019050
X-000318Y015875
X010478Y-003810
X002699Y-003810
X002699Y-002699
X007620Y-010954
X006668Y-008731
X007505Y-000556
X-001905Y-003334
X-007620Y-003651
X011113Y009525
X-014923Y011430
X-014923Y012065
X-003493Y009525
X-004763Y009525
X-001270Y009525
X-004763Y008255
X-001270Y008255
X003810Y010795
X002540Y010795
X-007938Y017780
X-006668Y016828
X018415Y008573
X018415Y009366
X001588Y020003
X004128Y010160
X-005398Y018415
X-019209Y-015240
X-017621Y-013018
X016351Y-000794
X-000635Y017780
X-000318Y017145
X-000318Y016510
X-000635Y018415
X-002858Y019368
X-003493Y019368
X-002858Y020003
X-003493Y020003
X-018256Y-013653
X-005398Y017463
X-019050Y009525
X-018415Y009525
X-017780Y009525
X-017145Y009525
X-016510Y009525
X000635Y010160
X001270Y010160
X-012700Y019050
X-014288Y011430
X-014288Y012065
X-013653Y011430
X-013653Y012065
X-017145Y005715
X-016510Y005715
X003651Y-017463
X005145Y-012541
X-017463Y018415
X-016510Y019368
X-012700Y020003
X-015240Y020003
X015875Y-009302
X014129Y-011430
X004533Y-018415
X005533Y-018415
X006533Y-018415
X017463Y-008573
X016510Y-005715
X010001Y-005318
X007144Y-008731
X014764Y-009208
X014288Y-010081
X011033Y-012621
X009763Y-012621
X005160Y-007620
X006509Y-004604
X014923Y-019368
X013335Y-019368
X006985Y-005239
X006826Y-005953
X005715Y-005398
X015399Y-000318
X016669Y-002858
X015240Y-001588
X007541Y-002778
X008335Y-003255
X010478Y-000397
X004604Y-001588
X012318Y000000
X001270Y-003810
X006668Y002540
X007938Y002540
X013970Y002540
X012700Y002540
X015399Y-005715
X014605Y-005398
X010795Y-004763
X011430Y-004128
X017463Y002858
X018415Y003810
X011748Y019050
X011748Y018098
X011748Y020003
X010478Y017145
X010503Y018007
X010503Y018960
X010478Y020003
X002540Y017145
X002540Y018098
X002540Y019050
X002540Y020003
X002858Y010160
X019368Y011748
X019368Y012700
X019368Y013653
X018415Y013653
X018415Y011748
X018415Y012700
X003493Y010160
X003175Y010795
X011113Y008255
X010478Y008255
X010478Y008890
X010478Y009525
X004128Y015240
X004128Y015875
X003493Y015875
X006350Y015240
X006350Y015875
X005715Y015875
X011113Y008890
X005715Y015240
X003493Y015240
X015558Y011271
X016193Y011271
X016193Y011906
X015558Y011906
X011113Y015240
X011748Y015240
X011748Y015875
X011113Y015875
X001905Y000318
X004763Y001270
X004318Y002764
X001270Y011430
X009843Y005398
X009843Y006350
X009843Y007303
X010795Y005398
X010795Y006350
X010795Y007303
X000635Y012065
X000635Y012700
X000635Y011430
X000635Y010795
X001270Y012065
X001270Y010795
X001270Y012700
X008890Y005398
X006985Y005398
X007938Y005398
X007938Y006350
X006985Y006350
X008890Y006350
X006985Y007303
X005715Y005398
X005715Y006350
X005715Y007303
X008890Y007303
X014764Y006350
X014764Y005398
X014764Y007303
X013811Y006350
X012859Y007303
X011906Y005398
X012859Y005398
X013811Y005398
X013811Y007303
X012859Y006350
X007938Y007303
X011906Y007303
X011906Y006350
X-017145Y005080
X-016510Y005080
X-007144Y-015875
X-005556Y-009208
X-003810Y-009208
X-001270Y007303
X-001270Y006350
X-001270Y005398
X-004763Y007303
X-004763Y006350
X-004763Y005398
X-007779Y-003175
X-008096Y-003651
X-007303Y-003175
X-006350Y-014288
X-004445Y017463
X-004445Y018415
X-010001Y-014050
X-004242Y-015060
X-010001Y-013018
X-007144Y-017145
X-009525Y-014923
X019368Y002764
X003810Y-012700
X-012700Y017780
X-011271Y-018415
X002699Y-004604
X-019368Y-013176
X-012224Y-002381
X-011748Y-001905
X-011748Y-002381
X-012224Y-001905
X-012541Y-011113
X-012383Y-007620
X-001270Y-001111
X-011748Y000000
X-005127Y-007144
X-007127Y-005874
X-012383Y000318
X-005398Y-000476
X-004445Y-003493
X-003175Y-006191
X-003016Y-004445
X002540Y-005239
X-013927Y-006956
X-014923Y-006985
X-013018Y-006668
X-008573Y-000476
X-008573Y-002064
X-005398Y-002064
X-005080Y001270
X-006073Y000383
X-012541Y000953
X-008731Y000476
X-001270Y000318
X-001429Y-002381
X000000Y-003810
X-008731Y-003175
X-008731Y-004286
X-013653Y-003175
X-013335Y-000635
X-014288Y-003175
X-013970Y-001918
X-013335Y-001905
X000953Y-006668
X001270Y-005080
X002461Y-013018
X-001270Y-003651
X010398Y-013970
X013494Y-012700
X005080Y-004128
X002223Y-014288
X-007620Y008255
X-007620Y007303
X-007620Y006350
X-007620Y005398
X-009843Y017780
X-010795Y017780
X-011748Y017780
X007533Y-018415
X011430Y-018098
X012383Y-017145
X010505Y-002355
X-001111Y-012065
X-001111Y-013018
X000873Y-010398
X-000953Y-008573
X011441Y-007965
X014605Y-007965
X002540Y-016510
X007858Y-014764
T02
X008632Y-019639
X004445Y-010319
X005080Y-006668
X008573Y-018733
T03
X-012700Y-018256
X011113Y013414
X014086Y016914
X016914Y016914
X013500Y015500
X014086Y014086
X015500Y013500
X016914Y014086
X017500Y015500
X015500Y017500
X-016918Y016909
X-014085Y016913
X-017499Y015499
X-016913Y014085
X-015499Y013499
X-014085Y014085
X-013499Y015499
X-015499Y017499
X014086Y-014086
X016914Y-014086
X013500Y-015500
X014086Y-016914
X015500Y-017500
X016914Y-016914
X017500Y-015500
X015500Y-013500
X-016914Y-014086
X-014086Y-014086
X-017500Y-015500
X-016914Y-016914
X-015500Y-017500
X-014086Y-016914
X-013500Y-015500
X-015500Y-013500
T04
X-003254Y-010240
T05
X-009208Y-018574
X-002128Y-013018
X-002128Y-008255
T06
X-003334Y000000
M30
