G04 Layer: InnerLayer2*
G04 Panelize: V-CUT, Column: 2, Row: 5, Board Size: 42mm x 42.27mm, Panelized Board Size: 92mm x 223.36mm*
G04 EasyEDA v6.5.54, 2026-06-22 22:14:46*
G04 820ba6ca1dbf42d8ad26d6661cbbd738,d3e2394e42c544d094782fd7389e907f,10*
G04 Gerber Generator version 0.2*
G04 Scale: 100 percent, Rotated: No, Reflected: No *
G04 Dimensions in millimeters *
G04 leading zeros omitted , absolute positions ,4 integer and 5 decimal *
%FSLAX45Y45*%
%MOMM*%

%ADD10C,0.5080*%
%ADD11C,0.4572*%
%ADD12C,0.6096*%
%ADD13R,1.0000X1.0000*%
%ADD14C,1.0000*%
%ADD15C,2.3000*%
%ADD16O,1.27X1.27*%
%ADD17O,0.0103X1.27*%
%ADD18C,4.3000*%
%ADD19C,0.7620*%
%ADD20C,2.0000*%

%LPD*%
G36*
X-2043633Y1143000D02*
G01*
X-2047493Y1143762D01*
X-2050796Y1145997D01*
X-2052980Y1149248D01*
X-2053793Y1153160D01*
X-2053793Y1474673D01*
X-2052929Y1496060D01*
X-2050542Y1515821D01*
X-2046630Y1535328D01*
X-2041194Y1554530D01*
X-2034235Y1573174D01*
X-2025904Y1591259D01*
X-2016099Y1608632D01*
X-2005025Y1625193D01*
X-1992680Y1640839D01*
X-1978660Y1655927D01*
X-1923084Y1711502D01*
X-1919782Y1713738D01*
X-1915922Y1714500D01*
X-1779320Y1714500D01*
X-1775155Y1713585D01*
X-1771700Y1711045D01*
X-1769618Y1707337D01*
X-1769262Y1703070D01*
X-1770684Y1699006D01*
X-1782470Y1679905D01*
X-1790547Y1663852D01*
X-1663852Y1663852D01*
X-1663852Y1704339D01*
X-1663090Y1708251D01*
X-1660855Y1711502D01*
X-1657553Y1713738D01*
X-1653692Y1714500D01*
X-1446276Y1714500D01*
X-1442415Y1713738D01*
X-1439113Y1711502D01*
X-1436928Y1708251D01*
X-1436116Y1704339D01*
X-1436116Y1663852D01*
X-1407160Y1663852D01*
X-1403248Y1663090D01*
X-1399997Y1660906D01*
X-1397762Y1657604D01*
X-1397000Y1653692D01*
X-1397000Y1446326D01*
X-1397762Y1442415D01*
X-1399997Y1439113D01*
X-1403248Y1436928D01*
X-1407160Y1436166D01*
X-1436116Y1436166D01*
X-1436116Y1298549D01*
X-1436928Y1294688D01*
X-1439214Y1291285D01*
X-1442516Y1289050D01*
X-1446428Y1288288D01*
X-1495044Y1288237D01*
X-1504035Y1287424D01*
X-1506931Y1286967D01*
X-1515414Y1284935D01*
X-1518513Y1283970D01*
X-1526336Y1280820D01*
X-1529537Y1279296D01*
X-1536547Y1275232D01*
X-1539748Y1273098D01*
X-1545894Y1268222D01*
X-1548942Y1265428D01*
X-1554124Y1259992D01*
X-1556918Y1256538D01*
X-1561084Y1250645D01*
X-1563522Y1246581D01*
X-1566672Y1240434D01*
X-1568602Y1235760D01*
X-1570736Y1229512D01*
X-1572056Y1224330D01*
X-1573225Y1218133D01*
X-1573834Y1212494D01*
X-1574038Y1206296D01*
X-1574038Y1160678D01*
X-1574800Y1156766D01*
X-1577035Y1153464D01*
X-1584502Y1145997D01*
X-1587804Y1143762D01*
X-1591716Y1143000D01*
G37*

%LPC*%
G36*
X-1663852Y1309471D02*
G01*
X-1663852Y1436166D01*
X-1790547Y1436166D01*
X-1782470Y1420114D01*
X-1770634Y1400911D01*
X-1757172Y1382725D01*
X-1742236Y1365758D01*
X-1725930Y1350111D01*
X-1708353Y1335887D01*
X-1689607Y1323238D01*
X-1669897Y1312214D01*
G37*

%LPD*%
G36*
X-1844192Y-1658620D02*
G01*
X-1848053Y-1657807D01*
X-1851304Y-1655622D01*
X-1919579Y-1587195D01*
X-1926183Y-1579829D01*
X-1933549Y-1570482D01*
X-1940001Y-1561084D01*
X-1945589Y-1551432D01*
X-1950364Y-1541576D01*
X-1954428Y-1531416D01*
X-1958035Y-1519631D01*
X-1960473Y-1508810D01*
X-1962251Y-1497330D01*
X-1963216Y-1485493D01*
X-1963470Y-1475384D01*
X-1963470Y886510D01*
X-1962556Y890727D01*
X-1960016Y894130D01*
X-1956257Y896213D01*
X-1951989Y896569D01*
X-1947925Y895146D01*
X-1937512Y888695D01*
X-1927148Y884428D01*
X-1916175Y881786D01*
X-1904593Y880871D01*
X-1651406Y880871D01*
X-1639824Y881786D01*
X-1628851Y884428D01*
X-1618488Y888695D01*
X-1608937Y894587D01*
X-1600352Y901852D01*
X-1593088Y910437D01*
X-1587195Y919987D01*
X-1582928Y930351D01*
X-1580286Y941324D01*
X-1579422Y952500D01*
X-1580286Y963676D01*
X-1582928Y974648D01*
X-1587195Y985012D01*
X-1593088Y994562D01*
X-1600352Y1003147D01*
X-1608937Y1010412D01*
X-1618488Y1016304D01*
X-1628851Y1020571D01*
X-1639824Y1023213D01*
X-1651406Y1024128D01*
X-1845919Y1024128D01*
X-1849780Y1024890D01*
X-1853082Y1027125D01*
X-1855266Y1030376D01*
X-1856079Y1034287D01*
X-1855266Y1038199D01*
X-1853082Y1041450D01*
X-1795678Y1098854D01*
X-1792376Y1101090D01*
X-1788515Y1101852D01*
X-1588008Y1101852D01*
X-1579473Y1102715D01*
X-1571752Y1105052D01*
X-1565859Y1108202D01*
X-1562201Y1109319D01*
X-1558391Y1109065D01*
X-1554988Y1107389D01*
X-1552397Y1104544D01*
X-1550162Y1100937D01*
X-1542897Y1092352D01*
X-1534312Y1085088D01*
X-1524762Y1079195D01*
X-1514398Y1074928D01*
X-1503426Y1072286D01*
X-1491843Y1071372D01*
X-1365656Y1071372D01*
X-1354074Y1072286D01*
X-1343101Y1074928D01*
X-1332738Y1079195D01*
X-1323187Y1085088D01*
X-1314602Y1092352D01*
X-1307338Y1100937D01*
X-1301445Y1110488D01*
X-1297178Y1120851D01*
X-1294536Y1131824D01*
X-1293622Y1143406D01*
X-1293622Y1206093D01*
X-1294536Y1217676D01*
X-1297178Y1228648D01*
X-1301445Y1239012D01*
X-1307338Y1248562D01*
X-1314602Y1257147D01*
X-1323187Y1264412D01*
X-1332738Y1270304D01*
X-1343101Y1274572D01*
X-1354074Y1277213D01*
X-1365656Y1278128D01*
X-1369669Y1278128D01*
X-1373530Y1278890D01*
X-1376832Y1281125D01*
X-1379016Y1284376D01*
X-1379829Y1288288D01*
X-1379016Y1292199D01*
X-1376832Y1295450D01*
X-1368247Y1304036D01*
X-1362811Y1310690D01*
X-1359052Y1317752D01*
X-1356715Y1325473D01*
X-1355852Y1334008D01*
X-1355852Y1345133D01*
X-1354988Y1349197D01*
X-1352600Y1352550D01*
X-1350416Y1354582D01*
X-1343050Y1363878D01*
X-1337106Y1374089D01*
X-1332788Y1385112D01*
X-1330147Y1396695D01*
X-1329283Y1408480D01*
X-1329791Y1415643D01*
X-1329639Y1418437D01*
X-1328674Y1421079D01*
X-1317853Y1441754D01*
X-1309319Y1462379D01*
X-1302410Y1484426D01*
X-1301292Y1486814D01*
X-1299616Y1488795D01*
X-1291844Y1496009D01*
X-1284478Y1505305D01*
X-1278534Y1515516D01*
X-1274216Y1526540D01*
X-1271574Y1538122D01*
X-1270711Y1549908D01*
X-1271574Y1561693D01*
X-1274216Y1573276D01*
X-1278534Y1584299D01*
X-1284478Y1594510D01*
X-1291844Y1603806D01*
X-1299565Y1610969D01*
X-1301242Y1612950D01*
X-1302308Y1615338D01*
X-1309319Y1637639D01*
X-1317853Y1658264D01*
X-1328674Y1678889D01*
X-1329588Y1681581D01*
X-1329791Y1684375D01*
X-1329283Y1691335D01*
X-1330147Y1703120D01*
X-1332788Y1714703D01*
X-1337106Y1725726D01*
X-1343050Y1735937D01*
X-1350416Y1745234D01*
X-1359103Y1753260D01*
X-1368856Y1759966D01*
X-1379524Y1765096D01*
X-1390853Y1768551D01*
X-1402537Y1770329D01*
X-1416050Y1770380D01*
X-1417726Y1770532D01*
X-1421536Y1771650D01*
X-1441754Y1782165D01*
X-1462379Y1790700D01*
X-1483918Y1797456D01*
X-1487068Y1798777D01*
X-1489659Y1801063D01*
X-1491843Y1803806D01*
X-1500530Y1811832D01*
X-1510284Y1818538D01*
X-1520952Y1823669D01*
X-1532280Y1827123D01*
X-1543964Y1828901D01*
X-1555851Y1828901D01*
X-1567535Y1827123D01*
X-1578864Y1823669D01*
X-1589532Y1818538D01*
X-1599285Y1811832D01*
X-1607972Y1803806D01*
X-1610106Y1801114D01*
X-1612696Y1798828D01*
X-1616303Y1797405D01*
X-1637588Y1790700D01*
X-1658213Y1782165D01*
X-1678432Y1771650D01*
X-1682089Y1770329D01*
X-1685137Y1769872D01*
X-1697736Y1769872D01*
X-1709470Y1768093D01*
X-1720748Y1764588D01*
X-1731416Y1759457D01*
X-1734413Y1757425D01*
X-1737156Y1756105D01*
X-1740154Y1755648D01*
X-1847240Y1755648D01*
X-1851152Y1756410D01*
X-1854454Y1758645D01*
X-1856638Y1761896D01*
X-1857400Y1765807D01*
X-1856638Y1769719D01*
X-1854454Y1772970D01*
X-1652422Y1975002D01*
X-1636928Y1989328D01*
X-1621536Y2001367D01*
X-1605330Y2012188D01*
X-1588262Y2021738D01*
X-1570532Y2029866D01*
X-1552194Y2036572D01*
X-1533398Y2041855D01*
X-1514246Y2045614D01*
X-1494840Y2047900D01*
X-1474571Y2048713D01*
X-421436Y2048713D01*
X-417220Y2047798D01*
X-413816Y2045258D01*
X-411683Y2041499D01*
X-411327Y2037283D01*
X-417322Y2022398D01*
X-419963Y2011425D01*
X-420827Y2000250D01*
X-419963Y1989074D01*
X-417322Y1978101D01*
X-414985Y1972411D01*
X-414172Y1968500D01*
X-414985Y1964588D01*
X-417322Y1958898D01*
X-419963Y1947925D01*
X-420827Y1936750D01*
X-419963Y1925574D01*
X-417322Y1914601D01*
X-413054Y1904238D01*
X-407162Y1894687D01*
X-399897Y1886102D01*
X-391312Y1878838D01*
X-381762Y1872945D01*
X-371398Y1868678D01*
X-360426Y1866036D01*
X-349250Y1865172D01*
X-338074Y1866036D01*
X-327101Y1868678D01*
X-321411Y1871014D01*
X-317500Y1871827D01*
X-313588Y1871014D01*
X-307898Y1868678D01*
X-296926Y1866036D01*
X-285750Y1865172D01*
X-274574Y1866036D01*
X-263601Y1868678D01*
X-253238Y1872945D01*
X-243687Y1878838D01*
X-235102Y1886102D01*
X-227838Y1894687D01*
X-221945Y1904238D01*
X-217678Y1914601D01*
X-215036Y1925574D01*
X-214172Y1936750D01*
X-215036Y1947925D01*
X-217678Y1958898D01*
X-220014Y1964588D01*
X-220827Y1968500D01*
X-220014Y1972411D01*
X-217678Y1978101D01*
X-215036Y1989074D01*
X-214172Y2000250D01*
X-215036Y2011425D01*
X-217678Y2022398D01*
X-222250Y2033219D01*
X-223672Y2037283D01*
X-223316Y2041499D01*
X-221183Y2045258D01*
X-217779Y2047798D01*
X-213563Y2048713D01*
X224028Y2048713D01*
X227939Y2047900D01*
X231241Y2045716D01*
X263194Y2013712D01*
X265430Y2010410D01*
X266192Y2006549D01*
X266192Y1778457D01*
X267004Y1769313D01*
X269290Y1760677D01*
X271221Y1756054D01*
X274370Y1750314D01*
X279958Y1743049D01*
X347218Y1675739D01*
X349351Y1672589D01*
X350164Y1668830D01*
X349554Y1665020D01*
X347573Y1661769D01*
X344525Y1659432D01*
X340817Y1658416D01*
X338074Y1658213D01*
X327101Y1655572D01*
X316738Y1651304D01*
X307187Y1645412D01*
X298602Y1638147D01*
X291338Y1629562D01*
X285445Y1620012D01*
X281178Y1609648D01*
X278536Y1598676D01*
X277622Y1587093D01*
X277622Y1524406D01*
X278536Y1512824D01*
X281178Y1501851D01*
X285445Y1491488D01*
X291338Y1481937D01*
X298602Y1473352D01*
X307187Y1466088D01*
X316738Y1460195D01*
X327101Y1455928D01*
X338074Y1453286D01*
X349656Y1452372D01*
X412343Y1452372D01*
X423926Y1453286D01*
X434898Y1455928D01*
X445262Y1460195D01*
X454812Y1466088D01*
X463397Y1473352D01*
X470662Y1481937D01*
X476554Y1491488D01*
X480822Y1501851D01*
X482244Y1507744D01*
X484225Y1511757D01*
X487730Y1514500D01*
X492150Y1515516D01*
X496519Y1514500D01*
X500024Y1511757D01*
X502005Y1507744D01*
X503428Y1501851D01*
X507695Y1491488D01*
X513588Y1481937D01*
X520852Y1473352D01*
X529437Y1466088D01*
X538988Y1460195D01*
X549351Y1455928D01*
X560324Y1453286D01*
X571906Y1452372D01*
X634593Y1452372D01*
X646176Y1453286D01*
X657148Y1455928D01*
X667512Y1460195D01*
X677062Y1466088D01*
X685647Y1473352D01*
X692912Y1481937D01*
X698804Y1491488D01*
X703072Y1501851D01*
X705713Y1512824D01*
X706628Y1524406D01*
X706628Y1587093D01*
X705713Y1598676D01*
X703072Y1609648D01*
X698804Y1620012D01*
X690321Y1633778D01*
X689762Y1637538D01*
X690676Y1641297D01*
X692912Y1644396D01*
X696163Y1646478D01*
X699922Y1647189D01*
X872540Y1647189D01*
X881684Y1648002D01*
X890320Y1650288D01*
X894943Y1652219D01*
X900684Y1655368D01*
X907948Y1660956D01*
X988466Y1741424D01*
X994359Y1748434D01*
X998829Y1756156D01*
X1000760Y1760778D01*
X1002588Y1767078D01*
X1003757Y1776171D01*
X1003808Y2006549D01*
X1004569Y2010410D01*
X1006805Y2013712D01*
X1038860Y2045766D01*
X1042162Y2048002D01*
X1046022Y2048764D01*
X1473200Y2048764D01*
X1495653Y2047849D01*
X1515008Y2045512D01*
X1534160Y2041652D01*
X1552956Y2036368D01*
X1571244Y2029561D01*
X1588973Y2021332D01*
X1605991Y2011781D01*
X1622196Y2000910D01*
X1637538Y1988820D01*
X1652422Y1975002D01*
X1965553Y1661871D01*
X1967788Y1658569D01*
X1968550Y1654657D01*
X1967788Y1650796D01*
X1965553Y1647494D01*
X1962251Y1645310D01*
X1958390Y1644497D01*
X1841754Y1644497D01*
X1837740Y1645361D01*
X1834438Y1647647D01*
X1832254Y1651101D01*
X1826006Y1667560D01*
X1815642Y1689404D01*
X1803552Y1710334D01*
X1789836Y1730197D01*
X1774545Y1748942D01*
X1757832Y1766366D01*
X1739747Y1782368D01*
X1720392Y1796897D01*
X1699971Y1809800D01*
X1678584Y1821027D01*
X1656384Y1830476D01*
X1633474Y1838147D01*
X1610004Y1843938D01*
X1586179Y1847799D01*
X1562100Y1849729D01*
X1537919Y1849729D01*
X1513840Y1847799D01*
X1490014Y1843938D01*
X1466545Y1838147D01*
X1443634Y1830476D01*
X1421384Y1821027D01*
X1399997Y1809800D01*
X1379575Y1796897D01*
X1360271Y1782368D01*
X1342186Y1766366D01*
X1325473Y1748942D01*
X1310182Y1730197D01*
X1296466Y1710334D01*
X1284376Y1689404D01*
X1274013Y1667560D01*
X1265428Y1645005D01*
X1258722Y1621790D01*
X1256741Y1616557D01*
X1253540Y1613712D01*
X1249476Y1612392D01*
X1245209Y1612900D01*
X1241552Y1615084D01*
X1239113Y1618640D01*
X1238554Y1620012D01*
X1232662Y1629562D01*
X1225397Y1638147D01*
X1216812Y1645412D01*
X1207262Y1651304D01*
X1196898Y1655572D01*
X1185926Y1658213D01*
X1174343Y1659128D01*
X1111656Y1659128D01*
X1100074Y1658213D01*
X1089101Y1655572D01*
X1078738Y1651304D01*
X1069187Y1645412D01*
X1060602Y1638147D01*
X1053338Y1629562D01*
X1047445Y1620012D01*
X1043178Y1609648D01*
X1040536Y1598676D01*
X1039621Y1587093D01*
X1039621Y1524406D01*
X1040536Y1512824D01*
X1043178Y1501851D01*
X1047445Y1491488D01*
X1053338Y1481937D01*
X1060602Y1473352D01*
X1069187Y1466088D01*
X1078738Y1460195D01*
X1089101Y1455928D01*
X1100074Y1453286D01*
X1111656Y1452372D01*
X1174343Y1452372D01*
X1185926Y1453286D01*
X1196898Y1455928D01*
X1207262Y1460195D01*
X1216812Y1466088D01*
X1225397Y1473352D01*
X1232662Y1481937D01*
X1238199Y1490929D01*
X1240942Y1493875D01*
X1244600Y1495501D01*
X1248613Y1495602D01*
X1252372Y1494129D01*
X1255217Y1491335D01*
X1256792Y1487627D01*
X1258722Y1478229D01*
X1265428Y1455013D01*
X1274013Y1432407D01*
X1284376Y1410563D01*
X1296466Y1389684D01*
X1310182Y1369771D01*
X1325473Y1351076D01*
X1342186Y1333652D01*
X1360271Y1317599D01*
X1379575Y1303121D01*
X1399997Y1290218D01*
X1421384Y1278991D01*
X1443634Y1269492D01*
X1466545Y1261872D01*
X1490014Y1256080D01*
X1496568Y1255014D01*
X1500530Y1253439D01*
X1503527Y1250391D01*
X1505000Y1246378D01*
X1504696Y1242110D01*
X1502664Y1238351D01*
X1497838Y1232712D01*
X1491945Y1223111D01*
X1487678Y1212748D01*
X1485036Y1201826D01*
X1484122Y1190244D01*
X1484122Y1127506D01*
X1485036Y1115923D01*
X1487678Y1105001D01*
X1491945Y1094638D01*
X1497838Y1085037D01*
X1505102Y1076502D01*
X1513687Y1069187D01*
X1523238Y1063345D01*
X1533601Y1059027D01*
X1544574Y1056386D01*
X1556156Y1055471D01*
X1618843Y1055471D01*
X1630426Y1056386D01*
X1641398Y1059027D01*
X1651762Y1063345D01*
X1661312Y1069187D01*
X1669897Y1076502D01*
X1677162Y1085037D01*
X1683054Y1094638D01*
X1687322Y1105001D01*
X1689963Y1115923D01*
X1690878Y1127506D01*
X1690878Y1190244D01*
X1689963Y1201826D01*
X1687322Y1212748D01*
X1683054Y1223111D01*
X1677162Y1232712D01*
X1669897Y1241247D01*
X1661312Y1248562D01*
X1655927Y1251864D01*
X1652727Y1254912D01*
X1651203Y1259078D01*
X1651507Y1263446D01*
X1653641Y1267307D01*
X1657248Y1269898D01*
X1678584Y1278991D01*
X1699971Y1290218D01*
X1720392Y1303121D01*
X1739747Y1317599D01*
X1757832Y1333652D01*
X1774545Y1351076D01*
X1789836Y1369771D01*
X1803552Y1389684D01*
X1815642Y1410563D01*
X1826006Y1432407D01*
X1834540Y1455013D01*
X1835912Y1459636D01*
X1837943Y1463446D01*
X1841398Y1466037D01*
X1845665Y1466951D01*
X1915515Y1466951D01*
X1919376Y1466189D01*
X1922678Y1464005D01*
X1960473Y1426210D01*
X1962657Y1422908D01*
X1963470Y1419047D01*
X1963470Y1057910D01*
X1962657Y1053998D01*
X1960473Y1050747D01*
X1957171Y1048512D01*
X1953310Y1047750D01*
X1810766Y1047750D01*
X1809038Y1047038D01*
X1683461Y921461D01*
X1682750Y919734D01*
X1682750Y607466D01*
X1681988Y603554D01*
X1679752Y600252D01*
X1526997Y447497D01*
X1523695Y445262D01*
X1519783Y444500D01*
X-887984Y444500D01*
X-889711Y443788D01*
X-1193901Y139598D01*
X-1197305Y137363D01*
X-1201318Y136601D01*
X-1205280Y137515D01*
X-1208582Y139903D01*
X-1210818Y142341D01*
X-1219149Y148793D01*
X-1228445Y153822D01*
X-1238402Y157276D01*
X-1248867Y159004D01*
X-1259382Y159004D01*
X-1269847Y157276D01*
X-1279804Y153822D01*
X-1289100Y148793D01*
X-1297432Y142341D01*
X-1304594Y134518D01*
X-1310386Y125679D01*
X-1314653Y116027D01*
X-1317244Y105765D01*
X-1318107Y95250D01*
X-1317244Y84734D01*
X-1314653Y74472D01*
X-1310386Y64820D01*
X-1309116Y62839D01*
X-1307744Y59690D01*
X-1307490Y56235D01*
X-1308455Y52933D01*
X-1310436Y50088D01*
X-1378559Y-18034D01*
X-1384147Y-24333D01*
X-1389888Y-33223D01*
X-1390904Y-35204D01*
X-1394104Y-42926D01*
X-1394764Y-45059D01*
X-1396644Y-53187D01*
X-1397304Y-60198D01*
X-1398168Y-63754D01*
X-1400251Y-66751D01*
X-1459788Y-126288D01*
X-1460500Y-128016D01*
X-1460500Y-160528D01*
X-1461262Y-164439D01*
X-1463497Y-167741D01*
X-1473809Y-178054D01*
X-1479397Y-184353D01*
X-1485138Y-193243D01*
X-1486154Y-195224D01*
X-1489354Y-202946D01*
X-1490014Y-205079D01*
X-1492250Y-215392D01*
X-1492758Y-223824D01*
X-1492758Y-283514D01*
X-1493520Y-287375D01*
X-1496822Y-295351D01*
X-1499463Y-306324D01*
X-1500327Y-317500D01*
X-1499463Y-328676D01*
X-1496822Y-339648D01*
X-1493520Y-347624D01*
X-1492758Y-351485D01*
X-1492758Y-380695D01*
X-1492250Y-389128D01*
X-1490014Y-399440D01*
X-1489354Y-401574D01*
X-1486154Y-409295D01*
X-1485138Y-411276D01*
X-1479397Y-420166D01*
X-1473809Y-426466D01*
X-1463497Y-436778D01*
X-1461262Y-440080D01*
X-1460500Y-443992D01*
X-1460500Y-619810D01*
X-1461160Y-623417D01*
X-1463040Y-626567D01*
X-1465884Y-628802D01*
X-1469390Y-629920D01*
X-1473047Y-629716D01*
X-1481074Y-627786D01*
X-1492250Y-626922D01*
X-1503426Y-627786D01*
X-1514703Y-630478D01*
X-1518920Y-630580D01*
X-1522831Y-629005D01*
X-1525727Y-625957D01*
X-1527149Y-621995D01*
X-1529486Y-605078D01*
X-1533702Y-588416D01*
X-1539748Y-572262D01*
X-1547520Y-556920D01*
X-1556918Y-542544D01*
X-1567891Y-529234D01*
X-1580184Y-517245D01*
X-1593748Y-506679D01*
X-1608429Y-497687D01*
X-1623974Y-490321D01*
X-1640230Y-484733D01*
X-1657045Y-480974D01*
X-1674114Y-479094D01*
X-1691335Y-479094D01*
X-1708454Y-480974D01*
X-1725218Y-484733D01*
X-1741474Y-490321D01*
X-1757070Y-497687D01*
X-1771700Y-506679D01*
X-1785264Y-517245D01*
X-1797608Y-529234D01*
X-1808530Y-542544D01*
X-1817928Y-556920D01*
X-1825701Y-572262D01*
X-1831746Y-588416D01*
X-1835962Y-605078D01*
X-1838350Y-622096D01*
X-1838807Y-639318D01*
X-1837385Y-656437D01*
X-1834083Y-673303D01*
X-1828952Y-689762D01*
X-1822043Y-705510D01*
X-1813458Y-720394D01*
X-1803247Y-734263D01*
X-1791614Y-746912D01*
X-1778660Y-758190D01*
X-1764487Y-767994D01*
X-1749348Y-776224D01*
X-1733448Y-782675D01*
X-1716887Y-787349D01*
X-1699920Y-790194D01*
X-1682750Y-791108D01*
X-1665579Y-790194D01*
X-1648612Y-787349D01*
X-1632051Y-782675D01*
X-1616100Y-776224D01*
X-1600962Y-767994D01*
X-1586839Y-758190D01*
X-1573885Y-746912D01*
X-1566418Y-738835D01*
X-1563420Y-736600D01*
X-1559814Y-735584D01*
X-1556105Y-735939D01*
X-1552803Y-737616D01*
X-1542897Y-749147D01*
X-1534312Y-756412D01*
X-1524762Y-762304D01*
X-1514398Y-766572D01*
X-1503426Y-769213D01*
X-1492250Y-770077D01*
X-1481074Y-769213D01*
X-1473047Y-767283D01*
X-1469390Y-767080D01*
X-1465884Y-768197D01*
X-1463040Y-770432D01*
X-1461160Y-773582D01*
X-1460500Y-777189D01*
X-1460500Y-1250391D01*
X-1461160Y-1253998D01*
X-1463040Y-1257096D01*
X-1465935Y-1259382D01*
X-1469440Y-1260449D01*
X-1473098Y-1260246D01*
X-1490014Y-1256080D01*
X-1513840Y-1252220D01*
X-1537919Y-1250238D01*
X-1562100Y-1250238D01*
X-1586179Y-1252220D01*
X-1610004Y-1256080D01*
X-1633474Y-1261872D01*
X-1656384Y-1269492D01*
X-1678584Y-1278991D01*
X-1699971Y-1290218D01*
X-1720392Y-1303121D01*
X-1739747Y-1317599D01*
X-1757832Y-1333652D01*
X-1774545Y-1351076D01*
X-1789836Y-1369771D01*
X-1803552Y-1389684D01*
X-1815642Y-1410563D01*
X-1826006Y-1432407D01*
X-1834540Y-1455013D01*
X-1841296Y-1478229D01*
X-1846122Y-1501902D01*
X-1849018Y-1525879D01*
X-1849983Y-1550009D01*
X-1849018Y-1574139D01*
X-1846122Y-1598117D01*
X-1841296Y-1621790D01*
X-1834591Y-1644853D01*
X-1833930Y-1648714D01*
X-1834794Y-1652524D01*
X-1837029Y-1655775D01*
X-1840331Y-1657908D01*
G37*

%LPC*%
G36*
X-1682750Y-1172108D02*
G01*
X-1665579Y-1171194D01*
X-1648612Y-1168349D01*
X-1632051Y-1163675D01*
X-1616100Y-1157173D01*
X-1600962Y-1148994D01*
X-1586839Y-1139190D01*
X-1573885Y-1127912D01*
X-1562201Y-1115263D01*
X-1552041Y-1101394D01*
X-1543405Y-1086510D01*
X-1536496Y-1070711D01*
X-1531366Y-1054303D01*
X-1528064Y-1037437D01*
X-1526641Y-1020267D01*
X-1527149Y-1003096D01*
X-1529486Y-986078D01*
X-1533702Y-969365D01*
X-1539748Y-953262D01*
X-1547520Y-937920D01*
X-1556918Y-923544D01*
X-1567891Y-910234D01*
X-1580184Y-898245D01*
X-1593748Y-887679D01*
X-1608429Y-878687D01*
X-1623974Y-871321D01*
X-1640230Y-865733D01*
X-1657045Y-861974D01*
X-1674114Y-860094D01*
X-1691335Y-860094D01*
X-1708454Y-861974D01*
X-1725218Y-865733D01*
X-1741474Y-871321D01*
X-1757070Y-878687D01*
X-1771700Y-887679D01*
X-1785264Y-898245D01*
X-1797608Y-910234D01*
X-1808530Y-923544D01*
X-1817928Y-937920D01*
X-1825701Y-953262D01*
X-1831746Y-969365D01*
X-1835962Y-986078D01*
X-1838350Y-1003096D01*
X-1838807Y-1020267D01*
X-1837385Y-1037437D01*
X-1834083Y-1054303D01*
X-1828952Y-1070711D01*
X-1822043Y-1086510D01*
X-1813458Y-1101394D01*
X-1803247Y-1115263D01*
X-1791614Y-1127912D01*
X-1778660Y-1139190D01*
X-1764487Y-1148994D01*
X-1749348Y-1157173D01*
X-1733448Y-1163675D01*
X-1716887Y-1168349D01*
X-1699920Y-1171194D01*
G37*
G36*
X-1682750Y-410108D02*
G01*
X-1665579Y-409194D01*
X-1648612Y-406349D01*
X-1632051Y-401675D01*
X-1616100Y-395173D01*
X-1600962Y-386994D01*
X-1586839Y-377190D01*
X-1573885Y-365912D01*
X-1562201Y-353263D01*
X-1552041Y-339394D01*
X-1543405Y-324510D01*
X-1536496Y-308711D01*
X-1531366Y-292303D01*
X-1528064Y-275437D01*
X-1526641Y-258267D01*
X-1527149Y-241096D01*
X-1529486Y-224078D01*
X-1533702Y-207365D01*
X-1539748Y-191262D01*
X-1547520Y-175920D01*
X-1556918Y-161544D01*
X-1567891Y-148234D01*
X-1580184Y-136245D01*
X-1593748Y-125679D01*
X-1608429Y-116687D01*
X-1623974Y-109321D01*
X-1640230Y-103733D01*
X-1657045Y-99974D01*
X-1674114Y-98094D01*
X-1691335Y-98094D01*
X-1708454Y-99974D01*
X-1725218Y-103733D01*
X-1741474Y-109321D01*
X-1757070Y-116687D01*
X-1771700Y-125679D01*
X-1785264Y-136245D01*
X-1797608Y-148234D01*
X-1808530Y-161544D01*
X-1817928Y-175920D01*
X-1825701Y-191262D01*
X-1831746Y-207365D01*
X-1835962Y-224078D01*
X-1838350Y-241096D01*
X-1838807Y-258267D01*
X-1837385Y-275437D01*
X-1834083Y-292303D01*
X-1828952Y-308711D01*
X-1822043Y-324510D01*
X-1813458Y-339394D01*
X-1803247Y-353263D01*
X-1791614Y-365912D01*
X-1778660Y-377190D01*
X-1764487Y-386994D01*
X-1749348Y-395173D01*
X-1733448Y-401675D01*
X-1716887Y-406349D01*
X-1699920Y-409194D01*
G37*
G36*
X-1618894Y-15290D02*
G01*
X-1616100Y-14173D01*
X-1600962Y-5994D01*
X-1586839Y3810D01*
X-1573885Y15087D01*
X-1562201Y27736D01*
X-1552041Y41605D01*
X-1543405Y56489D01*
X-1540510Y63144D01*
X-1618894Y63144D01*
G37*
G36*
X-1746605Y-15290D02*
G01*
X-1746605Y63144D01*
X-1824939Y63144D01*
X-1822043Y56489D01*
X-1813458Y41605D01*
X-1803247Y27736D01*
X-1791614Y15087D01*
X-1778660Y3810D01*
X-1764487Y-5994D01*
X-1749399Y-14173D01*
G37*
G36*
X-1825142Y190855D02*
G01*
X-1746605Y190855D01*
X-1746605Y269240D01*
X-1757070Y264312D01*
X-1771700Y255320D01*
X-1785264Y244754D01*
X-1797608Y232765D01*
X-1808530Y219456D01*
X-1817928Y205079D01*
G37*
G36*
X-1618894Y190855D02*
G01*
X-1540306Y190855D01*
X-1547520Y205079D01*
X-1556918Y219456D01*
X-1567891Y232765D01*
X-1580184Y244754D01*
X-1593748Y255320D01*
X-1608429Y264312D01*
X-1618894Y269240D01*
G37*
G36*
X-1714093Y436372D02*
G01*
X-1651406Y436372D01*
X-1639824Y437286D01*
X-1628851Y439928D01*
X-1618488Y444195D01*
X-1608937Y450088D01*
X-1600352Y457352D01*
X-1593088Y465937D01*
X-1587195Y475488D01*
X-1582928Y485851D01*
X-1580286Y496824D01*
X-1579372Y508406D01*
X-1579372Y571093D01*
X-1580286Y582676D01*
X-1582928Y593648D01*
X-1587195Y604012D01*
X-1593088Y613562D01*
X-1600352Y622147D01*
X-1608937Y629412D01*
X-1618488Y635304D01*
X-1628851Y639572D01*
X-1639824Y642213D01*
X-1651406Y643128D01*
X-1714093Y643128D01*
X-1725675Y642213D01*
X-1736648Y639572D01*
X-1747012Y635304D01*
X-1756562Y629412D01*
X-1765147Y622147D01*
X-1772412Y613562D01*
X-1778304Y604012D01*
X-1782572Y593648D01*
X-1785213Y582676D01*
X-1786128Y571093D01*
X-1786128Y508406D01*
X-1785213Y496824D01*
X-1782572Y485851D01*
X-1778304Y475488D01*
X-1772412Y465937D01*
X-1765147Y457352D01*
X-1756562Y450088D01*
X-1747012Y444195D01*
X-1736648Y439928D01*
X-1725675Y437286D01*
G37*
G36*
X1047750Y753922D02*
G01*
X1058926Y754786D01*
X1069898Y757428D01*
X1075588Y759764D01*
X1079500Y760577D01*
X1083411Y759764D01*
X1089101Y757428D01*
X1100074Y754786D01*
X1111250Y753922D01*
X1122426Y754786D01*
X1133398Y757428D01*
X1143762Y761695D01*
X1153312Y767588D01*
X1161897Y774852D01*
X1169162Y783437D01*
X1175054Y792988D01*
X1179322Y803351D01*
X1181963Y814324D01*
X1182827Y825500D01*
X1181963Y836676D01*
X1179322Y847648D01*
X1176985Y853338D01*
X1176172Y857250D01*
X1176985Y861161D01*
X1179322Y866851D01*
X1181963Y877824D01*
X1182827Y889000D01*
X1181963Y900176D01*
X1179322Y911148D01*
X1176985Y916838D01*
X1176172Y920750D01*
X1176985Y924661D01*
X1179322Y930351D01*
X1181963Y941324D01*
X1182827Y952500D01*
X1181963Y963676D01*
X1179322Y974648D01*
X1175054Y985012D01*
X1169162Y994562D01*
X1161897Y1003147D01*
X1153312Y1010412D01*
X1143762Y1016304D01*
X1133398Y1020571D01*
X1122426Y1023213D01*
X1111250Y1024077D01*
X1100074Y1023213D01*
X1089101Y1020571D01*
X1083411Y1018235D01*
X1079500Y1017422D01*
X1075588Y1018235D01*
X1069898Y1020571D01*
X1058926Y1023213D01*
X1047750Y1024077D01*
X1036574Y1023213D01*
X1025601Y1020571D01*
X1015237Y1016304D01*
X1005687Y1010412D01*
X997102Y1003147D01*
X989837Y994562D01*
X983945Y985012D01*
X979678Y974648D01*
X977036Y963676D01*
X976172Y952500D01*
X977036Y941324D01*
X979678Y930351D01*
X982014Y924661D01*
X982827Y920750D01*
X982014Y916838D01*
X979678Y911148D01*
X977036Y900176D01*
X976172Y889000D01*
X977036Y877824D01*
X979678Y866851D01*
X982014Y861161D01*
X982827Y857250D01*
X982014Y853338D01*
X979678Y847648D01*
X977036Y836676D01*
X976172Y825500D01*
X977036Y814324D01*
X979678Y803351D01*
X983945Y792988D01*
X989837Y783437D01*
X997102Y774852D01*
X1005687Y767588D01*
X1015237Y761695D01*
X1025601Y757428D01*
X1036574Y754786D01*
G37*
G36*
X63500Y944422D02*
G01*
X74676Y945286D01*
X85648Y947928D01*
X91338Y950264D01*
X95250Y951077D01*
X99161Y950264D01*
X104851Y947928D01*
X115824Y945286D01*
X127000Y944422D01*
X138176Y945286D01*
X149148Y947928D01*
X159512Y952195D01*
X169062Y958087D01*
X177647Y965352D01*
X184912Y973937D01*
X190804Y983487D01*
X195072Y993851D01*
X197713Y1004824D01*
X198577Y1016000D01*
X197713Y1027176D01*
X195072Y1038148D01*
X192735Y1043838D01*
X191922Y1047750D01*
X192735Y1051661D01*
X195072Y1057351D01*
X197713Y1068324D01*
X198577Y1079500D01*
X197713Y1090676D01*
X195072Y1101648D01*
X192735Y1107338D01*
X191922Y1111250D01*
X192735Y1115161D01*
X195072Y1120851D01*
X197713Y1131824D01*
X198577Y1143000D01*
X197713Y1154176D01*
X195072Y1165148D01*
X192735Y1170838D01*
X191922Y1174750D01*
X192735Y1178661D01*
X195072Y1184351D01*
X197713Y1195324D01*
X198577Y1206500D01*
X197713Y1217676D01*
X195072Y1228648D01*
X192735Y1234338D01*
X191922Y1238250D01*
X192735Y1242161D01*
X195072Y1247851D01*
X197713Y1258824D01*
X198577Y1270000D01*
X197713Y1281176D01*
X195072Y1292148D01*
X190804Y1302512D01*
X184912Y1312062D01*
X177647Y1320647D01*
X169062Y1327912D01*
X159512Y1333804D01*
X149148Y1338072D01*
X138176Y1340713D01*
X127000Y1341577D01*
X115824Y1340713D01*
X104851Y1338072D01*
X99161Y1335735D01*
X95250Y1334922D01*
X91338Y1335735D01*
X85648Y1338072D01*
X74676Y1340713D01*
X63500Y1341577D01*
X52324Y1340713D01*
X41351Y1338072D01*
X30988Y1333804D01*
X21437Y1327912D01*
X12852Y1320647D01*
X5588Y1312062D01*
X-304Y1302512D01*
X-4572Y1292148D01*
X-7213Y1281176D01*
X-8077Y1270000D01*
X-7213Y1258824D01*
X-4572Y1247851D01*
X-2235Y1242161D01*
X-1422Y1238250D01*
X-2235Y1234338D01*
X-4572Y1228648D01*
X-7213Y1217676D01*
X-8077Y1206500D01*
X-7213Y1195324D01*
X-4572Y1184351D01*
X-2235Y1178661D01*
X-1422Y1174750D01*
X-2235Y1170838D01*
X-4572Y1165148D01*
X-7213Y1154176D01*
X-8077Y1143000D01*
X-7213Y1131824D01*
X-4572Y1120851D01*
X-2235Y1115161D01*
X-1422Y1111250D01*
X-2235Y1107338D01*
X-4572Y1101648D01*
X-7213Y1090676D01*
X-8077Y1079500D01*
X-7213Y1068324D01*
X-4572Y1057351D01*
X-2235Y1051661D01*
X-1422Y1047750D01*
X-2235Y1043838D01*
X-4572Y1038148D01*
X-7213Y1027176D01*
X-8077Y1016000D01*
X-7213Y1004824D01*
X-4572Y993851D01*
X-304Y983487D01*
X5588Y973937D01*
X12852Y965352D01*
X21437Y958087D01*
X30988Y952195D01*
X41351Y947928D01*
X52324Y945286D01*
G37*
G36*
X-31750Y1515922D02*
G01*
X-20574Y1516786D01*
X-9601Y1519428D01*
X762Y1523695D01*
X10312Y1529588D01*
X18897Y1536852D01*
X26162Y1545437D01*
X32054Y1554988D01*
X36322Y1565351D01*
X38963Y1576324D01*
X39827Y1587500D01*
X38963Y1598676D01*
X36322Y1609648D01*
X33985Y1615338D01*
X33172Y1619250D01*
X33985Y1623161D01*
X36322Y1628851D01*
X38963Y1639824D01*
X39827Y1651000D01*
X38963Y1662175D01*
X36322Y1673148D01*
X33985Y1678838D01*
X33172Y1682750D01*
X33985Y1686661D01*
X36322Y1692351D01*
X38963Y1703324D01*
X39827Y1714500D01*
X38963Y1725675D01*
X36322Y1736648D01*
X32054Y1747012D01*
X26162Y1756562D01*
X18897Y1765147D01*
X11582Y1771345D01*
X9144Y1774443D01*
X8077Y1778254D01*
X7213Y1789175D01*
X4572Y1800148D01*
X2235Y1805838D01*
X1422Y1809750D01*
X2235Y1813661D01*
X4572Y1819351D01*
X7213Y1830324D01*
X8077Y1841500D01*
X7213Y1852675D01*
X4572Y1863648D01*
X2235Y1869338D01*
X1422Y1873250D01*
X2235Y1877161D01*
X4572Y1882851D01*
X7213Y1893824D01*
X8077Y1905000D01*
X7213Y1916175D01*
X4572Y1927148D01*
X304Y1937512D01*
X-5588Y1947062D01*
X-12852Y1955647D01*
X-21437Y1962912D01*
X-30988Y1968804D01*
X-41351Y1973072D01*
X-52324Y1975713D01*
X-63500Y1976577D01*
X-74676Y1975713D01*
X-85648Y1973072D01*
X-96012Y1968804D01*
X-105562Y1962912D01*
X-114147Y1955647D01*
X-121412Y1947062D01*
X-127304Y1937512D01*
X-131572Y1927148D01*
X-134213Y1916175D01*
X-135077Y1905000D01*
X-134213Y1893824D01*
X-131572Y1882851D01*
X-129235Y1877161D01*
X-128422Y1873250D01*
X-129235Y1869338D01*
X-131572Y1863648D01*
X-134213Y1852675D01*
X-135077Y1841500D01*
X-134213Y1830324D01*
X-131572Y1819351D01*
X-129235Y1813661D01*
X-128422Y1809750D01*
X-129235Y1805838D01*
X-131572Y1800148D01*
X-134213Y1789175D01*
X-135077Y1778000D01*
X-134213Y1766824D01*
X-131572Y1755851D01*
X-127304Y1745488D01*
X-121412Y1735937D01*
X-114147Y1727352D01*
X-106832Y1721154D01*
X-104394Y1718056D01*
X-103327Y1714246D01*
X-102463Y1703324D01*
X-99822Y1692351D01*
X-97485Y1686661D01*
X-96672Y1682750D01*
X-97485Y1678838D01*
X-99822Y1673148D01*
X-102463Y1662175D01*
X-103327Y1651000D01*
X-102463Y1639824D01*
X-99822Y1628851D01*
X-97485Y1623161D01*
X-96672Y1619250D01*
X-97485Y1615338D01*
X-99822Y1609648D01*
X-102463Y1598676D01*
X-103327Y1587500D01*
X-102463Y1576324D01*
X-99822Y1565351D01*
X-95554Y1554988D01*
X-89662Y1545437D01*
X-82397Y1536852D01*
X-73812Y1529588D01*
X-64262Y1523695D01*
X-53898Y1519428D01*
X-42926Y1516786D01*
G37*

%LPD*%
G36*
X-1409192Y-1963470D02*
G01*
X-1413103Y-1962708D01*
X-1416354Y-1960524D01*
X-1418590Y-1957222D01*
X-1419352Y-1953310D01*
X-1419352Y-1826107D01*
X-1418691Y-1822500D01*
X-1416812Y-1819351D01*
X-1413916Y-1817116D01*
X-1399997Y-1809800D01*
X-1379575Y-1796897D01*
X-1360271Y-1782368D01*
X-1357579Y-1779981D01*
X-1353667Y-1777847D01*
X-1349197Y-1777593D01*
X-1345031Y-1779270D01*
X-1342034Y-1782572D01*
X-1340713Y-1786889D01*
X-1341424Y-1791309D01*
X-1345692Y-1802282D01*
X-1348333Y-1813814D01*
X-1349197Y-1825650D01*
X-1348333Y-1837436D01*
X-1345692Y-1848967D01*
X-1341374Y-1859991D01*
X-1335430Y-1870252D01*
X-1328064Y-1879498D01*
X-1319377Y-1887575D01*
X-1309624Y-1894230D01*
X-1298956Y-1899361D01*
X-1287627Y-1902866D01*
X-1275943Y-1904644D01*
X-1264056Y-1904644D01*
X-1252372Y-1902866D01*
X-1241044Y-1899361D01*
X-1230376Y-1894230D01*
X-1220622Y-1887575D01*
X-1211935Y-1879498D01*
X-1204569Y-1870252D01*
X-1198626Y-1859991D01*
X-1194308Y-1848967D01*
X-1191666Y-1837436D01*
X-1190802Y-1825650D01*
X-1191666Y-1813814D01*
X-1194308Y-1802282D01*
X-1198626Y-1791258D01*
X-1204569Y-1780997D01*
X-1211935Y-1771751D01*
X-1220622Y-1763674D01*
X-1230376Y-1757019D01*
X-1241044Y-1751888D01*
X-1252372Y-1748383D01*
X-1264056Y-1746605D01*
X-1275943Y-1746605D01*
X-1287627Y-1748383D01*
X-1298956Y-1751888D01*
X-1305407Y-1754987D01*
X-1309166Y-1756003D01*
X-1313027Y-1755495D01*
X-1316431Y-1753565D01*
X-1318869Y-1750466D01*
X-1319936Y-1746757D01*
X-1319530Y-1742846D01*
X-1317701Y-1739392D01*
X-1310182Y-1730197D01*
X-1296466Y-1710334D01*
X-1284376Y-1689404D01*
X-1274013Y-1667560D01*
X-1265428Y-1645005D01*
X-1258722Y-1621790D01*
X-1253896Y-1598117D01*
X-1251000Y-1574139D01*
X-1249984Y-1550009D01*
X-1251000Y-1525879D01*
X-1253896Y-1501902D01*
X-1258722Y-1478229D01*
X-1265428Y-1455013D01*
X-1274013Y-1432407D01*
X-1284376Y-1410563D01*
X-1296466Y-1389684D01*
X-1310182Y-1369771D01*
X-1325473Y-1351076D01*
X-1342186Y-1333652D01*
X-1360271Y-1317599D01*
X-1379575Y-1303121D01*
X-1399997Y-1290218D01*
X-1413916Y-1282903D01*
X-1416812Y-1280617D01*
X-1418691Y-1277518D01*
X-1419352Y-1273911D01*
X-1419352Y-185318D01*
X-1418590Y-181406D01*
X-1416354Y-178104D01*
X-923747Y314502D01*
X-920445Y316738D01*
X-916533Y317500D01*
X356362Y317500D01*
X360273Y316738D01*
X363575Y314502D01*
X365760Y311251D01*
X366522Y307340D01*
X365760Y303428D01*
X363728Y298500D01*
X361086Y287528D01*
X360222Y276352D01*
X361086Y265176D01*
X363728Y254203D01*
X367995Y243840D01*
X373888Y234289D01*
X381152Y225704D01*
X389737Y218440D01*
X399288Y212547D01*
X409651Y208279D01*
X420624Y205638D01*
X431800Y204774D01*
X442976Y205638D01*
X453948Y208279D01*
X464312Y212547D01*
X473862Y218440D01*
X482447Y225704D01*
X489712Y234289D01*
X495604Y243840D01*
X499872Y254203D01*
X502513Y265176D01*
X503377Y276352D01*
X502513Y287528D01*
X499872Y298500D01*
X497840Y303428D01*
X497078Y307340D01*
X497840Y311251D01*
X500024Y314502D01*
X503326Y316738D01*
X507238Y317500D01*
X605078Y317500D01*
X608838Y316788D01*
X612089Y314706D01*
X614324Y311607D01*
X615238Y307848D01*
X614680Y304088D01*
X612800Y300736D01*
X608838Y296062D01*
X602945Y286512D01*
X598678Y276148D01*
X596036Y265176D01*
X595172Y254000D01*
X596036Y242824D01*
X598678Y231851D01*
X602945Y221488D01*
X608838Y211937D01*
X616102Y203352D01*
X624687Y196088D01*
X634238Y190195D01*
X644601Y185928D01*
X655574Y183286D01*
X666750Y182422D01*
X677926Y183286D01*
X688898Y185928D01*
X699262Y190195D01*
X708812Y196088D01*
X717397Y203352D01*
X722528Y209397D01*
X725982Y212039D01*
X730250Y212953D01*
X734517Y212039D01*
X737971Y209397D01*
X743102Y203352D01*
X751687Y196088D01*
X761238Y190195D01*
X771601Y185928D01*
X782574Y183286D01*
X793750Y182422D01*
X804926Y183286D01*
X815898Y185928D01*
X826262Y190195D01*
X835812Y196088D01*
X844397Y203352D01*
X851662Y211937D01*
X857554Y221488D01*
X861821Y231851D01*
X864463Y242824D01*
X865327Y254000D01*
X864463Y265176D01*
X861821Y276148D01*
X857554Y286512D01*
X851662Y296062D01*
X847699Y300736D01*
X845819Y304088D01*
X845261Y307848D01*
X846175Y311607D01*
X848410Y314706D01*
X851662Y316788D01*
X855421Y317500D01*
X1208328Y317500D01*
X1212088Y316788D01*
X1215339Y314706D01*
X1217574Y311607D01*
X1218488Y307848D01*
X1217930Y304088D01*
X1216050Y300736D01*
X1212088Y296062D01*
X1206195Y286512D01*
X1201928Y276148D01*
X1199286Y265176D01*
X1198422Y254000D01*
X1199286Y242824D01*
X1201928Y231851D01*
X1206195Y221488D01*
X1212088Y211937D01*
X1219352Y203352D01*
X1227937Y196088D01*
X1237488Y190195D01*
X1247851Y185928D01*
X1258824Y183286D01*
X1270000Y182422D01*
X1281176Y183286D01*
X1292148Y185928D01*
X1302512Y190195D01*
X1312062Y196088D01*
X1320647Y203352D01*
X1325778Y209397D01*
X1329232Y212039D01*
X1333500Y212953D01*
X1337767Y212039D01*
X1341221Y209397D01*
X1346352Y203352D01*
X1354937Y196088D01*
X1364488Y190195D01*
X1374851Y185928D01*
X1385824Y183286D01*
X1397000Y182422D01*
X1408176Y183286D01*
X1419148Y185928D01*
X1429512Y190195D01*
X1439062Y196088D01*
X1447647Y203352D01*
X1454912Y211937D01*
X1460804Y221488D01*
X1465072Y231851D01*
X1467713Y242824D01*
X1468577Y254000D01*
X1467713Y265176D01*
X1465072Y276148D01*
X1460804Y286512D01*
X1454912Y296062D01*
X1450949Y300736D01*
X1449070Y304088D01*
X1448511Y307848D01*
X1449425Y311607D01*
X1451660Y314706D01*
X1454912Y316788D01*
X1458671Y317500D01*
X1554734Y317500D01*
X1556461Y318211D01*
X1777288Y539038D01*
X1778000Y540766D01*
X1778000Y916533D01*
X1778762Y920445D01*
X1780997Y923747D01*
X1838502Y981252D01*
X1841804Y983487D01*
X1845716Y984250D01*
X1953310Y984250D01*
X1957171Y983487D01*
X1960473Y981252D01*
X1962657Y978001D01*
X1963470Y974090D01*
X1963470Y-298196D01*
X1962607Y-302310D01*
X1960168Y-305663D01*
X1956612Y-307797D01*
X1952498Y-308356D01*
X1948535Y-307187D01*
X1942084Y-303784D01*
X1930095Y-299415D01*
X1917700Y-296773D01*
X1905000Y-295859D01*
X1892300Y-296773D01*
X1879904Y-299415D01*
X1867916Y-303784D01*
X1856689Y-309727D01*
X1846427Y-317195D01*
X1837283Y-326034D01*
X1829460Y-336042D01*
X1823110Y-347065D01*
X1818335Y-358851D01*
X1815236Y-371195D01*
X1813915Y-383844D01*
X1814372Y-396544D01*
X1816607Y-409041D01*
X1820519Y-421132D01*
X1826056Y-432562D01*
X1833829Y-443992D01*
X1835454Y-447903D01*
X1835302Y-452120D01*
X1833473Y-455930D01*
X1829460Y-461060D01*
X1823110Y-472084D01*
X1818335Y-483870D01*
X1815236Y-496163D01*
X1813915Y-508812D01*
X1814372Y-521512D01*
X1816607Y-534060D01*
X1820519Y-546150D01*
X1826056Y-557530D01*
X1833829Y-568960D01*
X1835454Y-572871D01*
X1835302Y-577138D01*
X1833473Y-580948D01*
X1829460Y-586028D01*
X1823110Y-597052D01*
X1818335Y-608838D01*
X1815236Y-621182D01*
X1813915Y-633831D01*
X1814372Y-646531D01*
X1816607Y-659028D01*
X1820519Y-671118D01*
X1826056Y-682548D01*
X1833829Y-693978D01*
X1835454Y-697890D01*
X1835302Y-702106D01*
X1833473Y-705916D01*
X1829460Y-711047D01*
X1823110Y-722071D01*
X1819249Y-731520D01*
X1875637Y-731520D01*
X1878279Y-728319D01*
X1881936Y-726440D01*
X1886102Y-726135D01*
X1898650Y-727913D01*
X1911350Y-727913D01*
X1923897Y-726135D01*
X1928063Y-726440D01*
X1931720Y-728319D01*
X1934362Y-731520D01*
X1953310Y-731520D01*
X1957171Y-732282D01*
X1960473Y-734517D01*
X1962657Y-737819D01*
X1963470Y-741680D01*
X1963470Y-782320D01*
X1962657Y-786231D01*
X1960473Y-789533D01*
X1957171Y-791718D01*
X1953310Y-792480D01*
X1934464Y-792480D01*
X1931670Y-795934D01*
X1927656Y-797915D01*
X1923186Y-797966D01*
X1917700Y-796747D01*
X1905000Y-795883D01*
X1892300Y-796747D01*
X1886813Y-797966D01*
X1882343Y-797915D01*
X1878330Y-795934D01*
X1875536Y-792480D01*
X1819300Y-792480D01*
X1820519Y-796137D01*
X1826056Y-807567D01*
X1833829Y-818946D01*
X1835454Y-822909D01*
X1835302Y-827125D01*
X1833473Y-830935D01*
X1829460Y-836066D01*
X1823110Y-847039D01*
X1818335Y-858824D01*
X1815236Y-871169D01*
X1813915Y-883818D01*
X1814372Y-896518D01*
X1816607Y-909066D01*
X1820519Y-921156D01*
X1826056Y-932535D01*
X1833829Y-943965D01*
X1835454Y-947877D01*
X1835302Y-952144D01*
X1833473Y-955954D01*
X1829460Y-961034D01*
X1823110Y-972058D01*
X1818335Y-983843D01*
X1815236Y-996187D01*
X1813915Y-1008837D01*
X1814372Y-1021537D01*
X1816607Y-1034034D01*
X1820519Y-1046124D01*
X1823313Y-1051814D01*
X1824278Y-1055522D01*
X1823821Y-1059332D01*
X1821992Y-1062736D01*
X1820824Y-1064158D01*
X1817014Y-1071270D01*
X1814677Y-1078992D01*
X1813864Y-1087526D01*
X1813864Y-1186484D01*
X1814677Y-1195019D01*
X1817014Y-1202740D01*
X1820824Y-1209852D01*
X1825955Y-1216050D01*
X1832152Y-1221181D01*
X1839264Y-1224991D01*
X1846986Y-1227328D01*
X1855520Y-1228140D01*
X1953310Y-1228140D01*
X1957171Y-1228902D01*
X1960473Y-1231138D01*
X1962657Y-1234440D01*
X1963470Y-1238300D01*
X1963470Y-1475790D01*
X1962912Y-1490065D01*
X1961591Y-1501952D01*
X1959559Y-1513332D01*
X1956460Y-1525270D01*
X1954123Y-1532178D01*
X1950059Y-1542338D01*
X1944674Y-1553108D01*
X1938934Y-1562760D01*
X1931619Y-1573123D01*
X1923948Y-1582420D01*
X1915261Y-1591665D01*
X1851304Y-1655622D01*
X1847545Y-1658010D01*
X1843176Y-1658569D01*
X1838960Y-1657197D01*
X1835708Y-1654149D01*
X1834083Y-1650034D01*
X1834337Y-1645615D01*
X1841296Y-1621790D01*
X1846122Y-1598117D01*
X1849018Y-1574139D01*
X1849983Y-1550009D01*
X1849018Y-1525879D01*
X1846122Y-1501902D01*
X1841296Y-1478229D01*
X1834540Y-1455013D01*
X1826006Y-1432407D01*
X1815642Y-1410563D01*
X1803552Y-1389684D01*
X1789836Y-1369771D01*
X1774545Y-1351076D01*
X1757832Y-1333652D01*
X1739747Y-1317599D01*
X1720392Y-1303121D01*
X1699971Y-1290218D01*
X1678584Y-1278991D01*
X1656384Y-1269492D01*
X1633474Y-1261872D01*
X1610004Y-1256080D01*
X1586179Y-1252220D01*
X1562100Y-1250238D01*
X1537919Y-1250238D01*
X1513840Y-1252220D01*
X1490014Y-1256080D01*
X1466545Y-1261872D01*
X1443634Y-1269492D01*
X1421384Y-1278991D01*
X1399997Y-1290218D01*
X1379575Y-1303121D01*
X1360271Y-1317599D01*
X1342186Y-1333652D01*
X1325473Y-1351076D01*
X1310182Y-1369771D01*
X1296466Y-1389684D01*
X1284376Y-1410563D01*
X1274013Y-1432407D01*
X1265428Y-1455013D01*
X1258722Y-1478229D01*
X1253896Y-1501902D01*
X1251000Y-1525879D01*
X1249984Y-1550009D01*
X1251000Y-1574139D01*
X1253896Y-1598117D01*
X1258722Y-1621790D01*
X1265428Y-1645005D01*
X1274013Y-1667560D01*
X1284376Y-1689404D01*
X1296466Y-1710334D01*
X1310182Y-1730197D01*
X1325473Y-1748942D01*
X1342186Y-1766366D01*
X1360271Y-1782368D01*
X1379575Y-1796897D01*
X1399997Y-1809800D01*
X1421384Y-1821027D01*
X1443634Y-1830476D01*
X1466545Y-1838147D01*
X1490014Y-1843938D01*
X1513840Y-1847799D01*
X1537919Y-1849729D01*
X1562100Y-1849729D01*
X1586179Y-1847799D01*
X1610004Y-1843938D01*
X1633474Y-1838147D01*
X1645615Y-1834083D01*
X1650085Y-1833625D01*
X1654302Y-1835200D01*
X1657451Y-1838401D01*
X1658924Y-1842617D01*
X1658416Y-1847088D01*
X1656029Y-1850898D01*
X1591056Y-1915871D01*
X1580845Y-1925320D01*
X1571498Y-1932838D01*
X1560931Y-1940102D01*
X1550263Y-1946249D01*
X1543761Y-1949399D01*
X1533753Y-1953615D01*
X1523339Y-1957070D01*
X1512519Y-1959762D01*
X1501140Y-1961743D01*
X1487982Y-1963115D01*
X1475333Y-1963470D01*
X166979Y-1963470D01*
X163220Y-1962759D01*
X160020Y-1960676D01*
X157784Y-1957578D01*
X156819Y-1953869D01*
X157378Y-1950059D01*
X158089Y-1947976D01*
X160731Y-1934514D01*
X161645Y-1920900D01*
X160731Y-1907235D01*
X158089Y-1893773D01*
X153670Y-1880819D01*
X147624Y-1868576D01*
X140004Y-1857197D01*
X131013Y-1846884D01*
X120700Y-1837893D01*
X109321Y-1830273D01*
X97078Y-1824228D01*
X84124Y-1819808D01*
X70662Y-1817166D01*
X57048Y-1816252D01*
X43383Y-1817166D01*
X29921Y-1819808D01*
X16967Y-1824228D01*
X4724Y-1830273D01*
X-6654Y-1837893D01*
X-16967Y-1846884D01*
X-25958Y-1857197D01*
X-33934Y-1869135D01*
X-36220Y-1871522D01*
X-39116Y-1873097D01*
X-43434Y-1873656D01*
X-46736Y-1873097D01*
X-49631Y-1871522D01*
X-51917Y-1869135D01*
X-59893Y-1857197D01*
X-68884Y-1846884D01*
X-79197Y-1837893D01*
X-90576Y-1830273D01*
X-102819Y-1824228D01*
X-112369Y-1820976D01*
X-112369Y-1890420D01*
X-55727Y-1890420D01*
X-51409Y-1891385D01*
X-47904Y-1894128D01*
X-45872Y-1898091D01*
X-45770Y-1902561D01*
X-46685Y-1907235D01*
X-47599Y-1920900D01*
X-46685Y-1934514D01*
X-45770Y-1939188D01*
X-45872Y-1943658D01*
X-47904Y-1947621D01*
X-51409Y-1950364D01*
X-55727Y-1951380D01*
X-112369Y-1951380D01*
X-112369Y-1953310D01*
X-113182Y-1957222D01*
X-115366Y-1960524D01*
X-118668Y-1962708D01*
X-122529Y-1963470D01*
X-163169Y-1963470D01*
X-167081Y-1962708D01*
X-170383Y-1960524D01*
X-172567Y-1957222D01*
X-173329Y-1953310D01*
X-173329Y-1951380D01*
X-230022Y-1951380D01*
X-234340Y-1950364D01*
X-237845Y-1947621D01*
X-239877Y-1943658D01*
X-239979Y-1939188D01*
X-239064Y-1934514D01*
X-238150Y-1920900D01*
X-239064Y-1907235D01*
X-239979Y-1902561D01*
X-239877Y-1898091D01*
X-237845Y-1894128D01*
X-234340Y-1891385D01*
X-230022Y-1890420D01*
X-173329Y-1890420D01*
X-173329Y-1820976D01*
X-182930Y-1824228D01*
X-195173Y-1830273D01*
X-206552Y-1837893D01*
X-216865Y-1846884D01*
X-225856Y-1857197D01*
X-233832Y-1869135D01*
X-236118Y-1871522D01*
X-239014Y-1873097D01*
X-243332Y-1873656D01*
X-246634Y-1873097D01*
X-249529Y-1871522D01*
X-251815Y-1869135D01*
X-259791Y-1857197D01*
X-268782Y-1846884D01*
X-279095Y-1837893D01*
X-290474Y-1830273D01*
X-302717Y-1824228D01*
X-315671Y-1819808D01*
X-329133Y-1817166D01*
X-342747Y-1816252D01*
X-356412Y-1817166D01*
X-369874Y-1819808D01*
X-382828Y-1824228D01*
X-395071Y-1830273D01*
X-406450Y-1837893D01*
X-416763Y-1846884D01*
X-425754Y-1857197D01*
X-433374Y-1868576D01*
X-439420Y-1880819D01*
X-443839Y-1893773D01*
X-446481Y-1907235D01*
X-447395Y-1920900D01*
X-446481Y-1934514D01*
X-443839Y-1947976D01*
X-443128Y-1950059D01*
X-442569Y-1953869D01*
X-443534Y-1957578D01*
X-445770Y-1960676D01*
X-448970Y-1962759D01*
X-452729Y-1963470D01*
G37*

%LPC*%
G36*
X-926693Y-1936394D02*
G01*
X-914806Y-1936394D01*
X-903122Y-1934616D01*
X-891794Y-1931111D01*
X-881126Y-1925980D01*
X-871372Y-1919325D01*
X-862685Y-1911248D01*
X-855319Y-1902002D01*
X-849376Y-1891741D01*
X-845058Y-1880717D01*
X-842416Y-1869186D01*
X-841552Y-1857400D01*
X-842416Y-1845564D01*
X-845058Y-1834032D01*
X-849376Y-1823008D01*
X-855319Y-1812747D01*
X-862685Y-1803501D01*
X-871372Y-1795424D01*
X-881126Y-1788769D01*
X-891794Y-1783638D01*
X-903122Y-1780133D01*
X-914806Y-1778355D01*
X-926693Y-1778355D01*
X-938377Y-1780133D01*
X-949706Y-1783638D01*
X-960374Y-1788769D01*
X-970127Y-1795424D01*
X-978814Y-1803501D01*
X-986180Y-1812747D01*
X-992124Y-1823008D01*
X-996442Y-1834032D01*
X-999083Y-1845564D01*
X-999947Y-1857400D01*
X-999083Y-1869186D01*
X-996442Y-1880717D01*
X-992124Y-1891741D01*
X-986180Y-1902002D01*
X-978814Y-1911248D01*
X-970127Y-1919325D01*
X-960374Y-1925980D01*
X-949706Y-1931111D01*
X-938377Y-1934616D01*
G37*
G36*
X448005Y-1905254D02*
G01*
X458571Y-1905254D01*
X468985Y-1903526D01*
X478993Y-1900072D01*
X488289Y-1895043D01*
X497027Y-1888236D01*
X501091Y-1886356D01*
X505510Y-1886356D01*
X509524Y-1888236D01*
X518312Y-1895043D01*
X527608Y-1900072D01*
X537565Y-1903526D01*
X548030Y-1905254D01*
X558546Y-1905254D01*
X569010Y-1903526D01*
X578967Y-1900072D01*
X588264Y-1895043D01*
X597052Y-1888236D01*
X601065Y-1886356D01*
X605485Y-1886356D01*
X609549Y-1888236D01*
X618286Y-1895043D01*
X627583Y-1900072D01*
X637590Y-1903526D01*
X648004Y-1905254D01*
X658571Y-1905254D01*
X668985Y-1903526D01*
X678992Y-1900072D01*
X688289Y-1895043D01*
X697026Y-1888236D01*
X701090Y-1886356D01*
X705510Y-1886356D01*
X709523Y-1888236D01*
X718312Y-1895043D01*
X727608Y-1900072D01*
X737565Y-1903526D01*
X748030Y-1905254D01*
X758545Y-1905254D01*
X769010Y-1903526D01*
X778967Y-1900072D01*
X788263Y-1895043D01*
X796594Y-1888591D01*
X803757Y-1880768D01*
X809548Y-1871929D01*
X813816Y-1862277D01*
X816406Y-1852015D01*
X817270Y-1841500D01*
X816406Y-1830984D01*
X813816Y-1820722D01*
X809548Y-1811070D01*
X803757Y-1802231D01*
X796594Y-1794408D01*
X788263Y-1787956D01*
X778967Y-1782927D01*
X769010Y-1779473D01*
X758545Y-1777746D01*
X748030Y-1777746D01*
X737565Y-1779473D01*
X727608Y-1782927D01*
X718312Y-1787956D01*
X709523Y-1794764D01*
X705510Y-1796643D01*
X701090Y-1796643D01*
X697026Y-1794764D01*
X688289Y-1787956D01*
X678992Y-1782927D01*
X668985Y-1779473D01*
X658571Y-1777746D01*
X648004Y-1777746D01*
X637590Y-1779473D01*
X627583Y-1782927D01*
X618286Y-1787956D01*
X609549Y-1794764D01*
X605485Y-1796643D01*
X601065Y-1796643D01*
X597052Y-1794764D01*
X588264Y-1787956D01*
X578967Y-1782927D01*
X569010Y-1779473D01*
X558546Y-1777746D01*
X548030Y-1777746D01*
X537565Y-1779473D01*
X527608Y-1782927D01*
X518312Y-1787956D01*
X509524Y-1794764D01*
X505510Y-1796643D01*
X501091Y-1796643D01*
X497027Y-1794764D01*
X488289Y-1787956D01*
X478993Y-1782927D01*
X468985Y-1779473D01*
X458571Y-1777746D01*
X448005Y-1777746D01*
X437591Y-1779473D01*
X427583Y-1782927D01*
X418287Y-1787956D01*
X409956Y-1794408D01*
X402793Y-1802231D01*
X397002Y-1811070D01*
X392785Y-1820722D01*
X390194Y-1830984D01*
X389331Y-1841500D01*
X390194Y-1852015D01*
X392785Y-1862277D01*
X397002Y-1871929D01*
X402793Y-1880768D01*
X409956Y-1888591D01*
X418287Y-1895043D01*
X427583Y-1900072D01*
X437591Y-1903526D01*
G37*
G36*
X-719632Y-1651254D02*
G01*
X-709117Y-1651254D01*
X-698652Y-1649526D01*
X-688695Y-1646072D01*
X-679399Y-1641043D01*
X-671068Y-1634591D01*
X-663905Y-1626768D01*
X-658114Y-1617929D01*
X-653846Y-1608277D01*
X-651256Y-1598015D01*
X-650392Y-1587500D01*
X-651256Y-1576984D01*
X-653846Y-1566722D01*
X-658114Y-1557070D01*
X-663905Y-1548231D01*
X-671068Y-1540408D01*
X-679399Y-1533956D01*
X-688695Y-1528927D01*
X-698652Y-1525473D01*
X-709117Y-1523746D01*
X-719632Y-1523746D01*
X-730097Y-1525473D01*
X-740054Y-1528927D01*
X-749350Y-1533956D01*
X-757682Y-1540408D01*
X-764844Y-1548231D01*
X-770636Y-1557070D01*
X-774903Y-1566722D01*
X-777494Y-1576984D01*
X-778357Y-1587500D01*
X-777494Y-1598015D01*
X-774903Y-1608277D01*
X-770636Y-1617929D01*
X-764844Y-1626768D01*
X-757682Y-1634591D01*
X-749350Y-1641043D01*
X-740054Y-1646072D01*
X-730097Y-1649526D01*
G37*
G36*
X-640283Y-1492504D02*
G01*
X-629716Y-1492504D01*
X-619302Y-1490776D01*
X-609295Y-1487322D01*
X-599998Y-1482293D01*
X-591667Y-1475841D01*
X-584504Y-1468018D01*
X-578713Y-1459179D01*
X-574497Y-1449527D01*
X-571906Y-1439265D01*
X-571042Y-1428750D01*
X-571906Y-1418234D01*
X-574497Y-1407972D01*
X-578713Y-1398320D01*
X-584504Y-1389481D01*
X-591667Y-1381658D01*
X-599998Y-1375206D01*
X-609295Y-1370177D01*
X-619302Y-1366723D01*
X-629716Y-1364996D01*
X-640283Y-1364996D01*
X-650697Y-1366723D01*
X-660704Y-1370177D01*
X-670001Y-1375206D01*
X-678332Y-1381658D01*
X-685495Y-1389481D01*
X-691286Y-1398320D01*
X-695502Y-1407972D01*
X-698093Y-1418234D01*
X-698957Y-1428750D01*
X-698093Y-1439265D01*
X-695502Y-1449527D01*
X-691286Y-1459179D01*
X-685495Y-1468018D01*
X-678332Y-1475841D01*
X-670001Y-1482293D01*
X-660704Y-1487322D01*
X-650697Y-1490776D01*
G37*
G36*
X-1005382Y-1468729D02*
G01*
X-994867Y-1468729D01*
X-984402Y-1466951D01*
X-974445Y-1463548D01*
X-965149Y-1458518D01*
X-956818Y-1452016D01*
X-949655Y-1444244D01*
X-943864Y-1435404D01*
X-939596Y-1425702D01*
X-937006Y-1415491D01*
X-936142Y-1404975D01*
X-937006Y-1394409D01*
X-939596Y-1384198D01*
X-943864Y-1374495D01*
X-949655Y-1365656D01*
X-954633Y-1360220D01*
X-956614Y-1357020D01*
X-957326Y-1353362D01*
X-956614Y-1349654D01*
X-954633Y-1346454D01*
X-949655Y-1341018D01*
X-943864Y-1332179D01*
X-939596Y-1322527D01*
X-937006Y-1312265D01*
X-936142Y-1301750D01*
X-937006Y-1291234D01*
X-939596Y-1280972D01*
X-943864Y-1271320D01*
X-949655Y-1262481D01*
X-956818Y-1254658D01*
X-965149Y-1248206D01*
X-974445Y-1243177D01*
X-984402Y-1239723D01*
X-994867Y-1237996D01*
X-1005382Y-1237996D01*
X-1015847Y-1239723D01*
X-1025804Y-1243177D01*
X-1035100Y-1248206D01*
X-1043432Y-1254658D01*
X-1050594Y-1262481D01*
X-1056386Y-1271320D01*
X-1060653Y-1280972D01*
X-1063244Y-1291234D01*
X-1064107Y-1301750D01*
X-1063244Y-1312265D01*
X-1060653Y-1322527D01*
X-1056386Y-1332179D01*
X-1050594Y-1341018D01*
X-1045616Y-1346454D01*
X-1043635Y-1349654D01*
X-1042924Y-1353362D01*
X-1043635Y-1357020D01*
X-1045616Y-1360220D01*
X-1050594Y-1365656D01*
X-1056386Y-1374495D01*
X-1060653Y-1384198D01*
X-1063244Y-1394409D01*
X-1064107Y-1404975D01*
X-1063244Y-1415491D01*
X-1060653Y-1425702D01*
X-1056386Y-1435404D01*
X-1050594Y-1444244D01*
X-1043432Y-1452016D01*
X-1035100Y-1458518D01*
X-1025804Y-1463548D01*
X-1015847Y-1466951D01*
G37*
G36*
X1039825Y-1468577D02*
G01*
X1051001Y-1467713D01*
X1061974Y-1465072D01*
X1072337Y-1460804D01*
X1081887Y-1454912D01*
X1090472Y-1447647D01*
X1097737Y-1439062D01*
X1103630Y-1429512D01*
X1107897Y-1419148D01*
X1110538Y-1408176D01*
X1111402Y-1397000D01*
X1110538Y-1385824D01*
X1107897Y-1374851D01*
X1103630Y-1364488D01*
X1097737Y-1354937D01*
X1090472Y-1346352D01*
X1086561Y-1343050D01*
X1083919Y-1339545D01*
X1083005Y-1335278D01*
X1083919Y-1331010D01*
X1086612Y-1327556D01*
X1090472Y-1325524D01*
X1094841Y-1325270D01*
X1098042Y-1325829D01*
X1108608Y-1325829D01*
X1119022Y-1324102D01*
X1129030Y-1320647D01*
X1138326Y-1315618D01*
X1146657Y-1309166D01*
X1153820Y-1301343D01*
X1159611Y-1292504D01*
X1163828Y-1282852D01*
X1166418Y-1272590D01*
X1167282Y-1262075D01*
X1166418Y-1251559D01*
X1163828Y-1241298D01*
X1159611Y-1231646D01*
X1153820Y-1222806D01*
X1146657Y-1214983D01*
X1138326Y-1208532D01*
X1129030Y-1203502D01*
X1119022Y-1200048D01*
X1108608Y-1198321D01*
X1098042Y-1198321D01*
X1087628Y-1200048D01*
X1077620Y-1203502D01*
X1068324Y-1208532D01*
X1059992Y-1214983D01*
X1052830Y-1222806D01*
X1048308Y-1229664D01*
X1045514Y-1232560D01*
X1041806Y-1234084D01*
X1037844Y-1234084D01*
X1034135Y-1232560D01*
X1031341Y-1229664D01*
X1026820Y-1222806D01*
X1019657Y-1214983D01*
X1011326Y-1208532D01*
X1002030Y-1203502D01*
X992022Y-1200048D01*
X981608Y-1198321D01*
X971042Y-1198321D01*
X960628Y-1200048D01*
X950620Y-1203502D01*
X941324Y-1208532D01*
X932992Y-1214983D01*
X925830Y-1222806D01*
X920038Y-1231646D01*
X915822Y-1241298D01*
X913231Y-1251559D01*
X912368Y-1262075D01*
X913231Y-1272590D01*
X915822Y-1282852D01*
X920038Y-1292504D01*
X925830Y-1301343D01*
X932992Y-1309166D01*
X941324Y-1315618D01*
X950620Y-1320647D01*
X960628Y-1324102D01*
X971042Y-1325829D01*
X981608Y-1325829D01*
X984808Y-1325270D01*
X989177Y-1325524D01*
X993038Y-1327556D01*
X995730Y-1331010D01*
X996645Y-1335278D01*
X995730Y-1339545D01*
X993089Y-1343050D01*
X989177Y-1346352D01*
X981913Y-1354937D01*
X976020Y-1364488D01*
X971753Y-1374851D01*
X969111Y-1385824D01*
X968248Y-1397000D01*
X969111Y-1408176D01*
X971753Y-1419148D01*
X976020Y-1429512D01*
X981913Y-1439062D01*
X989177Y-1447647D01*
X997762Y-1454912D01*
X1007313Y-1460804D01*
X1017676Y-1465072D01*
X1028649Y-1467713D01*
G37*
G36*
X-218694Y-1380744D02*
G01*
X-206806Y-1380744D01*
X-195122Y-1378966D01*
X-183794Y-1375511D01*
X-173126Y-1370380D01*
X-163372Y-1363675D01*
X-154686Y-1355648D01*
X-147320Y-1346352D01*
X-141376Y-1336141D01*
X-137058Y-1325118D01*
X-134416Y-1313535D01*
X-133553Y-1301750D01*
X-134416Y-1289964D01*
X-137058Y-1278382D01*
X-141376Y-1267358D01*
X-147320Y-1257147D01*
X-154686Y-1247851D01*
X-163372Y-1239824D01*
X-173126Y-1233119D01*
X-183794Y-1227988D01*
X-195122Y-1224534D01*
X-206806Y-1222756D01*
X-218694Y-1222756D01*
X-230378Y-1224534D01*
X-241706Y-1227988D01*
X-252374Y-1233119D01*
X-262128Y-1239824D01*
X-270814Y-1247851D01*
X-278180Y-1257147D01*
X-284124Y-1267358D01*
X-288442Y-1278382D01*
X-291084Y-1289964D01*
X-291947Y-1301750D01*
X-291084Y-1313535D01*
X-288442Y-1325118D01*
X-284124Y-1336141D01*
X-278180Y-1346352D01*
X-270814Y-1355648D01*
X-262128Y-1363675D01*
X-252374Y-1370380D01*
X-241706Y-1375511D01*
X-230378Y-1378966D01*
G37*
G36*
X514502Y-1325727D02*
G01*
X525678Y-1324864D01*
X536651Y-1322222D01*
X547014Y-1317904D01*
X556564Y-1312062D01*
X565150Y-1304747D01*
X572414Y-1296212D01*
X578307Y-1286611D01*
X582574Y-1276248D01*
X585216Y-1265326D01*
X586079Y-1254150D01*
X585216Y-1242923D01*
X582574Y-1232001D01*
X578307Y-1221638D01*
X572414Y-1212037D01*
X565150Y-1203502D01*
X556564Y-1196187D01*
X547014Y-1190345D01*
X536651Y-1186027D01*
X525678Y-1183386D01*
X514502Y-1182522D01*
X503326Y-1183386D01*
X492353Y-1186027D01*
X481990Y-1190345D01*
X472440Y-1196187D01*
X463854Y-1203502D01*
X456590Y-1212037D01*
X450697Y-1221638D01*
X446430Y-1232001D01*
X443788Y-1242923D01*
X442925Y-1254150D01*
X443788Y-1265326D01*
X446430Y-1276248D01*
X450697Y-1286611D01*
X456590Y-1296212D01*
X463854Y-1304747D01*
X472440Y-1312062D01*
X481990Y-1317904D01*
X492353Y-1322222D01*
X503326Y-1324864D01*
G37*
G36*
X-1256792Y-1177696D02*
G01*
X-1246124Y-1177290D01*
X-1235608Y-1175156D01*
X-1225600Y-1171346D01*
X-1216355Y-1166012D01*
X-1208024Y-1159205D01*
X-1200962Y-1151229D01*
X-1195222Y-1142136D01*
X-1191056Y-1132332D01*
X-1188466Y-1121918D01*
X-1187602Y-1111250D01*
X-1188466Y-1100582D01*
X-1191056Y-1090168D01*
X-1195222Y-1080363D01*
X-1200962Y-1071270D01*
X-1208024Y-1063294D01*
X-1216355Y-1056487D01*
X-1225600Y-1051153D01*
X-1235608Y-1047343D01*
X-1246124Y-1045210D01*
X-1256792Y-1044803D01*
X-1267409Y-1046073D01*
X-1277721Y-1049070D01*
X-1287373Y-1053642D01*
X-1296212Y-1059738D01*
X-1303934Y-1067155D01*
X-1310335Y-1075690D01*
X-1315313Y-1085189D01*
X-1318717Y-1095349D01*
X-1320444Y-1105916D01*
X-1320444Y-1116584D01*
X-1318717Y-1127150D01*
X-1315313Y-1137310D01*
X-1310335Y-1146810D01*
X-1303934Y-1155344D01*
X-1296212Y-1162761D01*
X-1287373Y-1168857D01*
X-1277721Y-1173429D01*
X-1267409Y-1176426D01*
G37*
G36*
X439216Y-1095654D02*
G01*
X449783Y-1095654D01*
X460197Y-1093876D01*
X470204Y-1090472D01*
X479501Y-1085443D01*
X487832Y-1078941D01*
X494995Y-1071168D01*
X500786Y-1062329D01*
X505002Y-1052626D01*
X507593Y-1042416D01*
X508457Y-1031900D01*
X507593Y-1021334D01*
X505002Y-1011123D01*
X500786Y-1001420D01*
X494995Y-992581D01*
X487832Y-984808D01*
X479501Y-978306D01*
X470204Y-973277D01*
X460197Y-969873D01*
X449783Y-968095D01*
X439216Y-968095D01*
X428802Y-969873D01*
X418795Y-973277D01*
X409498Y-978306D01*
X401167Y-984808D01*
X394004Y-992581D01*
X388213Y-1001420D01*
X383997Y-1011123D01*
X381406Y-1021334D01*
X380542Y-1031900D01*
X381406Y-1042416D01*
X383997Y-1052626D01*
X388213Y-1062329D01*
X394004Y-1071168D01*
X401167Y-1078941D01*
X409498Y-1085443D01*
X418795Y-1090472D01*
X428802Y-1093876D01*
G37*
G36*
X-325424Y-1095552D02*
G01*
X-314248Y-1094689D01*
X-303276Y-1092047D01*
X-292912Y-1087729D01*
X-283362Y-1081887D01*
X-274777Y-1074572D01*
X-267512Y-1066038D01*
X-261620Y-1056436D01*
X-257352Y-1046073D01*
X-254711Y-1035151D01*
X-253847Y-1023975D01*
X-254711Y-1012748D01*
X-257352Y-1001826D01*
X-261620Y-991463D01*
X-267512Y-981862D01*
X-274777Y-973328D01*
X-283362Y-966012D01*
X-292912Y-960170D01*
X-303276Y-955852D01*
X-314248Y-953211D01*
X-325424Y-952347D01*
X-336600Y-953211D01*
X-347573Y-955852D01*
X-357936Y-960170D01*
X-367487Y-966012D01*
X-376072Y-973328D01*
X-383336Y-981862D01*
X-389229Y-991463D01*
X-393496Y-1001826D01*
X-396138Y-1012748D01*
X-397002Y-1023975D01*
X-396138Y-1035151D01*
X-393496Y-1046073D01*
X-389229Y-1056436D01*
X-383336Y-1066038D01*
X-376072Y-1074572D01*
X-367487Y-1081887D01*
X-357936Y-1087729D01*
X-347573Y-1092047D01*
X-336600Y-1094689D01*
G37*
G36*
X1428750Y-1079652D02*
G01*
X1439926Y-1078788D01*
X1450898Y-1076147D01*
X1461262Y-1071880D01*
X1470812Y-1065987D01*
X1479397Y-1058722D01*
X1486662Y-1050137D01*
X1492554Y-1040587D01*
X1496822Y-1030224D01*
X1499463Y-1019251D01*
X1500327Y-1008075D01*
X1499463Y-996899D01*
X1497838Y-990193D01*
X1497787Y-985774D01*
X1499565Y-981760D01*
X1502918Y-978865D01*
X1511350Y-974293D01*
X1515668Y-970940D01*
X1519123Y-969213D01*
X1522933Y-968857D01*
X1526641Y-969975D01*
X1529638Y-972362D01*
X1536852Y-980846D01*
X1545437Y-988161D01*
X1554988Y-994003D01*
X1565351Y-998321D01*
X1576324Y-1000963D01*
X1587500Y-1001826D01*
X1598676Y-1000963D01*
X1609648Y-998321D01*
X1620012Y-994003D01*
X1629562Y-988161D01*
X1638147Y-980846D01*
X1645412Y-972312D01*
X1651304Y-962710D01*
X1655572Y-952347D01*
X1658213Y-941425D01*
X1659077Y-930249D01*
X1658213Y-919022D01*
X1655572Y-908100D01*
X1651304Y-897737D01*
X1645412Y-888136D01*
X1638147Y-879602D01*
X1629562Y-872286D01*
X1620012Y-866444D01*
X1609648Y-862126D01*
X1598676Y-859485D01*
X1587500Y-858621D01*
X1576324Y-859485D01*
X1565351Y-862126D01*
X1554988Y-866444D01*
X1545437Y-872286D01*
X1537766Y-878840D01*
X1534363Y-880770D01*
X1530553Y-881278D01*
X1526794Y-880313D01*
X1523695Y-878027D01*
X1519682Y-873658D01*
X1511350Y-867206D01*
X1502054Y-862177D01*
X1492097Y-858723D01*
X1481632Y-856996D01*
X1471117Y-856996D01*
X1460652Y-858723D01*
X1450695Y-862177D01*
X1441399Y-867206D01*
X1433068Y-873658D01*
X1425905Y-881481D01*
X1420114Y-890320D01*
X1415846Y-899972D01*
X1413256Y-910234D01*
X1412392Y-920750D01*
X1413154Y-929640D01*
X1412595Y-933856D01*
X1410411Y-937463D01*
X1406906Y-939850D01*
X1396238Y-944270D01*
X1386687Y-950163D01*
X1378102Y-957427D01*
X1370838Y-966012D01*
X1364945Y-975563D01*
X1360678Y-985926D01*
X1358036Y-996899D01*
X1357172Y-1008075D01*
X1358036Y-1019251D01*
X1360678Y-1030224D01*
X1364945Y-1040587D01*
X1370838Y-1050137D01*
X1378102Y-1058722D01*
X1386687Y-1065987D01*
X1396238Y-1071880D01*
X1406601Y-1076147D01*
X1417574Y-1078788D01*
G37*
G36*
X-218694Y-904494D02*
G01*
X-206806Y-904494D01*
X-195122Y-902716D01*
X-183794Y-899261D01*
X-173126Y-894130D01*
X-163372Y-887425D01*
X-154686Y-879398D01*
X-147320Y-870102D01*
X-141376Y-859891D01*
X-137058Y-848868D01*
X-134416Y-837285D01*
X-133553Y-825500D01*
X-134416Y-813714D01*
X-137058Y-802132D01*
X-141376Y-791108D01*
X-147320Y-780897D01*
X-154686Y-771601D01*
X-163372Y-763574D01*
X-173126Y-756869D01*
X-183794Y-751738D01*
X-195122Y-748284D01*
X-206806Y-746506D01*
X-218694Y-746506D01*
X-230378Y-748284D01*
X-241706Y-751738D01*
X-252374Y-756869D01*
X-262128Y-763574D01*
X-270814Y-771601D01*
X-278180Y-780897D01*
X-284124Y-791108D01*
X-288442Y-802132D01*
X-291084Y-813714D01*
X-291947Y-825500D01*
X-291084Y-837285D01*
X-288442Y-848868D01*
X-284124Y-859891D01*
X-278180Y-870102D01*
X-270814Y-879398D01*
X-262128Y-887425D01*
X-252374Y-894130D01*
X-241706Y-899261D01*
X-230378Y-902716D01*
G37*
G36*
X-1240942Y-828446D02*
G01*
X-1230223Y-828040D01*
X-1219758Y-825906D01*
X-1209751Y-822096D01*
X-1200454Y-816762D01*
X-1192174Y-809955D01*
X-1185062Y-801979D01*
X-1179372Y-792886D01*
X-1175156Y-783082D01*
X-1172616Y-772668D01*
X-1171752Y-762000D01*
X-1172616Y-751332D01*
X-1175156Y-740918D01*
X-1179372Y-731113D01*
X-1185062Y-722020D01*
X-1192174Y-714044D01*
X-1200454Y-707237D01*
X-1209751Y-701903D01*
X-1219758Y-698093D01*
X-1230223Y-695960D01*
X-1240942Y-695553D01*
X-1251559Y-696823D01*
X-1261821Y-699820D01*
X-1271524Y-704392D01*
X-1280312Y-710488D01*
X-1288034Y-717905D01*
X-1294485Y-726440D01*
X-1299464Y-735939D01*
X-1302816Y-746099D01*
X-1304544Y-756666D01*
X-1304544Y-767334D01*
X-1302816Y-777900D01*
X-1299464Y-788060D01*
X-1294485Y-797560D01*
X-1288034Y-806094D01*
X-1280312Y-813511D01*
X-1271524Y-819607D01*
X-1261821Y-824179D01*
X-1251559Y-827176D01*
G37*
G36*
X510692Y-825753D02*
G01*
X521208Y-825753D01*
X531672Y-824026D01*
X541629Y-820572D01*
X550926Y-815543D01*
X559257Y-809091D01*
X566420Y-801268D01*
X572211Y-792429D01*
X576478Y-782777D01*
X579069Y-772515D01*
X579932Y-762000D01*
X579069Y-751484D01*
X576478Y-741222D01*
X572211Y-731570D01*
X566420Y-722731D01*
X560781Y-716534D01*
X558546Y-712724D01*
X558190Y-708304D01*
X559765Y-704138D01*
X564286Y-697179D01*
X568502Y-687527D01*
X571093Y-677265D01*
X571957Y-666750D01*
X571093Y-656234D01*
X568502Y-645972D01*
X564286Y-636320D01*
X558495Y-627481D01*
X551078Y-619404D01*
X548944Y-615848D01*
X548436Y-611682D01*
X549605Y-607669D01*
X552297Y-604520D01*
X556056Y-602691D01*
X560222Y-602488D01*
X566216Y-603504D01*
X576783Y-603504D01*
X587197Y-601776D01*
X597204Y-598322D01*
X604316Y-594512D01*
X608126Y-593344D01*
X612089Y-593699D01*
X615645Y-595630D01*
X618134Y-598728D01*
X619252Y-602589D01*
X619506Y-605840D01*
X622096Y-616102D01*
X626364Y-625754D01*
X632155Y-634593D01*
X639318Y-642416D01*
X647649Y-648868D01*
X656945Y-653897D01*
X666902Y-657352D01*
X677367Y-659079D01*
X687882Y-659079D01*
X698347Y-657352D01*
X708304Y-653897D01*
X717600Y-648868D01*
X725932Y-642416D01*
X733094Y-634593D01*
X738886Y-625754D01*
X743153Y-616102D01*
X745744Y-605840D01*
X746607Y-595325D01*
X745744Y-584809D01*
X743458Y-575919D01*
X743204Y-572617D01*
X744016Y-569366D01*
X745845Y-566572D01*
X748995Y-563168D01*
X754786Y-554329D01*
X759002Y-544626D01*
X761593Y-534416D01*
X762457Y-523900D01*
X761593Y-513334D01*
X759002Y-503123D01*
X754786Y-493420D01*
X748995Y-484581D01*
X741832Y-476808D01*
X733501Y-470306D01*
X724204Y-465277D01*
X721258Y-464261D01*
X717905Y-462330D01*
X715518Y-459282D01*
X714451Y-455523D01*
X713994Y-449834D01*
X711403Y-439623D01*
X707136Y-429920D01*
X701344Y-421081D01*
X694182Y-413308D01*
X685850Y-406806D01*
X676554Y-401777D01*
X666597Y-398373D01*
X656132Y-396595D01*
X645617Y-396595D01*
X635152Y-398373D01*
X625195Y-401777D01*
X615899Y-406806D01*
X607568Y-413308D01*
X600405Y-421081D01*
X594614Y-429920D01*
X590346Y-439623D01*
X587756Y-449834D01*
X586892Y-460400D01*
X587298Y-464972D01*
X586790Y-469138D01*
X584657Y-472693D01*
X581253Y-475132D01*
X577138Y-475996D01*
X566216Y-475996D01*
X555802Y-477723D01*
X545795Y-481177D01*
X536498Y-486206D01*
X528167Y-492658D01*
X521004Y-500481D01*
X515213Y-509320D01*
X510997Y-518972D01*
X508406Y-529234D01*
X507542Y-539750D01*
X508406Y-550265D01*
X510997Y-560527D01*
X515213Y-570179D01*
X521004Y-579018D01*
X528421Y-587095D01*
X530555Y-590651D01*
X531063Y-594817D01*
X529894Y-598830D01*
X527202Y-601980D01*
X523443Y-603808D01*
X519277Y-604012D01*
X513283Y-602996D01*
X502716Y-602996D01*
X492302Y-604723D01*
X482295Y-608177D01*
X472998Y-613206D01*
X464667Y-619658D01*
X457504Y-627481D01*
X451713Y-636320D01*
X447497Y-645972D01*
X444906Y-656234D01*
X444042Y-666750D01*
X444906Y-677265D01*
X447497Y-687527D01*
X451713Y-697179D01*
X457504Y-706018D01*
X463194Y-712216D01*
X465378Y-716026D01*
X465785Y-720445D01*
X464210Y-724611D01*
X459689Y-731570D01*
X455422Y-741222D01*
X452831Y-751484D01*
X451967Y-762000D01*
X452831Y-772515D01*
X455422Y-782777D01*
X459689Y-792429D01*
X465480Y-801268D01*
X472643Y-809091D01*
X480974Y-815543D01*
X490270Y-820572D01*
X500227Y-824026D01*
G37*
G36*
X-515416Y-780846D02*
G01*
X-504748Y-780389D01*
X-494233Y-778256D01*
X-484225Y-774446D01*
X-474980Y-769112D01*
X-466648Y-762355D01*
X-459587Y-754329D01*
X-453847Y-745286D01*
X-449681Y-735431D01*
X-447090Y-725068D01*
X-446227Y-714400D01*
X-447090Y-703681D01*
X-449681Y-693318D01*
X-453847Y-683463D01*
X-459587Y-674420D01*
X-466648Y-666394D01*
X-474980Y-659638D01*
X-484225Y-654304D01*
X-494233Y-650494D01*
X-504748Y-648360D01*
X-515416Y-647903D01*
X-526034Y-649224D01*
X-536346Y-652170D01*
X-545998Y-656793D01*
X-554837Y-662838D01*
X-562559Y-670255D01*
X-568960Y-678840D01*
X-573938Y-688289D01*
X-577342Y-698449D01*
X-579069Y-709015D01*
X-579069Y-719734D01*
X-577342Y-730300D01*
X-573938Y-740460D01*
X-568960Y-749909D01*
X-562559Y-758494D01*
X-554837Y-765911D01*
X-545998Y-771956D01*
X-536346Y-776579D01*
X-526034Y-779526D01*
G37*
G36*
X-322783Y-682904D02*
G01*
X-312216Y-682904D01*
X-301802Y-681126D01*
X-291795Y-677722D01*
X-282498Y-672693D01*
X-274167Y-666191D01*
X-267004Y-658418D01*
X-261213Y-649579D01*
X-256997Y-639876D01*
X-254406Y-629666D01*
X-253542Y-619150D01*
X-254406Y-608584D01*
X-256997Y-598373D01*
X-261213Y-588670D01*
X-267004Y-579831D01*
X-274167Y-572058D01*
X-282498Y-565556D01*
X-291795Y-560527D01*
X-301802Y-557123D01*
X-312216Y-555345D01*
X-322783Y-555345D01*
X-333197Y-557123D01*
X-343204Y-560527D01*
X-352501Y-565556D01*
X-360832Y-572058D01*
X-367995Y-579831D01*
X-373786Y-588670D01*
X-378002Y-598373D01*
X-380593Y-608584D01*
X-381457Y-619150D01*
X-380593Y-629666D01*
X-378002Y-639876D01*
X-373786Y-649579D01*
X-367995Y-658418D01*
X-360832Y-666191D01*
X-352501Y-672693D01*
X-343204Y-677722D01*
X-333197Y-681126D01*
G37*
G36*
X-715416Y-653846D02*
G01*
X-704748Y-653389D01*
X-694232Y-651256D01*
X-684225Y-647446D01*
X-674979Y-642112D01*
X-666648Y-635355D01*
X-659587Y-627329D01*
X-653846Y-618286D01*
X-649681Y-608431D01*
X-647090Y-598068D01*
X-646226Y-587400D01*
X-647090Y-576681D01*
X-649681Y-566318D01*
X-653846Y-556463D01*
X-659587Y-547420D01*
X-666648Y-539394D01*
X-674979Y-532638D01*
X-684225Y-527304D01*
X-694232Y-523493D01*
X-704748Y-521360D01*
X-715416Y-520903D01*
X-726033Y-522224D01*
X-736346Y-525170D01*
X-745998Y-529793D01*
X-754837Y-535838D01*
X-762558Y-543255D01*
X-768959Y-551840D01*
X-773938Y-561289D01*
X-777341Y-571449D01*
X-779068Y-582015D01*
X-779068Y-592734D01*
X-777341Y-603300D01*
X-773938Y-613460D01*
X-768959Y-622909D01*
X-762558Y-631494D01*
X-754837Y-638911D01*
X-745998Y-644956D01*
X-736346Y-649579D01*
X-726033Y-652526D01*
G37*
G36*
X1539900Y-643077D02*
G01*
X1551076Y-642213D01*
X1561998Y-639572D01*
X1572361Y-635304D01*
X1581962Y-629412D01*
X1590497Y-622147D01*
X1597812Y-613562D01*
X1603654Y-604012D01*
X1607972Y-593648D01*
X1610614Y-582676D01*
X1611477Y-571500D01*
X1610614Y-560324D01*
X1607972Y-549351D01*
X1603654Y-538988D01*
X1597812Y-529437D01*
X1590497Y-520852D01*
X1581962Y-513588D01*
X1572361Y-507695D01*
X1561998Y-503428D01*
X1551076Y-500786D01*
X1539900Y-499922D01*
X1524711Y-501040D01*
X1521206Y-499872D01*
X1518310Y-497585D01*
X1511147Y-489102D01*
X1502562Y-481838D01*
X1493012Y-475945D01*
X1482648Y-471678D01*
X1471676Y-469036D01*
X1460500Y-468172D01*
X1449324Y-469036D01*
X1438351Y-471678D01*
X1427988Y-475945D01*
X1418437Y-481838D01*
X1409852Y-489102D01*
X1402588Y-497687D01*
X1396695Y-507238D01*
X1392428Y-517601D01*
X1389786Y-528574D01*
X1388922Y-539750D01*
X1389786Y-550926D01*
X1392428Y-561898D01*
X1396695Y-572262D01*
X1402588Y-581812D01*
X1409852Y-590397D01*
X1418437Y-597662D01*
X1427988Y-603554D01*
X1438351Y-607822D01*
X1449324Y-610463D01*
X1460500Y-611327D01*
X1475638Y-610209D01*
X1479143Y-611378D01*
X1482039Y-613664D01*
X1489252Y-622147D01*
X1497787Y-629412D01*
X1507388Y-635304D01*
X1517751Y-639572D01*
X1528673Y-642213D01*
G37*
G36*
X994867Y-595579D02*
G01*
X1005382Y-595579D01*
X1015847Y-593852D01*
X1025804Y-590397D01*
X1035100Y-585368D01*
X1043432Y-578916D01*
X1050594Y-571093D01*
X1056386Y-562254D01*
X1060399Y-553161D01*
X1062786Y-549808D01*
X1066342Y-547674D01*
X1070457Y-547116D01*
X1079500Y-547827D01*
X1090676Y-546963D01*
X1101648Y-544322D01*
X1112012Y-540054D01*
X1121562Y-534162D01*
X1130147Y-526897D01*
X1137412Y-518312D01*
X1143304Y-508762D01*
X1147572Y-498398D01*
X1149553Y-490270D01*
X1151026Y-486918D01*
X1153668Y-484276D01*
X1157020Y-482803D01*
X1165148Y-480822D01*
X1175512Y-476554D01*
X1185062Y-470662D01*
X1193647Y-463397D01*
X1200912Y-454812D01*
X1206804Y-445262D01*
X1211072Y-434898D01*
X1213713Y-423926D01*
X1214577Y-412750D01*
X1213713Y-401574D01*
X1211072Y-390601D01*
X1206804Y-380238D01*
X1200912Y-370687D01*
X1193647Y-362102D01*
X1185062Y-354838D01*
X1175512Y-348945D01*
X1165148Y-344678D01*
X1154176Y-342036D01*
X1143000Y-341172D01*
X1131824Y-342036D01*
X1120851Y-344678D01*
X1110488Y-348945D01*
X1100937Y-354838D01*
X1092352Y-362102D01*
X1085088Y-370687D01*
X1079195Y-380238D01*
X1074928Y-390601D01*
X1072946Y-398729D01*
X1071473Y-402082D01*
X1068832Y-404723D01*
X1065479Y-406196D01*
X1057351Y-408178D01*
X1046987Y-412445D01*
X1037437Y-418338D01*
X1028852Y-425602D01*
X1021587Y-434187D01*
X1015695Y-443738D01*
X1011428Y-454101D01*
X1009954Y-460298D01*
X1007922Y-464312D01*
X1004417Y-467106D01*
X1000048Y-468071D01*
X994867Y-468071D01*
X984402Y-469798D01*
X974445Y-473252D01*
X965149Y-478282D01*
X956818Y-484733D01*
X949655Y-492556D01*
X943864Y-501396D01*
X939596Y-511048D01*
X937006Y-521309D01*
X936142Y-531825D01*
X937006Y-542340D01*
X939596Y-552602D01*
X943864Y-562254D01*
X949655Y-571093D01*
X956818Y-578916D01*
X965149Y-585368D01*
X974445Y-590397D01*
X984402Y-593852D01*
G37*
G36*
X248716Y-587654D02*
G01*
X259283Y-587654D01*
X269697Y-585876D01*
X279704Y-582472D01*
X289001Y-577443D01*
X297332Y-570941D01*
X304495Y-563168D01*
X310286Y-554329D01*
X314502Y-544626D01*
X317093Y-534416D01*
X317957Y-523900D01*
X317093Y-513334D01*
X314502Y-503123D01*
X310286Y-493420D01*
X304495Y-484581D01*
X297332Y-476808D01*
X289001Y-470306D01*
X279704Y-465277D01*
X269697Y-461873D01*
X259283Y-460095D01*
X248716Y-460095D01*
X238302Y-461873D01*
X228295Y-465277D01*
X218998Y-470306D01*
X210667Y-476808D01*
X203504Y-484581D01*
X197713Y-493420D01*
X193497Y-503123D01*
X190906Y-513334D01*
X190042Y-523900D01*
X190906Y-534416D01*
X193497Y-544626D01*
X197713Y-554329D01*
X203504Y-563168D01*
X210667Y-570941D01*
X218998Y-577443D01*
X228295Y-582472D01*
X238302Y-585876D01*
G37*
G36*
X-306882Y-508254D02*
G01*
X-296367Y-508254D01*
X-285902Y-506526D01*
X-275945Y-503072D01*
X-266649Y-498043D01*
X-258317Y-491591D01*
X-251155Y-483768D01*
X-245364Y-474929D01*
X-241096Y-465277D01*
X-238506Y-455015D01*
X-237642Y-444500D01*
X-238506Y-433984D01*
X-241096Y-423722D01*
X-245364Y-414070D01*
X-251155Y-405231D01*
X-258317Y-397408D01*
X-266649Y-390956D01*
X-275945Y-385927D01*
X-285902Y-382473D01*
X-296367Y-380746D01*
X-306882Y-380746D01*
X-317347Y-382473D01*
X-327304Y-385927D01*
X-336600Y-390956D01*
X-344932Y-397408D01*
X-352094Y-405231D01*
X-357886Y-414070D01*
X-362153Y-423722D01*
X-364744Y-433984D01*
X-365607Y-444500D01*
X-364744Y-455015D01*
X-362153Y-465277D01*
X-357886Y-474929D01*
X-352094Y-483768D01*
X-344932Y-491591D01*
X-336600Y-498043D01*
X-327304Y-503072D01*
X-317347Y-506526D01*
G37*
G36*
X-809498Y-429158D02*
G01*
X-765759Y-429158D01*
X-754075Y-428751D01*
X-743762Y-426567D01*
X-733907Y-422706D01*
X-724814Y-417322D01*
X-716432Y-410209D01*
X-685190Y-378968D01*
X-679602Y-372668D01*
X-673862Y-363778D01*
X-672846Y-361797D01*
X-669645Y-354076D01*
X-668985Y-351942D01*
X-666750Y-341630D01*
X-666242Y-333197D01*
X-666242Y-317703D01*
X-666445Y-312216D01*
X-667105Y-306984D01*
X-668223Y-301802D01*
X-669696Y-296722D01*
X-671626Y-291795D01*
X-673963Y-287020D01*
X-676656Y-282498D01*
X-679754Y-278180D01*
X-683158Y-274167D01*
X-686917Y-270408D01*
X-690930Y-267004D01*
X-695248Y-263906D01*
X-699770Y-261213D01*
X-704545Y-258876D01*
X-709472Y-256946D01*
X-714552Y-255473D01*
X-719734Y-254355D01*
X-724966Y-253695D01*
X-730453Y-253492D01*
X-777646Y-253492D01*
X-783183Y-253695D01*
X-788416Y-254355D01*
X-793597Y-255473D01*
X-798677Y-256946D01*
X-803605Y-258876D01*
X-808329Y-261213D01*
X-812901Y-263906D01*
X-817067Y-266903D01*
X-823214Y-272440D01*
X-854557Y-303784D01*
X-860145Y-310083D01*
X-865886Y-318973D01*
X-866902Y-320954D01*
X-870102Y-328676D01*
X-870762Y-330809D01*
X-872998Y-341122D01*
X-873506Y-349554D01*
X-873404Y-370535D01*
X-872744Y-375666D01*
X-871677Y-380847D01*
X-870153Y-385927D01*
X-868222Y-390855D01*
X-865886Y-395579D01*
X-863193Y-400151D01*
X-860145Y-404418D01*
X-856691Y-408482D01*
X-852982Y-412191D01*
X-848918Y-415645D01*
X-844499Y-418795D01*
X-840079Y-421436D01*
X-835202Y-423875D01*
X-830376Y-425653D01*
X-825347Y-427228D01*
X-814679Y-429006D01*
G37*
G36*
X-449783Y-413004D02*
G01*
X-439216Y-413004D01*
X-428802Y-411276D01*
X-418795Y-407822D01*
X-409498Y-402793D01*
X-401167Y-396341D01*
X-394004Y-388518D01*
X-388213Y-379679D01*
X-383997Y-370027D01*
X-381406Y-359765D01*
X-380542Y-349250D01*
X-381406Y-338734D01*
X-383997Y-328472D01*
X-388213Y-318820D01*
X-394004Y-309981D01*
X-401167Y-302158D01*
X-409498Y-295706D01*
X-418795Y-290677D01*
X-428802Y-287223D01*
X-439216Y-285496D01*
X-449783Y-285496D01*
X-460197Y-287223D01*
X-470204Y-290677D01*
X-479501Y-295706D01*
X-487832Y-302158D01*
X-494995Y-309981D01*
X-500786Y-318820D01*
X-505002Y-328472D01*
X-507593Y-338734D01*
X-508457Y-349250D01*
X-507593Y-359765D01*
X-505002Y-370027D01*
X-500786Y-379679D01*
X-494995Y-388518D01*
X-487832Y-396341D01*
X-479501Y-402793D01*
X-470204Y-407822D01*
X-460197Y-411276D01*
G37*
G36*
X828192Y-389229D02*
G01*
X838708Y-389229D01*
X849172Y-387451D01*
X859129Y-384048D01*
X868426Y-379018D01*
X876757Y-372516D01*
X883919Y-364744D01*
X889711Y-355904D01*
X893978Y-346202D01*
X896569Y-335991D01*
X897432Y-325475D01*
X896569Y-314909D01*
X893978Y-304698D01*
X889711Y-294995D01*
X883919Y-286156D01*
X876757Y-278384D01*
X868426Y-271881D01*
X859129Y-266852D01*
X849172Y-263448D01*
X838708Y-261670D01*
X828192Y-261670D01*
X825195Y-262178D01*
X820775Y-261924D01*
X816864Y-259842D01*
X814222Y-256235D01*
X810361Y-247396D01*
X804570Y-238556D01*
X797407Y-230733D01*
X789076Y-224282D01*
X779780Y-219252D01*
X769772Y-215798D01*
X759358Y-214071D01*
X748792Y-214071D01*
X738378Y-215798D01*
X728370Y-219252D01*
X719074Y-224282D01*
X710742Y-230733D01*
X703580Y-238556D01*
X697788Y-247396D01*
X693572Y-257048D01*
X690981Y-267309D01*
X690118Y-277825D01*
X690981Y-288340D01*
X693572Y-298602D01*
X697788Y-308254D01*
X703580Y-317093D01*
X710742Y-324916D01*
X719074Y-331368D01*
X728370Y-336397D01*
X738378Y-339852D01*
X748792Y-341579D01*
X759358Y-341579D01*
X762304Y-341071D01*
X766775Y-341325D01*
X770686Y-343458D01*
X773277Y-347014D01*
X777189Y-355904D01*
X782980Y-364744D01*
X790143Y-372516D01*
X798474Y-379018D01*
X807770Y-384048D01*
X817727Y-387451D01*
G37*
G36*
X1661617Y-349504D02*
G01*
X1672132Y-349504D01*
X1682597Y-347776D01*
X1692554Y-344322D01*
X1701850Y-339293D01*
X1710182Y-332841D01*
X1717344Y-325018D01*
X1723136Y-316179D01*
X1727403Y-306527D01*
X1729993Y-296265D01*
X1730857Y-285750D01*
X1729993Y-275234D01*
X1727403Y-264972D01*
X1723136Y-255320D01*
X1717344Y-246481D01*
X1710182Y-238658D01*
X1701850Y-232206D01*
X1692554Y-227177D01*
X1682597Y-223723D01*
X1672132Y-221996D01*
X1661617Y-221996D01*
X1651152Y-223723D01*
X1641195Y-227177D01*
X1631899Y-232206D01*
X1623568Y-238658D01*
X1616405Y-246481D01*
X1610614Y-255320D01*
X1606346Y-264972D01*
X1603756Y-275234D01*
X1602892Y-285750D01*
X1603756Y-296265D01*
X1606346Y-306527D01*
X1610614Y-316179D01*
X1616405Y-325018D01*
X1623568Y-332841D01*
X1631899Y-339293D01*
X1641195Y-344322D01*
X1651152Y-347776D01*
G37*
G36*
X-1221994Y-309778D02*
G01*
X-1175156Y-309778D01*
X-1163574Y-308864D01*
X-1152601Y-306222D01*
X-1142238Y-301904D01*
X-1132687Y-296062D01*
X-1124102Y-288747D01*
X-1116838Y-280212D01*
X-1110945Y-270611D01*
X-1106678Y-260248D01*
X-1104036Y-249326D01*
X-1103122Y-237744D01*
X-1103122Y-190906D01*
X-1104036Y-179324D01*
X-1106678Y-168351D01*
X-1110945Y-157988D01*
X-1116838Y-148437D01*
X-1124102Y-139852D01*
X-1132687Y-132588D01*
X-1142238Y-126695D01*
X-1152601Y-122428D01*
X-1163574Y-119786D01*
X-1175156Y-118872D01*
X-1221994Y-118872D01*
X-1233576Y-119786D01*
X-1244498Y-122428D01*
X-1254861Y-126695D01*
X-1264462Y-132588D01*
X-1272997Y-139852D01*
X-1280312Y-148437D01*
X-1286154Y-157988D01*
X-1290472Y-168351D01*
X-1293114Y-179324D01*
X-1293977Y-190906D01*
X-1293977Y-237744D01*
X-1293114Y-249326D01*
X-1290472Y-260248D01*
X-1286154Y-270611D01*
X-1280312Y-280212D01*
X-1272997Y-288747D01*
X-1264462Y-296062D01*
X-1254861Y-301904D01*
X-1244498Y-306222D01*
X-1233576Y-308864D01*
G37*
G36*
X455117Y-222504D02*
G01*
X465632Y-222504D01*
X476097Y-220776D01*
X486054Y-217322D01*
X495350Y-212293D01*
X503682Y-205841D01*
X510844Y-198018D01*
X516635Y-189179D01*
X520903Y-179527D01*
X523493Y-169265D01*
X524357Y-158750D01*
X523493Y-148234D01*
X520903Y-137972D01*
X516635Y-128320D01*
X510844Y-119481D01*
X503682Y-111658D01*
X495350Y-105206D01*
X486054Y-100177D01*
X476097Y-96723D01*
X465632Y-94996D01*
X455117Y-94996D01*
X444652Y-96723D01*
X434695Y-100177D01*
X425399Y-105206D01*
X417068Y-111658D01*
X409905Y-119481D01*
X404114Y-128320D01*
X399846Y-137972D01*
X397256Y-148234D01*
X396392Y-158750D01*
X397256Y-169265D01*
X399846Y-179527D01*
X404114Y-189179D01*
X409905Y-198018D01*
X417068Y-205841D01*
X425399Y-212293D01*
X434695Y-217322D01*
X444652Y-220776D01*
G37*
G36*
X1518716Y-222504D02*
G01*
X1529283Y-222504D01*
X1539697Y-220776D01*
X1549704Y-217322D01*
X1559001Y-212293D01*
X1567332Y-205841D01*
X1574495Y-198018D01*
X1580286Y-189179D01*
X1584502Y-179527D01*
X1587093Y-169265D01*
X1587957Y-158750D01*
X1587093Y-148234D01*
X1586230Y-144780D01*
X1586026Y-140868D01*
X1587296Y-137210D01*
X1589836Y-134264D01*
X1593291Y-132537D01*
X1597202Y-132181D01*
X1600911Y-133350D01*
X1609445Y-137972D01*
X1619402Y-141376D01*
X1629867Y-143154D01*
X1640382Y-143154D01*
X1650847Y-141376D01*
X1660804Y-137972D01*
X1670100Y-132943D01*
X1678432Y-126441D01*
X1685594Y-118668D01*
X1691386Y-109829D01*
X1695653Y-100126D01*
X1698243Y-89916D01*
X1699107Y-79400D01*
X1698243Y-68834D01*
X1695653Y-58623D01*
X1691386Y-48920D01*
X1685594Y-40081D01*
X1678432Y-32308D01*
X1670100Y-25806D01*
X1660804Y-20777D01*
X1650847Y-17373D01*
X1640382Y-15595D01*
X1629867Y-15595D01*
X1619402Y-17373D01*
X1609445Y-20777D01*
X1600149Y-25806D01*
X1591818Y-32308D01*
X1584655Y-40081D01*
X1578864Y-48920D01*
X1574596Y-58623D01*
X1572006Y-68834D01*
X1571142Y-79400D01*
X1572006Y-89916D01*
X1572869Y-93319D01*
X1573123Y-97231D01*
X1571853Y-100939D01*
X1569262Y-103835D01*
X1565808Y-105613D01*
X1561947Y-105918D01*
X1558188Y-104749D01*
X1549704Y-100177D01*
X1539697Y-96723D01*
X1529283Y-94996D01*
X1518716Y-94996D01*
X1508302Y-96723D01*
X1498295Y-100177D01*
X1488998Y-105206D01*
X1480667Y-111658D01*
X1473504Y-119481D01*
X1467713Y-128320D01*
X1463497Y-137972D01*
X1460906Y-148234D01*
X1460042Y-158750D01*
X1460906Y-169265D01*
X1463497Y-179527D01*
X1467713Y-189179D01*
X1473504Y-198018D01*
X1480667Y-205841D01*
X1488998Y-212293D01*
X1498295Y-217322D01*
X1508302Y-220776D01*
G37*
G36*
X745185Y-119329D02*
G01*
X755751Y-119329D01*
X766165Y-117602D01*
X776173Y-114147D01*
X785469Y-109118D01*
X793800Y-102666D01*
X800963Y-94843D01*
X806754Y-86004D01*
X810971Y-76352D01*
X813562Y-66090D01*
X814425Y-55575D01*
X813562Y-45059D01*
X810971Y-34798D01*
X806754Y-25146D01*
X800963Y-16306D01*
X793800Y-8483D01*
X785469Y-2032D01*
X776173Y2997D01*
X766165Y6451D01*
X755751Y8178D01*
X745185Y8178D01*
X734771Y6451D01*
X724763Y2997D01*
X715467Y-2032D01*
X707136Y-8483D01*
X699973Y-16306D01*
X694182Y-25146D01*
X689965Y-34798D01*
X687374Y-45059D01*
X686511Y-55575D01*
X687374Y-66090D01*
X689965Y-76352D01*
X694182Y-86004D01*
X699973Y-94843D01*
X707136Y-102666D01*
X715467Y-109118D01*
X724763Y-114147D01*
X734771Y-117602D01*
G37*
G36*
X1231798Y-71577D02*
G01*
X1242974Y-70713D01*
X1253896Y-68072D01*
X1264259Y-63804D01*
X1273860Y-57912D01*
X1282395Y-50647D01*
X1289710Y-42062D01*
X1295552Y-32512D01*
X1299870Y-22148D01*
X1302512Y-11176D01*
X1303375Y0D01*
X1302512Y11176D01*
X1299870Y22148D01*
X1295552Y32512D01*
X1289710Y42062D01*
X1282395Y50647D01*
X1273860Y57912D01*
X1264259Y63804D01*
X1253896Y68072D01*
X1242974Y70713D01*
X1231798Y71577D01*
X1220571Y70713D01*
X1209649Y68072D01*
X1199286Y63804D01*
X1189685Y57912D01*
X1181150Y50647D01*
X1173835Y42062D01*
X1167993Y32512D01*
X1163675Y22148D01*
X1161034Y11176D01*
X1160170Y0D01*
X1161034Y-11176D01*
X1163675Y-22148D01*
X1167993Y-32512D01*
X1173835Y-42062D01*
X1181150Y-50647D01*
X1189685Y-57912D01*
X1199286Y-63804D01*
X1209649Y-68072D01*
X1220571Y-70713D01*
G37*

%LPD*%
G36*
X-2032000Y1174750D02*
G01*
X-2032000Y920750D01*
X-1778000Y1174750D01*
G37*
G36*
X1762150Y1603400D02*
G01*
X1762150Y1508150D01*
X1936750Y1508150D01*
X2016150Y1428750D01*
X2016150Y1603400D01*
G37*
G36*
X1651000Y-1587500D02*
G01*
X1587500Y-1651000D01*
X1714500Y-1778000D01*
X1714500Y-1873250D01*
X1873250Y-1714500D01*
X1778000Y-1714500D01*
G37*
G36*
X-1651000Y-1587500D02*
G01*
X-1778000Y-1714500D01*
X-1889099Y-1714500D01*
X-1714500Y-1889099D01*
X-1714500Y-1778000D01*
X-1587500Y-1651000D01*
G37*
G36*
X-1484477Y1193901D02*
G01*
X-1494180Y1173429D01*
X-1461820Y1141069D01*
X-1441348Y1150772D01*
G37*
G36*
X-1450746Y1173480D02*
G01*
X-1472082Y1165860D01*
X-1472082Y1120140D01*
X-1450746Y1112520D01*
G37*
G36*
X-1522730Y1184503D02*
G01*
X-1515110Y1163167D01*
X-1469390Y1163167D01*
X-1461770Y1184503D01*
G37*
G36*
X-1450746Y1236980D02*
G01*
X-1472082Y1229360D01*
X-1472082Y1183640D01*
X-1450746Y1176020D01*
G37*
G36*
X-1450746Y1236980D02*
G01*
X-1472082Y1229360D01*
X-1472082Y1183640D01*
X-1450746Y1176020D01*
G37*
G36*
X-1515110Y1186332D02*
G01*
X-1522730Y1164996D01*
X-1461770Y1164996D01*
X-1469390Y1186332D01*
G37*
G36*
X-1387246Y1173480D02*
G01*
X-1408582Y1165860D01*
X-1408582Y1120140D01*
X-1387246Y1112520D01*
G37*
G36*
X-1470253Y1173480D02*
G01*
X-1470253Y1112520D01*
X-1448917Y1120140D01*
X-1448917Y1165860D01*
G37*
G36*
X-1387246Y1236980D02*
G01*
X-1408582Y1229360D01*
X-1408582Y1183640D01*
X-1387246Y1176020D01*
G37*
G36*
X-1459179Y1208430D02*
G01*
X-1479651Y1198727D01*
X-1436522Y1155598D01*
X-1426819Y1176070D01*
G37*
G36*
X-1470253Y1236980D02*
G01*
X-1470253Y1176020D01*
X-1448917Y1183640D01*
X-1448917Y1229360D01*
G37*
G36*
X-1398320Y1208430D02*
G01*
X-1430680Y1176070D01*
X-1420977Y1155598D01*
X-1377848Y1198727D01*
G37*
G36*
X-1470253Y1236980D02*
G01*
X-1470253Y1176020D01*
X-1448917Y1183640D01*
X-1448917Y1229360D01*
G37*
G36*
X-1387246Y1236980D02*
G01*
X-1408582Y1229360D01*
X-1408582Y1183640D01*
X-1387246Y1176020D01*
G37*
G36*
X-1373022Y1193901D02*
G01*
X-1416151Y1150772D01*
X-1395679Y1141069D01*
X-1363319Y1173429D01*
G37*
G36*
X-1395730Y1184503D02*
G01*
X-1388110Y1163167D01*
X-1342390Y1163167D01*
X-1334770Y1184503D01*
G37*
G36*
X-1406753Y1173480D02*
G01*
X-1406753Y1112520D01*
X-1385417Y1120140D01*
X-1385417Y1165860D01*
G37*
G36*
X-1406753Y1236980D02*
G01*
X-1406753Y1176020D01*
X-1385417Y1183640D01*
X-1385417Y1229360D01*
G37*
G36*
X-1406753Y1236980D02*
G01*
X-1406753Y1176020D01*
X-1385417Y1183640D01*
X-1385417Y1229360D01*
G37*
G36*
X-1388110Y1186332D02*
G01*
X-1395730Y1164996D01*
X-1334770Y1164996D01*
X-1342390Y1186332D01*
G37*
G36*
X-1684070Y573430D02*
G01*
X-1716430Y541070D01*
X-1706727Y520598D01*
X-1663598Y563727D01*
G37*
G36*
X-1672996Y601980D02*
G01*
X-1694332Y594360D01*
X-1694332Y548640D01*
X-1672996Y541020D01*
G37*
G36*
X-1737360Y551332D02*
G01*
X-1744980Y529996D01*
X-1684020Y529996D01*
X-1691639Y551332D01*
G37*
G36*
X-1692503Y601980D02*
G01*
X-1692503Y541020D01*
X-1671167Y548640D01*
X-1671167Y594360D01*
G37*
G36*
X-1673860Y551332D02*
G01*
X-1681480Y529996D01*
X-1620520Y529996D01*
X-1628139Y551332D01*
G37*
G36*
X371246Y1554480D02*
G01*
X371246Y1493520D01*
X392582Y1501140D01*
X392582Y1546860D01*
G37*
G36*
X382270Y1565503D02*
G01*
X389890Y1544167D01*
X435609Y1544167D01*
X443230Y1565503D01*
G37*
G36*
X382320Y1589430D02*
G01*
X361848Y1579727D01*
X404977Y1536598D01*
X414680Y1557070D01*
G37*
G36*
X389890Y1567332D02*
G01*
X382270Y1545996D01*
X443230Y1545996D01*
X435609Y1567332D01*
G37*
G36*
X371246Y1617980D02*
G01*
X371246Y1557020D01*
X392582Y1564640D01*
X392582Y1610360D01*
G37*
G36*
X390753Y1617980D02*
G01*
X369417Y1610360D01*
X369417Y1564640D01*
X390753Y1557020D01*
G37*
G36*
X326390Y1567332D02*
G01*
X318770Y1545996D01*
X379730Y1545996D01*
X372110Y1567332D01*
G37*
G36*
X627227Y1574901D02*
G01*
X584098Y1531772D01*
X604570Y1522069D01*
X636930Y1554429D01*
G37*
G36*
X604520Y1565503D02*
G01*
X612140Y1544167D01*
X657860Y1544167D01*
X665480Y1565503D01*
G37*
G36*
X593496Y1554480D02*
G01*
X593496Y1493520D01*
X614832Y1501140D01*
X614832Y1546860D01*
G37*
G36*
X593496Y1617980D02*
G01*
X593496Y1557020D01*
X614832Y1564640D01*
X614832Y1610360D01*
G37*
G36*
X612140Y1567332D02*
G01*
X604520Y1545996D01*
X665480Y1545996D01*
X657860Y1567332D01*
G37*
G36*
X601929Y1589430D02*
G01*
X569569Y1557070D01*
X579272Y1536598D01*
X622401Y1579727D01*
G37*
G36*
X613003Y1617980D02*
G01*
X591667Y1610360D01*
X591667Y1564640D01*
X613003Y1557020D01*
G37*
G36*
X548640Y1567332D02*
G01*
X541020Y1545996D01*
X601980Y1545996D01*
X594360Y1567332D01*
G37*
G36*
X613003Y1554480D02*
G01*
X591667Y1546860D01*
X591667Y1501140D01*
X613003Y1493520D01*
G37*
G36*
X541020Y1565503D02*
G01*
X548640Y1544167D01*
X594360Y1544167D01*
X601980Y1565503D01*
G37*
G36*
X357022Y1574901D02*
G01*
X347319Y1554429D01*
X379679Y1522069D01*
X400151Y1531772D01*
G37*
G36*
X390753Y1554480D02*
G01*
X369417Y1546860D01*
X369417Y1501140D01*
X390753Y1493520D01*
G37*
G36*
X318770Y1565503D02*
G01*
X326390Y1544167D01*
X372110Y1544167D01*
X379730Y1565503D01*
G37*
G36*
X1563522Y1178001D02*
G01*
X1553819Y1157528D01*
X1586179Y1125220D01*
X1606651Y1134922D01*
G37*
G36*
X1597253Y1157579D02*
G01*
X1575917Y1150010D01*
X1575917Y1104239D01*
X1597253Y1096670D01*
G37*
G36*
X1525270Y1168603D02*
G01*
X1532890Y1147267D01*
X1578610Y1147267D01*
X1586230Y1168603D01*
G37*
G36*
X1588770Y1168603D02*
G01*
X1596390Y1147267D01*
X1642110Y1147267D01*
X1649730Y1168603D01*
G37*
G36*
X1577746Y1157579D02*
G01*
X1577746Y1096670D01*
X1599082Y1104239D01*
X1599082Y1150010D01*
G37*
G36*
X1588820Y1192530D02*
G01*
X1568348Y1182827D01*
X1611477Y1139748D01*
X1621180Y1160221D01*
G37*
G36*
X1577746Y1221079D02*
G01*
X1577746Y1160170D01*
X1599082Y1167739D01*
X1599082Y1213510D01*
G37*
G36*
X1596390Y1170482D02*
G01*
X1588770Y1149146D01*
X1649730Y1149146D01*
X1642110Y1170482D01*
G37*
G36*
X1597253Y1221079D02*
G01*
X1575917Y1213510D01*
X1575917Y1167739D01*
X1597253Y1160170D01*
G37*
G36*
X1532890Y1170482D02*
G01*
X1525270Y1149146D01*
X1586230Y1149146D01*
X1578610Y1170482D01*
G37*
G36*
X1152753Y1554480D02*
G01*
X1131417Y1546860D01*
X1131417Y1501140D01*
X1152753Y1493520D01*
G37*
G36*
X1080770Y1565503D02*
G01*
X1088390Y1544167D01*
X1134110Y1544167D01*
X1141730Y1565503D01*
G37*
G36*
X1166977Y1574901D02*
G01*
X1123848Y1531772D01*
X1144320Y1522069D01*
X1176680Y1554429D01*
G37*
G36*
X1144270Y1565503D02*
G01*
X1151890Y1544167D01*
X1197610Y1544167D01*
X1205230Y1565503D01*
G37*
G36*
X1133246Y1554480D02*
G01*
X1133246Y1493520D01*
X1154582Y1501140D01*
X1154582Y1546860D01*
G37*
G36*
X1133246Y1617980D02*
G01*
X1133246Y1557020D01*
X1154582Y1564640D01*
X1154582Y1610360D01*
G37*
G36*
X1151890Y1567332D02*
G01*
X1144270Y1545996D01*
X1205230Y1545996D01*
X1197610Y1567332D01*
G37*
G36*
X1141679Y1589430D02*
G01*
X1109319Y1557070D01*
X1119022Y1536598D01*
X1162151Y1579727D01*
G37*
G36*
X1152753Y1617980D02*
G01*
X1131417Y1610360D01*
X1131417Y1564640D01*
X1152753Y1557020D01*
G37*
G36*
X1088390Y1567332D02*
G01*
X1080770Y1545996D01*
X1141730Y1545996D01*
X1134110Y1567332D01*
G37*
G36*
X-1672996Y538480D02*
G01*
X-1694332Y530860D01*
X-1694332Y485140D01*
X-1672996Y477520D01*
G37*
G36*
X-1744980Y549503D02*
G01*
X-1737360Y528167D01*
X-1691639Y528167D01*
X-1684020Y549503D01*
G37*
G36*
X-1658772Y558901D02*
G01*
X-1701901Y515772D01*
X-1681429Y506069D01*
X-1649069Y538429D01*
G37*
G36*
X-1681480Y549503D02*
G01*
X-1673860Y528167D01*
X-1628139Y528167D01*
X-1620520Y549503D01*
G37*
G36*
X-1692503Y538480D02*
G01*
X-1692503Y477520D01*
X-1671167Y485140D01*
X-1671167Y530860D01*
G37*
D10*
X-2029995Y-1475767D02*
G01*
X-2029940Y-1481460D01*
X-2029668Y-1488968D01*
X-2029327Y-1494543D01*
X-2028863Y-1500063D01*
X-2028278Y-1505539D01*
X-2027565Y-1510964D01*
X-2026742Y-1516334D01*
X-2025792Y-1521655D01*
X-2024720Y-1526933D01*
X-2023529Y-1532153D01*
X-2022213Y-1537327D01*
X-2020272Y-1544142D01*
X-2018672Y-1549201D01*
X-2016955Y-1554205D01*
X-2015119Y-1559153D01*
X-2013160Y-1564058D01*
X-2011078Y-1568914D01*
X-2008875Y-1573720D01*
X-2006549Y-1578470D01*
X-2004108Y-1583176D01*
X-2001540Y-1587827D01*
X-1998847Y-1592430D01*
X-1996038Y-1596981D01*
X-1993112Y-1601490D01*
X-1990062Y-1605935D01*
X-1986887Y-1610339D01*
X-1983592Y-1614693D01*
X-1980176Y-1618995D01*
X-1976643Y-1623242D01*
X-1972983Y-1627449D01*
X-1967918Y-1632965D01*
X-1963978Y-1637052D01*
X-1962632Y-1638406D02*
G01*
X-1638368Y-1962670D01*
X1475737Y-2030034D02*
G01*
X1481421Y-2029973D01*
X1487065Y-2029792D01*
X1492658Y-2029487D01*
X1498196Y-2029066D01*
X1505508Y-2028309D01*
X1510929Y-2027603D01*
X1516303Y-2026772D01*
X1521625Y-2025822D01*
X1526895Y-2024750D01*
X1532117Y-2023559D01*
X1537289Y-2022246D01*
X1542412Y-2020813D01*
X1547484Y-2019256D01*
X1552506Y-2017575D01*
X1557479Y-2015777D01*
X1562397Y-2013861D01*
X1567271Y-2011814D01*
X1572089Y-2009658D01*
X1576859Y-2007374D01*
X1581576Y-2004969D01*
X1587797Y-2001570D01*
X1592399Y-1998886D01*
X1596951Y-1996076D01*
X1601452Y-1993143D01*
X1607380Y-1989051D01*
X1611759Y-1985838D01*
X1616100Y-1982503D01*
X1620385Y-1979040D01*
X1624614Y-1975469D01*
X1628800Y-1971768D01*
X1632935Y-1967948D01*
X1637022Y-1964004D01*
X1962632Y-1638406D02*
G01*
X1966615Y-1634337D01*
X1970478Y-1630220D01*
X1974212Y-1626052D01*
X1977831Y-1621835D01*
X1981324Y-1617563D01*
X1984702Y-1613247D01*
X1987958Y-1608881D01*
X1992106Y-1602978D01*
X1995078Y-1598488D01*
X1997923Y-1593956D01*
X2000653Y-1589366D01*
X2003264Y-1584733D01*
X2005751Y-1580045D01*
X2008875Y-1573720D01*
X2011078Y-1568914D01*
X2013160Y-1564058D01*
X2015119Y-1559153D01*
X2016955Y-1554205D01*
X2018672Y-1549194D01*
X2020272Y-1544142D01*
X2022208Y-1537327D01*
X2023529Y-1532153D01*
X2024720Y-1526933D01*
X2025792Y-1521655D01*
X2026742Y-1516334D01*
X2027565Y-1510964D01*
X2028273Y-1505539D01*
X2028863Y-1500063D01*
X2029327Y-1494538D01*
X2029668Y-1488968D01*
X2029891Y-1483344D01*
X2029990Y-1477670D01*
X-1962632Y1638338D02*
G01*
X-1966615Y1634269D01*
X-1970478Y1630151D01*
X-1975431Y1624589D01*
X-1979010Y1620354D01*
X-1982464Y1616069D01*
X-1985802Y1611734D01*
X-1989013Y1607350D01*
X-1992106Y1602910D01*
X-1995078Y1598427D01*
X-1997930Y1593893D01*
X-2000658Y1589303D01*
X-2004108Y1583108D01*
X-2006549Y1578409D01*
X-2008875Y1573651D01*
X-2011078Y1568853D01*
X-2013160Y1563997D01*
X-2015119Y1559092D01*
X-2016955Y1554137D01*
X-2018672Y1549133D01*
X-2020272Y1544078D01*
X-2022213Y1537263D01*
X-2023529Y1532087D01*
X-2024720Y1526865D01*
X-2025792Y1521594D01*
X-2026742Y1516273D01*
X-2027565Y1510896D01*
X-2028278Y1505478D01*
X-2028863Y1500002D01*
X-2029327Y1494475D01*
X-2029668Y1488907D01*
X-2029891Y1483276D01*
X-2029990Y1477601D01*
X-1638368Y-1962670D02*
G01*
X-1634307Y-1966645D01*
X-1630189Y-1970509D01*
X-1626021Y-1974248D01*
X-1621805Y-1977864D01*
X-1617538Y-1981360D01*
X-1611764Y-1985838D01*
X-1607380Y-1989051D01*
X-1602948Y-1992139D01*
X-1598457Y-1995109D01*
X-1593923Y-1997961D01*
X-1589336Y-2000689D01*
X-1583146Y-2004138D01*
X-1578439Y-2006582D01*
X-1573690Y-2008906D01*
X-1568884Y-2011108D01*
X-1564027Y-2013191D01*
X-1559123Y-2015152D01*
X-1554175Y-2016993D01*
X-1549163Y-2018710D01*
X-1544109Y-2020305D01*
X-1539006Y-2021781D01*
X-1533852Y-2023132D01*
X-1528645Y-2024367D01*
X-1523392Y-2025482D01*
X-1518084Y-2026467D01*
X-1512727Y-2027336D01*
X-1507324Y-2028085D01*
X-1501868Y-2028713D01*
X-1494513Y-2029358D01*
X-1488937Y-2029706D01*
X-1483314Y-2029922D01*
X-1477639Y-2030028D01*
X2029965Y1475742D02*
G01*
X2029965Y1481330D01*
X2029711Y1488950D01*
X2029203Y1494538D01*
X2028949Y1500126D01*
X2028192Y1505457D01*
X2027684Y1510792D01*
X2026665Y1516379D01*
X2025904Y1521711D01*
X2024634Y1526796D01*
X2023615Y1532130D01*
X2022096Y1537207D01*
X2020315Y1544065D01*
X2018792Y1549145D01*
X2017011Y1554223D01*
X2015238Y1559049D01*
X2013204Y1563880D01*
X2011169Y1568957D01*
X2008888Y1573529D01*
X2000250Y1587500D01*
X-2029995Y1475699D02*
G01*
X-2029995Y-1475767D01*
X2029995Y-1475767D02*
G01*
X2029995Y1475699D01*
X-1475737Y-2030034D02*
G01*
X1475737Y-2030034D01*
X1638368Y-1962670D02*
G01*
X1962632Y-1638406D01*
D11*
X-1238250Y31750D02*
G01*
X-1333500Y-63500D01*
X-777747Y-317500D02*
G01*
X-809497Y-349250D01*
X-809497Y-365252D01*
X-762000Y-365252D02*
G01*
X-730250Y-333502D01*
X-730250Y-317500D01*
X-809625Y-365125D02*
G01*
X-762000Y-365125D01*
X-777875Y-317500D02*
G01*
X-730250Y-317500D01*
D12*
X-1174750Y-190500D02*
G01*
X-1222375Y-190500D01*
X-1174750Y-238125D02*
G01*
X-1174750Y-190500D01*
X-1222375Y-238125D02*
G01*
X-1174750Y-238125D01*
X-1222375Y-190500D02*
G01*
X-1222375Y-238125D01*
X-1714500Y571500D02*
G01*
X-1651000Y508000D01*
X-1651000Y571500D02*
G01*
X-1714500Y571500D01*
X-1651000Y508000D02*
G01*
X-1651000Y571500D01*
X-1714500Y508000D02*
G01*
X-1651000Y508000D01*
X-1714500Y571500D02*
G01*
X-1714500Y508000D01*
X-1365250Y1206500D02*
G01*
X-1428750Y1206500D01*
X-1492250Y1143000D01*
X-1492250Y1206500D02*
G01*
X-1428750Y1206500D01*
X-1365250Y1143000D01*
X-1365250Y1206500D02*
G01*
X-1492250Y1206500D01*
X-1365250Y1143000D02*
G01*
X-1365250Y1206500D01*
X-1492250Y1143000D02*
G01*
X-1365250Y1143000D01*
X-1492250Y1206500D02*
G01*
X-1492250Y1143000D01*
X-1651000Y952500D02*
G01*
X-1905000Y952500D01*
X1619250Y1190625D02*
G01*
X1555750Y1127125D01*
X1619250Y1190625D02*
G01*
X1555750Y1190625D01*
X1619250Y1127125D02*
G01*
X1619250Y1190625D01*
X1555750Y1127125D02*
G01*
X1619250Y1127125D01*
X1555750Y1190625D02*
G01*
X1555750Y1127125D01*
X1111250Y1587500D02*
G01*
X1174750Y1524000D01*
X1174750Y1587500D02*
G01*
X1111250Y1587500D01*
X1174750Y1524000D02*
G01*
X1174750Y1587500D01*
X1111250Y1524000D02*
G01*
X1174750Y1524000D01*
X1111250Y1587500D02*
G01*
X1111250Y1524000D01*
X571500Y1587500D02*
G01*
X635000Y1524000D01*
X635000Y1587500D02*
G01*
X571500Y1587500D01*
X635000Y1524000D02*
G01*
X635000Y1587500D01*
X571500Y1524000D02*
G01*
X635000Y1524000D01*
X571500Y1587500D02*
G01*
X571500Y1524000D01*
X349250Y1524000D02*
G01*
X412750Y1587500D01*
X412750Y1524000D02*
G01*
X349250Y1524000D01*
X412750Y1587500D02*
G01*
X412750Y1524000D01*
X349250Y1587500D02*
G01*
X412750Y1587500D01*
X349250Y1587500D02*
G01*
X349250Y1524000D01*
D11*
X-1428750Y-317500D02*
G01*
X-1428750Y-381000D01*
X-1365250Y-444500D01*
X-1428750Y-317500D02*
G01*
X-1428750Y-223520D01*
X-1397000Y-191770D01*
X-1238250Y31750D02*
G01*
X-1079500Y31750D01*
X-1333500Y-63500D02*
G01*
X-1333500Y-190500D01*
X-1174750Y0D02*
G01*
X-1206500Y0D01*
X-1235506Y29006D01*
D12*
X-1428750Y-317500D02*
G01*
X-1365250Y-317500D01*
D13*
G01*
X1905000Y-1137005D03*
D14*
G01*
X1905000Y-1012012D03*
G01*
X1905000Y-886993D03*
G01*
X1905000Y-762000D03*
G01*
X1905000Y-637006D03*
G01*
X1905000Y-512013D03*
G01*
X1905000Y-386994D03*
D15*
G01*
X-1682724Y127000D03*
G01*
X-1682724Y-254025D03*
G01*
X-1682724Y-635025D03*
G01*
X-1682724Y-1016025D03*
D16*
G01*
X-342772Y-1920875D03*
G01*
X-142875Y-1920875D03*
G01*
X57022Y-1920875D03*
D18*
G01*
X1550009Y1550009D03*
G01*
X-1550009Y-1550009D03*
G01*
X-1550009Y1550009D03*
G01*
X1550009Y-1550009D03*
D11*
G01*
X-111125Y-650875D03*
D12*
G01*
X0Y-111125D03*
G01*
X-63500Y1905000D03*
G01*
X-31750Y1587500D03*
G01*
X1047750Y-381000D03*
D11*
G01*
X269875Y-381000D03*
G01*
X269875Y-269875D03*
G01*
X762000Y-1095375D03*
G01*
X666750Y-873125D03*
G01*
X750468Y-55575D03*
G01*
X-190500Y-333375D03*
G01*
X-762000Y-365125D03*
D12*
G01*
X1111250Y952500D03*
G01*
X-1492250Y1143000D03*
G01*
X-1492250Y1206500D03*
G01*
X-349250Y952500D03*
G01*
X-476250Y952500D03*
G01*
X-127000Y952500D03*
G01*
X-476250Y825500D03*
G01*
X-127000Y825500D03*
G01*
X381000Y1079500D03*
G01*
X254000Y1079500D03*
G01*
X-793750Y1778000D03*
G01*
X-666750Y1682750D03*
G01*
X1841500Y857250D03*
G01*
X1841500Y936625D03*
G01*
X158750Y2000250D03*
G01*
X412750Y1016000D03*
G01*
X-539750Y1841500D03*
D19*
G01*
X-920750Y-1857375D03*
G01*
X-1270000Y-1825625D03*
D12*
G01*
X-325424Y-1023950D03*
G01*
X-1920875Y-1524000D03*
G01*
X-1762125Y-1301750D03*
D11*
G01*
X1635125Y-79375D03*
D12*
G01*
X-63500Y1778000D03*
G01*
X-31750Y1714500D03*
G01*
X-31750Y1651000D03*
G01*
X-63500Y1841500D03*
G01*
X-285750Y1936750D03*
G01*
X-349250Y1936750D03*
G01*
X-285750Y2000250D03*
G01*
X-349250Y2000250D03*
G01*
X-1825625Y-1365250D03*
G01*
X-539750Y1746250D03*
D11*
G01*
X-1905000Y952500D03*
G01*
X-1841500Y952500D03*
G01*
X-1778000Y952500D03*
G01*
X-1714500Y952500D03*
G01*
X-1651000Y952500D03*
D12*
G01*
X63500Y1016000D03*
G01*
X127000Y1016000D03*
G01*
X-1270000Y1905000D03*
G01*
X-1428750Y1143000D03*
G01*
X-1428750Y1206500D03*
G01*
X-1365250Y1143000D03*
G01*
X-1365250Y1206500D03*
G01*
X-1714500Y571500D03*
G01*
X-1651000Y571500D03*
D11*
G01*
X365125Y-1746250D03*
D12*
G01*
X514502Y-1254125D03*
G01*
X-1746250Y1841500D03*
G01*
X-1651000Y1936750D03*
G01*
X-1270000Y2000250D03*
G01*
X-1524000Y2000250D03*
G01*
X1587500Y-930224D03*
G01*
X1412875Y-1143000D03*
D11*
G01*
X453288Y-1841500D03*
G01*
X553288Y-1841500D03*
G01*
X653287Y-1841500D03*
D12*
G01*
X1746250Y-857250D03*
G01*
X1651000Y-571500D03*
D11*
G01*
X1000125Y-531825D03*
G01*
X714375Y-873125D03*
G01*
X1476375Y-920750D03*
D12*
G01*
X1428750Y-1008075D03*
D11*
G01*
X1103325Y-1262075D03*
G01*
X976325Y-1262075D03*
G01*
X515950Y-762000D03*
D19*
G01*
X1111250Y1341424D03*
D11*
G01*
X650875Y-460375D03*
D12*
G01*
X1492250Y-1936750D03*
G01*
X1333500Y-1936750D03*
D11*
G01*
X698500Y-523875D03*
G01*
X682625Y-595325D03*
G01*
X571500Y-539750D03*
D12*
G01*
X1539875Y-31750D03*
D11*
G01*
X1666875Y-285750D03*
G01*
X1524000Y-158750D03*
G01*
X754075Y-277825D03*
G01*
X833450Y-325450D03*
D12*
G01*
X1047750Y-39700D03*
D11*
G01*
X460375Y-158750D03*
D12*
G01*
X1231772Y0D03*
D11*
G01*
X127000Y-381000D03*
D12*
G01*
X666750Y254000D03*
G01*
X793750Y254000D03*
G01*
X1397000Y254000D03*
G01*
X1270000Y254000D03*
G01*
X1539875Y-571500D03*
G01*
X1460500Y-539750D03*
G01*
X1079500Y-476250D03*
G01*
X1143000Y-412750D03*
G01*
X1746250Y285750D03*
D11*
G01*
X1841500Y381000D03*
D12*
G01*
X1174750Y1905000D03*
G01*
X1174750Y1809750D03*
G01*
X1174750Y2000250D03*
G01*
X1047750Y1714500D03*
G01*
X1050340Y1800732D03*
G01*
X1050340Y1895982D03*
G01*
X1047750Y2000250D03*
G01*
X254000Y1714500D03*
G01*
X254000Y1809750D03*
G01*
X254000Y1905000D03*
G01*
X254000Y2000250D03*
G01*
X285750Y1016000D03*
G01*
X1936750Y1174750D03*
G01*
X1936750Y1270000D03*
G01*
X1936750Y1365250D03*
G01*
X1841500Y1365250D03*
G01*
X1841500Y1174750D03*
G01*
X1841500Y1270000D03*
G01*
X349250Y1016000D03*
G01*
X317500Y1079500D03*
G01*
X1111250Y825500D03*
G01*
X1047750Y825500D03*
G01*
X1047750Y889000D03*
G01*
X1047750Y952500D03*
G01*
X412750Y1524000D03*
G01*
X412750Y1587500D03*
G01*
X349250Y1587500D03*
G01*
X635000Y1524000D03*
G01*
X635000Y1587500D03*
G01*
X571500Y1587500D03*
G01*
X1111250Y889000D03*
G01*
X571500Y1524000D03*
G01*
X349250Y1524000D03*
G01*
X1555750Y1127125D03*
G01*
X1619250Y1127125D03*
G01*
X1619250Y1190625D03*
G01*
X1555750Y1190625D03*
G01*
X1111250Y1524000D03*
G01*
X1174750Y1524000D03*
G01*
X1174750Y1587500D03*
G01*
X1111250Y1587500D03*
G01*
X190500Y31750D03*
G01*
X476250Y127000D03*
G01*
X431800Y276352D03*
G01*
X127000Y1143000D03*
G01*
X984250Y539750D03*
G01*
X984250Y635000D03*
G01*
X984250Y730250D03*
G01*
X1079500Y539750D03*
G01*
X1079500Y635000D03*
G01*
X1079500Y730250D03*
G01*
X63500Y1206500D03*
G01*
X63500Y1270000D03*
G01*
X63500Y1143000D03*
G01*
X63500Y1079500D03*
G01*
X127000Y1206500D03*
G01*
X127000Y1079500D03*
G01*
X127000Y1270000D03*
D19*
G01*
X1408582Y1691436D03*
G01*
X1691436Y1691436D03*
G01*
X1350010Y1550009D03*
G01*
X1408582Y1408582D03*
G01*
X1550009Y1350010D03*
G01*
X1691436Y1408582D03*
G01*
X1750009Y1550009D03*
G01*
X1550009Y1750009D03*
G01*
X-1691817Y1690852D03*
G01*
X-1408480Y1691335D03*
G01*
X-1749907Y1549907D03*
G01*
X-1691335Y1408480D03*
G01*
X-1549907Y1349908D03*
G01*
X-1408480Y1408480D03*
G01*
X-1349908Y1549907D03*
G01*
X-1549907Y1749907D03*
G01*
X1408582Y-1408582D03*
G01*
X1691436Y-1408582D03*
G01*
X1350010Y-1550009D03*
G01*
X1408582Y-1691436D03*
G01*
X1550009Y-1750009D03*
G01*
X1691436Y-1691436D03*
G01*
X1750009Y-1550009D03*
G01*
X1550009Y-1350010D03*
G01*
X-1691436Y-1408582D03*
G01*
X-1408582Y-1408582D03*
G01*
X-1750009Y-1550009D03*
G01*
X-1691436Y-1691436D03*
G01*
X-1550009Y-1750009D03*
G01*
X-1408582Y-1691436D03*
G01*
X-1350010Y-1550009D03*
G01*
X-1550009Y-1350010D03*
D12*
G01*
X889000Y539750D03*
G01*
X698500Y539750D03*
G01*
X793750Y539750D03*
G01*
X793750Y635000D03*
G01*
X698500Y635000D03*
G01*
X889000Y635000D03*
G01*
X698500Y730250D03*
G01*
X571500Y539750D03*
G01*
X571500Y635000D03*
G01*
X571500Y730250D03*
G01*
X889000Y730250D03*
G01*
X1476375Y635000D03*
G01*
X1476375Y539750D03*
G01*
X1476375Y730250D03*
G01*
X1381125Y635000D03*
G01*
X1285875Y730250D03*
G01*
X1190625Y539750D03*
G01*
X1285875Y539750D03*
G01*
X1381125Y539750D03*
G01*
X1381125Y730250D03*
G01*
X1285875Y635000D03*
G01*
X793750Y730250D03*
G01*
X1190625Y730250D03*
G01*
X1190625Y635000D03*
G01*
X-1714500Y508000D03*
G01*
X-1651000Y508000D03*
D11*
G01*
X-714375Y-1587500D03*
D12*
G01*
X-555625Y-920750D03*
G01*
X-381000Y-920750D03*
G01*
X-127000Y730250D03*
G01*
X-127000Y635000D03*
G01*
X-127000Y539750D03*
G01*
X-476250Y730250D03*
G01*
X-476250Y635000D03*
G01*
X-476250Y539750D03*
D11*
G01*
X-777875Y-317500D03*
G01*
X-809625Y-365125D03*
G01*
X-730250Y-317500D03*
G01*
X-635000Y-1428750D03*
D12*
G01*
X-444500Y1746250D03*
G01*
X-444500Y1841500D03*
D11*
G01*
X-1000125Y-1404950D03*
D12*
G01*
X-424230Y-1505991D03*
D11*
G01*
X-1000125Y-1301750D03*
G01*
X-714375Y-1714500D03*
G01*
X-952500Y-1492250D03*
D12*
G01*
X1936750Y276377D03*
D11*
G01*
X381000Y-1270000D03*
D12*
G01*
X-1270000Y1778000D03*
D20*
G01*
X-333375Y0D03*
D12*
G01*
X-1127125Y-1841500D03*
D11*
G01*
X269875Y-460375D03*
D12*
G01*
X-1936750Y-1317625D03*
D11*
G01*
X-1222375Y-238125D03*
G01*
X-1174750Y-190500D03*
G01*
X-1174750Y-238125D03*
G01*
X-1222375Y-190500D03*
D10*
G01*
X-1254125Y-1111250D03*
G01*
X-1238250Y-762000D03*
D12*
G01*
X-127000Y-111125D03*
D11*
G01*
X-1174750Y0D03*
D10*
G01*
X-512749Y-714375D03*
G01*
X-712749Y-587375D03*
D11*
G01*
X-1238250Y31750D03*
G01*
X-539750Y-47625D03*
G01*
X-444500Y-349250D03*
G01*
X-317500Y-619125D03*
G01*
X-301625Y-444500D03*
G01*
X254000Y-523875D03*
D12*
G01*
X-1392732Y-695629D03*
G01*
X-1492250Y-698500D03*
G01*
X-1301750Y-666750D03*
D11*
G01*
X-857250Y-47625D03*
G01*
X-857250Y-206375D03*
G01*
X-539750Y-206375D03*
G01*
X-508000Y127000D03*
G01*
X-607263Y38252D03*
D19*
G01*
X-212750Y-1301750D03*
G01*
X-212750Y-825500D03*
D11*
G01*
X-1254125Y95250D03*
G01*
X-873125Y47625D03*
G01*
X-127000Y31750D03*
G01*
X-142875Y-238125D03*
G01*
X0Y-381000D03*
G01*
X-873125Y-317500D03*
G01*
X-873125Y-428625D03*
G01*
X-1365250Y-317500D03*
G01*
X-1333500Y-63500D03*
G01*
X-1428750Y-317500D03*
G01*
X-1397000Y-191770D03*
G01*
X-1333500Y-190500D03*
G01*
X95250Y-666750D03*
G01*
X127000Y-508000D03*
G01*
X246075Y-1301750D03*
G01*
X-127000Y-365125D03*
D12*
G01*
X1039825Y-1397000D03*
G01*
X1349375Y-1270000D03*
D11*
G01*
X508000Y-412750D03*
G01*
X222250Y-1428750D03*
D12*
G01*
X-762000Y825500D03*
G01*
X-762000Y730250D03*
G01*
X-762000Y635000D03*
G01*
X-762000Y539750D03*
G01*
X-984250Y1778000D03*
G01*
X-1079500Y1778000D03*
G01*
X-1174750Y1778000D03*
D11*
G01*
X753287Y-1841500D03*
D12*
G01*
X1143000Y-1809750D03*
G01*
X1238250Y-1714500D03*
D11*
G01*
X863244Y-1963877D03*
G01*
X444500Y-1031875D03*
G01*
X1050544Y-235457D03*
G01*
X508000Y-666750D03*
G01*
X-111125Y-1206500D03*
G01*
X-111125Y-1301750D03*
G01*
X87325Y-1039825D03*
G01*
X-95250Y-857250D03*
G01*
X1144143Y-796544D03*
G01*
X1460500Y-796544D03*
G01*
X254000Y-1651000D03*
G01*
X785825Y-1476375D03*
G01*
X857250Y-1873250D03*
M02*
