G04 Layer: TopSilkscreenLayer*
G04 Panelize: V-CUT, Column: 2, Row: 5, Board Size: 42mm x 42.27mm, Panelized Board Size: 92mm x 223.36mm*
G04 EasyEDA v6.5.54, 2026-06-22 22:14:46*
G04 820ba6ca1dbf42d8ad26d6661cbbd738,d3e2394e42c544d094782fd7389e907f,10*
G04 Gerber Generator version 0.2*
G04 Scale: 100 percent, Rotated: No, Reflected: No *
G04 Dimensions in millimeters *
G04 leading zeros omitted , absolute positions ,4 integer and 5 decimal *
%FSLAX45Y45*%
%MOMM*%

%ADD10C,0.1016*%
%ADD11C,0.1524*%
%ADD12C,0.2032*%
%ADD13C,0.2000*%
%ADD14C,0.2540*%
%ADD15C,0.0194*%
%ADD16C,0.1520*%
%ADD17C,0.1000*%
%ADD18C,0.1270*%
%ADD19C,0.1300*%
%ADD20C,0.4000*%

%LPD*%
G36*
X-1119174Y30480D02*
G01*
X-1119174Y12750D01*
X-809294Y12750D01*
X-809294Y-70053D01*
X-763981Y-70053D01*
X-763981Y-54152D01*
X-763828Y-51054D01*
X-763422Y-49682D01*
X-754075Y-37541D01*
X-753770Y-37490D01*
X-753262Y-36525D01*
X-748385Y-30073D01*
X-747776Y-29768D01*
X-747572Y-29108D01*
X-746302Y-27736D01*
X-729945Y-6400D01*
X-729589Y-6350D01*
X-728268Y-4521D01*
X-707796Y-4470D01*
X-707644Y-50139D01*
X-707491Y-51460D01*
X-706272Y-51714D01*
X-699058Y-51765D01*
X-699058Y-63195D01*
X-691337Y-63195D01*
X-691235Y-60350D01*
X-690118Y-55067D01*
X-689660Y-54508D01*
X-689254Y-53136D01*
X-688746Y-52578D01*
X-688492Y-51917D01*
X-686155Y-49174D01*
X-683006Y-46380D01*
X-682142Y-46075D01*
X-679907Y-44602D01*
X-679602Y-43688D01*
X-679856Y-42773D01*
X-681431Y-41859D01*
X-682904Y-40589D01*
X-685850Y-37236D01*
X-687171Y-35102D01*
X-688136Y-32715D01*
X-688441Y-30683D01*
X-688594Y-26466D01*
X-688441Y-22199D01*
X-687070Y-17018D01*
X-686765Y-16662D01*
X-686257Y-15189D01*
X-684276Y-12242D01*
X-683564Y-11480D01*
X-683463Y-11023D01*
X-679450Y-7772D01*
X-678383Y-7315D01*
X-677722Y-6705D01*
X-676249Y-6096D01*
X-675995Y-5791D01*
X-674065Y-5181D01*
X-672947Y-4572D01*
X-668934Y-3505D01*
X-661670Y-2438D01*
X-656132Y-2438D01*
X-648716Y-3505D01*
X-644652Y-4572D01*
X-643128Y-5334D01*
X-641959Y-5638D01*
X-640943Y-6350D01*
X-639927Y-6705D01*
X-639064Y-7467D01*
X-637946Y-7924D01*
X-635101Y-10312D01*
X-634796Y-10820D01*
X-634085Y-11226D01*
X-631647Y-14732D01*
X-630326Y-17373D01*
X-629564Y-19812D01*
X-629208Y-22148D01*
X-629208Y-30632D01*
X-629716Y-33121D01*
X-630529Y-35306D01*
X-631240Y-36525D01*
X-633323Y-39065D01*
X-635812Y-41656D01*
X-637641Y-42519D01*
X-637997Y-43535D01*
X-637692Y-44551D01*
X-634136Y-46685D01*
X-629666Y-51206D01*
X-628243Y-53390D01*
X-627329Y-55880D01*
X-626465Y-60096D01*
X-626414Y-66294D01*
X-626618Y-67513D01*
X-619912Y-67513D01*
X-618998Y-66598D01*
X-616559Y-65938D01*
X-607974Y-65278D01*
X-605028Y-64566D01*
X-602030Y-64516D01*
X-599389Y-64820D01*
X-598119Y-65532D01*
X-597662Y-66497D01*
X-595782Y-68732D01*
X-593750Y-69951D01*
X-591464Y-70916D01*
X-588264Y-71120D01*
X-584911Y-71018D01*
X-583133Y-70561D01*
X-581456Y-69697D01*
X-579882Y-68478D01*
X-579628Y-67919D01*
X-579018Y-67614D01*
X-577189Y-63754D01*
X-576935Y-60452D01*
X-577037Y-56997D01*
X-578053Y-53949D01*
X-580694Y-50698D01*
X-581660Y-49885D01*
X-584657Y-48768D01*
X-587603Y-48615D01*
X-590550Y-48768D01*
X-592074Y-49123D01*
X-593750Y-49987D01*
X-597408Y-52781D01*
X-600964Y-52120D01*
X-610768Y-51511D01*
X-613765Y-51003D01*
X-616661Y-50952D01*
X-616458Y-48514D01*
X-616153Y-47802D01*
X-615696Y-44043D01*
X-615086Y-41046D01*
X-614629Y-37185D01*
X-614070Y-34950D01*
X-613511Y-30276D01*
X-613003Y-27889D01*
X-612698Y-25044D01*
X-612140Y-22809D01*
X-611733Y-18948D01*
X-611174Y-16865D01*
X-610768Y-13004D01*
X-610209Y-10769D01*
X-609600Y-6045D01*
X-609041Y-4470D01*
X-561441Y-4470D01*
X-561441Y-23825D01*
X-588568Y-23926D01*
X-593598Y-24180D01*
X-595122Y-24892D01*
X-596595Y-33782D01*
X-597204Y-35509D01*
X-597001Y-36626D01*
X-596290Y-37236D01*
X-594055Y-36525D01*
X-593039Y-35915D01*
X-589127Y-34645D01*
X-582930Y-33528D01*
X-578612Y-33629D01*
X-572668Y-34696D01*
X-571296Y-35306D01*
X-569518Y-35763D01*
X-568807Y-36322D01*
X-567131Y-37033D01*
X-565048Y-38354D01*
X-561746Y-41605D01*
X-558800Y-45313D01*
X-557784Y-47244D01*
X-556818Y-49885D01*
X-556260Y-52730D01*
X-555955Y-53441D01*
X-555701Y-55372D01*
X-555701Y-63347D01*
X-556971Y-69799D01*
X-557631Y-72136D01*
X-558749Y-74422D01*
X-559257Y-74980D01*
X-559968Y-76403D01*
X-561949Y-79044D01*
X-562203Y-79654D01*
X-567080Y-83616D01*
X-571246Y-86106D01*
X-573328Y-86715D01*
X-574649Y-87325D01*
X-576732Y-87782D01*
X-577240Y-88087D01*
X-585622Y-89306D01*
X-590854Y-89357D01*
X-598576Y-88087D01*
X-601776Y-87172D01*
X-603199Y-86410D01*
X-604621Y-85953D01*
X-605282Y-85445D01*
X-606806Y-84886D01*
X-609650Y-82854D01*
X-611530Y-81229D01*
X-616559Y-75184D01*
X-616813Y-74320D01*
X-617524Y-73253D01*
X-618134Y-71628D01*
X-618540Y-71069D01*
X-618947Y-69291D01*
X-619912Y-67513D01*
X-626618Y-67513D01*
X-627684Y-72339D01*
X-629666Y-76708D01*
X-633730Y-81432D01*
X-635355Y-82905D01*
X-639419Y-85293D01*
X-640283Y-85598D01*
X-640588Y-85953D01*
X-643331Y-87020D01*
X-647801Y-88239D01*
X-655929Y-89306D01*
X-661720Y-89306D01*
X-670407Y-88087D01*
X-672185Y-87477D01*
X-673963Y-87172D01*
X-675081Y-86563D01*
X-676757Y-86055D01*
X-677722Y-85445D01*
X-678942Y-85039D01*
X-681380Y-83515D01*
X-683666Y-81584D01*
X-687070Y-77825D01*
X-688340Y-76098D01*
X-689000Y-74523D01*
X-689356Y-74117D01*
X-690981Y-67716D01*
X-691337Y-63195D01*
X-699058Y-63195D01*
X-699058Y-70053D01*
X-706018Y-70053D01*
X-707390Y-70815D01*
X-707796Y-73406D01*
X-707796Y-87274D01*
X-728370Y-87274D01*
X-728421Y-71882D01*
X-728624Y-70866D01*
X-728929Y-70459D01*
X-729742Y-70256D01*
X-737565Y-70053D01*
X-809294Y-70053D01*
X-809294Y-105562D01*
X-822401Y-105562D01*
X-822401Y12750D01*
X-1119174Y12750D01*
X-1119174Y-43434D01*
X-1076147Y-43434D01*
X-1076045Y-36982D01*
X-1074877Y-28194D01*
X-1074318Y-26568D01*
X-1073912Y-24384D01*
X-1072337Y-20167D01*
X-1072083Y-18948D01*
X-1070610Y-16408D01*
X-1070203Y-15189D01*
X-1068070Y-11785D01*
X-1067663Y-11633D01*
X-1066901Y-10464D01*
X-1062532Y-5638D01*
X-1059840Y-3708D01*
X-1058316Y-3048D01*
X-1057605Y-2438D01*
X-1056233Y-1981D01*
X-1055573Y-1371D01*
X-1053388Y-914D01*
X-1052525Y-254D01*
X-1048766Y203D01*
X-1046835Y812D01*
X-1041603Y914D01*
X-1039571Y711D01*
X-1038961Y355D01*
X-1034745Y-254D01*
X-1033119Y-1016D01*
X-1032052Y-1168D01*
X-917295Y-1422D01*
X-916178Y-1625D01*
X-905560Y-24282D01*
X-900328Y-36169D01*
X-898702Y-39420D01*
X-898398Y-40538D01*
X-897686Y-41605D01*
X-897432Y-42722D01*
X-896874Y-43586D01*
X-894232Y-52069D01*
X-893876Y-52222D01*
X-893521Y-52069D01*
X-893318Y-51054D01*
X-893114Y-1219D01*
X-874471Y-1219D01*
X-874471Y-86207D01*
X-893775Y-86207D01*
X-894029Y-84836D01*
X-894587Y-84023D01*
X-894994Y-82753D01*
X-895705Y-81737D01*
X-898042Y-76200D01*
X-898702Y-75133D01*
X-899007Y-74015D01*
X-899566Y-73304D01*
X-899972Y-71882D01*
X-900684Y-70967D01*
X-904748Y-61976D01*
X-904849Y-61315D01*
X-910132Y-50546D01*
X-911758Y-46685D01*
X-912317Y-45770D01*
X-915009Y-37287D01*
X-916076Y-35458D01*
X-916482Y-35610D01*
X-916787Y-36626D01*
X-916178Y-58775D01*
X-916127Y-86207D01*
X-934821Y-86207D01*
X-934821Y-1219D01*
X-1031595Y-1320D01*
X-1030579Y-1930D01*
X-1029258Y-2387D01*
X-1025448Y-4724D01*
X-1025144Y-5283D01*
X-1024077Y-6045D01*
X-1020571Y-9601D01*
X-1016914Y-15595D01*
X-1016457Y-17068D01*
X-1015949Y-17983D01*
X-1014272Y-23622D01*
X-1013714Y-27533D01*
X-1013155Y-29514D01*
X-1013053Y-32715D01*
X-1031595Y-32562D01*
X-1031748Y-31038D01*
X-1032459Y-28702D01*
X-1032764Y-26873D01*
X-1034745Y-23114D01*
X-1035456Y-22707D01*
X-1035812Y-21996D01*
X-1038809Y-20116D01*
X-1040434Y-19710D01*
X-1043381Y-19608D01*
X-1046276Y-19761D01*
X-1047902Y-20116D01*
X-1050036Y-21539D01*
X-1051661Y-22961D01*
X-1053541Y-25654D01*
X-1054557Y-27940D01*
X-1055522Y-31292D01*
X-1056182Y-34544D01*
X-1056487Y-37642D01*
X-1056487Y-49479D01*
X-1056182Y-52578D01*
X-1055827Y-53593D01*
X-1055116Y-57404D01*
X-1054404Y-59639D01*
X-1052728Y-62687D01*
X-1049172Y-66446D01*
X-1047546Y-67360D01*
X-1046022Y-67716D01*
X-1040180Y-67716D01*
X-1038656Y-67360D01*
X-1036777Y-66294D01*
X-1034186Y-63347D01*
X-1033881Y-63296D01*
X-1031900Y-58674D01*
X-1031392Y-53949D01*
X-1012799Y-53949D01*
X-1013307Y-60248D01*
X-1014221Y-64668D01*
X-1014780Y-66090D01*
X-1015187Y-67970D01*
X-1015644Y-68630D01*
X-1016050Y-70104D01*
X-1016609Y-70967D01*
X-1017930Y-74168D01*
X-1020064Y-77317D01*
X-1020724Y-77876D01*
X-1021029Y-78536D01*
X-1023670Y-81178D01*
X-1025245Y-82397D01*
X-1025601Y-82956D01*
X-1029258Y-85090D01*
X-1030833Y-85598D01*
X-1031087Y-85852D01*
X-1008075Y-85852D01*
X-1007719Y-85140D01*
X-1007160Y-82296D01*
X-1006602Y-80975D01*
X-1003300Y-67767D01*
X-1002588Y-65836D01*
X-1002284Y-63957D01*
X-1001725Y-62890D01*
X-1001318Y-60553D01*
X-1000810Y-59436D01*
X-1000252Y-56591D01*
X-999693Y-55117D01*
X-999388Y-53340D01*
X-995222Y-38049D01*
X-994562Y-34950D01*
X-994003Y-33883D01*
X-993597Y-31699D01*
X-993038Y-30429D01*
X-992479Y-27533D01*
X-991920Y-26111D01*
X-991514Y-23825D01*
X-989736Y-17170D01*
X-989025Y-15341D01*
X-987755Y-9702D01*
X-987094Y-7873D01*
X-985621Y-2184D01*
X-985062Y-1270D01*
X-966724Y-1320D01*
X-965555Y-1473D01*
X-964590Y-3708D01*
X-960526Y-19405D01*
X-960018Y-20574D01*
X-959459Y-23368D01*
X-958900Y-24739D01*
X-958342Y-27584D01*
X-953058Y-46583D01*
X-952550Y-49276D01*
X-952246Y-49631D01*
X-951839Y-51866D01*
X-951280Y-53340D01*
X-949756Y-59690D01*
X-949198Y-61061D01*
X-942746Y-85852D01*
X-944524Y-86106D01*
X-961948Y-86207D01*
X-962050Y-84785D01*
X-962558Y-83515D01*
X-963015Y-80365D01*
X-963523Y-78638D01*
X-963980Y-75488D01*
X-965149Y-74625D01*
X-968552Y-74371D01*
X-982268Y-74472D01*
X-985519Y-74676D01*
X-986637Y-75285D01*
X-986993Y-77673D01*
X-987552Y-79248D01*
X-987958Y-82194D01*
X-988618Y-84378D01*
X-988872Y-86207D01*
X-1004011Y-86156D01*
X-1008075Y-85852D01*
X-1031189Y-85953D01*
X-1032916Y-86410D01*
X-1034186Y-87020D01*
X-1038707Y-87782D01*
X-1038910Y-87985D01*
X-1040282Y-88290D01*
X-1045971Y-88290D01*
X-1049070Y-87528D01*
X-1051915Y-87172D01*
X-1053439Y-86512D01*
X-1055166Y-86055D01*
X-1057554Y-84988D01*
X-1058621Y-84277D01*
X-1059586Y-83972D01*
X-1061974Y-82092D01*
X-1065530Y-78486D01*
X-1066698Y-76860D01*
X-1067308Y-76606D01*
X-1067663Y-75844D01*
X-1068222Y-75488D01*
X-1069695Y-72745D01*
X-1070305Y-71983D01*
X-1072896Y-66090D01*
X-1073454Y-63906D01*
X-1074013Y-62687D01*
X-1074978Y-58572D01*
X-1075740Y-53441D01*
X-1076045Y-49936D01*
X-1076147Y-43434D01*
X-1119174Y-43434D01*
X-1119174Y-186283D01*
X-1054201Y-186283D01*
X-1052626Y-181762D01*
X-1049223Y-177698D01*
X-1047445Y-176631D01*
X-1044702Y-175818D01*
X-1016406Y-175615D01*
X-847852Y-175310D01*
X-846632Y-173786D01*
X-845210Y-169468D01*
X-841502Y-161696D01*
X-841044Y-161290D01*
X-839520Y-158800D01*
X-836574Y-155244D01*
X-833475Y-151942D01*
X-829970Y-149047D01*
X-824230Y-145440D01*
X-822706Y-144830D01*
X-822096Y-144322D01*
X-816559Y-142341D01*
X-811377Y-141376D01*
X-771753Y-140970D01*
X-661619Y-140817D01*
X-605434Y-141274D01*
X-602894Y-141884D01*
X-600557Y-142189D01*
X-599084Y-142798D01*
X-597103Y-143256D01*
X-595680Y-144018D01*
X-594207Y-144424D01*
X-593496Y-144983D01*
X-592074Y-145491D01*
X-587908Y-148285D01*
X-587298Y-148488D01*
X-582066Y-153009D01*
X-578307Y-157175D01*
X-575564Y-161188D01*
X-575056Y-161544D01*
X-572871Y-165912D01*
X-571195Y-170129D01*
X-569722Y-174650D01*
X-568299Y-181508D01*
X-568045Y-186334D01*
X-568147Y-193649D01*
X-568604Y-196951D01*
X-569722Y-202031D01*
X-571093Y-206349D01*
X-572770Y-210515D01*
X-576072Y-216509D01*
X-577799Y-218897D01*
X-582218Y-223824D01*
X-586638Y-227736D01*
X-590651Y-230276D01*
X-594461Y-232359D01*
X-596036Y-232765D01*
X-597154Y-233425D01*
X-601268Y-234645D01*
X-605536Y-235407D01*
X-645058Y-235762D01*
X-779018Y-235762D01*
X-811733Y-235356D01*
X-816813Y-234188D01*
X-822401Y-232156D01*
X-827684Y-229209D01*
X-828497Y-228498D01*
X-829868Y-227787D01*
X-834034Y-224129D01*
X-837539Y-220370D01*
X-841502Y-214934D01*
X-843991Y-210058D01*
X-845616Y-206248D01*
X-846582Y-203098D01*
X-847852Y-201371D01*
X-1023315Y-201066D01*
X-1045057Y-200812D01*
X-1047953Y-199745D01*
X-1049223Y-198983D01*
X-1051407Y-196850D01*
X-1052322Y-195630D01*
X-1054100Y-191058D01*
X-1054201Y-186283D01*
X-1119174Y-186283D01*
X-1119174Y-303479D01*
X-1053795Y-303479D01*
X-1053439Y-297637D01*
X-1052728Y-292760D01*
X-1051763Y-288696D01*
X-1049070Y-281736D01*
X-1047191Y-278028D01*
X-1046276Y-276809D01*
X-1045413Y-275183D01*
X-1043279Y-272389D01*
X-1038352Y-267004D01*
X-1033932Y-263347D01*
X-1031697Y-262026D01*
X-1031240Y-261518D01*
X-1029716Y-260959D01*
X-1029258Y-260502D01*
X-1027531Y-259892D01*
X-1026871Y-259384D01*
X-1024331Y-258368D01*
X-1020114Y-257149D01*
X-1016812Y-256489D01*
X-1008887Y-256235D01*
X-959256Y-255930D01*
X-818438Y-256032D01*
X-796848Y-256336D01*
X-791565Y-257454D01*
X-783996Y-260350D01*
X-782929Y-261112D01*
X-781710Y-261569D01*
X-774547Y-266954D01*
X-774344Y-267563D01*
X-773277Y-268376D01*
X-770229Y-271780D01*
X-769467Y-272948D01*
X-768908Y-273253D01*
X-768350Y-274167D01*
X-767943Y-274472D01*
X-764946Y-279603D01*
X-763117Y-283362D01*
X-761898Y-287223D01*
X-760882Y-289712D01*
X-760018Y-290017D01*
X-750925Y-290372D01*
X-582980Y-290626D01*
X-574192Y-290880D01*
X-572262Y-291541D01*
X-569874Y-292862D01*
X-567537Y-295198D01*
X-565607Y-298653D01*
X-565302Y-300329D01*
X-565200Y-306476D01*
X-566369Y-309727D01*
X-567690Y-311556D01*
X-569671Y-313639D01*
X-571347Y-314706D01*
X-574751Y-315925D01*
X-578662Y-316128D01*
X-754126Y-316484D01*
X-760577Y-316839D01*
X-760984Y-317093D01*
X-761746Y-318770D01*
X-762203Y-320802D01*
X-764438Y-325983D01*
X-767283Y-330911D01*
X-769162Y-333552D01*
X-772566Y-337667D01*
X-777392Y-341934D01*
X-780237Y-343966D01*
X-783844Y-346151D01*
X-785418Y-346811D01*
X-786180Y-347421D01*
X-793292Y-349656D01*
X-798779Y-350621D01*
X-859028Y-350875D01*
X-1012596Y-350672D01*
X-1016000Y-350418D01*
X-1021181Y-349250D01*
X-1024890Y-348030D01*
X-1028903Y-346252D01*
X-1033526Y-343509D01*
X-1037996Y-340004D01*
X-1043432Y-334111D01*
X-1044803Y-332384D01*
X-1047953Y-327253D01*
X-1049172Y-324510D01*
X-1049832Y-323545D01*
X-1052474Y-314706D01*
X-1053744Y-306984D01*
X-1053795Y-303479D01*
X-1119174Y-303479D01*
X-1119174Y-411480D01*
X-509574Y-411480D01*
X-509574Y30480D01*
G37*
G36*
X-660552Y-18491D02*
G01*
X-662787Y-18694D01*
X-663956Y-19507D01*
X-664972Y-19862D01*
X-667258Y-21945D01*
X-668223Y-23215D01*
X-668883Y-25298D01*
X-669137Y-28143D01*
X-668934Y-30937D01*
X-667613Y-34290D01*
X-667308Y-34340D01*
X-666597Y-35356D01*
X-666292Y-35407D01*
X-665480Y-36322D01*
X-661822Y-37642D01*
X-658723Y-37795D01*
X-655624Y-37642D01*
X-652830Y-36626D01*
X-651967Y-36118D01*
X-651357Y-35407D01*
X-651052Y-35356D01*
X-649427Y-32512D01*
X-648716Y-29209D01*
X-648563Y-25958D01*
X-649732Y-23012D01*
X-651408Y-20878D01*
X-652576Y-19913D01*
X-655523Y-18745D01*
G37*
G36*
X-729234Y-26822D02*
G01*
X-730808Y-28244D01*
X-731316Y-29159D01*
X-735533Y-34696D01*
X-735990Y-35560D01*
X-736498Y-35712D01*
X-737057Y-36728D01*
X-741121Y-42011D01*
X-742645Y-44297D01*
X-743153Y-44551D01*
X-747471Y-50647D01*
X-747115Y-51358D01*
X-744067Y-51714D01*
X-731570Y-51714D01*
X-728522Y-51358D01*
X-728218Y-47345D01*
X-728116Y-39116D01*
X-728268Y-30937D01*
X-728624Y-27025D01*
G37*
G36*
X-975207Y-27076D02*
G01*
X-975817Y-27381D01*
X-976985Y-30937D01*
X-977442Y-33528D01*
X-977950Y-35153D01*
X-978255Y-37338D01*
X-978916Y-39471D01*
X-979373Y-42113D01*
X-979881Y-43789D01*
X-980338Y-46431D01*
X-980846Y-48056D01*
X-981151Y-50241D01*
X-981862Y-52374D01*
X-982268Y-55016D01*
X-982776Y-56032D01*
X-982218Y-56743D01*
X-979982Y-57048D01*
X-971042Y-57150D01*
X-968756Y-56896D01*
X-968552Y-56134D01*
X-968756Y-53035D01*
X-969467Y-50596D01*
X-969924Y-48006D01*
X-970483Y-46228D01*
X-970889Y-43230D01*
X-973328Y-32867D01*
X-973632Y-30784D01*
X-974191Y-29413D01*
X-974547Y-27736D01*
G37*
G36*
X-660654Y-50698D02*
G01*
X-663549Y-51206D01*
X-666089Y-52679D01*
X-667766Y-54406D01*
X-668121Y-55168D01*
X-668680Y-55524D01*
X-669442Y-57505D01*
X-669950Y-59740D01*
X-669798Y-63246D01*
X-669188Y-66497D01*
X-667969Y-68427D01*
X-665581Y-70764D01*
X-664057Y-71475D01*
X-662076Y-72034D01*
X-655574Y-72034D01*
X-653592Y-71475D01*
X-651814Y-70612D01*
X-650087Y-68986D01*
X-648817Y-67106D01*
X-647903Y-64211D01*
X-647852Y-59029D01*
X-648970Y-55524D01*
X-649528Y-55168D01*
X-649884Y-54406D01*
X-651814Y-52476D01*
X-655066Y-51003D01*
G37*
G36*
X1275638Y-1714754D02*
G01*
X1227988Y-1754886D01*
X1212850Y-1767382D01*
X1203706Y-1774494D01*
X1200912Y-1776425D01*
X1198981Y-1777441D01*
X1197711Y-1777746D01*
X1194612Y-1777746D01*
X1195425Y-1767839D01*
X1198880Y-1767839D01*
X1206398Y-1765858D01*
X1210818Y-1761134D01*
X1211224Y-1755393D01*
X1206906Y-1750415D01*
X1203909Y-1749348D01*
X1200150Y-1748993D01*
X1196441Y-1749348D01*
X1192225Y-1751025D01*
X1190904Y-1751025D01*
X1189126Y-1750364D01*
X1181404Y-1746300D01*
X1175359Y-1744116D01*
X1168349Y-1742287D01*
X1156106Y-1740103D01*
X1153414Y-1739442D01*
X1152042Y-1738680D01*
X1151636Y-1737766D01*
X1149858Y-1736953D01*
X1145133Y-1736394D01*
X1130706Y-1735785D01*
X1122934Y-1735785D01*
X1116076Y-1736039D01*
X1111148Y-1736496D01*
X1105712Y-1738477D01*
X1098346Y-1739696D01*
X1088898Y-1740611D01*
X1079347Y-1740966D01*
X1070610Y-1740966D01*
X1070610Y-1742948D01*
X1130554Y-1742948D01*
X1141222Y-1743202D01*
X1142796Y-1743760D01*
X1142949Y-1744675D01*
X1142288Y-1745589D01*
X1140409Y-1746148D01*
X1136599Y-1746504D01*
X1117803Y-1747012D01*
X1117803Y-1742948D01*
X1070610Y-1742948D01*
X1070457Y-1744472D01*
X1069949Y-1745335D01*
X1069187Y-1745996D01*
X1064717Y-1748028D01*
X1060602Y-1750822D01*
X1056741Y-1754073D01*
X1053084Y-1758492D01*
X1052008Y-1759254D01*
X1062431Y-1759254D01*
X1063040Y-1758188D01*
X1065326Y-1756308D01*
X1067917Y-1754530D01*
X1069543Y-1754022D01*
X1070356Y-1754784D01*
X1070610Y-1756867D01*
X1070508Y-1758492D01*
X1069949Y-1759407D01*
X1068679Y-1759762D01*
X1085138Y-1759864D01*
X1085291Y-1750822D01*
X1086612Y-1748942D01*
X1090574Y-1747926D01*
X1104341Y-1746453D01*
X1107440Y-1746605D01*
X1108659Y-1747774D01*
X1109472Y-1753920D01*
X1151026Y-1753362D01*
X1151839Y-1746757D01*
X1156868Y-1747418D01*
X1167282Y-1749399D01*
X1176477Y-1752346D01*
X1183030Y-1755698D01*
X1185519Y-1758848D01*
X1184706Y-1759102D01*
X1178255Y-1759457D01*
X1146860Y-1759813D01*
X1063498Y-1759762D01*
X1062431Y-1759254D01*
X1051864Y-1759356D01*
X1050137Y-1759762D01*
X1042822Y-1759864D01*
X1042822Y-1766824D01*
X1053439Y-1766824D01*
X1053581Y-1767839D01*
X1165656Y-1767941D01*
X1179931Y-1768246D01*
X1186027Y-1768703D01*
X1186738Y-1769059D01*
X1186383Y-1772157D01*
X1185672Y-1774952D01*
X1184656Y-1776984D01*
X1182776Y-1778152D01*
X1182268Y-1779422D01*
X1181963Y-1781810D01*
X1181912Y-1793239D01*
X1180231Y-1794611D01*
X1192682Y-1794611D01*
X1193698Y-1792071D01*
X1197254Y-1788515D01*
X1200759Y-1785772D01*
X1202690Y-1785112D01*
X1203502Y-1786686D01*
X1203655Y-1796694D01*
X1198219Y-1796694D01*
X1194155Y-1796135D01*
X1192682Y-1794611D01*
X1180231Y-1794611D01*
X1161491Y-1809902D01*
X1160729Y-1803146D01*
X1108100Y-1802587D01*
X1108100Y-1816557D01*
X1139190Y-1816658D01*
X1151077Y-1817065D01*
X1152855Y-1817319D01*
X1151585Y-1818690D01*
X1143000Y-1826107D01*
X1120648Y-1844548D01*
X1079449Y-1808734D01*
X1069949Y-1799996D01*
X1067358Y-1796897D01*
X1065784Y-1793951D01*
X1064869Y-1790852D01*
X1063294Y-1773986D01*
X1062583Y-1769567D01*
X1061974Y-1767839D01*
X1053581Y-1767839D01*
X1056284Y-1788210D01*
X1014882Y-1752803D01*
X972058Y-1715719D01*
X971651Y-1719529D01*
X971651Y-1721815D01*
X972667Y-1723898D01*
X975309Y-1726641D01*
X1056944Y-1797151D01*
X1058081Y-1808124D01*
X1067054Y-1808124D01*
X1067511Y-1807565D01*
X1068984Y-1808225D01*
X1071676Y-1810207D01*
X1115560Y-1848307D01*
X1125829Y-1848307D01*
X1164336Y-1816709D01*
X1179525Y-1804924D01*
X1182014Y-1803400D01*
X1182166Y-1805178D01*
X1181455Y-1815642D01*
X1174750Y-1873757D01*
X1173022Y-1886204D01*
X1172565Y-1888236D01*
X1171397Y-1887575D01*
X1164285Y-1881936D01*
X1153007Y-1872437D01*
X1140104Y-1861159D01*
X1125829Y-1848307D01*
X1115618Y-1848357D01*
X1088339Y-1871776D01*
X1078992Y-1879447D01*
X1076553Y-1880971D01*
X1075131Y-1881174D01*
X1074420Y-1880158D01*
X1069390Y-1833168D01*
X1067054Y-1808124D01*
X1058081Y-1808124D01*
X1066647Y-1889709D01*
X1065195Y-1890928D01*
X1075436Y-1890928D01*
X1106170Y-1864969D01*
X1120444Y-1853488D01*
X1122781Y-1855165D01*
X1136802Y-1866849D01*
X1163726Y-1890115D01*
X1168552Y-1894839D01*
X1171244Y-1898192D01*
X1171956Y-1900529D01*
X1170990Y-1902307D01*
X1168552Y-1903780D01*
X1164793Y-1905304D01*
X1158341Y-1908759D01*
X1153414Y-1913229D01*
X1150315Y-1918462D01*
X1149248Y-1924202D01*
X1149248Y-1925370D01*
X1161592Y-1925370D01*
X1163167Y-1919071D01*
X1166672Y-1915515D01*
X1171397Y-1913585D01*
X1176477Y-1913483D01*
X1181252Y-1915261D01*
X1186027Y-1920290D01*
X1186992Y-1925929D01*
X1184402Y-1930907D01*
X1178407Y-1933956D01*
X1170330Y-1933956D01*
X1164386Y-1930704D01*
X1161592Y-1925370D01*
X1149248Y-1925370D01*
X1149248Y-1927047D01*
X1079093Y-1926742D01*
X1075436Y-1890928D01*
X1065195Y-1890928D01*
X976934Y-1964842D01*
X981964Y-1968957D01*
X1033881Y-1925574D01*
X1060704Y-1903831D01*
X1066596Y-1899564D01*
X1067460Y-1899259D01*
X1068273Y-1904796D01*
X1070914Y-1927961D01*
X1071676Y-1931365D01*
X1073099Y-1934006D01*
X1074216Y-1937461D01*
X1074826Y-1944471D01*
X1090574Y-1944471D01*
X1091285Y-1934006D01*
X1151788Y-1934006D01*
X1154785Y-1936953D01*
X1158646Y-1940052D01*
X1162913Y-1942338D01*
X1167434Y-1943811D01*
X1172057Y-1944522D01*
X1176731Y-1944522D01*
X1181252Y-1943811D01*
X1185519Y-1942388D01*
X1189431Y-1940356D01*
X1192834Y-1937715D01*
X1195578Y-1934464D01*
X1197610Y-1930704D01*
X1198676Y-1926386D01*
X1199438Y-1920951D01*
X1248968Y-1963826D01*
X1254455Y-1968144D01*
X1259281Y-1964537D01*
X1180947Y-1896567D01*
X1190548Y-1811731D01*
X1191717Y-1803654D01*
X1210919Y-1803654D01*
X1210919Y-1777492D01*
X1276400Y-1722120D01*
G37*
G36*
X1175156Y-1917496D02*
G01*
X1170990Y-1917801D01*
X1166977Y-1920798D01*
X1166418Y-1925269D01*
X1168958Y-1929282D01*
X1174089Y-1931009D01*
X1177086Y-1930349D01*
X1179982Y-1928622D01*
X1182217Y-1926336D01*
X1183081Y-1924050D01*
X1181963Y-1921002D01*
X1179068Y-1918716D01*
G37*
G36*
X1083208Y-2019604D02*
G01*
X1021232Y-2019858D01*
X996442Y-2020265D01*
X996137Y-2022449D01*
X995680Y-2035962D01*
X995629Y-2070354D01*
X1248410Y-2070354D01*
X1248410Y-2019604D01*
G37*
G36*
X-413207Y-1532128D02*
G01*
X-389382Y-1606550D01*
X-379730Y-1606550D01*
X-356057Y-1532128D01*
X-364490Y-1532128D01*
X-384251Y-1597914D01*
X-384556Y-1597914D01*
X-388416Y-1585569D01*
X-391922Y-1573276D01*
X-404317Y-1532128D01*
G37*
G36*
X82296Y-1530858D02*
G01*
X73152Y-1532280D01*
X65887Y-1536293D01*
X61163Y-1542440D01*
X59436Y-1550162D01*
X60807Y-1557324D01*
X64363Y-1562658D01*
X69189Y-1566468D01*
X74422Y-1569212D01*
X90322Y-1576324D01*
X94386Y-1578965D01*
X97078Y-1582623D01*
X98044Y-1587754D01*
X96875Y-1592935D01*
X93573Y-1596948D01*
X88392Y-1599539D01*
X81534Y-1600454D01*
X75692Y-1599793D01*
X70154Y-1597964D01*
X65125Y-1594967D01*
X60706Y-1591056D01*
X55626Y-1596898D01*
X60858Y-1601368D01*
X66954Y-1604822D01*
X73863Y-1607058D01*
X81534Y-1607820D01*
X86969Y-1607413D01*
X91846Y-1606194D01*
X96113Y-1604314D01*
X99669Y-1601774D01*
X102565Y-1598726D01*
X104698Y-1595170D01*
X105968Y-1591259D01*
X106426Y-1586992D01*
X105206Y-1579829D01*
X101904Y-1574444D01*
X96977Y-1570329D01*
X90932Y-1567180D01*
X75946Y-1560576D01*
X71932Y-1558036D01*
X68986Y-1554530D01*
X67818Y-1549654D01*
X68884Y-1544878D01*
X71831Y-1541272D01*
X76403Y-1538986D01*
X82296Y-1538224D01*
X87376Y-1538732D01*
X91897Y-1540154D01*
X95961Y-1542389D01*
X99568Y-1545336D01*
X103885Y-1540002D01*
X99618Y-1536344D01*
X94538Y-1533448D01*
X88696Y-1531518D01*
G37*
G36*
X-138176Y-1530858D02*
G01*
X-142951Y-1531162D01*
X-147472Y-1532077D01*
X-151688Y-1533550D01*
X-155549Y-1535582D01*
X-159105Y-1538122D01*
X-162255Y-1541221D01*
X-165049Y-1544777D01*
X-167335Y-1548841D01*
X-169214Y-1553362D01*
X-170586Y-1558340D01*
X-171399Y-1563674D01*
X-171704Y-1569466D01*
X-171094Y-1577949D01*
X-169265Y-1585518D01*
X-166370Y-1592072D01*
X-162407Y-1597609D01*
X-157632Y-1601978D01*
X-151993Y-1605178D01*
X-145643Y-1607159D01*
X-138684Y-1607820D01*
X-131622Y-1607210D01*
X-125374Y-1605432D01*
X-120040Y-1602790D01*
X-115824Y-1599438D01*
X-115824Y-1568450D01*
X-139954Y-1568450D01*
X-139954Y-1575562D01*
X-123698Y-1575562D01*
X-123698Y-1595882D01*
X-126441Y-1597761D01*
X-129844Y-1599234D01*
X-133756Y-1600149D01*
X-137922Y-1600454D01*
X-143611Y-1599895D01*
X-148590Y-1598269D01*
X-152908Y-1595577D01*
X-156514Y-1591970D01*
X-159308Y-1587449D01*
X-161391Y-1582115D01*
X-162661Y-1576019D01*
X-163068Y-1569212D01*
X-162610Y-1562404D01*
X-161340Y-1556308D01*
X-159207Y-1551025D01*
X-156311Y-1546555D01*
X-152704Y-1542999D01*
X-148386Y-1540408D01*
X-143459Y-1538782D01*
X-137922Y-1538224D01*
X-132537Y-1538782D01*
X-128168Y-1540357D01*
X-124510Y-1542592D01*
X-121412Y-1545336D01*
X-116839Y-1540002D01*
X-120548Y-1536649D01*
X-125222Y-1533702D01*
X-131064Y-1531620D01*
G37*
G36*
X-1290828Y-356260D02*
G01*
X-1295501Y-361391D01*
X-1299565Y-367842D01*
X-1302461Y-375869D01*
X-1303528Y-385673D01*
X-1303070Y-391617D01*
X-1301699Y-397103D01*
X-1299514Y-402082D01*
X-1296517Y-406400D01*
X-1292707Y-409956D01*
X-1288186Y-412648D01*
X-1283004Y-414324D01*
X-1277112Y-414934D01*
X-1268272Y-413359D01*
X-1261262Y-409092D01*
X-1256233Y-402793D01*
X-1253236Y-395071D01*
X-1252728Y-395071D01*
X-1249324Y-401878D01*
X-1244447Y-407212D01*
X-1238097Y-410616D01*
X-1230122Y-411886D01*
X-1224991Y-411327D01*
X-1220419Y-409854D01*
X-1216507Y-407466D01*
X-1213256Y-404266D01*
X-1210665Y-400405D01*
X-1208786Y-395884D01*
X-1207668Y-390906D01*
X-1207262Y-385470D01*
X-1208074Y-377850D01*
X-1210310Y-371043D01*
X-1213713Y-364998D01*
X-1217930Y-359562D01*
X-1224788Y-365404D01*
X-1221130Y-369620D01*
X-1218234Y-374294D01*
X-1216304Y-379425D01*
X-1215644Y-384962D01*
X-1216761Y-391769D01*
X-1219809Y-396849D01*
X-1224635Y-400100D01*
X-1230884Y-401218D01*
X-1234643Y-400862D01*
X-1238148Y-399846D01*
X-1241247Y-398068D01*
X-1243939Y-395427D01*
X-1246124Y-391922D01*
X-1247800Y-387350D01*
X-1248816Y-381762D01*
X-1249172Y-375005D01*
X-1257554Y-375005D01*
X-1257909Y-382473D01*
X-1258925Y-388721D01*
X-1260551Y-393852D01*
X-1262786Y-397865D01*
X-1265529Y-400862D01*
X-1268780Y-402945D01*
X-1272489Y-404114D01*
X-1276604Y-404520D01*
X-1284122Y-403047D01*
X-1289812Y-398983D01*
X-1293368Y-392836D01*
X-1294638Y-384962D01*
X-1293774Y-377444D01*
X-1291386Y-371144D01*
X-1287983Y-365912D01*
X-1283970Y-361594D01*
G37*
G36*
X-1291082Y-425602D02*
G01*
X-1295603Y-430834D01*
X-1299565Y-437286D01*
X-1302461Y-445211D01*
X-1303528Y-455015D01*
X-1302969Y-460705D01*
X-1301394Y-466140D01*
X-1298752Y-471220D01*
X-1295196Y-475742D01*
X-1290624Y-479551D01*
X-1285189Y-482447D01*
X-1278890Y-484327D01*
X-1271778Y-484987D01*
X-1264564Y-484428D01*
X-1258417Y-482854D01*
X-1253236Y-480263D01*
X-1249070Y-476910D01*
X-1245870Y-472795D01*
X-1243584Y-468071D01*
X-1242263Y-462889D01*
X-1241806Y-457352D01*
X-1242060Y-453085D01*
X-1242872Y-449275D01*
X-1244142Y-445871D01*
X-1245870Y-442620D01*
X-1217676Y-445160D01*
X-1217676Y-480720D01*
X-1208786Y-480720D01*
X-1208786Y-436270D01*
X-1251966Y-433171D01*
X-1255522Y-438810D01*
X-1253134Y-442620D01*
X-1251407Y-446379D01*
X-1250289Y-450342D01*
X-1249934Y-454812D01*
X-1251407Y-462940D01*
X-1255725Y-469188D01*
X-1262583Y-473201D01*
X-1271778Y-474573D01*
X-1281328Y-472948D01*
X-1288542Y-468528D01*
X-1293063Y-462076D01*
X-1294638Y-454304D01*
X-1293774Y-446684D01*
X-1291539Y-440385D01*
X-1288186Y-435254D01*
X-1284224Y-430936D01*
G37*
G36*
X-1208786Y-492099D02*
G01*
X-1301750Y-521868D01*
X-1301750Y-534060D01*
X-1208786Y-563778D01*
X-1208786Y-553110D01*
X-1290828Y-528421D01*
X-1290828Y-527913D01*
X-1260094Y-518820D01*
X-1208786Y-503021D01*
G37*
G36*
X-1255268Y30480D02*
G01*
X-1262583Y30124D01*
X-1269339Y29108D01*
X-1275537Y27432D01*
X-1281226Y25146D01*
X-1286256Y22301D01*
X-1290726Y18897D01*
X-1294536Y15036D01*
X-1297736Y10668D01*
X-1300226Y5842D01*
X-1302054Y609D01*
X-1303172Y-4978D01*
X-1303528Y-10922D01*
X-1302715Y-19659D01*
X-1300429Y-27432D01*
X-1296974Y-34086D01*
X-1292606Y-39370D01*
X-1254252Y-39370D01*
X-1254252Y-9144D01*
X-1262888Y-9144D01*
X-1262888Y-29464D01*
X-1288288Y-29464D01*
X-1290675Y-26060D01*
X-1292555Y-21844D01*
X-1293723Y-17018D01*
X-1294130Y-11938D01*
X-1293418Y-4724D01*
X-1291386Y1574D01*
X-1288135Y7061D01*
X-1283614Y11531D01*
X-1277975Y15138D01*
X-1271320Y17729D01*
X-1263599Y19304D01*
X-1255014Y19812D01*
X-1246479Y19253D01*
X-1238910Y17576D01*
X-1232306Y14935D01*
X-1226769Y11277D01*
X-1222349Y6705D01*
X-1219098Y1270D01*
X-1217066Y-4978D01*
X-1216406Y-11938D01*
X-1217117Y-18440D01*
X-1219047Y-23926D01*
X-1221892Y-28498D01*
X-1225296Y-32258D01*
X-1218438Y-38100D01*
X-1214424Y-33528D01*
X-1210868Y-27635D01*
X-1208278Y-20320D01*
X-1207262Y-11430D01*
X-1207617Y-5486D01*
X-1208735Y152D01*
X-1210564Y5384D01*
X-1213053Y10261D01*
X-1216202Y14681D01*
X-1220012Y18694D01*
X-1224483Y22148D01*
X-1229512Y25044D01*
X-1235100Y27381D01*
X-1241298Y29057D01*
X-1248003Y30124D01*
G37*
G36*
X-1301750Y-61722D02*
G01*
X-1301750Y-71628D01*
X-1243482Y-71526D01*
X-1222502Y-70358D01*
X-1222502Y-71120D01*
X-1241552Y-81280D01*
X-1301750Y-116078D01*
X-1301750Y-127000D01*
X-1208786Y-127000D01*
X-1208786Y-117094D01*
X-1259078Y-117094D01*
X-1273657Y-117551D01*
X-1288034Y-118364D01*
X-1288034Y-117856D01*
X-1268984Y-107696D01*
X-1208786Y-72644D01*
X-1208786Y-61722D01*
G37*
G36*
X-1301750Y-152908D02*
G01*
X-1301750Y-163576D01*
X-1217422Y-163576D01*
X-1217422Y-175006D01*
X-1217726Y-180390D01*
X-1218539Y-185318D01*
X-1219962Y-189788D01*
X-1221841Y-193751D01*
X-1224330Y-197256D01*
X-1227277Y-200253D01*
X-1230731Y-202793D01*
X-1234643Y-204876D01*
X-1239062Y-206451D01*
X-1243939Y-207619D01*
X-1249273Y-208330D01*
X-1255014Y-208534D01*
X-1260703Y-208330D01*
X-1266037Y-207619D01*
X-1270914Y-206451D01*
X-1275384Y-204876D01*
X-1279398Y-202793D01*
X-1282903Y-200253D01*
X-1285951Y-197256D01*
X-1288491Y-193751D01*
X-1290472Y-189788D01*
X-1291945Y-185318D01*
X-1292809Y-180390D01*
X-1293114Y-175006D01*
X-1293114Y-163576D01*
X-1301750Y-163576D01*
X-1301750Y-176276D01*
X-1301394Y-183032D01*
X-1300276Y-189230D01*
X-1298498Y-194868D01*
X-1296060Y-199948D01*
X-1292961Y-204419D01*
X-1289253Y-208330D01*
X-1284935Y-211632D01*
X-1280007Y-214325D01*
X-1274521Y-216458D01*
X-1268526Y-217982D01*
X-1262024Y-218897D01*
X-1255014Y-219202D01*
X-1247952Y-218897D01*
X-1241450Y-217982D01*
X-1235456Y-216458D01*
X-1230071Y-214325D01*
X-1225194Y-211582D01*
X-1220927Y-208229D01*
X-1217320Y-204317D01*
X-1214272Y-199796D01*
X-1211884Y-194665D01*
X-1210157Y-188976D01*
X-1209141Y-182676D01*
X-1208786Y-175768D01*
X-1208786Y-152908D01*
G37*
G36*
X-708152Y-1489557D02*
G01*
X-714552Y-1490370D01*
X-720191Y-1492554D01*
X-725170Y-1496009D01*
X-729742Y-1500479D01*
X-724916Y-1505102D01*
X-721512Y-1501648D01*
X-717702Y-1498803D01*
X-713587Y-1496872D01*
X-709168Y-1496212D01*
X-702868Y-1497380D01*
X-698449Y-1500581D01*
X-695807Y-1505508D01*
X-694944Y-1511655D01*
X-695452Y-1516634D01*
X-696976Y-1521815D01*
X-699566Y-1527302D01*
X-703224Y-1533093D01*
X-707999Y-1539240D01*
X-713892Y-1545742D01*
X-720953Y-1552752D01*
X-729234Y-1560220D01*
X-729234Y-1565249D01*
X-683260Y-1565249D01*
X-683260Y-1558137D01*
X-707542Y-1558188D01*
X-716788Y-1558645D01*
X-710234Y-1552346D01*
X-704392Y-1546199D01*
X-699262Y-1540205D01*
X-694944Y-1534312D01*
X-691489Y-1528470D01*
X-688949Y-1522730D01*
X-687374Y-1517040D01*
X-686816Y-1511452D01*
X-687171Y-1506677D01*
X-688289Y-1502460D01*
X-690067Y-1498701D01*
X-692505Y-1495552D01*
X-695604Y-1493012D01*
X-699262Y-1491132D01*
X-703427Y-1489964D01*
G37*
G36*
X-789686Y-1490878D02*
G01*
X-789686Y-1497736D01*
X-769366Y-1497736D01*
X-761492Y-1498346D01*
X-755751Y-1500479D01*
X-752246Y-1504340D01*
X-751078Y-1510131D01*
X-752144Y-1515465D01*
X-755446Y-1519478D01*
X-761238Y-1521968D01*
X-769874Y-1522831D01*
X-781304Y-1522831D01*
X-781304Y-1497736D01*
X-789686Y-1497736D01*
X-789686Y-1529181D01*
X-767842Y-1529181D01*
X-758850Y-1530045D01*
X-752246Y-1532686D01*
X-748182Y-1537004D01*
X-746760Y-1543202D01*
X-748182Y-1550111D01*
X-752348Y-1554937D01*
X-758952Y-1557731D01*
X-767842Y-1558645D01*
X-781304Y-1558645D01*
X-781304Y-1529181D01*
X-789686Y-1529181D01*
X-789686Y-1565249D01*
X-766572Y-1565249D01*
X-760526Y-1564944D01*
X-755091Y-1563928D01*
X-750265Y-1562252D01*
X-746201Y-1559864D01*
X-742899Y-1556816D01*
X-740410Y-1553057D01*
X-738886Y-1548587D01*
X-738378Y-1543405D01*
X-739495Y-1536598D01*
X-742696Y-1531416D01*
X-747572Y-1527759D01*
X-753872Y-1525676D01*
X-753872Y-1525168D01*
X-749147Y-1522730D01*
X-745591Y-1519072D01*
X-743458Y-1514449D01*
X-742696Y-1509115D01*
X-743153Y-1504645D01*
X-744575Y-1500835D01*
X-746760Y-1497685D01*
X-749757Y-1495145D01*
X-753465Y-1493215D01*
X-757783Y-1491894D01*
X-762711Y-1491132D01*
X-768096Y-1490878D01*
G37*
G36*
X-1154836Y-1490878D02*
G01*
X-1154836Y-1497736D01*
X-1134465Y-1497736D01*
X-1126591Y-1498346D01*
X-1120851Y-1500479D01*
X-1117396Y-1504340D01*
X-1116228Y-1510131D01*
X-1117244Y-1515465D01*
X-1120546Y-1519478D01*
X-1126388Y-1521968D01*
X-1134973Y-1522831D01*
X-1146454Y-1522831D01*
X-1146454Y-1497736D01*
X-1154836Y-1497736D01*
X-1154836Y-1529181D01*
X-1132992Y-1529181D01*
X-1124000Y-1530045D01*
X-1117396Y-1532686D01*
X-1113282Y-1537004D01*
X-1111910Y-1543202D01*
X-1113332Y-1550111D01*
X-1117498Y-1554937D01*
X-1124102Y-1557731D01*
X-1132992Y-1558645D01*
X-1146454Y-1558645D01*
X-1146454Y-1529181D01*
X-1154836Y-1529181D01*
X-1154836Y-1565249D01*
X-1131671Y-1565249D01*
X-1125677Y-1564944D01*
X-1120241Y-1563928D01*
X-1115415Y-1562252D01*
X-1111300Y-1559864D01*
X-1107998Y-1556816D01*
X-1105560Y-1553057D01*
X-1104036Y-1548587D01*
X-1103528Y-1543405D01*
X-1104646Y-1536598D01*
X-1107846Y-1531416D01*
X-1112723Y-1527759D01*
X-1118971Y-1525676D01*
X-1118971Y-1525168D01*
X-1114247Y-1522730D01*
X-1110742Y-1519072D01*
X-1108557Y-1514449D01*
X-1107795Y-1509115D01*
X-1108303Y-1504645D01*
X-1109675Y-1500835D01*
X-1111910Y-1497685D01*
X-1114907Y-1495145D01*
X-1118616Y-1493215D01*
X-1122934Y-1491894D01*
X-1127810Y-1491132D01*
X-1133195Y-1490878D01*
G37*
G36*
X-1071270Y-1490878D02*
G01*
X-1074420Y-1492453D01*
X-1077925Y-1493875D01*
X-1081887Y-1495044D01*
X-1086510Y-1495907D01*
X-1086510Y-1501292D01*
X-1073302Y-1501292D01*
X-1073302Y-1558442D01*
X-1090015Y-1558442D01*
X-1090015Y-1565249D01*
X-1049934Y-1565249D01*
X-1049934Y-1558442D01*
X-1065123Y-1558442D01*
X-1065123Y-1490878D01*
G37*
G36*
X432663Y-1411478D02*
G01*
X432663Y-1418336D01*
X452018Y-1418336D01*
X461009Y-1419047D01*
X467410Y-1421536D01*
X471271Y-1426057D01*
X472592Y-1433068D01*
X471322Y-1440230D01*
X467563Y-1445107D01*
X461314Y-1447952D01*
X452526Y-1448816D01*
X441045Y-1448816D01*
X441045Y-1418336D01*
X432663Y-1418336D01*
X432663Y-1485900D01*
X441045Y-1485900D01*
X441045Y-1455928D01*
X453745Y-1455928D01*
X459587Y-1455572D01*
X464870Y-1454556D01*
X469493Y-1452778D01*
X473456Y-1450289D01*
X476656Y-1447088D01*
X478993Y-1443177D01*
X480466Y-1438503D01*
X480923Y-1433068D01*
X480466Y-1427530D01*
X478993Y-1422958D01*
X476605Y-1419199D01*
X473405Y-1416253D01*
X469392Y-1414068D01*
X464667Y-1412595D01*
X459282Y-1411732D01*
X453237Y-1411478D01*
G37*
G36*
X488594Y-1411478D02*
G01*
X504545Y-1485900D01*
X514502Y-1485900D01*
X526186Y-1439672D01*
X529945Y-1422654D01*
X530504Y-1422654D01*
X534060Y-1439672D01*
X545947Y-1485900D01*
X555904Y-1485900D01*
X571652Y-1411478D01*
X563473Y-1411478D01*
X550773Y-1477010D01*
X550265Y-1477010D01*
X544931Y-1452880D01*
X534263Y-1411478D01*
X526389Y-1411478D01*
X515721Y-1452880D01*
X510387Y-1477010D01*
X510184Y-1477010D01*
X505612Y-1452880D01*
X497179Y-1411478D01*
G37*
G36*
X584860Y-1411478D02*
G01*
X584860Y-1485900D01*
X592429Y-1485900D01*
X592378Y-1437843D01*
X591413Y-1421384D01*
X591921Y-1421384D01*
X597763Y-1438148D01*
X612292Y-1478280D01*
X618134Y-1478280D01*
X638657Y-1421384D01*
X638962Y-1421384D01*
X637895Y-1442974D01*
X637895Y-1485900D01*
X645820Y-1485900D01*
X645820Y-1411478D01*
X635355Y-1411478D01*
X619607Y-1456131D01*
X615797Y-1468120D01*
X615289Y-1468120D01*
X595223Y-1411478D01*
G37*
G36*
X1220724Y-476504D02*
G01*
X1215745Y-477012D01*
X1211224Y-478485D01*
X1207211Y-480872D01*
X1203756Y-484174D01*
X1200962Y-488289D01*
X1198880Y-493217D01*
X1197559Y-498856D01*
X1197102Y-505206D01*
X1203706Y-505206D01*
X1204925Y-495604D01*
X1208430Y-488289D01*
X1213764Y-483717D01*
X1220724Y-482092D01*
X1227836Y-483717D01*
X1233271Y-488289D01*
X1236776Y-495604D01*
X1237996Y-505206D01*
X1236776Y-515010D01*
X1233271Y-522427D01*
X1227836Y-527151D01*
X1220724Y-528828D01*
X1213764Y-527151D01*
X1208379Y-522427D01*
X1204925Y-515010D01*
X1203706Y-505206D01*
X1197102Y-505206D01*
X1197559Y-511556D01*
X1198880Y-517296D01*
X1200962Y-522274D01*
X1203756Y-526491D01*
X1207211Y-529844D01*
X1211224Y-532333D01*
X1215745Y-533908D01*
X1220724Y-534416D01*
X1225753Y-533908D01*
X1230325Y-532333D01*
X1234338Y-529844D01*
X1237792Y-526491D01*
X1240536Y-522274D01*
X1242618Y-517296D01*
X1243888Y-511556D01*
X1244346Y-505206D01*
X1243888Y-498856D01*
X1242618Y-493217D01*
X1240536Y-488289D01*
X1237792Y-484174D01*
X1234338Y-480872D01*
X1230325Y-478485D01*
X1225753Y-477012D01*
G37*
G36*
X1276858Y-476504D02*
G01*
X1271930Y-477012D01*
X1267358Y-478485D01*
X1263345Y-480872D01*
X1259890Y-484174D01*
X1257096Y-488289D01*
X1255014Y-493217D01*
X1253693Y-498856D01*
X1253236Y-505206D01*
X1259840Y-505206D01*
X1261059Y-495604D01*
X1264564Y-488289D01*
X1269898Y-483717D01*
X1276858Y-482092D01*
X1283970Y-483717D01*
X1289405Y-488289D01*
X1292910Y-495604D01*
X1294130Y-505206D01*
X1292910Y-515010D01*
X1289405Y-522427D01*
X1283970Y-527151D01*
X1276858Y-528828D01*
X1269898Y-527151D01*
X1264513Y-522427D01*
X1261059Y-515010D01*
X1259840Y-505206D01*
X1253236Y-505206D01*
X1253693Y-511556D01*
X1255014Y-517296D01*
X1257096Y-522274D01*
X1259890Y-526491D01*
X1263345Y-529844D01*
X1267358Y-532333D01*
X1271930Y-533908D01*
X1276858Y-534416D01*
X1281887Y-533908D01*
X1286459Y-532333D01*
X1290472Y-529844D01*
X1293926Y-526491D01*
X1296670Y-522274D01*
X1298752Y-517296D01*
X1300022Y-511556D01*
X1300480Y-505206D01*
X1300022Y-498856D01*
X1298752Y-493217D01*
X1296670Y-488289D01*
X1293926Y-484174D01*
X1290472Y-480872D01*
X1286459Y-478485D01*
X1281887Y-477012D01*
G37*
G36*
X1369314Y-476504D02*
G01*
X1365504Y-476961D01*
X1362100Y-478282D01*
X1359154Y-480517D01*
X1356664Y-483616D01*
X1354683Y-487629D01*
X1353261Y-492556D01*
X1352346Y-498449D01*
X1352042Y-505206D01*
X1358138Y-505206D01*
X1358950Y-494639D01*
X1361236Y-487273D01*
X1364792Y-483006D01*
X1369314Y-481584D01*
X1373682Y-483006D01*
X1377137Y-487273D01*
X1379423Y-494639D01*
X1380236Y-505206D01*
X1379423Y-516026D01*
X1377137Y-523544D01*
X1373682Y-527913D01*
X1369314Y-529336D01*
X1364792Y-527913D01*
X1361236Y-523544D01*
X1358950Y-516026D01*
X1358138Y-505206D01*
X1352042Y-505206D01*
X1352346Y-512064D01*
X1353261Y-518007D01*
X1354683Y-523036D01*
X1356664Y-527151D01*
X1359154Y-530352D01*
X1362100Y-532587D01*
X1365504Y-533958D01*
X1369314Y-534416D01*
X1373022Y-533958D01*
X1376375Y-532587D01*
X1379270Y-530352D01*
X1381709Y-527151D01*
X1383690Y-523036D01*
X1385112Y-518007D01*
X1386027Y-512064D01*
X1386332Y-505206D01*
X1386027Y-498449D01*
X1385112Y-492556D01*
X1383690Y-487629D01*
X1381709Y-483616D01*
X1379270Y-480517D01*
X1376375Y-478282D01*
X1373022Y-476961D01*
G37*
G36*
X1150874Y-477520D02*
G01*
X1150874Y-482600D01*
X1166114Y-482600D01*
X1172006Y-483108D01*
X1176324Y-484733D01*
X1178915Y-487629D01*
X1179830Y-491998D01*
X1179017Y-495960D01*
X1176528Y-499008D01*
X1172108Y-500938D01*
X1165606Y-501650D01*
X1156970Y-501650D01*
X1156970Y-482600D01*
X1150874Y-482600D01*
X1150874Y-506476D01*
X1167130Y-506476D01*
X1173937Y-507085D01*
X1178915Y-509016D01*
X1182065Y-512267D01*
X1183132Y-516890D01*
X1182014Y-522020D01*
X1178864Y-525576D01*
X1173784Y-527659D01*
X1167130Y-528320D01*
X1156970Y-528320D01*
X1156970Y-506476D01*
X1150874Y-506476D01*
X1150874Y-533400D01*
X1168146Y-533400D01*
X1176680Y-532384D01*
X1183335Y-529386D01*
X1187704Y-524306D01*
X1189228Y-517143D01*
X1188415Y-512013D01*
X1186078Y-508050D01*
X1182370Y-505256D01*
X1177544Y-503682D01*
X1177544Y-503428D01*
X1181100Y-501548D01*
X1183741Y-498754D01*
X1185367Y-495249D01*
X1185926Y-491235D01*
X1184554Y-485038D01*
X1180693Y-480771D01*
X1174699Y-478282D01*
X1166876Y-477520D01*
G37*
G36*
X1305560Y-477520D02*
G01*
X1305560Y-482854D01*
X1322324Y-482854D01*
X1322324Y-533400D01*
X1328928Y-533400D01*
X1328928Y-482854D01*
X1345946Y-482854D01*
X1345946Y-477520D01*
G37*
G36*
X1525270Y-588162D02*
G01*
X1517700Y-588924D01*
X1510995Y-591210D01*
X1504899Y-594563D01*
X1499362Y-598779D01*
X1505204Y-605637D01*
X1509420Y-601980D01*
X1514144Y-599084D01*
X1519224Y-597204D01*
X1524762Y-596544D01*
X1531569Y-597611D01*
X1536700Y-600710D01*
X1539900Y-605536D01*
X1541018Y-611784D01*
X1540662Y-615543D01*
X1539646Y-618998D01*
X1537817Y-622096D01*
X1535176Y-624789D01*
X1531620Y-627024D01*
X1527098Y-628650D01*
X1521510Y-629666D01*
X1514856Y-630021D01*
X1514856Y-638454D01*
X1522323Y-638759D01*
X1528572Y-639775D01*
X1533652Y-641451D01*
X1537665Y-643686D01*
X1540713Y-646430D01*
X1542745Y-649681D01*
X1543964Y-653389D01*
X1544320Y-657504D01*
X1542846Y-665022D01*
X1538833Y-670661D01*
X1532636Y-674268D01*
X1524762Y-675487D01*
X1517243Y-674624D01*
X1510995Y-672287D01*
X1505762Y-668883D01*
X1501394Y-664870D01*
X1496060Y-671728D01*
X1501190Y-676351D01*
X1507642Y-680415D01*
X1515668Y-683310D01*
X1525524Y-684428D01*
X1531467Y-683920D01*
X1536954Y-682599D01*
X1541932Y-680415D01*
X1546250Y-677367D01*
X1549755Y-673608D01*
X1552448Y-669086D01*
X1554124Y-663854D01*
X1554734Y-658012D01*
X1553159Y-649173D01*
X1548942Y-642162D01*
X1542643Y-637082D01*
X1534922Y-634136D01*
X1534922Y-633628D01*
X1541729Y-630224D01*
X1547012Y-625348D01*
X1550466Y-618947D01*
X1551686Y-610971D01*
X1551178Y-605840D01*
X1549704Y-601319D01*
X1547368Y-597408D01*
X1544218Y-594156D01*
X1540306Y-591566D01*
X1535836Y-589686D01*
X1530756Y-588518D01*
G37*
G36*
X1629156Y-588162D02*
G01*
X1621586Y-588924D01*
X1614881Y-591210D01*
X1608886Y-594563D01*
X1603502Y-598779D01*
X1609344Y-605637D01*
X1613458Y-601980D01*
X1618081Y-599084D01*
X1623263Y-597204D01*
X1628901Y-596544D01*
X1635607Y-597611D01*
X1640738Y-600710D01*
X1643989Y-605536D01*
X1645157Y-611784D01*
X1644802Y-615543D01*
X1643786Y-618998D01*
X1641957Y-622096D01*
X1639316Y-624789D01*
X1635760Y-627024D01*
X1631238Y-628650D01*
X1625650Y-629666D01*
X1618996Y-630021D01*
X1618996Y-638454D01*
X1626463Y-638759D01*
X1632712Y-639775D01*
X1637792Y-641451D01*
X1641805Y-643686D01*
X1644853Y-646430D01*
X1646885Y-649681D01*
X1648104Y-653389D01*
X1648460Y-657504D01*
X1646986Y-665022D01*
X1642872Y-670661D01*
X1636674Y-674268D01*
X1628901Y-675487D01*
X1621383Y-674624D01*
X1615084Y-672287D01*
X1609801Y-668883D01*
X1605280Y-664870D01*
X1599946Y-671728D01*
X1605127Y-676351D01*
X1611680Y-680415D01*
X1619758Y-683310D01*
X1629664Y-684428D01*
X1635607Y-683920D01*
X1641093Y-682599D01*
X1646072Y-680415D01*
X1650390Y-677367D01*
X1653895Y-673608D01*
X1656588Y-669086D01*
X1658264Y-663854D01*
X1658874Y-658012D01*
X1657299Y-649173D01*
X1652981Y-642162D01*
X1646682Y-637082D01*
X1639062Y-634136D01*
X1639062Y-633628D01*
X1645716Y-630224D01*
X1650949Y-625348D01*
X1654352Y-618947D01*
X1655572Y-610971D01*
X1655064Y-605840D01*
X1653590Y-601319D01*
X1651254Y-597408D01*
X1648053Y-594156D01*
X1644192Y-591566D01*
X1639722Y-589686D01*
X1634642Y-588518D01*
G37*
G36*
X1666239Y-589686D02*
G01*
X1696212Y-682599D01*
X1708150Y-682599D01*
X1737868Y-589686D01*
X1727200Y-589686D01*
X1702562Y-671728D01*
X1702054Y-671728D01*
X1692910Y-640994D01*
X1677162Y-589686D01*
G37*
G36*
X1578864Y-667613D02*
G01*
X1575968Y-668274D01*
X1573530Y-670001D01*
X1571853Y-672693D01*
X1571244Y-675995D01*
X1571853Y-679348D01*
X1573530Y-682040D01*
X1575968Y-683768D01*
X1578864Y-684428D01*
X1582013Y-683768D01*
X1584502Y-682040D01*
X1586128Y-679348D01*
X1586738Y-675995D01*
X1586128Y-672693D01*
X1584502Y-670001D01*
X1582013Y-668274D01*
G37*
G36*
X-1305915Y-1032764D02*
G01*
X-1314450Y-1033373D01*
X-1322019Y-1035151D01*
X-1328572Y-1037996D01*
X-1334058Y-1041806D01*
X-1338478Y-1046480D01*
X-1341678Y-1051966D01*
X-1343609Y-1058062D01*
X-1344320Y-1064768D01*
X-1343609Y-1071524D01*
X-1341526Y-1077518D01*
X-1338173Y-1082751D01*
X-1333652Y-1087374D01*
X-1328318Y-1082548D01*
X-1331976Y-1078788D01*
X-1334719Y-1074724D01*
X-1336344Y-1070203D01*
X-1336954Y-1065022D01*
X-1336344Y-1059840D01*
X-1334719Y-1055217D01*
X-1332077Y-1051204D01*
X-1328470Y-1047800D01*
X-1323949Y-1045057D01*
X-1318615Y-1043076D01*
X-1312519Y-1041806D01*
X-1305712Y-1041400D01*
X-1298905Y-1041806D01*
X-1292809Y-1043076D01*
X-1287526Y-1045159D01*
X-1283055Y-1047902D01*
X-1279499Y-1051356D01*
X-1276858Y-1055420D01*
X-1275232Y-1060094D01*
X-1274673Y-1065276D01*
X-1275181Y-1069949D01*
X-1276654Y-1074064D01*
X-1278890Y-1077671D01*
X-1281836Y-1080770D01*
X-1276502Y-1085596D01*
X-1272997Y-1081887D01*
X-1270101Y-1077264D01*
X-1268069Y-1071676D01*
X-1267307Y-1065276D01*
X-1268018Y-1058468D01*
X-1270000Y-1052271D01*
X-1273251Y-1046734D01*
X-1277670Y-1041958D01*
X-1283208Y-1038098D01*
X-1289812Y-1035202D01*
X-1297432Y-1033373D01*
G37*
G36*
X-1342999Y-1091692D02*
G01*
X-1342999Y-1100074D01*
X-1319631Y-1107694D01*
X-1319631Y-1109726D01*
X-1313078Y-1109726D01*
X-1282192Y-1119378D01*
X-1275689Y-1121156D01*
X-1275689Y-1121664D01*
X-1300886Y-1129284D01*
X-1313078Y-1133348D01*
X-1313078Y-1109726D01*
X-1319631Y-1109726D01*
X-1319631Y-1135380D01*
X-1342999Y-1142746D01*
X-1342999Y-1151636D01*
X-1268628Y-1126236D01*
X-1268628Y-1117092D01*
G37*
G36*
X-1342999Y-1162558D02*
G01*
X-1342999Y-1170432D01*
X-1296568Y-1170330D01*
X-1279499Y-1169416D01*
X-1279499Y-1169924D01*
X-1294739Y-1178052D01*
X-1342999Y-1205992D01*
X-1342999Y-1214628D01*
X-1268628Y-1214628D01*
X-1268628Y-1206754D01*
X-1314754Y-1206855D01*
X-1332128Y-1207770D01*
X-1332128Y-1207262D01*
X-1316837Y-1199388D01*
X-1268628Y-1171194D01*
X-1268628Y-1162558D01*
G37*
G36*
X-1342999Y-1235456D02*
G01*
X-1342999Y-1276858D01*
X-1335887Y-1276858D01*
X-1335887Y-1243838D01*
X-1268628Y-1243838D01*
X-1268628Y-1235456D01*
G37*
G36*
X-1305915Y-714095D02*
G01*
X-1314450Y-714756D01*
X-1322019Y-716534D01*
X-1328572Y-719378D01*
X-1334058Y-723188D01*
X-1338478Y-727862D01*
X-1341678Y-733298D01*
X-1343609Y-739444D01*
X-1344320Y-746099D01*
X-1343609Y-752906D01*
X-1341526Y-758850D01*
X-1338173Y-764082D01*
X-1333652Y-768705D01*
X-1328318Y-763879D01*
X-1331976Y-760171D01*
X-1334719Y-756107D01*
X-1336344Y-751535D01*
X-1336954Y-746404D01*
X-1336344Y-741222D01*
X-1334719Y-736600D01*
X-1332077Y-732536D01*
X-1328470Y-729132D01*
X-1323949Y-726389D01*
X-1318615Y-724408D01*
X-1312519Y-723188D01*
X-1305712Y-722731D01*
X-1298905Y-723188D01*
X-1292809Y-724458D01*
X-1287526Y-726490D01*
X-1283055Y-729284D01*
X-1279499Y-732739D01*
X-1276858Y-736803D01*
X-1275232Y-741426D01*
X-1274673Y-746607D01*
X-1275181Y-751281D01*
X-1276654Y-755446D01*
X-1278890Y-759002D01*
X-1281836Y-762152D01*
X-1276502Y-766978D01*
X-1272997Y-763219D01*
X-1270101Y-758596D01*
X-1268069Y-753059D01*
X-1267307Y-746607D01*
X-1268018Y-739851D01*
X-1270000Y-733602D01*
X-1273251Y-728065D01*
X-1277670Y-723341D01*
X-1283208Y-719429D01*
X-1289812Y-716534D01*
X-1297432Y-714756D01*
G37*
G36*
X-1342999Y-773023D02*
G01*
X-1342999Y-781405D01*
X-1319631Y-789076D01*
X-1319631Y-791057D01*
X-1313078Y-791057D01*
X-1282192Y-800760D01*
X-1275689Y-802487D01*
X-1275689Y-802995D01*
X-1300886Y-810615D01*
X-1313078Y-814679D01*
X-1313078Y-791057D01*
X-1319631Y-791057D01*
X-1319631Y-816762D01*
X-1342999Y-824128D01*
X-1342999Y-833018D01*
X-1268628Y-807618D01*
X-1268628Y-798423D01*
G37*
G36*
X-1342999Y-843889D02*
G01*
X-1342999Y-851763D01*
X-1296568Y-851712D01*
X-1279499Y-850747D01*
X-1279499Y-851255D01*
X-1294739Y-859434D01*
X-1342999Y-887323D01*
X-1342999Y-896010D01*
X-1268628Y-896010D01*
X-1268628Y-888136D01*
X-1314754Y-888187D01*
X-1332128Y-889152D01*
X-1332128Y-888644D01*
X-1316837Y-880770D01*
X-1268628Y-852576D01*
X-1268628Y-843889D01*
G37*
G36*
X-1342999Y-916787D02*
G01*
X-1342999Y-925220D01*
X-1307439Y-925220D01*
X-1307439Y-961034D01*
X-1342999Y-961034D01*
X-1342999Y-969670D01*
X-1268628Y-969670D01*
X-1268628Y-961034D01*
X-1300073Y-961034D01*
X-1300073Y-925220D01*
X-1268628Y-925220D01*
X-1268628Y-916787D01*
G37*
G36*
X1594713Y-964336D02*
G01*
X1594713Y-973226D01*
X1622907Y-973226D01*
X1622907Y-1057249D01*
X1633626Y-1057249D01*
X1633626Y-973226D01*
X1662023Y-973226D01*
X1662023Y-964336D01*
G37*
G36*
X1667357Y-964336D02*
G01*
X1692757Y-1009294D01*
X1665579Y-1057249D01*
X1676552Y-1057249D01*
X1690776Y-1031392D01*
X1698345Y-1016355D01*
X1698904Y-1016355D01*
X1721205Y-1057249D01*
X1732686Y-1057249D01*
X1705457Y-1009802D01*
X1730857Y-964336D01*
X1719986Y-964336D01*
X1705102Y-992022D01*
X1700123Y-1002436D01*
X1699615Y-1002436D01*
X1679092Y-964336D01*
G37*
G36*
X1603654Y-837336D02*
G01*
X1603654Y-845921D01*
X1630273Y-845921D01*
X1640281Y-846836D01*
X1647596Y-849833D01*
X1652117Y-855167D01*
X1653692Y-863244D01*
X1652117Y-871219D01*
X1647596Y-876960D01*
X1640281Y-880364D01*
X1630273Y-881481D01*
X1614271Y-881481D01*
X1614271Y-845921D01*
X1603654Y-845921D01*
X1603654Y-930249D01*
X1614271Y-930249D01*
X1614271Y-890168D01*
X1631594Y-890168D01*
X1654657Y-930249D01*
X1666595Y-930249D01*
X1642770Y-889152D01*
X1647393Y-887730D01*
X1651558Y-885850D01*
X1655267Y-883412D01*
X1658416Y-880465D01*
X1660906Y-876960D01*
X1662785Y-872947D01*
X1663954Y-868375D01*
X1664360Y-863244D01*
X1663700Y-856640D01*
X1661922Y-851153D01*
X1659077Y-846632D01*
X1655267Y-843127D01*
X1650542Y-840486D01*
X1645056Y-838657D01*
X1638858Y-837641D01*
X1632102Y-837336D01*
G37*
G36*
X1673707Y-837336D02*
G01*
X1699107Y-882294D01*
X1671929Y-930249D01*
X1683105Y-930249D01*
X1697126Y-904392D01*
X1704695Y-889355D01*
X1705254Y-889355D01*
X1727555Y-930249D01*
X1739036Y-930249D01*
X1711807Y-882802D01*
X1737207Y-837336D01*
X1726336Y-837336D01*
X1711452Y-865022D01*
X1706473Y-875436D01*
X1705965Y-875436D01*
X1685442Y-837336D01*
G37*
G36*
X1529080Y-718312D02*
G01*
X1523136Y-718667D01*
X1517497Y-719785D01*
X1512265Y-721614D01*
X1507388Y-724103D01*
X1502968Y-727252D01*
X1498955Y-731062D01*
X1495501Y-735533D01*
X1492605Y-740562D01*
X1490268Y-746150D01*
X1488592Y-752348D01*
X1487525Y-759053D01*
X1487170Y-766318D01*
X1487525Y-773633D01*
X1488541Y-780389D01*
X1490218Y-786587D01*
X1492504Y-792276D01*
X1495348Y-797306D01*
X1498752Y-801776D01*
X1502613Y-805586D01*
X1506982Y-808786D01*
X1511808Y-811276D01*
X1517040Y-813104D01*
X1522628Y-814222D01*
X1528572Y-814578D01*
X1537309Y-813765D01*
X1545082Y-811479D01*
X1551736Y-808024D01*
X1557020Y-803656D01*
X1557020Y-765302D01*
X1526794Y-765302D01*
X1526794Y-773938D01*
X1547114Y-773938D01*
X1547114Y-799338D01*
X1543710Y-801725D01*
X1539494Y-803605D01*
X1534668Y-804773D01*
X1529588Y-805180D01*
X1522374Y-804468D01*
X1516075Y-802436D01*
X1510588Y-799185D01*
X1506118Y-794664D01*
X1502511Y-789025D01*
X1499920Y-782370D01*
X1498346Y-774649D01*
X1497838Y-766064D01*
X1498396Y-757529D01*
X1500073Y-749960D01*
X1502714Y-743356D01*
X1506372Y-737819D01*
X1510944Y-733399D01*
X1516380Y-730148D01*
X1522628Y-728116D01*
X1529588Y-727456D01*
X1536192Y-728167D01*
X1541678Y-730097D01*
X1546148Y-732942D01*
X1549908Y-736346D01*
X1555750Y-729488D01*
X1551178Y-725474D01*
X1545285Y-721918D01*
X1537970Y-719328D01*
G37*
G36*
X1579372Y-719836D02*
G01*
X1579372Y-812800D01*
X1589278Y-812800D01*
X1589176Y-754532D01*
X1588008Y-733552D01*
X1588770Y-733552D01*
X1598676Y-752602D01*
X1633728Y-812800D01*
X1644650Y-812800D01*
X1644650Y-719836D01*
X1634744Y-719836D01*
X1634744Y-770128D01*
X1635201Y-784707D01*
X1636014Y-799084D01*
X1635506Y-799084D01*
X1625346Y-780034D01*
X1590294Y-719836D01*
G37*
G36*
X1670557Y-719836D02*
G01*
X1670557Y-728472D01*
X1692656Y-728472D01*
X1698040Y-728776D01*
X1702968Y-729589D01*
X1707388Y-731012D01*
X1711350Y-732891D01*
X1714804Y-735380D01*
X1717751Y-738327D01*
X1720291Y-741781D01*
X1722323Y-745693D01*
X1723898Y-750112D01*
X1725015Y-754989D01*
X1725726Y-760323D01*
X1725930Y-766064D01*
X1725726Y-771753D01*
X1725015Y-777087D01*
X1723898Y-781964D01*
X1722323Y-786434D01*
X1720291Y-790448D01*
X1717751Y-793953D01*
X1714804Y-797001D01*
X1711350Y-799541D01*
X1707388Y-801522D01*
X1702968Y-802995D01*
X1698040Y-803859D01*
X1692656Y-804164D01*
X1681225Y-804164D01*
X1681225Y-728472D01*
X1670557Y-728472D01*
X1670557Y-812800D01*
X1693925Y-812800D01*
X1700682Y-812444D01*
X1706880Y-811326D01*
X1712518Y-809548D01*
X1717598Y-807110D01*
X1722069Y-804011D01*
X1725980Y-800303D01*
X1729282Y-795985D01*
X1731975Y-791057D01*
X1734108Y-785571D01*
X1735632Y-779576D01*
X1736547Y-773074D01*
X1736852Y-766064D01*
X1736547Y-759002D01*
X1735632Y-752500D01*
X1734108Y-746506D01*
X1731975Y-741121D01*
X1729232Y-736244D01*
X1725879Y-731977D01*
X1721967Y-728370D01*
X1717446Y-725322D01*
X1712315Y-722934D01*
X1706625Y-721207D01*
X1700326Y-720191D01*
X1693418Y-719836D01*
G37*
G36*
X1706625Y-464312D02*
G01*
X1700987Y-464667D01*
X1695704Y-465785D01*
X1690725Y-467614D01*
X1686153Y-470103D01*
X1681988Y-473252D01*
X1678279Y-477062D01*
X1675028Y-481482D01*
X1672336Y-486460D01*
X1670151Y-492048D01*
X1668576Y-498195D01*
X1667611Y-504901D01*
X1667256Y-512064D01*
X1678178Y-512064D01*
X1678686Y-503529D01*
X1680210Y-495960D01*
X1682648Y-489356D01*
X1685950Y-483819D01*
X1690014Y-479399D01*
X1694891Y-476148D01*
X1700428Y-474116D01*
X1706625Y-473456D01*
X1712823Y-474116D01*
X1718411Y-476148D01*
X1723288Y-479399D01*
X1727454Y-483819D01*
X1730806Y-489356D01*
X1733296Y-495960D01*
X1734820Y-503529D01*
X1735328Y-512064D01*
X1734820Y-520547D01*
X1733296Y-528116D01*
X1730806Y-534822D01*
X1727454Y-540461D01*
X1723288Y-545033D01*
X1718411Y-548386D01*
X1712823Y-550468D01*
X1706625Y-551180D01*
X1700428Y-550468D01*
X1694891Y-548386D01*
X1690014Y-545033D01*
X1685950Y-540461D01*
X1682648Y-534822D01*
X1680210Y-528116D01*
X1678686Y-520547D01*
X1678178Y-512064D01*
X1667256Y-512064D01*
X1667611Y-519226D01*
X1668576Y-525881D01*
X1670151Y-532079D01*
X1672336Y-537718D01*
X1675028Y-542848D01*
X1678279Y-547370D01*
X1681988Y-551281D01*
X1686153Y-554532D01*
X1690725Y-557123D01*
X1695704Y-559054D01*
X1700987Y-560171D01*
X1706625Y-560578D01*
X1712264Y-560171D01*
X1717548Y-559054D01*
X1722526Y-557123D01*
X1727098Y-554532D01*
X1731264Y-551281D01*
X1734972Y-547370D01*
X1738223Y-542848D01*
X1740916Y-537718D01*
X1743100Y-532079D01*
X1744675Y-525881D01*
X1745640Y-519226D01*
X1745996Y-512064D01*
X1745640Y-504901D01*
X1744675Y-498195D01*
X1743100Y-492048D01*
X1740916Y-486460D01*
X1738223Y-481482D01*
X1734972Y-477062D01*
X1731264Y-473252D01*
X1727098Y-470103D01*
X1722526Y-467614D01*
X1717548Y-465785D01*
X1712264Y-464667D01*
G37*
G36*
X1549654Y-465835D02*
G01*
X1549654Y-474472D01*
X1571752Y-474472D01*
X1577086Y-474776D01*
X1582013Y-475589D01*
X1586433Y-477012D01*
X1590395Y-478891D01*
X1593850Y-481380D01*
X1596898Y-484327D01*
X1599438Y-487781D01*
X1601571Y-491693D01*
X1603197Y-496112D01*
X1604365Y-500989D01*
X1605026Y-506323D01*
X1605280Y-512064D01*
X1605026Y-517753D01*
X1604365Y-523087D01*
X1603197Y-527964D01*
X1601571Y-532434D01*
X1599438Y-536448D01*
X1596898Y-539953D01*
X1593850Y-543001D01*
X1590395Y-545541D01*
X1586433Y-547522D01*
X1582013Y-548995D01*
X1577086Y-549859D01*
X1571752Y-550164D01*
X1560322Y-550164D01*
X1560322Y-474472D01*
X1549654Y-474472D01*
X1549654Y-558800D01*
X1573022Y-558800D01*
X1579727Y-558444D01*
X1585925Y-557326D01*
X1591513Y-555548D01*
X1596593Y-553110D01*
X1601063Y-550011D01*
X1604975Y-546303D01*
X1608277Y-541985D01*
X1611020Y-537057D01*
X1613154Y-531571D01*
X1614728Y-525576D01*
X1615643Y-519074D01*
X1615948Y-512064D01*
X1615643Y-505002D01*
X1614728Y-498500D01*
X1613154Y-492506D01*
X1611020Y-487121D01*
X1608277Y-482244D01*
X1604873Y-477977D01*
X1600962Y-474370D01*
X1596440Y-471322D01*
X1591310Y-468934D01*
X1585620Y-467207D01*
X1579321Y-466191D01*
X1572514Y-465835D01*
G37*
G36*
X1636522Y-465835D02*
G01*
X1636522Y-558800D01*
X1646936Y-558800D01*
X1646936Y-465835D01*
G37*
G36*
X1630680Y-1099312D02*
G01*
X1624685Y-1099769D01*
X1619250Y-1101140D01*
X1614322Y-1103274D01*
X1610156Y-1106119D01*
X1606702Y-1109675D01*
X1604162Y-1113790D01*
X1602536Y-1118412D01*
X1601978Y-1123442D01*
X1603756Y-1132281D01*
X1608277Y-1138885D01*
X1614424Y-1143660D01*
X1621028Y-1147064D01*
X1634489Y-1152906D01*
X1640687Y-1155903D01*
X1645716Y-1159357D01*
X1649018Y-1163878D01*
X1650238Y-1170178D01*
X1648866Y-1176731D01*
X1644853Y-1181811D01*
X1638452Y-1185011D01*
X1629918Y-1186180D01*
X1622602Y-1185367D01*
X1615694Y-1182979D01*
X1609344Y-1179322D01*
X1603756Y-1174496D01*
X1597406Y-1181608D01*
X1604010Y-1187450D01*
X1611630Y-1191818D01*
X1620215Y-1194612D01*
X1629664Y-1195578D01*
X1636572Y-1195070D01*
X1642668Y-1193546D01*
X1648053Y-1191107D01*
X1652524Y-1187907D01*
X1656130Y-1184046D01*
X1658721Y-1179626D01*
X1660347Y-1174699D01*
X1660906Y-1169416D01*
X1659382Y-1160272D01*
X1655267Y-1153464D01*
X1649120Y-1148384D01*
X1641602Y-1144524D01*
X1628139Y-1138936D01*
X1622704Y-1136446D01*
X1617726Y-1133195D01*
X1614068Y-1128776D01*
X1612646Y-1122680D01*
X1613966Y-1116838D01*
X1617675Y-1112316D01*
X1623364Y-1109472D01*
X1630680Y-1108456D01*
X1636979Y-1109116D01*
X1642618Y-1110894D01*
X1647698Y-1113688D01*
X1652270Y-1117346D01*
X1657857Y-1110488D01*
X1652524Y-1105966D01*
X1646072Y-1102410D01*
X1638757Y-1100124D01*
G37*
G36*
X1435354Y-1100836D02*
G01*
X1435354Y-1193800D01*
X1445260Y-1193800D01*
X1445260Y-1142746D01*
X1444802Y-1128471D01*
X1443990Y-1114552D01*
X1444752Y-1114552D01*
X1454912Y-1133602D01*
X1489710Y-1193800D01*
X1500632Y-1193800D01*
X1500632Y-1100836D01*
X1490472Y-1100836D01*
X1490472Y-1151128D01*
X1491030Y-1165707D01*
X1491996Y-1180084D01*
X1491488Y-1180084D01*
X1481328Y-1161034D01*
X1446022Y-1100836D01*
G37*
G36*
X1526540Y-1100836D02*
G01*
X1526540Y-1109472D01*
X1553464Y-1109472D01*
X1563420Y-1110386D01*
X1570634Y-1113332D01*
X1575054Y-1118666D01*
X1576578Y-1126744D01*
X1575054Y-1134770D01*
X1570634Y-1140460D01*
X1563420Y-1143863D01*
X1553464Y-1145032D01*
X1537208Y-1145032D01*
X1537208Y-1109472D01*
X1526540Y-1109472D01*
X1526540Y-1193800D01*
X1537208Y-1193800D01*
X1537208Y-1153668D01*
X1554480Y-1153668D01*
X1577848Y-1193800D01*
X1589532Y-1193800D01*
X1565656Y-1152652D01*
X1570278Y-1151280D01*
X1574495Y-1149350D01*
X1578203Y-1146911D01*
X1581302Y-1143965D01*
X1583842Y-1140510D01*
X1585671Y-1136446D01*
X1586839Y-1131874D01*
X1587246Y-1126744D01*
X1586636Y-1120140D01*
X1584909Y-1114653D01*
X1582064Y-1110183D01*
X1578254Y-1106627D01*
X1573580Y-1103985D01*
X1568043Y-1102207D01*
X1561846Y-1101191D01*
X1554988Y-1100836D01*
G37*
G36*
X1667764Y-1100836D02*
G01*
X1667764Y-1109726D01*
X1696212Y-1109726D01*
X1696212Y-1193800D01*
X1706880Y-1193800D01*
X1706880Y-1109726D01*
X1735328Y-1109726D01*
X1735328Y-1100836D01*
G37*
G36*
X1569110Y-337312D02*
G01*
X1563319Y-337667D01*
X1557883Y-338785D01*
X1552752Y-340614D01*
X1548028Y-343103D01*
X1543761Y-346252D01*
X1539900Y-350062D01*
X1536547Y-354533D01*
X1533753Y-359562D01*
X1531467Y-365150D01*
X1529791Y-371348D01*
X1528775Y-378053D01*
X1528470Y-385318D01*
X1528775Y-392633D01*
X1529791Y-399389D01*
X1531467Y-405587D01*
X1533702Y-411276D01*
X1536496Y-416306D01*
X1539798Y-420776D01*
X1543608Y-424586D01*
X1547825Y-427786D01*
X1552448Y-430276D01*
X1557426Y-432104D01*
X1562760Y-433222D01*
X1568297Y-433578D01*
X1576781Y-432714D01*
X1584248Y-430072D01*
X1590903Y-425856D01*
X1596745Y-420116D01*
X1590954Y-413512D01*
X1586026Y-418084D01*
X1580845Y-421436D01*
X1575155Y-423468D01*
X1568805Y-424180D01*
X1562303Y-423468D01*
X1556461Y-421436D01*
X1551381Y-418185D01*
X1547114Y-413664D01*
X1543710Y-408025D01*
X1541170Y-401370D01*
X1539646Y-393649D01*
X1539087Y-385064D01*
X1539646Y-376529D01*
X1541272Y-368960D01*
X1543862Y-362356D01*
X1547368Y-356819D01*
X1551736Y-352399D01*
X1556918Y-349148D01*
X1562811Y-347116D01*
X1569313Y-346456D01*
X1574952Y-347116D01*
X1579981Y-348894D01*
X1584502Y-351688D01*
X1588363Y-355346D01*
X1594205Y-348488D01*
X1589633Y-344271D01*
X1583842Y-340715D01*
X1576984Y-338226D01*
G37*
G36*
X1614271Y-338836D02*
G01*
X1614271Y-431800D01*
X1666087Y-431800D01*
X1666087Y-422909D01*
X1624939Y-422909D01*
X1624939Y-338836D01*
G37*
G36*
X1682394Y-338836D02*
G01*
X1682394Y-431800D01*
X1693062Y-431800D01*
X1693062Y-401828D01*
X1709521Y-382270D01*
X1738020Y-431800D01*
X1749704Y-431800D01*
X1716176Y-373888D01*
X1745386Y-338836D01*
X1733397Y-338836D01*
X1693062Y-386588D01*
X1693062Y-338836D01*
G37*
G36*
X1885696Y850392D02*
G01*
X1876552Y848969D01*
X1869287Y844956D01*
X1864563Y838809D01*
X1862836Y831087D01*
X1864207Y823925D01*
X1867763Y818591D01*
X1872589Y814781D01*
X1877822Y812038D01*
X1893722Y804926D01*
X1897786Y802284D01*
X1900478Y798626D01*
X1901443Y793496D01*
X1900275Y788314D01*
X1896973Y784301D01*
X1891792Y781710D01*
X1884934Y780796D01*
X1879092Y781456D01*
X1873554Y783285D01*
X1868525Y786282D01*
X1864106Y790194D01*
X1859025Y784352D01*
X1864258Y779881D01*
X1870354Y776427D01*
X1877263Y774192D01*
X1884934Y773430D01*
X1890369Y773836D01*
X1895246Y775055D01*
X1899513Y776935D01*
X1903069Y779475D01*
X1905965Y782523D01*
X1908098Y786079D01*
X1909368Y789990D01*
X1909825Y794258D01*
X1908606Y801420D01*
X1905304Y806805D01*
X1900377Y810920D01*
X1894332Y814069D01*
X1879346Y820674D01*
X1875332Y823214D01*
X1872386Y826719D01*
X1871218Y831596D01*
X1872284Y836371D01*
X1875231Y839978D01*
X1879803Y842264D01*
X1885696Y843026D01*
X1890775Y842518D01*
X1895297Y841095D01*
X1899361Y838860D01*
X1902968Y835914D01*
X1907286Y841248D01*
X1903018Y844905D01*
X1897938Y847801D01*
X1892096Y849731D01*
G37*
G36*
X1924812Y849121D02*
G01*
X1924812Y774700D01*
X1968246Y774700D01*
X1968246Y781812D01*
X1933193Y781812D01*
X1933193Y810260D01*
X1961642Y810260D01*
X1961642Y817372D01*
X1933193Y817372D01*
X1933193Y842010D01*
X1966975Y842010D01*
X1966975Y849121D01*
G37*
G36*
X1976882Y849121D02*
G01*
X1976882Y842010D01*
X1999488Y842010D01*
X1999488Y774700D01*
X2008124Y774700D01*
X2008124Y842010D01*
X2030984Y842010D01*
X2030984Y849121D01*
G37*
G36*
X-1220571Y-743610D02*
G01*
X-1220571Y-752246D01*
X-1214018Y-752246D01*
X-1187602Y-770280D01*
X-1176629Y-776122D01*
X-1176629Y-776630D01*
X-1186840Y-776122D01*
X-1214018Y-776122D01*
X-1214018Y-752246D01*
X-1220571Y-752246D01*
X-1220571Y-776122D01*
X-1241399Y-776122D01*
X-1241399Y-783996D01*
X-1220571Y-783996D01*
X-1220571Y-794156D01*
X-1214018Y-794156D01*
X-1214018Y-783996D01*
X-1167028Y-783996D01*
X-1167028Y-775106D01*
X-1215237Y-743610D01*
G37*
G36*
X-1222857Y-802030D02*
G01*
X-1230782Y-803757D01*
X-1237081Y-808634D01*
X-1241196Y-816051D01*
X-1242679Y-825652D01*
X-1236573Y-825652D01*
X-1235506Y-819150D01*
X-1232560Y-813968D01*
X-1228039Y-810615D01*
X-1222349Y-809396D01*
X-1217117Y-810209D01*
X-1212392Y-812444D01*
X-1208278Y-815898D01*
X-1204823Y-820318D01*
X-1208125Y-827989D01*
X-1209556Y-830478D01*
X-1201318Y-830478D01*
X-1198626Y-824128D01*
X-1195222Y-818591D01*
X-1190752Y-814679D01*
X-1184757Y-813206D01*
X-1179728Y-814120D01*
X-1175816Y-816762D01*
X-1173226Y-820674D01*
X-1172362Y-825652D01*
X-1173429Y-831189D01*
X-1176324Y-835253D01*
X-1180693Y-837742D01*
X-1186078Y-838606D01*
X-1190193Y-838047D01*
X-1194155Y-836523D01*
X-1197864Y-833983D01*
X-1201318Y-830478D01*
X-1209556Y-830478D01*
X-1211834Y-834440D01*
X-1216710Y-838962D01*
X-1223365Y-840638D01*
X-1228648Y-839520D01*
X-1232865Y-836472D01*
X-1235608Y-831697D01*
X-1236573Y-825652D01*
X-1242679Y-825652D01*
X-1241196Y-834796D01*
X-1237183Y-842060D01*
X-1231138Y-846785D01*
X-1223670Y-848512D01*
X-1216863Y-847445D01*
X-1211478Y-844600D01*
X-1207312Y-840536D01*
X-1204112Y-835812D01*
X-1203604Y-835812D01*
X-1200454Y-839216D01*
X-1196289Y-842467D01*
X-1191209Y-844956D01*
X-1185570Y-845972D01*
X-1177645Y-844550D01*
X-1171498Y-840536D01*
X-1167434Y-834186D01*
X-1166012Y-825652D01*
X-1167333Y-817676D01*
X-1171194Y-811326D01*
X-1177137Y-807110D01*
X-1184757Y-805586D01*
X-1190244Y-806399D01*
X-1194917Y-808634D01*
X-1198727Y-811885D01*
X-1201826Y-815746D01*
X-1202334Y-815746D01*
X-1205636Y-810666D01*
X-1210208Y-806297D01*
X-1215999Y-803198D01*
G37*
G36*
X-1232763Y-855878D02*
G01*
X-1236472Y-860044D01*
X-1239621Y-865174D01*
X-1241856Y-871575D01*
X-1242720Y-879500D01*
X-1242263Y-884021D01*
X-1240993Y-888339D01*
X-1238961Y-892403D01*
X-1236065Y-896010D01*
X-1232458Y-899007D01*
X-1228140Y-901344D01*
X-1223060Y-902817D01*
X-1217320Y-903376D01*
X-1211529Y-902919D01*
X-1206652Y-901598D01*
X-1202588Y-899566D01*
X-1199286Y-896874D01*
X-1196797Y-893622D01*
X-1195019Y-889863D01*
X-1194003Y-885698D01*
X-1193647Y-881278D01*
X-1193850Y-877874D01*
X-1194409Y-874928D01*
X-1195374Y-872236D01*
X-1196695Y-869594D01*
X-1174089Y-871626D01*
X-1174089Y-899820D01*
X-1167028Y-899820D01*
X-1167028Y-864260D01*
X-1201521Y-861974D01*
X-1204315Y-866546D01*
X-1202486Y-869594D01*
X-1201115Y-872591D01*
X-1200302Y-875690D01*
X-1199997Y-879246D01*
X-1201216Y-885748D01*
X-1204671Y-890727D01*
X-1210208Y-893876D01*
X-1217523Y-894994D01*
X-1225143Y-893673D01*
X-1230884Y-890168D01*
X-1234541Y-884986D01*
X-1235862Y-878738D01*
X-1235151Y-872693D01*
X-1233271Y-867714D01*
X-1230579Y-863650D01*
X-1227429Y-860196D01*
G37*
G36*
X-1241399Y-909472D02*
G01*
X-1241399Y-917854D01*
X-1218031Y-925474D01*
X-1218031Y-927506D01*
X-1211478Y-927506D01*
X-1199286Y-931570D01*
X-1174089Y-939190D01*
X-1174089Y-939444D01*
X-1186789Y-943152D01*
X-1211478Y-951128D01*
X-1211478Y-927506D01*
X-1218031Y-927506D01*
X-1218031Y-953160D01*
X-1241399Y-960526D01*
X-1241399Y-969670D01*
X-1167028Y-944016D01*
X-1167028Y-934872D01*
G37*
G36*
X-1214221Y-1049782D02*
G01*
X-1214221Y-1058418D01*
X-1207668Y-1058418D01*
X-1181252Y-1076452D01*
X-1170279Y-1082294D01*
X-1170279Y-1082802D01*
X-1183487Y-1082294D01*
X-1207668Y-1082294D01*
X-1207668Y-1058418D01*
X-1214221Y-1058418D01*
X-1214221Y-1082294D01*
X-1235049Y-1082294D01*
X-1235049Y-1090168D01*
X-1214221Y-1090168D01*
X-1214221Y-1100328D01*
X-1207668Y-1100328D01*
X-1207668Y-1090168D01*
X-1160678Y-1090168D01*
X-1160678Y-1081278D01*
X-1208887Y-1049782D01*
G37*
G36*
X-1216507Y-1108202D02*
G01*
X-1224432Y-1109980D01*
X-1230731Y-1114856D01*
X-1234846Y-1122222D01*
X-1236329Y-1131824D01*
X-1230223Y-1131824D01*
X-1229156Y-1125321D01*
X-1226210Y-1120190D01*
X-1221689Y-1116787D01*
X-1215999Y-1115568D01*
X-1210767Y-1116380D01*
X-1206042Y-1118666D01*
X-1201928Y-1122121D01*
X-1198473Y-1126490D01*
X-1201775Y-1134160D01*
X-1203195Y-1136650D01*
X-1194968Y-1136650D01*
X-1192276Y-1130300D01*
X-1188872Y-1124762D01*
X-1184402Y-1120851D01*
X-1178407Y-1119378D01*
X-1173378Y-1120343D01*
X-1169466Y-1122934D01*
X-1166876Y-1126896D01*
X-1166012Y-1131824D01*
X-1167079Y-1137361D01*
X-1169974Y-1141425D01*
X-1174343Y-1143914D01*
X-1179728Y-1144778D01*
X-1183843Y-1144270D01*
X-1187805Y-1142695D01*
X-1191514Y-1140155D01*
X-1194968Y-1136650D01*
X-1203195Y-1136650D01*
X-1205484Y-1140663D01*
X-1210360Y-1145133D01*
X-1217015Y-1146810D01*
X-1222298Y-1145743D01*
X-1226515Y-1142644D01*
X-1229258Y-1137920D01*
X-1230223Y-1131824D01*
X-1236329Y-1131824D01*
X-1234846Y-1140968D01*
X-1230833Y-1148283D01*
X-1224788Y-1153007D01*
X-1217320Y-1154684D01*
X-1210513Y-1153617D01*
X-1205128Y-1150823D01*
X-1200962Y-1146759D01*
X-1197762Y-1141984D01*
X-1197254Y-1141984D01*
X-1194104Y-1145387D01*
X-1189939Y-1148689D01*
X-1184859Y-1151178D01*
X-1179220Y-1152144D01*
X-1171295Y-1150772D01*
X-1165148Y-1146759D01*
X-1161084Y-1140358D01*
X-1159662Y-1131824D01*
X-1160983Y-1123848D01*
X-1164844Y-1117498D01*
X-1170787Y-1113282D01*
X-1178407Y-1111758D01*
X-1183894Y-1112570D01*
X-1188567Y-1114856D01*
X-1192377Y-1118057D01*
X-1195476Y-1121918D01*
X-1195984Y-1121918D01*
X-1199286Y-1116888D01*
X-1203858Y-1112469D01*
X-1209649Y-1109370D01*
G37*
G36*
X-1226413Y-1162050D02*
G01*
X-1230122Y-1166215D01*
X-1233271Y-1171397D01*
X-1235506Y-1177747D01*
X-1236370Y-1185672D01*
X-1235913Y-1190193D01*
X-1234643Y-1194562D01*
X-1232611Y-1198575D01*
X-1229715Y-1202182D01*
X-1226108Y-1205230D01*
X-1221790Y-1207516D01*
X-1216710Y-1209040D01*
X-1210970Y-1209548D01*
X-1205179Y-1209090D01*
X-1200302Y-1207820D01*
X-1196238Y-1205788D01*
X-1192936Y-1203045D01*
X-1190447Y-1199794D01*
X-1188669Y-1196035D01*
X-1187653Y-1191920D01*
X-1187297Y-1187450D01*
X-1187500Y-1184097D01*
X-1188059Y-1181150D01*
X-1189024Y-1178407D01*
X-1190345Y-1175766D01*
X-1167739Y-1177798D01*
X-1167739Y-1205992D01*
X-1160678Y-1205992D01*
X-1160678Y-1170432D01*
X-1195171Y-1168146D01*
X-1197965Y-1172718D01*
X-1196136Y-1175816D01*
X-1194765Y-1178763D01*
X-1193952Y-1181912D01*
X-1193647Y-1185418D01*
X-1194866Y-1191971D01*
X-1198321Y-1196898D01*
X-1203858Y-1200048D01*
X-1211173Y-1201166D01*
X-1218793Y-1199896D01*
X-1224534Y-1196390D01*
X-1228191Y-1191209D01*
X-1229512Y-1184910D01*
X-1228801Y-1178864D01*
X-1226921Y-1173937D01*
X-1224229Y-1169822D01*
X-1221079Y-1166368D01*
G37*
G36*
X-1235049Y-1225550D02*
G01*
X-1235049Y-1233932D01*
X-1167536Y-1233932D01*
X-1167536Y-1245870D01*
X-1168146Y-1253744D01*
X-1170279Y-1259484D01*
X-1174140Y-1262989D01*
X-1179931Y-1264158D01*
X-1185265Y-1263091D01*
X-1189278Y-1259738D01*
X-1191768Y-1253896D01*
X-1192631Y-1245362D01*
X-1192631Y-1233932D01*
X-1198981Y-1233932D01*
X-1198981Y-1247394D01*
X-1199845Y-1256385D01*
X-1202486Y-1262989D01*
X-1206804Y-1267053D01*
X-1213002Y-1268476D01*
X-1219911Y-1267053D01*
X-1224737Y-1262888D01*
X-1227531Y-1256284D01*
X-1228445Y-1247394D01*
X-1228445Y-1233932D01*
X-1235049Y-1233932D01*
X-1235049Y-1248664D01*
X-1234744Y-1254607D01*
X-1233728Y-1260043D01*
X-1232052Y-1264818D01*
X-1229664Y-1268933D01*
X-1226616Y-1272286D01*
X-1222857Y-1274775D01*
X-1218387Y-1276299D01*
X-1213205Y-1276858D01*
X-1206398Y-1275740D01*
X-1201216Y-1272540D01*
X-1197559Y-1267663D01*
X-1195476Y-1261364D01*
X-1194968Y-1261364D01*
X-1192530Y-1266088D01*
X-1188872Y-1269492D01*
X-1184249Y-1271574D01*
X-1178915Y-1272286D01*
X-1174445Y-1271828D01*
X-1170635Y-1270457D01*
X-1167485Y-1268272D01*
X-1164945Y-1265326D01*
X-1163015Y-1261618D01*
X-1161694Y-1257300D01*
X-1160932Y-1252372D01*
X-1160678Y-1246886D01*
X-1160678Y-1225550D01*
G37*
G36*
X1763268Y-108458D02*
G01*
X1756664Y-109118D01*
X1750669Y-111099D01*
X1745335Y-114300D01*
X1740763Y-118668D01*
X1737106Y-124104D01*
X1734312Y-130657D01*
X1732635Y-138125D01*
X1732025Y-146558D01*
X1740662Y-146558D01*
X1741068Y-139852D01*
X1742287Y-133807D01*
X1744218Y-128574D01*
X1746808Y-124155D01*
X1750110Y-120599D01*
X1753971Y-117957D01*
X1758340Y-116382D01*
X1763268Y-115824D01*
X1768246Y-116382D01*
X1772716Y-117957D01*
X1776628Y-120599D01*
X1779930Y-124155D01*
X1782572Y-128574D01*
X1784502Y-133807D01*
X1785721Y-139852D01*
X1786128Y-146558D01*
X1785721Y-153466D01*
X1784502Y-159613D01*
X1782572Y-164998D01*
X1779930Y-169570D01*
X1776628Y-173177D01*
X1772716Y-175869D01*
X1768246Y-177495D01*
X1763268Y-178054D01*
X1758340Y-177495D01*
X1753971Y-175869D01*
X1750110Y-173177D01*
X1746808Y-169570D01*
X1744218Y-164998D01*
X1742287Y-159613D01*
X1741068Y-153466D01*
X1740662Y-146558D01*
X1732025Y-146558D01*
X1732635Y-155092D01*
X1734312Y-162712D01*
X1737106Y-169367D01*
X1740763Y-174955D01*
X1745335Y-179425D01*
X1750669Y-182727D01*
X1756664Y-184708D01*
X1763268Y-185420D01*
X1769922Y-184708D01*
X1776018Y-182727D01*
X1781403Y-179425D01*
X1785975Y-174955D01*
X1789684Y-169367D01*
X1792427Y-162712D01*
X1794154Y-155092D01*
X1794764Y-146558D01*
X1794154Y-138125D01*
X1792427Y-130657D01*
X1789684Y-124104D01*
X1785975Y-118668D01*
X1781403Y-114300D01*
X1776018Y-111099D01*
X1769922Y-109118D01*
G37*
G36*
X1838198Y-108458D02*
G01*
X1831593Y-109118D01*
X1825599Y-111099D01*
X1820265Y-114300D01*
X1815693Y-118668D01*
X1812036Y-124104D01*
X1809242Y-130657D01*
X1807565Y-138125D01*
X1806956Y-146558D01*
X1815592Y-146558D01*
X1815998Y-139852D01*
X1817217Y-133807D01*
X1819148Y-128574D01*
X1821738Y-124155D01*
X1825040Y-120599D01*
X1828901Y-117957D01*
X1833270Y-116382D01*
X1838198Y-115824D01*
X1843176Y-116382D01*
X1847646Y-117957D01*
X1851558Y-120599D01*
X1854860Y-124155D01*
X1857502Y-128574D01*
X1859432Y-133807D01*
X1860651Y-139852D01*
X1861057Y-146558D01*
X1860651Y-153466D01*
X1859432Y-159613D01*
X1857502Y-164998D01*
X1854860Y-169570D01*
X1851558Y-173177D01*
X1847646Y-175869D01*
X1843176Y-177495D01*
X1838198Y-178054D01*
X1833270Y-177495D01*
X1828901Y-175869D01*
X1825040Y-173177D01*
X1821738Y-169570D01*
X1819148Y-164998D01*
X1817217Y-159613D01*
X1815998Y-153466D01*
X1815592Y-146558D01*
X1806956Y-146558D01*
X1807565Y-155092D01*
X1809242Y-162712D01*
X1812036Y-169367D01*
X1815744Y-174955D01*
X1820265Y-179425D01*
X1825599Y-182727D01*
X1831593Y-184708D01*
X1838198Y-185420D01*
X1844852Y-184708D01*
X1850948Y-182727D01*
X1856333Y-179425D01*
X1860905Y-174955D01*
X1864614Y-169367D01*
X1867357Y-162712D01*
X1869084Y-155092D01*
X1869693Y-146558D01*
X1869084Y-138125D01*
X1867357Y-130657D01*
X1864614Y-124104D01*
X1860905Y-118668D01*
X1856333Y-114300D01*
X1850948Y-111099D01*
X1844852Y-109118D01*
G37*
G36*
X1547114Y-109728D02*
G01*
X1547114Y-116585D01*
X1568450Y-116585D01*
X1576374Y-117297D01*
X1582216Y-119633D01*
X1585772Y-123850D01*
X1586992Y-130302D01*
X1585772Y-136906D01*
X1582216Y-141478D01*
X1576374Y-144170D01*
X1568450Y-145034D01*
X1555496Y-145034D01*
X1555496Y-116585D01*
X1547114Y-116585D01*
X1547114Y-184150D01*
X1555496Y-184150D01*
X1555496Y-152146D01*
X1569466Y-152146D01*
X1588008Y-184150D01*
X1597406Y-184150D01*
X1578356Y-151130D01*
X1585468Y-148539D01*
X1590903Y-144221D01*
X1594408Y-138176D01*
X1595628Y-130302D01*
X1595120Y-125018D01*
X1593697Y-120650D01*
X1591462Y-117094D01*
X1588414Y-114300D01*
X1584604Y-112217D01*
X1580184Y-110794D01*
X1575206Y-109982D01*
X1569720Y-109728D01*
G37*
G36*
X1610868Y-109728D02*
G01*
X1610868Y-184150D01*
X1654302Y-184150D01*
X1654302Y-177038D01*
X1619250Y-177038D01*
X1619250Y-148590D01*
X1647698Y-148590D01*
X1647698Y-141478D01*
X1619250Y-141478D01*
X1619250Y-116839D01*
X1653032Y-116839D01*
X1653032Y-109728D01*
G37*
G36*
X1670050Y-109728D02*
G01*
X1670050Y-116585D01*
X1690370Y-116585D01*
X1698396Y-117246D01*
X1704086Y-119380D01*
X1707489Y-123240D01*
X1708657Y-129032D01*
X1707591Y-134315D01*
X1704289Y-138328D01*
X1698498Y-140868D01*
X1689862Y-141732D01*
X1678432Y-141732D01*
X1678432Y-116585D01*
X1670050Y-116585D01*
X1670050Y-148082D01*
X1691893Y-148082D01*
X1700885Y-148945D01*
X1707591Y-151536D01*
X1711807Y-155905D01*
X1713230Y-162052D01*
X1711756Y-168960D01*
X1707489Y-173786D01*
X1700784Y-176631D01*
X1691893Y-177546D01*
X1678432Y-177546D01*
X1678432Y-148082D01*
X1670050Y-148082D01*
X1670050Y-184150D01*
X1693164Y-184150D01*
X1699209Y-183794D01*
X1704644Y-182829D01*
X1709470Y-181102D01*
X1713534Y-178765D01*
X1716836Y-175666D01*
X1719325Y-171958D01*
X1720850Y-167487D01*
X1721357Y-162306D01*
X1720240Y-155498D01*
X1717039Y-150266D01*
X1712163Y-146608D01*
X1705864Y-144526D01*
X1705864Y-144018D01*
X1710588Y-141579D01*
X1714093Y-137922D01*
X1716278Y-133299D01*
X1717039Y-128016D01*
X1716582Y-123494D01*
X1715211Y-119684D01*
X1713026Y-116535D01*
X1710029Y-113995D01*
X1706372Y-112115D01*
X1702054Y-110744D01*
X1697126Y-109982D01*
X1691639Y-109728D01*
G37*
G36*
X1876298Y-109728D02*
G01*
X1876298Y-116839D01*
X1898904Y-116839D01*
X1898904Y-184150D01*
X1907539Y-184150D01*
X1907539Y-116839D01*
X1930400Y-116839D01*
X1930400Y-109728D01*
G37*
G36*
X-456692Y-1289304D02*
G01*
X-464566Y-1290370D01*
X-471373Y-1293520D01*
X-476453Y-1298752D01*
X-479043Y-1306068D01*
X-477977Y-1307439D01*
X-476758Y-1308455D01*
X-475335Y-1309116D01*
X-473709Y-1309370D01*
X-471627Y-1309014D01*
X-470001Y-1307846D01*
X-468680Y-1305712D01*
X-465328Y-1294384D01*
X-462076Y-1293825D01*
X-459232Y-1293622D01*
X-453593Y-1294739D01*
X-449376Y-1297990D01*
X-446684Y-1302969D01*
X-445770Y-1309370D01*
X-446735Y-1316177D01*
X-449630Y-1323136D01*
X-454558Y-1330706D01*
X-461518Y-1339342D01*
X-478535Y-1358392D01*
X-478535Y-1365250D01*
X-432816Y-1365250D01*
X-432816Y-1356614D01*
X-471424Y-1356614D01*
X-458216Y-1343152D01*
X-447751Y-1331772D01*
X-443890Y-1327150D01*
X-440842Y-1323035D01*
X-438607Y-1319326D01*
X-437032Y-1315821D01*
X-436168Y-1312367D01*
X-435864Y-1308862D01*
X-437083Y-1300988D01*
X-440842Y-1294790D01*
X-447344Y-1290777D01*
G37*
G36*
X-400050Y-1289304D02*
G01*
X-404571Y-1289812D01*
X-408889Y-1291386D01*
X-412902Y-1294079D01*
X-416407Y-1297990D01*
X-419404Y-1303172D01*
X-421690Y-1309776D01*
X-423164Y-1317802D01*
X-423672Y-1327404D01*
X-413766Y-1327404D01*
X-413461Y-1318310D01*
X-412597Y-1310894D01*
X-411276Y-1305001D01*
X-409549Y-1300530D01*
X-407517Y-1297279D01*
X-405180Y-1295146D01*
X-402691Y-1293977D01*
X-400050Y-1293622D01*
X-397611Y-1293977D01*
X-395224Y-1295146D01*
X-392988Y-1297279D01*
X-390956Y-1300530D01*
X-389280Y-1305001D01*
X-387959Y-1310894D01*
X-387146Y-1318310D01*
X-386842Y-1327404D01*
X-387146Y-1336852D01*
X-387959Y-1344574D01*
X-389280Y-1350670D01*
X-390956Y-1355293D01*
X-392988Y-1358646D01*
X-395224Y-1360881D01*
X-397611Y-1362100D01*
X-400050Y-1362456D01*
X-402691Y-1362100D01*
X-405180Y-1360881D01*
X-407517Y-1358646D01*
X-409549Y-1355293D01*
X-411276Y-1350670D01*
X-412597Y-1344574D01*
X-413461Y-1336852D01*
X-413766Y-1327404D01*
X-423672Y-1327404D01*
X-423164Y-1337360D01*
X-421690Y-1345641D01*
X-419404Y-1352499D01*
X-416407Y-1357833D01*
X-412902Y-1361897D01*
X-408889Y-1364640D01*
X-404571Y-1366266D01*
X-400050Y-1366774D01*
X-395681Y-1366266D01*
X-391515Y-1364640D01*
X-387604Y-1361897D01*
X-384098Y-1357833D01*
X-381152Y-1352499D01*
X-378917Y-1345641D01*
X-377444Y-1337360D01*
X-376936Y-1327404D01*
X-377444Y-1317802D01*
X-378917Y-1309776D01*
X-381152Y-1303172D01*
X-384098Y-1297990D01*
X-387604Y-1294079D01*
X-391515Y-1291386D01*
X-395681Y-1289812D01*
G37*
G36*
X-507238Y-1289558D02*
G01*
X-530098Y-1295654D01*
X-530098Y-1299464D01*
X-515366Y-1298194D01*
X-515416Y-1350670D01*
X-515620Y-1359662D01*
X-531368Y-1361694D01*
X-531368Y-1365250D01*
X-490474Y-1365250D01*
X-490474Y-1361694D01*
X-505968Y-1359662D01*
X-506171Y-1350670D01*
X-506222Y-1306830D01*
X-505714Y-1290828D01*
G37*
G36*
X-367538Y-1290828D02*
G01*
X-367538Y-1294638D01*
X-357124Y-1295654D01*
X-356870Y-1326134D01*
X-346710Y-1326134D01*
X-346456Y-1295146D01*
X-336804Y-1295146D01*
X-329234Y-1296162D01*
X-323900Y-1299108D01*
X-320802Y-1303832D01*
X-319786Y-1310132D01*
X-320903Y-1316583D01*
X-324307Y-1321663D01*
X-329844Y-1324965D01*
X-337566Y-1326134D01*
X-356870Y-1326134D01*
X-357124Y-1360170D01*
X-367538Y-1361440D01*
X-367538Y-1365250D01*
X-336042Y-1365250D01*
X-336042Y-1361440D01*
X-346456Y-1360170D01*
X-346710Y-1330452D01*
X-340868Y-1330452D01*
X-334822Y-1330909D01*
X-330606Y-1332636D01*
X-327660Y-1336040D01*
X-325628Y-1341628D01*
X-321056Y-1359154D01*
X-319735Y-1362506D01*
X-317550Y-1364691D01*
X-314350Y-1365910D01*
X-309880Y-1366266D01*
X-305104Y-1366062D01*
X-301498Y-1365250D01*
X-301498Y-1361440D01*
X-310134Y-1360678D01*
X-315214Y-1343152D01*
X-317398Y-1337564D01*
X-320192Y-1333500D01*
X-323799Y-1330807D01*
X-328422Y-1329182D01*
X-320090Y-1326489D01*
X-314147Y-1322171D01*
X-310540Y-1316634D01*
X-309372Y-1310386D01*
X-309829Y-1305966D01*
X-311200Y-1302054D01*
X-313385Y-1298752D01*
X-316433Y-1295958D01*
X-320294Y-1293723D01*
X-324916Y-1292148D01*
X-330250Y-1291132D01*
X-336296Y-1290828D01*
G37*
G36*
X-254000Y-1373378D02*
G01*
X-256540Y-1408176D01*
X-253492Y-1408938D01*
X-248158Y-1407769D01*
X-242824Y-1407414D01*
X-235610Y-1408633D01*
X-230174Y-1412189D01*
X-226771Y-1417929D01*
X-225552Y-1425702D01*
X-226618Y-1433626D01*
X-229819Y-1439722D01*
X-235102Y-1443634D01*
X-242316Y-1445006D01*
X-245871Y-1444802D01*
X-249428Y-1443990D01*
X-252221Y-1433830D01*
X-253441Y-1431696D01*
X-255016Y-1430578D01*
X-257048Y-1430274D01*
X-258825Y-1430528D01*
X-260400Y-1431188D01*
X-261569Y-1432306D01*
X-262382Y-1433830D01*
X-259791Y-1440535D01*
X-255422Y-1445412D01*
X-249428Y-1448308D01*
X-241808Y-1449324D01*
X-236169Y-1448866D01*
X-231089Y-1447546D01*
X-226618Y-1445412D01*
X-222808Y-1442567D01*
X-219760Y-1439011D01*
X-217525Y-1434846D01*
X-216103Y-1430121D01*
X-215646Y-1424940D01*
X-216103Y-1419656D01*
X-217424Y-1414983D01*
X-219557Y-1410970D01*
X-222402Y-1407617D01*
X-225958Y-1405026D01*
X-230124Y-1403096D01*
X-234848Y-1401978D01*
X-240029Y-1401572D01*
X-245821Y-1401927D01*
X-251206Y-1403096D01*
X-249936Y-1382014D01*
X-217678Y-1382014D01*
X-217678Y-1373378D01*
G37*
G36*
X-209550Y-1373378D02*
G01*
X-209550Y-1377188D01*
X-201168Y-1378204D01*
X-175006Y-1448562D01*
X-170434Y-1448562D01*
X-147066Y-1378458D01*
X-137414Y-1377188D01*
X-137414Y-1373378D01*
X-162814Y-1373378D01*
X-162814Y-1377696D01*
X-152654Y-1378712D01*
X-170688Y-1434592D01*
X-190246Y-1378458D01*
X-179324Y-1377696D01*
X-179324Y-1373378D01*
G37*
G36*
X-215392Y-458216D02*
G01*
X-223266Y-459282D01*
X-230073Y-462432D01*
X-235153Y-467664D01*
X-237744Y-474980D01*
X-236677Y-476351D01*
X-235458Y-477418D01*
X-234035Y-478028D01*
X-232410Y-478282D01*
X-230327Y-477926D01*
X-228701Y-476758D01*
X-227380Y-474624D01*
X-224028Y-463296D01*
X-220776Y-462737D01*
X-217932Y-462534D01*
X-212293Y-463651D01*
X-208076Y-466902D01*
X-205384Y-471881D01*
X-204470Y-478282D01*
X-205435Y-485089D01*
X-208330Y-492048D01*
X-213258Y-499618D01*
X-220217Y-508254D01*
X-237236Y-527304D01*
X-237236Y-534162D01*
X-191516Y-534162D01*
X-191516Y-525526D01*
X-230124Y-525526D01*
X-216916Y-512064D01*
X-206451Y-500684D01*
X-202590Y-496062D01*
X-199542Y-491947D01*
X-197307Y-488238D01*
X-195732Y-484733D01*
X-194868Y-481279D01*
X-194564Y-477774D01*
X-195783Y-469900D01*
X-199542Y-463702D01*
X-206044Y-459689D01*
G37*
G36*
X-265938Y-458470D02*
G01*
X-288798Y-464566D01*
X-288798Y-468376D01*
X-274066Y-467106D01*
X-274116Y-519582D01*
X-274320Y-528574D01*
X-290068Y-530606D01*
X-290068Y-534162D01*
X-249174Y-534162D01*
X-249174Y-530606D01*
X-264668Y-528574D01*
X-264871Y-519582D01*
X-264922Y-475742D01*
X-264414Y-459740D01*
G37*
G36*
X-185420Y-459740D02*
G01*
X-185420Y-463550D01*
X-177038Y-464566D01*
X-151130Y-534924D01*
X-146304Y-534924D01*
X-122935Y-464820D01*
X-113283Y-463550D01*
X-113283Y-459740D01*
X-138938Y-459740D01*
X-138938Y-464058D01*
X-128524Y-465074D01*
X-146558Y-520954D01*
X-166116Y-464820D01*
X-155194Y-464058D01*
X-155194Y-459740D01*
G37*
G36*
X-71120Y-459485D02*
G01*
X-71120Y-463296D01*
X-60960Y-464312D01*
X-60706Y-494792D01*
X-50546Y-494792D01*
X-50292Y-463804D01*
X-40640Y-463804D01*
X-33070Y-464820D01*
X-27736Y-467766D01*
X-24638Y-472490D01*
X-23622Y-478790D01*
X-24739Y-485241D01*
X-28041Y-490321D01*
X-33578Y-493623D01*
X-41402Y-494792D01*
X-60706Y-494792D01*
X-60960Y-528828D01*
X-71120Y-530098D01*
X-71120Y-533908D01*
X-39878Y-533908D01*
X-39878Y-530098D01*
X-50292Y-528828D01*
X-50546Y-499109D01*
X-44704Y-499109D01*
X-38658Y-499567D01*
X-34442Y-501294D01*
X-31495Y-504698D01*
X-29464Y-510285D01*
X-24892Y-527812D01*
X-23571Y-531164D01*
X-21386Y-533349D01*
X-18186Y-534568D01*
X-13716Y-534924D01*
X-8940Y-534720D01*
X-5080Y-533908D01*
X-5080Y-530098D01*
X-13716Y-529336D01*
X-19050Y-511809D01*
X-21234Y-506222D01*
X-24028Y-502158D01*
X-27635Y-499465D01*
X-32258Y-497840D01*
X-23926Y-495147D01*
X-17983Y-490829D01*
X-14376Y-485292D01*
X-13208Y-479043D01*
X-13665Y-474624D01*
X-15036Y-470712D01*
X-17221Y-467410D01*
X-20269Y-464616D01*
X-24130Y-462381D01*
X-28752Y-460806D01*
X-34086Y-459790D01*
X-40132Y-459485D01*
G37*
G36*
X-508Y-459485D02*
G01*
X-508Y-463296D01*
X9144Y-464312D01*
X28956Y-497840D01*
X9144Y-528574D01*
X-1270Y-530098D01*
X-1270Y-533908D01*
X23876Y-533908D01*
X23876Y-530098D01*
X14732Y-528574D01*
X31242Y-501650D01*
X47244Y-528828D01*
X36830Y-530098D01*
X36830Y-533908D01*
X67818Y-533908D01*
X67818Y-530098D01*
X58419Y-528828D01*
X37338Y-493268D01*
X55626Y-464566D01*
X65786Y-463296D01*
X65786Y-459485D01*
X40386Y-459485D01*
X40386Y-463296D01*
X50292Y-464820D01*
X35052Y-489458D01*
X20320Y-464312D01*
X30733Y-463296D01*
X30733Y-459485D01*
G37*
G36*
X-79857Y-1287526D02*
G01*
X-80619Y-1307338D01*
X-75031Y-1307338D01*
X-71983Y-1292352D01*
X-54457Y-1292352D01*
X-54457Y-1356868D01*
X-66141Y-1358138D01*
X-66141Y-1361948D01*
X-32613Y-1361948D01*
X-32613Y-1358138D01*
X-44043Y-1356868D01*
X-44297Y-1342237D01*
X-44043Y-1292352D01*
X-26517Y-1292352D01*
X-23469Y-1307338D01*
X-17881Y-1307338D01*
X-18643Y-1287526D01*
G37*
G36*
X-13563Y-1287526D02*
G01*
X-13563Y-1291336D01*
X-3657Y-1292352D01*
X15900Y-1325880D01*
X-3657Y-1356614D01*
X-14325Y-1358138D01*
X-14325Y-1361948D01*
X11074Y-1361948D01*
X11074Y-1358138D01*
X1676Y-1356614D01*
X18186Y-1329690D01*
X34188Y-1356868D01*
X23774Y-1358138D01*
X23774Y-1361948D01*
X55016Y-1361948D01*
X55016Y-1358138D01*
X45364Y-1356868D01*
X24282Y-1321308D01*
X42824Y-1292606D01*
X52730Y-1291336D01*
X52730Y-1287526D01*
X27330Y-1287526D01*
X27330Y-1291336D01*
X37236Y-1292860D01*
X22250Y-1317498D01*
X7518Y-1292352D01*
X17932Y-1291336D01*
X17932Y-1287526D01*
G37*
G36*
X182880Y-1373378D02*
G01*
X177444Y-1373733D01*
X172313Y-1374698D01*
X167538Y-1376273D01*
X163118Y-1378407D01*
X159156Y-1381150D01*
X155600Y-1384350D01*
X152501Y-1388008D01*
X149860Y-1392123D01*
X147828Y-1396644D01*
X146304Y-1401521D01*
X145338Y-1406753D01*
X145034Y-1412240D01*
X145338Y-1417828D01*
X146253Y-1423060D01*
X147777Y-1427937D01*
X149809Y-1432458D01*
X152400Y-1436573D01*
X155448Y-1440230D01*
X158953Y-1443431D01*
X162966Y-1446123D01*
X167335Y-1448257D01*
X172059Y-1449832D01*
X177190Y-1450797D01*
X182626Y-1451102D01*
X189179Y-1450695D01*
X195275Y-1449476D01*
X201066Y-1447444D01*
X206756Y-1444752D01*
X207264Y-1418590D01*
X213867Y-1418082D01*
X213867Y-1414018D01*
X184912Y-1414018D01*
X184912Y-1418082D01*
X196596Y-1418844D01*
X196850Y-1443990D01*
X193852Y-1445006D01*
X190804Y-1445717D01*
X187706Y-1446123D01*
X184404Y-1446276D01*
X178308Y-1445666D01*
X172872Y-1443939D01*
X168097Y-1441145D01*
X164033Y-1437284D01*
X160832Y-1432407D01*
X158445Y-1426565D01*
X156972Y-1419809D01*
X156464Y-1412240D01*
X156972Y-1404569D01*
X158546Y-1397812D01*
X160985Y-1391970D01*
X164287Y-1387144D01*
X168351Y-1383284D01*
X173075Y-1380490D01*
X178358Y-1378762D01*
X184150Y-1378204D01*
X187502Y-1378407D01*
X190652Y-1379016D01*
X193700Y-1380032D01*
X196596Y-1381506D01*
X199390Y-1395222D01*
X205486Y-1395222D01*
X205232Y-1378966D01*
X200507Y-1376476D01*
X195275Y-1374749D01*
X189484Y-1373733D01*
G37*
G36*
X182880Y-457200D02*
G01*
X177444Y-457555D01*
X172313Y-458520D01*
X167538Y-460095D01*
X163118Y-462229D01*
X159156Y-464972D01*
X155600Y-468172D01*
X152501Y-471830D01*
X149860Y-475945D01*
X147828Y-480466D01*
X146304Y-485343D01*
X145338Y-490524D01*
X145034Y-496062D01*
X145338Y-501650D01*
X146253Y-506882D01*
X147777Y-511759D01*
X149809Y-516280D01*
X152400Y-520395D01*
X155448Y-524052D01*
X158953Y-527253D01*
X162966Y-529945D01*
X167335Y-532079D01*
X172059Y-533654D01*
X177190Y-534619D01*
X182626Y-534924D01*
X189179Y-534517D01*
X195275Y-533298D01*
X201066Y-531266D01*
X206756Y-528574D01*
X207264Y-502412D01*
X213867Y-501904D01*
X213867Y-497840D01*
X184912Y-497840D01*
X184912Y-501904D01*
X196596Y-502666D01*
X196850Y-527812D01*
X193852Y-528828D01*
X190804Y-529539D01*
X187706Y-529945D01*
X184404Y-530098D01*
X178308Y-529488D01*
X172872Y-527761D01*
X168097Y-524967D01*
X164033Y-521055D01*
X160832Y-516229D01*
X158445Y-510387D01*
X156972Y-503631D01*
X156464Y-496062D01*
X156972Y-488391D01*
X158546Y-481634D01*
X160985Y-475792D01*
X164287Y-470966D01*
X168351Y-467106D01*
X173075Y-464312D01*
X178358Y-462584D01*
X184150Y-462026D01*
X187502Y-462229D01*
X190652Y-462838D01*
X193700Y-463854D01*
X196596Y-465328D01*
X199390Y-479043D01*
X205486Y-479043D01*
X205232Y-462788D01*
X200507Y-460298D01*
X195275Y-458571D01*
X189484Y-457555D01*
G37*
D10*
X1322578Y442468D02*
G01*
X1318513Y430276D01*
X1310386Y422147D01*
X1298194Y418084D01*
X1294129Y418084D01*
X1282192Y422147D01*
X1274063Y430276D01*
X1270000Y442468D01*
X1270000Y446531D01*
X1274063Y458470D01*
X1282192Y466597D01*
X1294129Y470662D01*
X1298194Y470662D01*
X1310386Y466597D01*
X1318513Y458470D01*
X1322578Y442468D01*
X1322578Y422147D01*
X1318513Y402081D01*
X1310386Y389889D01*
X1298194Y385826D01*
X1290320Y385826D01*
X1278128Y389889D01*
X1274063Y398018D01*
X1349247Y442468D02*
G01*
X1393697Y385826D01*
X1393697Y442468D02*
G01*
X1349247Y385826D01*
X1472945Y442468D02*
G01*
X1468881Y430276D01*
X1460754Y422147D01*
X1448562Y418084D01*
X1444497Y418084D01*
X1432560Y422147D01*
X1424431Y430276D01*
X1420368Y442468D01*
X1420368Y446531D01*
X1424431Y458470D01*
X1432560Y466597D01*
X1444497Y470662D01*
X1448562Y470662D01*
X1460754Y466597D01*
X1468881Y458470D01*
X1472945Y442468D01*
X1472945Y422147D01*
X1468881Y402081D01*
X1460754Y389889D01*
X1448562Y385826D01*
X1440434Y385826D01*
X1428495Y389889D01*
X1424431Y398018D01*
G36*
X375462Y-1573072D02*
G01*
X350062Y-1611172D01*
X400862Y-1611172D01*
G37*
G36*
X-567029Y1312367D02*
G01*
X-567029Y1292555D01*
X-435051Y1292555D01*
X-435051Y1312367D01*
G37*
G36*
X-510946Y1342085D02*
G01*
X-510946Y1262888D01*
X-491134Y1262888D01*
X-491134Y1342085D01*
G37*
G36*
X-510946Y800862D02*
G01*
X-510946Y721664D01*
X-491134Y721664D01*
X-491134Y800862D01*
G37*
G36*
X195732Y580948D02*
G01*
X195732Y448970D01*
X215544Y448970D01*
X215544Y580948D01*
G37*
G36*
X166065Y524865D02*
G01*
X166065Y505053D01*
X245262Y505053D01*
X245262Y524865D01*
G37*
G36*
X707237Y524865D02*
G01*
X707237Y505053D01*
X786434Y505053D01*
X786434Y524865D01*
G37*
G36*
X-803198Y1342694D02*
G01*
X-803198Y1322882D01*
X-671220Y1322882D01*
X-671220Y1342694D01*
G37*
G36*
X-747115Y1372362D02*
G01*
X-747115Y1293164D01*
X-727303Y1293164D01*
X-727303Y1372362D01*
G37*
G36*
X-747115Y1913585D02*
G01*
X-747115Y1834388D01*
X-727303Y1834388D01*
X-727303Y1913585D01*
G37*
D11*
X476250Y158750D02*
G01*
X476250Y95250D01*
X476250Y317500D02*
G01*
X476250Y254000D01*
D12*
X1952749Y952500D02*
G01*
X1952749Y904999D01*
X2016249Y904999D01*
X2016249Y968499D01*
X1952749Y968499D01*
X1952749Y952500D01*
X1952625Y-95250D02*
G01*
X1952625Y-142750D01*
X2016125Y-142750D01*
X2016125Y-79250D01*
X1952625Y-79250D01*
X1952625Y-95250D01*
X1968375Y-127000D02*
G01*
X1968375Y-95250D01*
X2000125Y-95250D01*
X2000125Y-127000D01*
X1968375Y-127000D01*
X2000125Y-95250D01*
X1968500Y920750D02*
G01*
X1968500Y952500D01*
X2000250Y952500D01*
X2000250Y920750D01*
X1968500Y920750D01*
X2000250Y952500D01*
D11*
X560095Y257218D02*
G01*
X560095Y193718D01*
D12*
X-920750Y-1524000D02*
G01*
X-952500Y-1555750D01*
X-889000Y-1555750D01*
X-920750Y-1524000D01*
X-920750Y-1555750D01*
D11*
X222250Y1158875D02*
G01*
X158750Y1158875D01*
X349250Y1158875D02*
G01*
X285750Y1158875D01*
X492125Y1158875D02*
G01*
X428625Y1158875D01*
X635000Y1157107D02*
G01*
X571500Y1157107D01*
X127000Y254000D02*
G01*
X127000Y190500D01*
X127000Y381000D02*
G01*
X127000Y317500D01*
X127000Y508000D02*
G01*
X127000Y444500D01*
X127000Y635000D02*
G01*
X127000Y571500D01*
X127000Y762000D02*
G01*
X127000Y698500D01*
X127000Y889000D02*
G01*
X127000Y825500D01*
X127000Y1016000D02*
G01*
X127000Y952500D01*
X127000Y1143000D02*
G01*
X127000Y1079500D01*
X1524000Y1143000D02*
G01*
X1524000Y1079500D01*
X1524000Y254000D02*
G01*
X1524000Y190500D01*
X560095Y1146218D02*
G01*
X560095Y1082718D01*
X1397000Y1157107D02*
G01*
X1333500Y1157107D01*
X1524000Y1157107D02*
G01*
X1460500Y1157107D01*
X1270000Y1157107D02*
G01*
X1206500Y1157107D01*
X1143000Y1157107D02*
G01*
X1079500Y1157107D01*
X1016000Y1157107D02*
G01*
X952500Y1157107D01*
X889000Y1157107D02*
G01*
X825500Y1157107D01*
X762000Y1157107D02*
G01*
X698500Y1157107D01*
X560095Y1019218D02*
G01*
X560095Y955718D01*
X560095Y892218D02*
G01*
X560095Y828718D01*
X560095Y765218D02*
G01*
X560095Y701718D01*
X560095Y638218D02*
G01*
X560095Y574718D01*
X560095Y511218D02*
G01*
X560095Y447718D01*
X560095Y384218D02*
G01*
X560095Y320718D01*
X1524000Y1016000D02*
G01*
X1524000Y952500D01*
X1524000Y889000D02*
G01*
X1524000Y825500D01*
X1524000Y762000D02*
G01*
X1524000Y698500D01*
X1524000Y635000D02*
G01*
X1524000Y571500D01*
X1524000Y508000D02*
G01*
X1524000Y444500D01*
X1524000Y381000D02*
G01*
X1524000Y317500D01*
X1397000Y158750D02*
G01*
X1333500Y158750D01*
X1524000Y158750D02*
G01*
X1460500Y158750D01*
X1270000Y158750D02*
G01*
X1206500Y158750D01*
X1143000Y158750D02*
G01*
X1079500Y158750D01*
X1016000Y158750D02*
G01*
X952500Y158750D01*
X889000Y158750D02*
G01*
X825500Y158750D01*
X762000Y158750D02*
G01*
X698500Y158750D01*
X635000Y158750D02*
G01*
X571500Y158750D01*
D12*
X-555625Y-1555750D02*
G01*
X-587375Y-1524000D01*
X-523875Y-1524000D01*
X-555625Y-1555750D01*
X-555625Y-1539875D01*
D13*
X976020Y-48260D02*
G01*
X866012Y-48260D01*
X866012Y111760D01*
X976020Y111760D01*
X1056004Y-48260D02*
G01*
X1166012Y-48260D01*
X1166012Y51739D01*
X1166012Y111760D01*
X1056004Y111760D01*
D14*
X423255Y-2063877D02*
G01*
X783257Y-2063877D01*
X920757Y-1636572D02*
G01*
X920757Y-1822025D01*
X801372Y-1633875D02*
G01*
X920757Y-1633875D01*
X405147Y-1633875D02*
G01*
X285750Y-1633875D01*
X285750Y-1820760D01*
X501370Y-1633875D02*
G01*
X505147Y-1633875D01*
X701377Y-1633875D02*
G01*
X705134Y-1633875D01*
X601370Y-1633875D02*
G01*
X605147Y-1633875D01*
D16*
X-990600Y622300D02*
G01*
X-990600Y1155700D01*
D11*
X-1295400Y1193800D02*
G01*
X-1016000Y1193800D01*
X-1016000Y584200D02*
G01*
X-1289339Y584200D01*
D16*
X-1930400Y622300D02*
G01*
X-1930400Y1155700D01*
D11*
X-1625600Y1193800D02*
G01*
X-1892300Y1193800D01*
X-1892300Y584200D02*
G01*
X-1618960Y584200D01*
D14*
X1789998Y-1028700D02*
G01*
X1829899Y-1028700D01*
X1789998Y-457629D02*
G01*
X1829897Y-457629D01*
X1789998Y-371271D02*
G01*
X1829897Y-371271D01*
X1829501Y-283593D02*
G01*
X2070801Y-283593D01*
X1790700Y-228600D02*
G01*
X2108901Y-228600D01*
X1828800Y-1232905D02*
G01*
X1828800Y-291099D01*
X1790001Y-1287005D02*
G01*
X1790001Y-236999D01*
X2110000Y-1287005D02*
G01*
X2110000Y-236999D01*
X1828800Y-1232905D02*
G01*
X2070100Y-1232905D01*
X2070100Y-291099D01*
X1789998Y-1115060D02*
G01*
X1829899Y-1115060D01*
X1790001Y-1287005D02*
G01*
X2110000Y-1287005D01*
X-1532735Y292026D02*
G01*
X-1902734Y292026D01*
X-1902734Y172024D01*
X-1982734Y172024D01*
X-1982734Y292026D01*
X-2042734Y292026D01*
X-2042734Y-37975D01*
X-1992734Y-37975D01*
X-1982734Y-37975D01*
X-1982734Y82024D01*
X-1902734Y82024D01*
X-1902734Y-37975D01*
X-1522735Y-37975D01*
X-1522735Y292026D01*
X-1532735Y292026D02*
G01*
X-1902734Y292026D01*
X-1902734Y172024D01*
X-1982734Y172024D01*
X-1982734Y292026D01*
X-2042734Y292026D01*
X-2042734Y-37975D01*
X-1992734Y-37975D01*
X-1982734Y-37975D01*
X-1982734Y82024D01*
X-1902734Y82024D01*
X-1902734Y-37975D01*
X-1522735Y-37975D01*
X-1522735Y292026D01*
X-1532735Y-850999D02*
G01*
X-1902734Y-850999D01*
X-1902734Y-971001D01*
X-1982734Y-971001D01*
X-1982734Y-850999D01*
X-2042734Y-850999D01*
X-2042734Y-1181000D01*
X-1992734Y-1181000D01*
X-1982734Y-1181000D01*
X-1982734Y-1061001D01*
X-1902734Y-1061001D01*
X-1902734Y-1181000D01*
X-1522735Y-1181000D01*
X-1522735Y-850999D01*
X-1547413Y292026D02*
G01*
X-1522735Y292026D01*
X-1532735Y-88999D02*
G01*
X-1902734Y-88999D01*
X-1902734Y-209001D01*
X-1982734Y-209001D01*
X-1982734Y-88999D01*
X-2042734Y-88999D01*
X-2042734Y-419000D01*
X-1992734Y-419000D01*
X-1982734Y-419000D01*
X-1982734Y-299001D01*
X-1902734Y-299001D01*
X-1902734Y-419000D01*
X-1522735Y-419000D01*
X-1522735Y-88999D01*
X-1547413Y-88999D02*
G01*
X-1522735Y-88999D01*
X-1532735Y-469999D02*
G01*
X-1902734Y-469999D01*
X-1902734Y-590001D01*
X-1982734Y-590001D01*
X-1982734Y-469999D01*
X-2042734Y-469999D01*
X-2042734Y-800000D01*
X-1992734Y-800000D01*
X-1982734Y-800000D01*
X-1982734Y-680001D01*
X-1902734Y-680001D01*
X-1902734Y-800000D01*
X-1522735Y-800000D01*
X-1522735Y-469999D01*
X-1547413Y-469999D02*
G01*
X-1522735Y-469999D01*
X-1547413Y-850999D02*
G01*
X-1522735Y-850999D01*
X-1392740Y361497D02*
G01*
X-1392740Y-1250495D01*
X-2092739Y361497D02*
G01*
X-2092739Y-1250495D01*
X-2092739Y-1250497D02*
G01*
X-1392740Y-1250495D01*
X-2092764Y361497D02*
G01*
X-1392740Y361497D01*
D11*
X-912721Y-770864D02*
G01*
X-1112873Y-770864D01*
X-1112873Y-1070838D01*
X287428Y-1070838D01*
X287428Y-770864D01*
X-912721Y-770864D01*
X-497128Y-542310D02*
G01*
X-401241Y-542310D01*
X-401241Y-410189D01*
X-497128Y-410189D01*
X-582371Y-542310D02*
G01*
X-678258Y-542310D01*
X-678258Y-410189D01*
X-582371Y-410189D01*
D14*
X2051497Y307444D02*
G01*
X1631497Y307444D01*
X2051497Y-21699D02*
G01*
X1631497Y-21699D01*
X1689541Y261063D02*
G01*
X1731342Y302872D01*
X2051497Y93489D02*
G01*
X2051497Y192255D01*
X1631497Y192255D02*
G01*
X1631497Y93489D01*
X1917824Y218970D02*
G01*
X1765424Y218970D01*
X1917824Y66570D02*
G01*
X1765302Y66669D01*
X2051497Y93471D02*
G01*
X2051436Y93416D01*
X1993460Y35440D02*
G01*
X1940892Y-17127D01*
X1689541Y29761D02*
G01*
X1736422Y-17127D01*
X1993460Y257926D02*
G01*
X1948515Y302872D01*
X2051712Y704331D02*
G01*
X1631713Y704331D01*
X2051712Y375188D02*
G01*
X1631713Y375188D01*
X1689757Y657951D02*
G01*
X1731558Y699759D01*
X2051712Y490377D02*
G01*
X2051712Y589142D01*
X1631713Y589142D02*
G01*
X1631713Y490377D01*
X1918040Y615858D02*
G01*
X1765640Y615858D01*
X1918040Y463458D02*
G01*
X1765518Y463557D01*
X2051712Y490359D02*
G01*
X2051651Y490303D01*
X1993676Y432328D02*
G01*
X1941108Y379760D01*
X1689757Y426648D02*
G01*
X1736638Y379760D01*
X1993676Y654814D02*
G01*
X1948731Y699759D01*
X-894603Y-1631490D02*
G01*
X-894603Y-2051489D01*
X-565459Y-1631490D02*
G01*
X-565459Y-2051489D01*
X-848222Y-1993445D02*
G01*
X-890031Y-1951644D01*
X-680648Y-1631490D02*
G01*
X-779414Y-1631490D01*
X-779414Y-2051489D02*
G01*
X-680648Y-2051489D01*
X-806129Y-1765162D02*
G01*
X-806129Y-1917562D01*
X-653729Y-1765162D02*
G01*
X-653829Y-1917684D01*
X-680631Y-1631490D02*
G01*
X-680575Y-1631551D01*
X-622599Y-1689526D02*
G01*
X-570031Y-1742094D01*
X-616920Y-1993445D02*
G01*
X-570031Y-1946564D01*
X-845085Y-1689526D02*
G01*
X-890031Y-1734472D01*
X-1243853Y-1631490D02*
G01*
X-1243853Y-2051489D01*
X-914709Y-1631490D02*
G01*
X-914709Y-2051489D01*
X-1197472Y-1993445D02*
G01*
X-1239281Y-1951644D01*
X-1029898Y-1631490D02*
G01*
X-1128664Y-1631490D01*
X-1128664Y-2051489D02*
G01*
X-1029898Y-2051489D01*
X-1155379Y-1765162D02*
G01*
X-1155379Y-1917562D01*
X-1002979Y-1765162D02*
G01*
X-1003079Y-1917684D01*
X-1029881Y-1631490D02*
G01*
X-1029825Y-1631551D01*
X-971849Y-1689526D02*
G01*
X-919281Y-1742094D01*
X-966170Y-1993445D02*
G01*
X-919281Y-1946564D01*
X-1194335Y-1689526D02*
G01*
X-1239281Y-1734472D01*
D16*
X34899Y2010133D02*
G01*
X34899Y2081146D01*
X1081902Y2081146D02*
G01*
X1076802Y2081146D01*
X34899Y1320647D02*
G01*
X34899Y2010133D01*
X34899Y2010133D01*
X1076802Y2081146D02*
G01*
X193019Y2081146D01*
X1234897Y1320647D02*
G01*
X1234897Y2081146D01*
X104899Y1480647D02*
G01*
X104899Y1320647D01*
X34899Y1320647D01*
X1164897Y1480647D02*
G01*
X104899Y1480647D01*
X1234897Y1320647D02*
G01*
X1164897Y1320647D01*
X1164897Y1480647D01*
D17*
X-829622Y-1473751D02*
G01*
X-914626Y-1473751D01*
X-829622Y-1383748D02*
G01*
X-914626Y-1383748D01*
X-789625Y-1473751D02*
G01*
X-714623Y-1473751D01*
X-789625Y-1383748D02*
G01*
X-714623Y-1383748D01*
X-914628Y-1473751D02*
G01*
X-914626Y-1383748D01*
X-694623Y-1453753D02*
G01*
X-694623Y-1403748D01*
X-714623Y-1473751D02*
G01*
X-714621Y-1473751D01*
X-694623Y-1453753D01*
X-714623Y-1383748D02*
G01*
X-694623Y-1403748D01*
X-818621Y-1448749D02*
G01*
X-818621Y-1408750D01*
X-818624Y-1428813D02*
G01*
X-800036Y-1428752D01*
X678502Y-13251D02*
G01*
X593498Y-13251D01*
X678502Y76751D02*
G01*
X593498Y76751D01*
X718499Y-13251D02*
G01*
X793501Y-13251D01*
X718499Y76751D02*
G01*
X793501Y76751D01*
X593496Y-13251D02*
G01*
X593498Y76751D01*
X813501Y6746D02*
G01*
X813501Y56751D01*
X793501Y-13251D02*
G01*
X793503Y-13251D01*
X813501Y6746D01*
X793501Y76751D02*
G01*
X813501Y56751D01*
X689503Y11750D02*
G01*
X689503Y51749D01*
X689500Y31686D02*
G01*
X708088Y31747D01*
D14*
X-724154Y146050D02*
G01*
X-1123950Y146050D01*
X-1123950Y171018D02*
G01*
X-1123950Y146050D01*
X-1121410Y425450D02*
G01*
X-1121410Y400481D01*
X-1121410Y425450D02*
G01*
X-721613Y425450D01*
X-725170Y171018D02*
G01*
X-725170Y146050D01*
X-720089Y422478D02*
G01*
X-720089Y397510D01*
D18*
X-959612Y285750D02*
G01*
X-959612Y247650D01*
X-883412Y247650D02*
G01*
X-959612Y285750D01*
X-883412Y285750D02*
G01*
X-883412Y247650D01*
X-959612Y285750D02*
G01*
X-959612Y323850D01*
X-883412Y323850D02*
G01*
X-959612Y285750D01*
X-883412Y285750D02*
G01*
X-883412Y323850D01*
X-858012Y285750D02*
G01*
X-985012Y285750D01*
D14*
X-1007110Y161289D02*
G01*
X-1007110Y410210D01*
D19*
X-542874Y-1630883D02*
G01*
X-542874Y-2090877D01*
X257124Y-1630883D02*
G01*
X257124Y-2090877D01*
X-542874Y-1630883D02*
G01*
X257124Y-1630883D01*
X-542874Y-2090877D02*
G01*
X257124Y-2090877D01*
X-342874Y-2060879D02*
G01*
X57124Y-2060879D01*
X57124Y-2060879D02*
G01*
X57124Y-2090877D01*
X-342874Y-2060879D02*
G01*
X-342874Y-2090877D01*
D10*
X849312Y-1162634D02*
G01*
X1230312Y-1162634D01*
X1230312Y-1472641D01*
X849312Y-1472641D01*
X849312Y-1162634D01*
D14*
X-4005Y405749D02*
G01*
X-4005Y165750D01*
X-504004Y405749D02*
G01*
X-504004Y165750D01*
X-154005Y165750D02*
G01*
X-4005Y165750D01*
X-154005Y405749D02*
G01*
X-4005Y405749D01*
X-354004Y165750D02*
G01*
X-504004Y165750D01*
X-354004Y405749D02*
G01*
X-504004Y405749D01*
D11*
X-423176Y696313D02*
G01*
X-686815Y694309D01*
X-686815Y1229995D01*
X-547370Y1369440D01*
X-417829Y1368104D01*
X-278480Y694926D02*
G01*
X-11633Y694258D01*
X-11633Y1229878D01*
X-151246Y1369491D01*
X-280670Y1369491D01*
X811811Y592823D02*
G01*
X813815Y329184D01*
X278129Y329184D01*
X138684Y468629D01*
X140020Y598170D01*
X813198Y737519D02*
G01*
X813866Y1004366D01*
X278246Y1004366D01*
X138633Y864753D01*
X138633Y735329D01*
X-815073Y1938936D02*
G01*
X-551434Y1940940D01*
X-551434Y1405254D01*
X-690879Y1265809D01*
X-820420Y1267145D01*
X-959769Y1940323D02*
G01*
X-1226616Y1940991D01*
X-1226616Y1405371D01*
X-1087003Y1265758D01*
X-957579Y1265758D01*
D16*
G75*
G01*
X-939800Y812800D02*
G03*
X-939800Y889000I-27050J38100D01*
G75*
G01*
X-939800Y977900D02*
G03*
X-939800Y889000I28743J-44450D01*
D14*
G75*
G01*
X-1392740Y256591D02*
G03*
X-1392669Y13I50091J-128275D01*
G75*
G01*
X-1392740Y-124435D02*
G03*
X-1392669Y-381013I50091J-128275D01*
G75*
G01*
X-1392740Y-505435D02*
G03*
X-1392669Y-762013I50091J-128275D01*
G75*
G01*
X-1392740Y-886435D02*
G03*
X-1392669Y-1143013I50091J-128275D01*
G75*
G01*
X1765300Y66672D02*
G02*
X1765427Y218971I64J76150D01*
G75*
G01*
X1917827Y218971D02*
G02*
X1917827Y66571I0J-76200D01*
G75*
G01*
X1765516Y463560D02*
G02*
X1765643Y615859I63J76149D01*
G75*
G01*
X1918043Y615859D02*
G02*
X1918043Y463459I0J-76200D01*
G75*
G01*
X-653832Y-1917687D02*
G02*
X-806130Y-1917560I-76149J63D01*
G75*
G01*
X-806130Y-1765160D02*
G02*
X-653730Y-1765160I76200J0D01*
G75*
G01*
X-1003082Y-1917687D02*
G02*
X-1155380Y-1917560I-76149J63D01*
G75*
G01*
X-1155380Y-1765160D02*
G02*
X-1002980Y-1765160I76200J0D01*
D10*
G75*
G01
X1850009Y-1550010D02*
G03X1850009Y-1550010I-299999J0D01*
G75*
G01
X-1250010Y-1550010D02*
G03X-1250010Y-1550010I-299999J0D01*
G75*
G01
X-1250010Y1550010D02*
G03X-1250010Y1550010I-299999J0D01*
G75*
G01
X1850009Y1550010D02*
G03X1850009Y1550010I-299999J0D01*
D20*
G75*
G01
X224892Y1372159D02*
G03X224892Y1372159I-19990J0D01*
D14*
G75*
G01
X1268451Y-1241425D02*
G03X1268451Y-1241425I-12700J0D01*
G36*
X-1055674Y-412750D02*
G01*
X-571474Y-412750D01*
X-571474Y-1365250D01*
X-1055674Y-1365250D01*
G37*
M02*
