G04 Layer: BottomSolderMaskLayer*
G04 Panelize: V-CUT, Column: 2, Row: 5, Board Size: 42mm x 42.27mm, Panelized Board Size: 92mm x 223.36mm*
G04 EasyEDA v6.5.54, 2026-06-22 22:14:46*
G04 820ba6ca1dbf42d8ad26d6661cbbd738,d3e2394e42c544d094782fd7389e907f,10*
G04 Gerber Generator version 0.2*
G04 Scale: 100 percent, Rotated: No, Reflected: No *
G04 Dimensions in millimeters *
G04 leading zeros omitted , absolute positions ,4 integer and 5 decimal *
%FSLAX45Y45*%
%MOMM*%

%AMMACRO1*4,1,8,-0.7261,-0.7258,-0.7558,-0.696,-0.7558,0.6961,-0.7261,0.7258,0.726,0.7258,0.7558,0.6961,0.7558,-0.696,0.726,-0.7258,-0.7261,-0.7258,0*%
%AMMACRO2*4,1,8,-0.5398,-0.3168,-0.5696,-0.287,-0.5696,0.2871,-0.5398,0.3168,0.5398,0.3168,0.5696,0.2871,0.5696,-0.287,0.5398,-0.3168,-0.5398,-0.3168,0*%
%AMMACRO3*4,1,8,-0.5398,-0.3168,-0.5696,-0.287,-0.5696,0.287,-0.5398,0.3168,0.5398,0.3168,0.5696,0.287,0.5696,-0.287,0.5398,-0.3168,-0.5398,-0.3168,0*%
%AMMACRO4*4,1,8,-0.5421,-0.6516,-0.6016,-0.5921,-0.6016,0.5921,-0.5421,0.6516,0.5421,0.6516,0.6016,0.5921,0.6016,-0.5921,0.5421,-0.6516,-0.5421,-0.6516,0*%
%AMMACRO5*4,1,8,-0.5921,-0.6016,-0.6516,-0.5421,-0.6516,0.5421,-0.5921,0.6016,0.5921,0.6016,0.6516,0.5421,0.6516,-0.5421,0.5921,-0.6016,-0.5921,-0.6016,0*%
%AMMACRO6*4,1,8,-0.5421,-0.3766,-0.6016,-0.3171,-0.6016,0.3171,-0.5421,0.3766,0.5421,0.3766,0.6016,0.3171,0.6016,-0.3171,0.5421,-0.3766,-0.5421,-0.3766,0*%
%AMMACRO7*4,1,8,-0.7196,-0.2538,-0.7493,-0.224,-0.7493,0.2241,-0.7196,0.2538,0.7195,0.2538,0.7493,0.2241,0.7493,-0.224,0.7195,-0.2538,-0.7196,-0.2538,0*%
%AMMACRO8*4,1,8,-1.8711,-1.0008,-1.9008,-0.971,-1.9008,0.9711,-1.8711,1.0008,1.871,1.0008,1.9008,0.9711,1.9008,-0.971,1.871,-1.0008,-1.8711,-1.0008,0*%
%AMMACRO9*4,1,8,-0.3211,-0.601,-0.351,-0.5711,-0.351,0.5711,-0.3211,0.601,0.3211,0.601,0.351,0.5711,0.351,-0.5711,0.3211,-0.601,-0.3211,-0.601,0*%
%AMMACRO10*4,1,8,-0.8171,-0.6016,-0.8766,-0.5421,-0.8766,0.5421,-0.8171,0.6016,0.8171,0.6016,0.8766,0.5421,0.8766,-0.5421,0.8171,-0.6016,-0.8171,-0.6016,0*%
%AMMACRO11*4,1,8,-0.5421,-0.8766,-0.6016,-0.8171,-0.6016,0.8171,-0.5421,0.8766,0.5421,0.8766,0.6016,0.8171,0.6016,-0.8171,0.5421,-0.8766,-0.5421,-0.8766,0*%
%AMMACRO12*4,1,8,-0.5421,-0.6016,-0.6016,-0.5421,-0.6016,0.5421,-0.5421,0.6016,0.5421,0.6016,0.6016,0.5421,0.6016,-0.5421,0.5421,-0.6016,-0.5421,-0.6016,0*%
%AMMACRO13*4,1,8,-0.9921,-0.7016,-1.0516,-0.6421,-1.0516,0.6421,-0.9921,0.7016,0.9921,0.7016,1.0516,0.6421,1.0516,-0.6421,0.9921,-0.7016,-0.9921,-0.7016,0*%
%AMMACRO14*4,1,8,-0.6421,-1.0516,-0.7016,-0.9921,-0.7016,0.9921,-0.6421,1.0516,0.6421,1.0516,0.7016,0.9921,0.7016,-0.9921,0.6421,-1.0516,-0.6421,-1.0516,0*%
%AMMACRO15*4,1,8,-0.542,-0.6516,-0.6016,-0.5921,-0.6016,0.5921,-0.5421,0.6516,0.5421,0.6516,0.6016,0.5921,0.6016,-0.5921,0.542,-0.6516,-0.542,-0.6516,0*%
%AMMACRO16*4,1,8,-0.5921,-0.6016,-0.6516,-0.5421,-0.6516,0.5421,-0.5921,0.6016,0.5921,0.6016,0.6516,0.542,0.6516,-0.542,0.5921,-0.6016,-0.5921,-0.6016,0*%
%AMMACRO17*4,1,8,-0.5421,-0.6516,-0.6016,-0.5921,-0.6016,0.5921,-0.542,0.6516,0.542,0.6516,0.6016,0.5921,0.6016,-0.5921,0.5421,-0.6516,-0.5421,-0.6516,0*%
%AMMACRO18*4,1,8,-0.892,-1.3015,-0.9515,-1.242,-0.9515,1.242,-0.892,1.3015,0.8919,1.3015,0.9515,1.242,0.9515,-1.242,0.8919,-1.3015,-0.892,-1.3015,0*%
%AMMACRO19*4,1,8,-1.6921,-1.3066,-1.7516,-1.2471,-1.7516,1.2471,-1.6921,1.3066,1.6921,1.3066,1.7516,1.2471,1.7516,-1.2471,1.6921,-1.3066,-1.6921,-1.3066,0*%
%AMMACRO20*4,1,8,-0.3671,-0.9016,-0.4266,-0.8421,-0.4266,0.8421,-0.3671,0.9016,0.3671,0.9016,0.4266,0.8421,0.4266,-0.8421,0.3671,-0.9016,-0.3671,-0.9016,0*%
%AMMACRO21*4,1,8,-0.6771,-0.9906,-0.7366,-0.9311,-0.7366,0.9311,-0.6771,0.9906,0.6771,0.9906,0.7366,0.9311,0.7366,-0.9311,0.6771,-0.9906,-0.6771,-0.9906,0*%
%AMMACRO22*4,1,8,0.5921,-0.6016,-0.5921,-0.6016,-0.6516,-0.542,-0.6516,0.542,-0.5921,0.6016,0.5921,0.6016,0.6516,0.5421,0.6516,-0.5421,0.5921,-0.6016,0*%
%AMMACRO23*4,1,8,-0.7421,-0.8016,-0.8016,-0.7421,-0.8016,0.7421,-0.7421,0.8016,0.7421,0.8016,0.8016,0.7421,0.8016,-0.7421,0.7421,-0.8016,-0.7421,-0.8016,0*%
%AMMACRO24*4,1,8,-0.5207,-0.55,-0.55,-0.5207,-0.55,0.5207,-0.5207,0.55,0.5207,0.55,0.55,0.5207,0.55,-0.5207,0.5207,-0.55,-0.5207,-0.55,0*%
%ADD10MACRO1*%
%ADD11MACRO2*%
%ADD12MACRO3*%
%ADD13MACRO4*%
%ADD14MACRO5*%
%ADD15MACRO6*%
%ADD16MACRO7*%
%ADD17C,0.0130*%
%ADD18MACRO8*%
%ADD19O,0.713207X1.803197*%
%ADD20MACRO9*%
%ADD21MACRO10*%
%ADD22MACRO11*%
%ADD23O,2.203196X1.003198*%
%ADD24MACRO12*%
%ADD25MACRO13*%
%ADD26MACRO14*%
%ADD27O,1.723212X0.803199*%
%ADD28MACRO15*%
%ADD29MACRO16*%
%ADD30MACRO17*%
%ADD31MACRO18*%
%ADD32MACRO19*%
%ADD33MACRO20*%
%ADD34MACRO21*%
%ADD35MACRO22*%
%ADD36O,0.503199X1.403198*%
%ADD37O,1.403198X0.503199*%
%ADD38MACRO23*%
%ADD39O,2.203196X3.703193*%
%ADD40O,0.903199X2.303196*%
%ADD41O,0.903199X2.103196*%
%ADD42MACRO24*%
%ADD43C,1.1000*%
%ADD44C,2.4016*%
%ADD45O,1.4732X1.4732*%
%ADD46C,4.5032*%
%ADD47C,3.0000*%

%LPD*%
D10*
G01*
X-1201747Y698500D03*
G01*
X-1401752Y698500D03*
D11*
G01*
X-1286874Y-381250D03*
G01*
X-1286874Y-571249D03*
D12*
G01*
X-1507125Y-476250D03*
D13*
G01*
X-612614Y-206376D03*
G01*
X-752614Y-206376D03*
G01*
X-930114Y-206376D03*
G01*
X-1070114Y-206376D03*
G01*
X-612614Y-47626D03*
G01*
X-752614Y-47626D03*
D14*
G01*
X-619126Y136364D03*
G01*
X-619126Y276364D03*
D13*
G01*
X-930114Y-47626D03*
G01*
X-1070114Y-47626D03*
D15*
G01*
X-786612Y111375D03*
G01*
X-786612Y301374D03*
G01*
X-1086611Y301374D03*
G01*
X-1086611Y206375D03*
G01*
X-1086611Y111375D03*
D16*
G01*
X-579625Y-442239D03*
G01*
X-579625Y-507238D03*
G01*
X-579625Y-572261D03*
G01*
X-579625Y-637260D03*
G01*
X-1039624Y-637260D03*
G01*
X-1039624Y-572261D03*
G01*
X-1039624Y-507238D03*
G01*
X-1039624Y-442239D03*
D14*
G01*
X-476251Y-1054260D03*
G01*
X-476251Y-914260D03*
G01*
X-635001Y-1054260D03*
G01*
X-635001Y-914260D03*
D18*
G01*
X-984250Y1598000D03*
G01*
X-984250Y1957999D03*
D19*
G01*
X-190500Y240004D03*
G01*
X-63500Y240004D03*
G01*
X63500Y240004D03*
G01*
X190500Y240004D03*
G01*
X-190500Y-240004D03*
G01*
X-63500Y-240004D03*
G01*
X63500Y-240004D03*
G01*
X190500Y-240004D03*
D20*
G01*
X-1015720Y1071467D03*
G01*
X-920724Y1071467D03*
G01*
X-825728Y1071467D03*
G01*
X-825728Y1341478D03*
G01*
X-920724Y1341478D03*
G01*
X-1015720Y1341478D03*
D21*
G01*
X-587324Y1058748D03*
G01*
X-587324Y1258747D03*
D14*
G01*
X-1206498Y1228885D03*
G01*
X-1206498Y1088885D03*
D13*
G01*
X-755489Y-1381126D03*
G01*
X-895489Y-1381126D03*
D14*
G01*
X-1111248Y-1390489D03*
G01*
X-1111248Y-1530489D03*
G01*
X-317501Y1485739D03*
G01*
X-317501Y1625739D03*
G01*
X-349251Y1212989D03*
G01*
X-349251Y1072989D03*
D22*
G01*
X-766749Y-1952625D03*
G01*
X-566750Y-1952625D03*
D14*
G01*
X1587501Y-707864D03*
G01*
X1587501Y-847864D03*
D23*
G01*
X-189763Y-1587500D03*
G01*
X-189763Y-1714500D03*
G01*
X-889762Y-1714500D03*
G01*
X-889762Y-1587500D03*
D14*
G01*
X-476251Y1485739D03*
G01*
X-476251Y1625739D03*
D13*
G01*
X-1197135Y889001D03*
G01*
X-1057135Y889001D03*
D24*
G01*
X-666750Y1675749D03*
G01*
X-666750Y1435750D03*
D25*
G01*
X-1397000Y-191757D03*
G01*
X-1397000Y128257D03*
D24*
G01*
X-1936750Y-754999D03*
G01*
X-1936750Y-515000D03*
G01*
X-1936750Y-1181750D03*
G01*
X-1936750Y-1421749D03*
D26*
G01*
X1747507Y1127125D03*
G01*
X1427492Y1127125D03*
D14*
G01*
X1111251Y1252697D03*
G01*
X1111251Y1112697D03*
G01*
X349248Y755489D03*
G01*
X349248Y895489D03*
D27*
G01*
X-1385239Y-1174750D03*
G01*
X-1385239Y-1047750D03*
G01*
X-1385239Y-920750D03*
G01*
X-1385239Y-793750D03*
G01*
X-837260Y-1174750D03*
G01*
X-837260Y-1047750D03*
G01*
X-837260Y-920750D03*
G01*
X-837260Y-793750D03*
D14*
G01*
X1746251Y-707864D03*
G01*
X1746251Y-847864D03*
G01*
X1746251Y-1009489D03*
G01*
X1746251Y-1149489D03*
G01*
X1587498Y-1149510D03*
G01*
X1587498Y-1009510D03*
G01*
X341311Y276364D03*
G01*
X341311Y136364D03*
G01*
X1746251Y276385D03*
G01*
X1746251Y136385D03*
G01*
X1746251Y911385D03*
G01*
X1746251Y771385D03*
G01*
X1746251Y-25239D03*
G01*
X1746251Y-165239D03*
G01*
X1746251Y609760D03*
G01*
X1746251Y469760D03*
D28*
G01*
X374488Y-1349373D03*
D13*
G01*
X514489Y-1349373D03*
D29*
G01*
X1269998Y-1149508D03*
D14*
G01*
X1269998Y-1009510D03*
D30*
G01*
X1371758Y-95251D03*
D13*
G01*
X1231760Y-95251D03*
G01*
X863760Y-1349376D03*
G01*
X723760Y-1349376D03*
D14*
G01*
X365126Y-1549239D03*
G01*
X365126Y-1689239D03*
G01*
X1127126Y-1549239D03*
G01*
X1127126Y-1689239D03*
D31*
G01*
X942162Y-1619199D03*
G01*
X550087Y-1619300D03*
D32*
G01*
X1333500Y603250D03*
D33*
G01*
X1524001Y323265D03*
G01*
X1397001Y323265D03*
G01*
X1270001Y323265D03*
G01*
X1143001Y323265D03*
G01*
X1524001Y883234D03*
G01*
X1397001Y883234D03*
G01*
X1270001Y883234D03*
G01*
X1143001Y883234D03*
D32*
G01*
X730250Y603250D03*
D33*
G01*
X920751Y323265D03*
G01*
X793751Y323265D03*
G01*
X666751Y323265D03*
G01*
X539751Y323265D03*
G01*
X920751Y883234D03*
G01*
X793751Y883234D03*
G01*
X666751Y883234D03*
G01*
X539751Y883234D03*
D34*
G01*
X794994Y1127125D03*
G01*
X475005Y1127125D03*
D35*
G01*
X341313Y-25238D03*
D14*
G01*
X341313Y-165239D03*
G01*
X1936751Y276385D03*
G01*
X1936751Y136385D03*
G01*
X1936751Y911385D03*
G01*
X1936751Y771385D03*
G01*
X1936751Y609760D03*
G01*
X1936751Y469760D03*
G01*
X1936751Y-25239D03*
G01*
X1936751Y-165239D03*
D36*
G01*
X1100480Y-996492D03*
G01*
X1050467Y-996492D03*
G01*
X1000480Y-996492D03*
G01*
X950468Y-996492D03*
G01*
X900480Y-996492D03*
G01*
X850468Y-996492D03*
G01*
X800480Y-996492D03*
G01*
X750468Y-996492D03*
G01*
X700481Y-996492D03*
G01*
X650468Y-996492D03*
G01*
X600481Y-996492D03*
G01*
X550468Y-996492D03*
D37*
G01*
X400481Y-846505D03*
G01*
X400481Y-796493D03*
G01*
X400481Y-746505D03*
G01*
X400481Y-696493D03*
G01*
X400481Y-646506D03*
G01*
X400481Y-596493D03*
G01*
X400481Y-546506D03*
G01*
X400481Y-496493D03*
G01*
X400481Y-446506D03*
G01*
X400481Y-396494D03*
G01*
X400481Y-346506D03*
G01*
X400481Y-296494D03*
D36*
G01*
X550468Y-146507D03*
G01*
X600481Y-146507D03*
G01*
X650468Y-146507D03*
G01*
X700481Y-146507D03*
G01*
X750468Y-146507D03*
G01*
X800480Y-146507D03*
G01*
X850468Y-146507D03*
G01*
X900480Y-146507D03*
G01*
X950468Y-146507D03*
G01*
X1000480Y-146507D03*
G01*
X1050467Y-146507D03*
G01*
X1100480Y-146507D03*
D37*
G01*
X1250467Y-296494D03*
G01*
X1250467Y-346506D03*
G01*
X1250467Y-396494D03*
G01*
X1250467Y-446506D03*
G01*
X1250467Y-496493D03*
G01*
X1250467Y-546506D03*
G01*
X1250467Y-596493D03*
G01*
X1250467Y-646506D03*
G01*
X1250467Y-696493D03*
G01*
X1250467Y-746505D03*
G01*
X1250467Y-796493D03*
G01*
X1250467Y-846505D03*
D38*
G01*
X-127000Y1088237D03*
G01*
X-127000Y1388236D03*
D39*
G01*
X0Y1871218D03*
D40*
G01*
X0Y1631187D03*
D41*
G01*
X-150113Y1621281D03*
G01*
X150113Y1621281D03*
D25*
G01*
X-1682750Y792500D03*
G01*
X-1682750Y1112514D03*
G01*
X-1936750Y1112507D03*
G01*
X-1936750Y792492D03*
D24*
G01*
X-1278874Y-1952625D03*
G01*
X-1038875Y-1952625D03*
D14*
G01*
X-666748Y1990885D03*
G01*
X-666748Y1850885D03*
D24*
G01*
X-1428750Y1104249D03*
G01*
X-1428750Y864250D03*
D42*
G01*
X1905000Y-1137005D03*
D43*
G01*
X1905000Y-1012012D03*
G01*
X1905000Y-886993D03*
G01*
X1905000Y-762000D03*
G01*
X1905000Y-637006D03*
G01*
X1905000Y-512013D03*
G01*
X1905000Y-386994D03*
D44*
G01*
X-1682724Y127000D03*
G01*
X-1682724Y-254025D03*
G01*
X-1682724Y-635025D03*
G01*
X-1682724Y-1016025D03*
D45*
G01*
X-342772Y-1920875D03*
G01*
X-142875Y-1920875D03*
G01*
X57022Y-1920875D03*
D46*
G01*
X1550009Y1550009D03*
G01*
X-1550009Y-1550009D03*
G01*
X-1550009Y1550009D03*
G01*
X1550009Y-1550009D03*
D47*
G01*
X-2299995Y1127252D03*
G01*
X7299997Y627253D03*
G01*
X-2299995Y-19209009D03*
G01*
X7299997Y-18709010D03*
M02*
