G04 Layer: BottomSilkscreenLayer*
G04 Panelize: V-CUT, Column: 2, Row: 5, Board Size: 42mm x 42.27mm, Panelized Board Size: 92mm x 223.36mm*
G04 EasyEDA v6.5.54, 2026-06-22 22:14:46*
G04 820ba6ca1dbf42d8ad26d6661cbbd738,d3e2394e42c544d094782fd7389e907f,10*
G04 Gerber Generator version 0.2*
G04 Scale: 100 percent, Rotated: No, Reflected: No *
G04 Dimensions in millimeters *
G04 leading zeros omitted , absolute positions ,4 integer and 5 decimal *
%FSLAX45Y45*%
%MOMM*%

%ADD10C,0.1524*%
%ADD11C,0.4572*%
%ADD12C,0.2000*%
%ADD13C,0.2540*%
%ADD14C,0.1500*%
%ADD15C,0.2032*%
%ADD16C,0.1016*%
%ADD17C,0.1000*%
%ADD18C,0.3000*%
%ADD19C,0.0122*%
%ADD20C,0.4000*%
%ADD21C,0.2400*%

%LPD*%
G36*
X-1976729Y-599998D02*
G01*
X-1936750Y-630021D01*
X-1896770Y-599998D01*
G37*
G36*
X-1936750Y-635000D02*
G01*
X-1976729Y-665022D01*
X-1896770Y-665022D01*
G37*
G36*
X-1936750Y-1306728D02*
G01*
X-1976729Y-1336751D01*
X-1896770Y-1336751D01*
G37*
G36*
X-1976729Y-1271727D02*
G01*
X-1936750Y-1301750D01*
X-1896770Y-1271727D01*
G37*
D10*
X0Y666750D02*
G01*
X0Y-666750D01*
X-666750Y0D02*
G01*
X666750Y0D01*
D11*
X476250Y0D02*
G01*
X1587500Y0D01*
X222250Y2095500D02*
G01*
X222250Y1064768D01*
X0Y842518D01*
X0Y476250D02*
G01*
X0Y842518D01*
X7365Y849884D02*
G01*
X-864615Y849884D01*
X-1143000Y571500D01*
X-2095500Y571500D01*
D10*
X-1120630Y608139D02*
G01*
X-1261630Y608139D01*
X-1261630Y788860D02*
G01*
X-1120630Y788860D01*
X-1105390Y773620D02*
G01*
X-1105390Y623379D01*
X-1482869Y608139D02*
G01*
X-1341869Y608139D01*
X-1341869Y788860D02*
G01*
X-1482869Y788860D01*
X-1498109Y773620D02*
G01*
X-1498109Y623379D01*
X-1311130Y-628870D02*
G01*
X-1482869Y-628870D01*
X-1482869Y-525708D01*
X-1311130Y-323629D02*
G01*
X-1482869Y-323629D01*
X-1482869Y-426791D01*
X-1311130Y-521789D02*
G01*
X-1311130Y-430710D01*
D12*
X-722604Y-126364D02*
G01*
X-832612Y-126364D01*
X-832612Y-286385D01*
X-722604Y-286385D01*
X-642620Y-126364D02*
G01*
X-532612Y-126364D01*
X-532612Y-226364D01*
X-532612Y-286385D01*
X-642620Y-286385D01*
X-1040104Y-126364D02*
G01*
X-1150112Y-126364D01*
X-1150112Y-286385D01*
X-1040104Y-286385D01*
X-960120Y-126364D02*
G01*
X-850112Y-126364D01*
X-850112Y-226364D01*
X-850112Y-286385D01*
X-960120Y-286385D01*
X-722604Y32385D02*
G01*
X-832612Y32385D01*
X-832612Y-127635D01*
X-722604Y-127635D01*
X-642620Y32385D02*
G01*
X-532612Y32385D01*
X-532612Y-67614D01*
X-532612Y-127635D01*
X-642620Y-127635D01*
X-539114Y246354D02*
G01*
X-539114Y356362D01*
X-699135Y356362D01*
X-699135Y246354D01*
X-539114Y166370D02*
G01*
X-539114Y56362D01*
X-639114Y56362D01*
X-699135Y56362D01*
X-699135Y166370D01*
X-1040104Y32385D02*
G01*
X-1150112Y32385D01*
X-1150112Y-127635D01*
X-1040104Y-127635D01*
X-960120Y32385D02*
G01*
X-850112Y32385D01*
X-850112Y-67614D01*
X-850112Y-127635D01*
X-960120Y-127635D01*
D13*
X-846612Y361378D02*
G01*
X-1026612Y361378D01*
X-846612Y166375D02*
G01*
X-846612Y246377D01*
X-846612Y51376D02*
G01*
X-1026612Y51376D01*
D14*
X-744854Y-391909D02*
G01*
X-679625Y-391909D01*
X-679625Y-689749D01*
X-939624Y-689749D01*
X-939624Y-391909D01*
X-874395Y-391909D01*
D12*
X-396239Y-944270D02*
G01*
X-396239Y-834262D01*
X-556260Y-834262D01*
X-556260Y-944270D01*
X-396239Y-1024254D02*
G01*
X-396239Y-1134262D01*
X-496239Y-1134262D01*
X-556260Y-1134262D01*
X-556260Y-1024254D01*
X-554989Y-944270D02*
G01*
X-554989Y-834262D01*
X-715010Y-834262D01*
X-715010Y-944270D01*
X-554989Y-1024254D02*
G01*
X-554989Y-1134262D01*
X-654989Y-1134262D01*
X-715010Y-1134262D01*
X-715010Y-1024254D01*
D15*
X-774252Y1577997D02*
G01*
X-774250Y1977999D01*
X-1194249Y1577997D02*
G01*
X-1194247Y1977999D01*
D13*
X-241300Y160020D02*
G01*
X241300Y160020D01*
X241300Y-154939D01*
X-241300Y-154939D01*
X-241300Y-154939D02*
G01*
X-241300Y-60960D01*
X-241300Y66039D02*
G01*
X-241300Y160020D01*
X-1075715Y1296474D02*
G01*
X-1075715Y1116472D01*
X-765713Y1296474D02*
G01*
X-765713Y1116472D01*
X-507321Y1333751D02*
G01*
X-667324Y1333751D01*
X-507321Y983744D02*
G01*
X-667326Y983747D01*
X-691324Y1208747D02*
G01*
X-691324Y1313746D01*
X-483323Y1208747D02*
G01*
X-483323Y1313746D01*
X-691324Y1108748D02*
G01*
X-691324Y1003749D01*
X-483323Y1108748D02*
G01*
X-483323Y1003749D01*
X-505330Y983744D02*
G01*
X-507321Y983744D01*
X-503328Y983744D02*
G01*
X-507321Y983744D01*
X-671321Y983747D02*
G01*
X-667326Y983747D01*
X-503328Y1333751D02*
G01*
X-507321Y1333751D01*
X-671319Y1333751D02*
G01*
X-667324Y1333751D01*
D12*
X-1286510Y1118895D02*
G01*
X-1286510Y1008887D01*
X-1126489Y1008887D01*
X-1126489Y1118895D01*
X-1286510Y1198879D02*
G01*
X-1286510Y1308887D01*
X-1186510Y1308887D01*
X-1126489Y1308887D01*
X-1126489Y1198879D01*
X-865479Y-1301114D02*
G01*
X-975487Y-1301114D01*
X-975487Y-1461135D01*
X-865479Y-1461135D01*
X-785495Y-1301114D02*
G01*
X-675487Y-1301114D01*
X-675487Y-1401114D01*
X-675487Y-1461135D01*
X-785495Y-1461135D01*
X-1191260Y-1500479D02*
G01*
X-1191260Y-1610487D01*
X-1031239Y-1610487D01*
X-1031239Y-1500479D01*
X-1191260Y-1420495D02*
G01*
X-1191260Y-1310487D01*
X-1091260Y-1310487D01*
X-1031239Y-1310487D01*
X-1031239Y-1420495D01*
X-237489Y1595729D02*
G01*
X-237489Y1705737D01*
X-397510Y1705737D01*
X-397510Y1595729D01*
X-237489Y1515745D02*
G01*
X-237489Y1405737D01*
X-337489Y1405737D01*
X-397510Y1405737D01*
X-397510Y1515745D01*
X-269239Y1182979D02*
G01*
X-269239Y1292987D01*
X-429260Y1292987D01*
X-429260Y1182979D01*
X-269239Y1102995D02*
G01*
X-269239Y992987D01*
X-369239Y992987D01*
X-429260Y992987D01*
X-429260Y1102995D01*
D13*
X-491746Y-1872622D02*
G01*
X-491746Y-2032627D01*
X-616750Y-1848624D02*
G01*
X-511751Y-1848624D01*
X-616750Y-2056625D02*
G01*
X-511751Y-2056625D01*
X-716749Y-1848624D02*
G01*
X-821748Y-1848624D01*
X-716749Y-2056625D02*
G01*
X-821748Y-2056625D01*
X-841753Y-1872622D02*
G01*
X-841753Y-2032627D01*
D12*
X1507489Y-817854D02*
G01*
X1507489Y-927862D01*
X1667510Y-927862D01*
X1667510Y-817854D01*
X1507489Y-737870D02*
G01*
X1507489Y-627862D01*
X1607489Y-627862D01*
X1667510Y-627862D01*
X1667510Y-737870D01*
D13*
X-294754Y-1760613D02*
G01*
X-294754Y-1795993D01*
X-294754Y-1633613D02*
G01*
X-294754Y-1668371D01*
X-294754Y-1505991D02*
G01*
X-294754Y-1541371D01*
X-784755Y-1760644D02*
G01*
X-784755Y-1795993D01*
X-784755Y-1633644D02*
G01*
X-784755Y-1668340D01*
X-784755Y-1505991D02*
G01*
X-784755Y-1541340D01*
X-784755Y-1795993D02*
G01*
X-294754Y-1795993D01*
X-784755Y-1505991D02*
G01*
X-294754Y-1505991D01*
D12*
X-396239Y1595729D02*
G01*
X-396239Y1705737D01*
X-556260Y1705737D01*
X-556260Y1595729D01*
X-396239Y1515745D02*
G01*
X-396239Y1405737D01*
X-496239Y1405737D01*
X-556260Y1405737D01*
X-556260Y1515745D01*
X-1087145Y808989D02*
G01*
X-977137Y808989D01*
X-977137Y969010D01*
X-1087145Y969010D01*
X-1167129Y808989D02*
G01*
X-1277137Y808989D01*
X-1277137Y908989D01*
X-1277137Y969010D01*
X-1167129Y969010D01*
D13*
X-586750Y1455750D02*
G01*
X-586750Y1655749D01*
X-746749Y1455750D02*
G01*
X-746749Y1655749D01*
X-586750Y1520626D02*
G01*
X-746749Y1520626D01*
X-1516999Y218254D02*
G01*
X-1277000Y218254D01*
X-1277000Y-131744D02*
G01*
X-1277000Y-281744D01*
X-1516999Y-131744D02*
G01*
X-1516999Y-281744D01*
X-1277000Y68254D02*
G01*
X-1277000Y218254D01*
X-1516999Y68254D02*
G01*
X-1516999Y218254D01*
X-1516999Y-281744D02*
G01*
X-1277000Y-281744D01*
X-2016749Y-535000D02*
G01*
X-2016749Y-734999D01*
X-1856750Y-535000D02*
G01*
X-1856750Y-734999D01*
D14*
X-1976749Y-635000D02*
G01*
X-1896750Y-635000D01*
D13*
X-1856750Y-1401749D02*
G01*
X-1856750Y-1201750D01*
X-2016749Y-1401749D02*
G01*
X-2016749Y-1201750D01*
D14*
X-1896750Y-1301750D02*
G01*
X-1976749Y-1301750D01*
D13*
X1337495Y1007125D02*
G01*
X1337495Y1247124D01*
X1687494Y1247124D02*
G01*
X1837494Y1247124D01*
X1687494Y1007125D02*
G01*
X1837494Y1007125D01*
X1487495Y1247124D02*
G01*
X1337495Y1247124D01*
X1487495Y1007125D02*
G01*
X1337495Y1007125D01*
X1837494Y1007125D02*
G01*
X1837494Y1247124D01*
D12*
X1031239Y1142707D02*
G01*
X1031239Y1032700D01*
X1191260Y1032700D01*
X1191260Y1142707D01*
X1031239Y1222692D02*
G01*
X1031239Y1332699D01*
X1131239Y1332699D01*
X1191260Y1332699D01*
X1191260Y1222692D01*
X429260Y865479D02*
G01*
X429260Y975487D01*
X269239Y975487D01*
X269239Y865479D01*
X429260Y785495D02*
G01*
X429260Y675487D01*
X329260Y675487D01*
X269239Y675487D01*
X269239Y785495D01*
D13*
X-1171249Y-735251D02*
G01*
X-1281249Y-735251D01*
X-1281249Y-1234249D01*
X-1281249Y-1234249D02*
G01*
X-944125Y-1234249D01*
X-944125Y-1234249D02*
G01*
X-944125Y-735251D01*
X-1053249Y-735251D01*
D12*
X1666239Y-817854D02*
G01*
X1666239Y-927862D01*
X1826260Y-927862D01*
X1826260Y-817854D01*
X1666239Y-737870D02*
G01*
X1666239Y-627862D01*
X1766239Y-627862D01*
X1826260Y-627862D01*
X1826260Y-737870D01*
X1666239Y-1119479D02*
G01*
X1666239Y-1229487D01*
X1826260Y-1229487D01*
X1826260Y-1119479D01*
X1666239Y-1039495D02*
G01*
X1666239Y-929487D01*
X1766239Y-929487D01*
X1826260Y-929487D01*
X1826260Y-1039495D01*
X1667510Y-1039520D02*
G01*
X1667510Y-929512D01*
X1507489Y-929512D01*
X1507489Y-1039520D01*
X1667510Y-1119504D02*
G01*
X1667510Y-1229512D01*
X1567510Y-1229512D01*
X1507489Y-1229512D01*
X1507489Y-1119504D01*
X421322Y166370D02*
G01*
X421322Y56362D01*
X321322Y56362D01*
X261302Y56362D01*
X261302Y166370D01*
X421322Y246354D02*
G01*
X421322Y356362D01*
X261302Y356362D01*
X261302Y246354D01*
X1666239Y166395D02*
G01*
X1666239Y56387D01*
X1826260Y56387D01*
X1826260Y166395D01*
X1666239Y246379D02*
G01*
X1666239Y356387D01*
X1766239Y356387D01*
X1826260Y356387D01*
X1826260Y246379D01*
X1666239Y801395D02*
G01*
X1666239Y691387D01*
X1826260Y691387D01*
X1826260Y801395D01*
X1666239Y881379D02*
G01*
X1666239Y991387D01*
X1766239Y991387D01*
X1826260Y991387D01*
X1826260Y881379D01*
X1666239Y-135229D02*
G01*
X1666239Y-245237D01*
X1826260Y-245237D01*
X1826260Y-135229D01*
X1666239Y-55245D02*
G01*
X1666239Y54762D01*
X1766239Y54762D01*
X1826260Y54762D01*
X1826260Y-55245D01*
X1666239Y499770D02*
G01*
X1666239Y389762D01*
X1826260Y389762D01*
X1826260Y499770D01*
X1666239Y579754D02*
G01*
X1666239Y689762D01*
X1766239Y689762D01*
X1826260Y689762D01*
X1826260Y579754D01*
X484479Y-1429385D02*
G01*
X594487Y-1429385D01*
X594487Y-1269364D01*
X484479Y-1269364D01*
X404495Y-1429385D02*
G01*
X294487Y-1429385D01*
X294487Y-1329385D01*
X294487Y-1269364D01*
X404495Y-1269364D01*
X1350010Y-1039520D02*
G01*
X1350010Y-929512D01*
X1189989Y-929512D01*
X1189989Y-1039520D01*
X1350010Y-1119504D02*
G01*
X1350010Y-1229512D01*
X1250010Y-1229512D01*
X1189989Y-1229512D01*
X1189989Y-1119504D01*
X1261770Y-15239D02*
G01*
X1151762Y-15239D01*
X1151762Y-175260D01*
X1261770Y-175260D01*
X1341754Y-15239D02*
G01*
X1451762Y-15239D01*
X1451762Y-115239D01*
X1451762Y-175260D01*
X1341754Y-175260D01*
X753770Y-1269364D02*
G01*
X643762Y-1269364D01*
X643762Y-1429385D01*
X753770Y-1429385D01*
X833754Y-1269364D02*
G01*
X943762Y-1269364D01*
X943762Y-1369364D01*
X943762Y-1429385D01*
X833754Y-1429385D01*
X285114Y-1659229D02*
G01*
X285114Y-1769237D01*
X445135Y-1769237D01*
X445135Y-1659229D01*
X285114Y-1579245D02*
G01*
X285114Y-1469237D01*
X385114Y-1469237D01*
X445135Y-1469237D01*
X445135Y-1579245D01*
X1047114Y-1659229D02*
G01*
X1047114Y-1769237D01*
X1207135Y-1769237D01*
X1207135Y-1659229D01*
X1047114Y-1579245D02*
G01*
X1047114Y-1469237D01*
X1147114Y-1469237D01*
X1207135Y-1469237D01*
X1207135Y-1579245D01*
D16*
X494919Y-1483817D02*
G01*
X494919Y-1452270D01*
X494919Y-1774189D02*
G01*
X494919Y-1754784D01*
X995045Y-1483715D02*
G01*
X995045Y-1452270D01*
X995045Y-1774189D02*
G01*
X995045Y-1754682D01*
X995045Y-1774189D02*
G01*
X494919Y-1774189D01*
X494817Y-1452270D02*
G01*
X994689Y-1452270D01*
D17*
X811504Y-1630197D02*
G01*
X841502Y-1630197D01*
X801496Y-1730197D02*
G01*
X801496Y-1520189D01*
X731494Y-1720189D02*
G01*
X731494Y-1530197D01*
X771499Y-1530197D01*
X771499Y-1720189D01*
X731494Y-1720189D01*
X701497Y-1730197D02*
G01*
X701497Y-1520189D01*
X651510Y-1630197D02*
G01*
X691514Y-1630197D01*
D10*
X1578485Y408241D02*
G01*
X1578485Y798233D01*
X1088494Y798233D01*
X1088494Y408241D01*
X1578485Y408241D01*
X975235Y408241D02*
G01*
X975235Y798233D01*
X485244Y798233D01*
X485244Y408241D01*
X975235Y408241D01*
D13*
X711200Y1254125D02*
G01*
X896010Y1254125D01*
X896010Y1000125D01*
X711200Y1000125D01*
X558800Y1000125D02*
G01*
X372998Y1000125D01*
X372998Y1254125D01*
X558800Y1254125D01*
D12*
X261302Y-135229D02*
G01*
X261302Y-245237D01*
X421322Y-245237D01*
X421322Y-135229D01*
X261302Y-55245D02*
G01*
X261302Y54762D01*
X361302Y54762D01*
X421322Y54762D01*
X421322Y-55245D01*
X1856739Y166395D02*
G01*
X1856739Y56387D01*
X2016760Y56387D01*
X2016760Y166395D01*
X1856739Y246379D02*
G01*
X1856739Y356387D01*
X1956739Y356387D01*
X2016760Y356387D01*
X2016760Y246379D01*
X1856739Y801395D02*
G01*
X1856739Y691387D01*
X2016760Y691387D01*
X2016760Y801395D01*
X1856739Y881379D02*
G01*
X1856739Y991387D01*
X1956739Y991387D01*
X2016760Y991387D01*
X2016760Y881379D01*
X1856739Y499770D02*
G01*
X1856739Y389762D01*
X2016760Y389762D01*
X2016760Y499770D01*
X1856739Y579754D02*
G01*
X1856739Y689762D01*
X1956739Y689762D01*
X2016760Y689762D01*
X2016760Y579754D01*
X1856739Y-135229D02*
G01*
X1856739Y-245237D01*
X2016760Y-245237D01*
X2016760Y-135229D01*
X1856739Y-55245D02*
G01*
X1856739Y54762D01*
X1956739Y54762D01*
X2016760Y54762D01*
X2016760Y-55245D01*
X1150500Y-246499D02*
G01*
X500499Y-246499D01*
X500499Y-896500D01*
X1150500Y-896500D01*
X1150500Y-246499D01*
D13*
X-27000Y1068237D02*
G01*
X-27000Y1408236D01*
X-226999Y1068237D02*
G01*
X-226999Y1408236D01*
X-27000Y1292979D02*
G01*
X-226999Y1292979D01*
X-140004Y1931288D02*
G01*
X-229996Y1931288D01*
X-229996Y1671269D01*
X229996Y1671269D02*
G01*
X229996Y1931288D01*
X140004Y1931288D01*
X-1582750Y1202502D02*
G01*
X-1782749Y1202502D01*
X-1562750Y852500D02*
G01*
X-1562750Y732500D01*
X-1802749Y852500D02*
G01*
X-1802749Y732500D01*
X-1562750Y1052502D02*
G01*
X-1562750Y1172499D01*
X-1802749Y1052502D02*
G01*
X-1802749Y1172499D01*
X-1582750Y702500D02*
G01*
X-1782749Y702500D01*
X-1562750Y722500D02*
G01*
X-1562750Y732500D01*
X-1802749Y722500D02*
G01*
X-1802749Y732500D01*
X-1562750Y1182502D02*
G01*
X-1562750Y1172499D01*
X-1802749Y1182502D02*
G01*
X-1802749Y1172499D01*
X-1816750Y702495D02*
G01*
X-2056749Y702495D01*
X-2056749Y1052494D02*
G01*
X-2056749Y1202494D01*
X-1816750Y1052494D02*
G01*
X-1816750Y1202494D01*
X-2056749Y852495D02*
G01*
X-2056749Y702495D01*
X-1816750Y852495D02*
G01*
X-1816750Y702495D01*
X-1816750Y1202494D02*
G01*
X-2056749Y1202494D01*
X-1058875Y-1872625D02*
G01*
X-1258874Y-1872625D01*
X-1058875Y-2032624D02*
G01*
X-1258874Y-2032624D01*
X-1123751Y-1872625D02*
G01*
X-1123751Y-2032624D01*
D12*
X-746760Y1880895D02*
G01*
X-746760Y1770887D01*
X-586739Y1770887D01*
X-586739Y1880895D01*
X-746760Y1960879D02*
G01*
X-746760Y2070887D01*
X-646760Y2070887D01*
X-586739Y2070887D01*
X-586739Y1960879D01*
D13*
X-1348750Y884250D02*
G01*
X-1348750Y1084249D01*
X-1508749Y884250D02*
G01*
X-1508749Y1084249D01*
X-1348750Y949126D02*
G01*
X-1508749Y949126D01*
D10*
G75*
G01*
X-1120630Y788860D02*
G02*
X-1105390Y773620I0J-15240D01*
G75*
G01*
X-1105390Y623380D02*
G02*
X-1120630Y608140I-15240J0D01*
G75*
G01*
X-1482870Y788860D02*
G03*
X-1498110Y773620I0J-15240D01*
G75*
G01*
X-1498110Y623380D02*
G03*
X-1482870Y608140I15240J0D01*
D14*
G75*
G01*
X-874395Y-391909D02*
G03*
X-744855Y-391909I64770J0D01*
D13*
G75*
G01*
X-241300Y-60960D02*
G03*
X-241300Y66040I0J63500D01*
G75*
G01*
X-483324Y1003750D02*
G02*
X-503329Y983745I-20005J0D01*
G75*
G01*
X-691325Y1003750D02*
G03*
X-671322Y983747I20003J0D01*
G75*
G01*
X-483324Y1313746D02*
G03*
X-503329Y1333751I-20005J0D01*
G75*
G01*
X-691325Y1313746D02*
G02*
X-671319Y1333751I20006J0D01*
D14*
G75*
G01*
X-654050Y-1901825D02*
G03*
X-670433Y-1958975I-3635J-29881D01*
G75*
G01*
X-666750Y-2016125D02*
G03*
X-670357Y-1958975I-4377J28413D01*
D18*
G75*
G01*
X-184028Y-1445494D02*
G02*
X-184282Y-1445494I-127J-15000D01*
D13*
G75*
G01*
X-1171250Y-735251D02*
G03*
X-1053249Y-735251I59001J-4468D01*
D18*
G75*
G01*
X1543500Y493250D02*
G02*
X1543246Y493250I-127J-15000D01*
G75*
G01*
X940250Y493250D02*
G02*
X939996Y493250I-127J-15000D01*
G75*
G01*
X1170432Y-983996D02*
G02*
X1170178Y-983996I-127J-15001D01*
D20*
G75*
G01*
X1075500Y-801500D02*
G02*
X1075245Y-801500I-127J-19999D01*
D13*
G75*
G01*
X-1582750Y702500D02*
G03*
X-1562750Y722500I0J20000D01*
G75*
G01*
X-1782750Y702500D02*
G02*
X-1802750Y722500I0J20000D01*
G75*
G01*
X-1582750Y1202502D02*
G02*
X-1562750Y1182502I0J-20000D01*
G75*
G01*
X-1782750Y1202502D02*
G03*
X-1802750Y1182502I0J-20000D01*
G75*
G01
X431800Y0D02*
G03X431800Y0I-431800J0D01*
D10*
G75*
G01
X469900Y0D02*
G03X469900Y0I-469900J0D01*
D15*
G75*
G01
X-777875Y952500D02*
G03X-777875Y952500I-15875J0D01*
G75*
G01
X47625Y-1515669D02*
G03X47625Y-1515669I-15875J0D01*
G75*
G01
X1031875Y412750D02*
G03X1031875Y412750I-15875J0D01*
G75*
G01
X1635125Y412750D02*
G03X1635125Y412750I-15875J0D01*
D13*
G75*
G01
X-1076300Y41275D02*
G03X-1076300Y41275I-12700J0D01*
D21*
G75*
G01
X-577647Y-374752D02*
G03X-577647Y-374752I-11989J0D01*
D13*
G75*
G01
X-262890Y208280D02*
G03X-262890Y208280I-19050J0D01*
G75*
G01
X-742925Y1066775D02*
G03X-742925Y1066775I-12700J0D01*
M02*
