G04 Layer: TopSolderMaskLayer*
G04 Panelize: V-CUT, Column: 2, Row: 5, Board Size: 42mm x 42.27mm, Panelized Board Size: 92mm x 223.36mm*
G04 EasyEDA v6.5.54, 2026-06-22 22:14:46*
G04 820ba6ca1dbf42d8ad26d6661cbbd738,d3e2394e42c544d094782fd7389e907f,10*
G04 Gerber Generator version 0.2*
G04 Scale: 100 percent, Rotated: No, Reflected: No *
G04 Dimensions in millimeters *
G04 leading zeros omitted , absolute positions ,4 integer and 5 decimal *
%FSLAX45Y45*%
%MOMM*%

%AMMACRO1*4,1,8,-0.5421,-0.6516,-0.6016,-0.5921,-0.6016,0.5921,-0.5421,0.6516,0.5421,0.6516,0.6016,0.5921,0.6016,-0.5921,0.5421,-0.6516,-0.5421,-0.6516,0*%
%AMMACRO2*4,1,8,-0.2707,-0.9,-0.3,-0.8707,-0.3,0.8707,-0.2707,0.9,0.2707,0.9,0.3,0.8707,0.3,-0.8707,0.2707,-0.9,-0.2707,-0.9,0*%
%AMMACRO3*4,1,8,-0.6207,-1.3,-0.65,-1.2707,-0.65,1.2707,-0.6207,1.3,0.6207,1.3,0.65,1.2707,0.65,-1.2707,0.6207,-1.3,-0.6207,-1.3,0*%
%AMMACRO4*4,1,8,-1.4386,-2.8156,-1.4683,-2.7858,-1.4683,2.7858,-1.4386,2.8156,1.4385,2.8156,1.4683,2.7858,1.4683,-2.7858,1.4385,-2.8156,-1.4386,-2.8156,0*%
%AMMACRO5*4,1,8,-0.5207,-0.55,-0.55,-0.5207,-0.55,0.5207,-0.5207,0.55,0.5207,0.55,0.55,0.5207,0.55,-0.5207,0.5207,-0.55,-0.5207,-0.55,0*%
%AMMACRO6*4,1,8,-0.4421,-1.0016,-0.5016,-0.9421,-0.5016,0.9421,-0.4421,1.0016,0.4421,1.0016,0.5016,0.9421,0.5016,-0.9421,0.4421,-1.0016,-0.4421,-1.0016,0*%
%AMMACRO7*4,1,8,-0.4243,-0.4828,-0.454,-0.453,-0.454,0.4531,-0.4243,0.4828,0.4243,0.4828,0.454,0.4531,0.454,-0.453,0.4243,-0.4828,-0.4243,-0.4828,0*%
%AMMACRO8*4,1,8,-0.7211,-0.4008,-0.7508,-0.371,-0.7508,0.3711,-0.7211,0.4008,0.721,0.4008,0.7508,0.3711,0.7508,-0.371,0.721,-0.4008,-0.7211,-0.4008,0*%
%AMMACRO9*4,1,8,-0.7831,-0.4008,-0.8128,-0.371,-0.8128,0.3711,-0.7831,0.4008,0.783,0.4008,0.8128,0.3711,0.8128,-0.371,0.783,-0.4008,-0.7831,-0.4008,0*%
%AMMACRO10*4,1,8,-0.3711,-0.8128,-0.4008,-0.783,-0.4008,0.7831,-0.3711,0.8128,0.371,0.8128,0.4008,0.7831,0.4008,-0.783,0.371,-0.8128,-0.3711,-0.8128,0*%
%AMMACRO11*4,1,8,-0.3711,-0.7508,-0.4008,-0.721,-0.4008,0.7211,-0.3711,0.7508,0.371,0.7508,0.4008,0.7211,0.4008,-0.721,0.371,-0.7508,-0.3711,-0.7508,0*%
%AMMACRO12*4,1,8,-0.4711,-1.5508,-0.5008,-1.521,-0.5008,1.5211,-0.4711,1.5508,0.471,1.5508,0.5008,1.5211,0.5008,-1.521,0.471,-1.5508,-0.4711,-1.5508,0*%
%AMMACRO13*4,1,8,-0.5711,-1.5508,-0.6008,-1.521,-0.6008,1.5211,-0.5711,1.5508,0.571,1.5508,0.6008,1.5211,0.6008,-1.521,0.571,-1.5508,-0.5711,-1.5508,0*%
%AMMACRO14*4,1,8,-0.3421,-0.3516,-0.4016,-0.2921,-0.4016,0.2921,-0.3421,0.3516,0.3421,0.3516,0.4016,0.2921,0.4016,-0.2921,0.3421,-0.3516,-0.3421,-0.3516,0*%
%AMMACRO15*4,1,8,-1.0421,-1.1016,-1.1016,-1.0421,-1.1016,1.0421,-1.0421,1.1016,1.0421,1.1016,1.1016,1.0421,1.1016,-1.0421,1.0421,-1.1016,-1.0421,-1.1016,0*%
%AMMACRO16*4,1,8,-0.4421,-1.1016,-0.5016,-1.0421,-0.5016,1.0421,-0.4421,1.1016,0.4421,1.1016,0.5016,1.0421,0.5016,-1.0421,0.4421,-1.1016,-0.4421,-1.1016,0*%
%AMMACRO17*4,1,8,-0.6421,-1.0516,-0.7016,-0.9921,-0.7016,0.9921,-0.6421,1.0516,0.6421,1.0516,0.7016,0.9921,0.7016,-0.9921,0.6421,-1.0516,-0.6421,-1.0516,0*%
%AMMACRO18*4,1,8,-0.6211,-1.8008,-0.6508,-1.771,-0.6508,1.7711,-0.6211,1.8008,0.621,1.8008,0.6508,1.7711,0.6508,-1.771,0.621,-1.8008,-0.6211,-1.8008,0*%
%AMMACRO19*4,1,8,-1.7711,-0.6508,-1.8008,-0.621,-1.8008,0.6211,-1.7711,0.6508,1.771,0.6508,1.8008,0.6211,1.8008,-0.621,1.771,-0.6508,-1.7711,-0.6508,0*%
%ADD10C,1.0032*%
%ADD11C,5.6032*%
%ADD12MACRO1*%
%ADD13MACRO2*%
%ADD14MACRO3*%
%ADD15MACRO4*%
%ADD16MACRO5*%
%ADD17C,0.0118*%
%ADD18C,1.1000*%
%ADD19C,2.4016*%
%ADD20MACRO6*%
%ADD21MACRO7*%
%ADD22MACRO8*%
%ADD23MACRO9*%
%ADD24MACRO10*%
%ADD25MACRO11*%
%ADD26MACRO12*%
%ADD27MACRO13*%
%ADD28MACRO14*%
%ADD29MACRO15*%
%ADD30O,1.4732X1.4732*%
%ADD31MACRO16*%
%ADD32MACRO17*%
%ADD33MACRO18*%
%ADD34MACRO19*%
%ADD35C,4.5032*%
%ADD36C,3.0000*%

%LPD*%
G36*
X-353568Y-228854D02*
G01*
X-361543Y-229920D01*
X-368350Y-233070D01*
X-373380Y-238302D01*
X-375920Y-245617D01*
X-374954Y-246989D01*
X-373735Y-248005D01*
X-372262Y-248666D01*
X-370586Y-248920D01*
X-368655Y-248564D01*
X-366979Y-247396D01*
X-365607Y-245262D01*
X-364490Y-242062D01*
X-362204Y-233934D01*
X-359003Y-233375D01*
X-356362Y-233171D01*
X-350672Y-234289D01*
X-346354Y-237540D01*
X-343611Y-242519D01*
X-342646Y-248920D01*
X-343611Y-255727D01*
X-346557Y-262686D01*
X-351536Y-270256D01*
X-362458Y-283260D01*
X-375412Y-297942D01*
X-375412Y-304800D01*
X-329692Y-304800D01*
X-329692Y-296164D01*
X-368300Y-296164D01*
X-355346Y-282702D01*
X-344779Y-271322D01*
X-340918Y-266700D01*
X-337870Y-262585D01*
X-335635Y-258876D01*
X-334111Y-255371D01*
X-333248Y-251917D01*
X-332994Y-248412D01*
X-334213Y-240538D01*
X-337972Y-234340D01*
X-344373Y-230327D01*
G37*
G36*
X-297180Y-228854D02*
G01*
X-301599Y-229362D01*
X-305866Y-230936D01*
X-309829Y-233629D01*
X-313334Y-237540D01*
X-316280Y-242722D01*
X-318566Y-249326D01*
X-320040Y-257352D01*
X-320548Y-266954D01*
X-310896Y-266954D01*
X-310591Y-257860D01*
X-309778Y-250444D01*
X-308406Y-244551D01*
X-306730Y-240080D01*
X-304647Y-236829D01*
X-302310Y-234696D01*
X-299821Y-233527D01*
X-297180Y-233171D01*
X-294640Y-233527D01*
X-292201Y-234696D01*
X-289966Y-236829D01*
X-287985Y-240080D01*
X-286359Y-244551D01*
X-285089Y-250444D01*
X-284276Y-257860D01*
X-283972Y-266954D01*
X-284276Y-276402D01*
X-285089Y-284124D01*
X-286359Y-290220D01*
X-287985Y-294843D01*
X-289966Y-298196D01*
X-292201Y-300431D01*
X-294640Y-301650D01*
X-297180Y-302006D01*
X-299821Y-301650D01*
X-302310Y-300431D01*
X-304647Y-298196D01*
X-306679Y-294843D01*
X-308406Y-290220D01*
X-309727Y-284124D01*
X-310591Y-276402D01*
X-310896Y-266954D01*
X-320548Y-266954D01*
X-320040Y-276910D01*
X-318566Y-285191D01*
X-316280Y-292049D01*
X-313334Y-297383D01*
X-309829Y-301447D01*
X-305866Y-304190D01*
X-301599Y-305816D01*
X-297180Y-306324D01*
X-292811Y-305816D01*
X-288645Y-304190D01*
X-284734Y-301447D01*
X-281228Y-297383D01*
X-278282Y-292049D01*
X-276047Y-285191D01*
X-274574Y-276910D01*
X-274066Y-266954D01*
X-274574Y-257352D01*
X-276047Y-249326D01*
X-278282Y-242722D01*
X-281228Y-237540D01*
X-284734Y-233629D01*
X-288645Y-230936D01*
X-292811Y-229362D01*
G37*
G36*
X-242062Y-228854D02*
G01*
X-250037Y-229920D01*
X-256844Y-233070D01*
X-261874Y-238302D01*
X-264414Y-245617D01*
X-263448Y-246989D01*
X-262229Y-248005D01*
X-260756Y-248666D01*
X-259079Y-248920D01*
X-257149Y-248564D01*
X-255473Y-247396D01*
X-254101Y-245262D01*
X-252984Y-242062D01*
X-250698Y-233934D01*
X-247497Y-233375D01*
X-244856Y-233171D01*
X-239166Y-234289D01*
X-234848Y-237540D01*
X-232105Y-242519D01*
X-231140Y-248920D01*
X-232105Y-255727D01*
X-235051Y-262686D01*
X-240029Y-270256D01*
X-250952Y-283260D01*
X-263906Y-297942D01*
X-263906Y-304800D01*
X-218186Y-304800D01*
X-218186Y-296164D01*
X-256794Y-296164D01*
X-243840Y-282702D01*
X-233273Y-271322D01*
X-229412Y-266700D01*
X-226364Y-262585D01*
X-224129Y-258876D01*
X-222605Y-255371D01*
X-221742Y-251917D01*
X-221488Y-248412D01*
X-222707Y-240538D01*
X-226415Y-234340D01*
X-232867Y-230327D01*
G37*
G36*
X50800Y-228854D02*
G01*
X42824Y-229920D01*
X36017Y-233070D01*
X30988Y-238302D01*
X28448Y-245617D01*
X29413Y-246989D01*
X30632Y-248005D01*
X32105Y-248666D01*
X33782Y-248920D01*
X35712Y-248564D01*
X37388Y-247396D01*
X38760Y-245262D01*
X39878Y-242062D01*
X42164Y-233934D01*
X45364Y-233375D01*
X48006Y-233171D01*
X53695Y-234289D01*
X58013Y-237540D01*
X60756Y-242519D01*
X61722Y-248920D01*
X60756Y-255727D01*
X57810Y-262686D01*
X52832Y-270256D01*
X41910Y-283260D01*
X28956Y-297942D01*
X28956Y-304800D01*
X74676Y-304800D01*
X74676Y-296164D01*
X36068Y-296164D01*
X49022Y-282702D01*
X59588Y-271322D01*
X63449Y-266700D01*
X66497Y-262585D01*
X68732Y-258876D01*
X70256Y-255371D01*
X71120Y-251917D01*
X71374Y-248412D01*
X70154Y-240538D01*
X66395Y-234340D01*
X59994Y-230327D01*
G37*
G36*
X107187Y-228854D02*
G01*
X102768Y-229362D01*
X98501Y-230936D01*
X94538Y-233629D01*
X91033Y-237540D01*
X88087Y-242722D01*
X85801Y-249326D01*
X84328Y-257352D01*
X83820Y-266954D01*
X93472Y-266954D01*
X93776Y-257860D01*
X94589Y-250444D01*
X95961Y-244551D01*
X97688Y-240080D01*
X99720Y-236829D01*
X102057Y-234696D01*
X104546Y-233527D01*
X107187Y-233171D01*
X109728Y-233527D01*
X112166Y-234696D01*
X114401Y-236829D01*
X116382Y-240080D01*
X118008Y-244551D01*
X119278Y-250444D01*
X120091Y-257860D01*
X120396Y-266954D01*
X120091Y-276402D01*
X119278Y-284124D01*
X118008Y-290220D01*
X116382Y-294843D01*
X114401Y-298196D01*
X112166Y-300431D01*
X109728Y-301650D01*
X107187Y-302006D01*
X104546Y-301650D01*
X102057Y-300431D01*
X99720Y-298196D01*
X97637Y-294843D01*
X95961Y-290220D01*
X94640Y-284124D01*
X93776Y-276402D01*
X93472Y-266954D01*
X83820Y-266954D01*
X84328Y-276910D01*
X85801Y-285191D01*
X88087Y-292049D01*
X91033Y-297383D01*
X94538Y-301447D01*
X98501Y-304190D01*
X102768Y-305816D01*
X107187Y-306324D01*
X111556Y-305816D01*
X115722Y-304190D01*
X119633Y-301447D01*
X123139Y-297383D01*
X126085Y-292049D01*
X128320Y-285191D01*
X129794Y-276910D01*
X130302Y-266954D01*
X129794Y-257352D01*
X128320Y-249326D01*
X126085Y-242722D01*
X123139Y-237540D01*
X119633Y-233629D01*
X115722Y-230936D01*
X111556Y-229362D01*
G37*
G36*
X-90678Y-229108D02*
G01*
X-113537Y-235204D01*
X-113537Y-239014D01*
X-98552Y-237744D01*
X-98806Y-299212D01*
X-114808Y-301244D01*
X-114808Y-304800D01*
X-73660Y-304800D01*
X-73660Y-301244D01*
X-89408Y-299212D01*
X-89408Y-246379D01*
X-89154Y-230378D01*
G37*
G36*
X-34798Y-229108D02*
G01*
X-57658Y-235204D01*
X-57658Y-239014D01*
X-42926Y-237744D01*
X-42976Y-290220D01*
X-43180Y-299212D01*
X-58928Y-301244D01*
X-58928Y-304800D01*
X-17780Y-304800D01*
X-17780Y-301244D01*
X-33528Y-299212D01*
X-33782Y-281432D01*
X-33782Y-246379D01*
X-33274Y-230378D01*
G37*
G36*
X-201168Y-230378D02*
G01*
X-203454Y-265176D01*
X-200660Y-265938D01*
X-195224Y-264769D01*
X-189992Y-264414D01*
X-182778Y-265633D01*
X-177241Y-269189D01*
X-173685Y-274929D01*
X-172466Y-282702D01*
X-173532Y-290626D01*
X-176733Y-296722D01*
X-182016Y-300634D01*
X-189230Y-302006D01*
X-192887Y-301802D01*
X-196342Y-300990D01*
X-199136Y-290830D01*
X-200406Y-288696D01*
X-202031Y-287578D01*
X-204216Y-287274D01*
X-205892Y-287528D01*
X-207314Y-288188D01*
X-208483Y-289306D01*
X-209296Y-290830D01*
X-206806Y-297535D01*
X-202438Y-302412D01*
X-196342Y-305308D01*
X-188722Y-306324D01*
X-183083Y-305866D01*
X-178003Y-304546D01*
X-173532Y-302412D01*
X-169722Y-299567D01*
X-166674Y-296011D01*
X-164439Y-291846D01*
X-163017Y-287121D01*
X-162560Y-281940D01*
X-163017Y-276656D01*
X-164338Y-271983D01*
X-166471Y-267970D01*
X-169316Y-264617D01*
X-172872Y-262026D01*
X-177038Y-260096D01*
X-181762Y-258978D01*
X-186944Y-258571D01*
X-192735Y-258927D01*
X-198120Y-260096D01*
X-196850Y-239014D01*
X-164592Y-239014D01*
X-164592Y-230378D01*
G37*
G36*
X-153416Y-273558D02*
G01*
X-153416Y-280162D01*
X-127508Y-280162D01*
X-127508Y-273558D01*
G37*
G36*
X-7112Y-273558D02*
G01*
X-7112Y-280162D01*
X18796Y-280162D01*
X18796Y-273558D01*
G37*
G36*
X237134Y220725D02*
G01*
X234289Y220370D01*
X231495Y219354D01*
X229006Y217576D01*
X227126Y215239D01*
X225856Y212496D01*
X225145Y209194D01*
X223418Y189331D01*
X222758Y178866D01*
X221996Y157175D01*
X221894Y148234D01*
X221488Y138734D01*
X221386Y106578D01*
X220471Y49326D01*
X220522Y26974D01*
X220929Y7061D01*
X221894Y-10312D01*
X222605Y-15087D01*
X223621Y-19913D01*
X225755Y-26974D01*
X228346Y-31902D01*
X231038Y-35915D01*
X233934Y-38658D01*
X236270Y-40182D01*
X238861Y-41300D01*
X241655Y-42062D01*
X244449Y-42316D01*
X247192Y-42164D01*
X249936Y-41554D01*
X252628Y-40487D01*
X255066Y-38658D01*
X257454Y-36220D01*
X259232Y-33731D01*
X261569Y-28905D01*
X266192Y-16459D01*
X274218Y7670D01*
X280619Y25196D01*
X282702Y29971D01*
X287934Y39979D01*
X289306Y-26111D01*
X289712Y-34645D01*
X290118Y-36982D01*
X290830Y-39166D01*
X291896Y-41198D01*
X293268Y-43078D01*
X294741Y-44551D01*
X296367Y-45770D01*
X298145Y-46736D01*
X302209Y-47752D01*
X306273Y-47752D01*
X310083Y-46888D01*
X311810Y-46024D01*
X313385Y-44754D01*
X316077Y-41198D01*
X316941Y-39166D01*
X317449Y-36982D01*
X317652Y-34645D01*
X317296Y-20675D01*
X314604Y32105D01*
X313334Y47904D01*
X312470Y53035D01*
X311505Y56794D01*
X308762Y64160D01*
X305562Y69494D01*
X304444Y70713D01*
X301447Y72593D01*
X298094Y74015D01*
X296011Y74574D01*
X293827Y74879D01*
X289204Y74828D01*
X286207Y74015D01*
X280619Y71424D01*
X278028Y69494D01*
X273405Y64871D01*
X269392Y59334D01*
X264210Y50342D01*
X258825Y38557D01*
X251104Y18186D01*
X250342Y89763D01*
X250698Y151384D01*
X250545Y172313D01*
X249986Y191058D01*
X248818Y209194D01*
X248208Y212445D01*
X246989Y215290D01*
X245160Y217576D01*
X242671Y219354D01*
X239877Y220370D01*
G37*
G36*
X30378Y72237D02*
G01*
X27025Y72085D01*
X23876Y71628D01*
X20929Y70815D01*
X18186Y69697D01*
X12496Y66548D01*
X7213Y62636D01*
X-4165Y50139D01*
X-13563Y34645D01*
X-20878Y17576D01*
X-25044Y355D01*
X-26009Y-10261D01*
X-25552Y-19812D01*
X-23520Y-28295D01*
X-19913Y-35712D01*
X-17322Y-39573D01*
X-14224Y-42926D01*
X-10718Y-45669D01*
X-6705Y-47904D01*
X-2489Y-49428D01*
X1828Y-50292D01*
X6248Y-50444D01*
X10820Y-49936D01*
X16306Y-48260D01*
X22250Y-45313D01*
X27584Y-42062D01*
X31902Y-38760D01*
X36068Y-35102D01*
X40995Y-30378D01*
X54203Y-16510D01*
X65176Y0D01*
X66192Y2641D01*
X66446Y5283D01*
X66090Y7823D01*
X65684Y9042D01*
X62636Y13055D01*
X60452Y14478D01*
X58013Y15595D01*
X55626Y16002D01*
X52984Y16154D01*
X50393Y15747D01*
X45415Y13157D01*
X44399Y12090D01*
X43586Y10820D01*
X36728Y2235D01*
X29870Y-5334D01*
X23012Y-11988D01*
X13817Y-19761D01*
X8585Y-23266D01*
X7213Y-23926D01*
X4978Y-24028D01*
X3454Y-22758D01*
X2336Y-20523D01*
X1574Y-17272D01*
X1168Y-13055D01*
X3048Y2794D01*
X10312Y21437D01*
X14935Y29819D01*
X19202Y36220D01*
X21894Y39420D01*
X24028Y41554D01*
X24384Y37795D01*
X24536Y32613D01*
X25095Y28905D01*
X26365Y25755D01*
X28295Y23317D01*
X30886Y21437D01*
X33832Y20218D01*
X36830Y19812D01*
X39928Y20218D01*
X43078Y21437D01*
X45872Y23520D01*
X48056Y26060D01*
X49580Y29057D01*
X50444Y32613D01*
X50749Y37388D01*
X50749Y42164D01*
X50393Y47040D01*
X49631Y51968D01*
X48412Y56540D01*
X46736Y60655D01*
X44602Y64262D01*
X42062Y67462D01*
X39319Y69342D01*
X36474Y70815D01*
X33477Y71780D01*
G37*
G36*
X176936Y72237D02*
G01*
X173583Y72085D01*
X170434Y71628D01*
X167487Y70815D01*
X164744Y69697D01*
X159054Y66548D01*
X153771Y62636D01*
X142392Y50139D01*
X132994Y34645D01*
X125679Y17576D01*
X121513Y355D01*
X120497Y-10261D01*
X121005Y-19812D01*
X123088Y-28295D01*
X126644Y-35712D01*
X129235Y-39573D01*
X132334Y-42926D01*
X135839Y-45669D01*
X139852Y-47904D01*
X144068Y-49428D01*
X148386Y-50292D01*
X152806Y-50444D01*
X157378Y-49936D01*
X162864Y-48260D01*
X168757Y-45313D01*
X174142Y-42062D01*
X178460Y-38760D01*
X187604Y-30378D01*
X200812Y-16510D01*
X211734Y0D01*
X212750Y2641D01*
X213004Y5283D01*
X212648Y7823D01*
X212242Y9042D01*
X209194Y13055D01*
X207010Y14478D01*
X204571Y15595D01*
X202184Y16002D01*
X199542Y16154D01*
X197002Y15747D01*
X191973Y13157D01*
X190957Y12090D01*
X190144Y10820D01*
X183286Y2235D01*
X176428Y-5334D01*
X169570Y-11988D01*
X160375Y-19761D01*
X155143Y-23266D01*
X153771Y-23926D01*
X151536Y-24028D01*
X150012Y-22758D01*
X148894Y-20523D01*
X148132Y-17272D01*
X147726Y-13055D01*
X149606Y2794D01*
X156870Y21437D01*
X161493Y29819D01*
X165760Y36220D01*
X168452Y39420D01*
X170586Y41554D01*
X170942Y37795D01*
X171094Y32613D01*
X171653Y28905D01*
X172923Y25755D01*
X174853Y23317D01*
X177444Y21437D01*
X180390Y20218D01*
X183388Y19812D01*
X186486Y20218D01*
X189636Y21437D01*
X192430Y23520D01*
X194614Y26060D01*
X196138Y29057D01*
X197002Y32613D01*
X197307Y37388D01*
X197307Y42164D01*
X196951Y47040D01*
X196189Y51968D01*
X194970Y56540D01*
X193294Y60655D01*
X191160Y64262D01*
X188620Y67462D01*
X185877Y69342D01*
X182981Y70815D01*
X180035Y71780D01*
G37*
G36*
X-107238Y70205D02*
G01*
X-112928Y70002D01*
X-118364Y68783D01*
X-123494Y66802D01*
X-128371Y63957D01*
X-132994Y60350D01*
X-137261Y56083D01*
X-141020Y51409D01*
X-144272Y46431D01*
X-146913Y40995D01*
X-150114Y32207D01*
X-152857Y22301D01*
X-155233Y10312D01*
X-130454Y10312D01*
X-128879Y15595D01*
X-126644Y25044D01*
X-125983Y26466D01*
X-124104Y32207D01*
X-119278Y40132D01*
X-117754Y41554D01*
X-113436Y44094D01*
X-110744Y44805D01*
X-108661Y44704D01*
X-107086Y43789D01*
X-106070Y42062D01*
X-105816Y39725D01*
X-106629Y36830D01*
X-108458Y33375D01*
X-111404Y29362D01*
X-120345Y19253D01*
X-130454Y10312D01*
X-155233Y10312D01*
X-156870Y-863D01*
X-157937Y26314D01*
X-159308Y50698D01*
X-159816Y52781D01*
X-160680Y54610D01*
X-161899Y56286D01*
X-163372Y57759D01*
X-164896Y58877D01*
X-166522Y59639D01*
X-170078Y60452D01*
X-173736Y60452D01*
X-177342Y59639D01*
X-178968Y58877D01*
X-180390Y57759D01*
X-182981Y54610D01*
X-183845Y52781D01*
X-184353Y50698D01*
X-184505Y48412D01*
X-184251Y31800D01*
X-184759Y-30073D01*
X-183845Y-71577D01*
X-182676Y-96012D01*
X-182168Y-111861D01*
X-181762Y-117195D01*
X-180848Y-121462D01*
X-179171Y-127152D01*
X-177952Y-130251D01*
X-176580Y-132943D01*
X-175056Y-135331D01*
X-173329Y-137312D01*
X-170992Y-139547D01*
X-168249Y-141020D01*
X-165150Y-141732D01*
X-161645Y-141579D01*
X-158242Y-140817D01*
X-155295Y-139395D01*
X-152908Y-137363D01*
X-151028Y-134721D01*
X-148488Y-127508D01*
X-146507Y-120091D01*
X-145897Y-116687D01*
X-141274Y-80670D01*
X-136245Y-27787D01*
X-131013Y-24993D01*
X-125933Y-21844D01*
X-121005Y-18389D01*
X-111658Y-10820D01*
X-107238Y-6807D01*
X-98704Y1879D01*
X-93268Y8890D01*
X-88747Y16154D01*
X-84886Y23723D01*
X-81889Y31902D01*
X-80822Y36169D01*
X-80365Y40335D01*
X-80568Y44399D01*
X-81381Y48412D01*
X-82753Y52476D01*
X-84785Y56286D01*
X-87477Y59842D01*
X-90779Y63144D01*
X-96164Y66802D01*
X-101650Y69138D01*
G37*
G36*
X483768Y69697D02*
G01*
X479806Y68986D01*
X476097Y67157D01*
X472693Y64769D01*
X470052Y62128D01*
X467461Y58877D01*
X464921Y54254D01*
X459689Y42164D01*
X456184Y31800D01*
X455320Y29870D01*
X444652Y-355D01*
X444246Y2895D01*
X444144Y10820D01*
X443026Y35001D01*
X441807Y52171D01*
X441147Y55575D01*
X439877Y58419D01*
X437997Y60655D01*
X435457Y62331D01*
X432562Y63500D01*
X429717Y63855D01*
X426872Y63500D01*
X424078Y62331D01*
X421690Y60655D01*
X419912Y58419D01*
X418744Y55575D01*
X418236Y52171D01*
X417830Y50749D01*
X416458Y29718D01*
X416204Y13208D01*
X416814Y-1066D01*
X418338Y-13157D01*
X420725Y-23114D01*
X424129Y-30886D01*
X428345Y-36423D01*
X433578Y-39827D01*
X439674Y-40995D01*
X446684Y-39979D01*
X449376Y-38811D01*
X454456Y-35560D01*
X456844Y-33629D01*
X458673Y-31699D01*
X462483Y-25857D01*
X465328Y-20878D01*
X468630Y-13665D01*
X479450Y16154D01*
X479704Y11328D01*
X483768Y-32105D01*
X484225Y-35052D01*
X485140Y-37642D01*
X486511Y-39979D01*
X488289Y-42062D01*
X490372Y-43942D01*
X492607Y-45262D01*
X495147Y-46075D01*
X499364Y-46278D01*
X502158Y-45618D01*
X504799Y-44500D01*
X507085Y-42976D01*
X509117Y-40995D01*
X511454Y-37439D01*
X512114Y-34747D01*
X512165Y-32105D01*
X505612Y33121D01*
X503834Y47345D01*
X502310Y54254D01*
X499770Y60604D01*
X498093Y63500D01*
X496163Y65684D01*
X493725Y67310D01*
X490829Y68681D01*
X487426Y69494D01*
G37*
G36*
X370992Y69494D02*
G01*
X357835Y68580D01*
X346354Y63347D01*
X343966Y63398D01*
X341680Y63042D01*
X339496Y62280D01*
X337413Y61112D01*
X335686Y59690D01*
X334213Y57962D01*
X332994Y55981D01*
X332079Y53695D01*
X329793Y43129D01*
X328015Y32613D01*
X327101Y21742D01*
X326865Y16459D01*
X355752Y16459D01*
X356311Y27279D01*
X357479Y39471D01*
X360222Y41554D01*
X363118Y42773D01*
X366064Y43332D01*
X369163Y43078D01*
X372414Y41910D01*
X375208Y39928D01*
X377596Y37185D01*
X379628Y33629D01*
X380746Y30124D01*
X381457Y26466D01*
X381660Y22656D01*
X380898Y14579D01*
X380187Y10617D01*
X378104Y3200D01*
X375107Y-3759D01*
X368249Y-14935D01*
X365404Y-18186D01*
X365150Y-18694D01*
X363575Y-19812D01*
X363118Y-20523D01*
X363321Y-20929D01*
X361492Y-18846D01*
X359714Y-14782D01*
X358038Y-8788D01*
X356463Y-863D01*
X355803Y7061D01*
X355752Y16459D01*
X326865Y16459D01*
X326745Y10312D01*
X327406Y-863D01*
X328218Y-6502D01*
X330606Y-17424D01*
X332282Y-22555D01*
X334314Y-27432D01*
X336702Y-32105D01*
X339598Y-36525D01*
X342950Y-40386D01*
X346811Y-43637D01*
X351129Y-46329D01*
X355701Y-48260D01*
X360375Y-49174D01*
X365201Y-49022D01*
X370179Y-47904D01*
X377596Y-44094D01*
X384556Y-38100D01*
X391058Y-29870D01*
X397154Y-19405D01*
X402590Y-6654D01*
X406247Y6197D01*
X407619Y19659D01*
X406552Y33629D01*
X402285Y46736D01*
X394563Y57505D01*
X383844Y65735D01*
G37*
G36*
X-52679Y-15087D02*
G01*
X-55016Y-15341D01*
X-57099Y-16002D01*
X-58928Y-17119D01*
X-62077Y-20421D01*
X-63195Y-22352D01*
X-63957Y-24485D01*
X-64363Y-26771D01*
X-65024Y-36220D01*
X-66192Y-46126D01*
X-66090Y-48564D01*
X-65582Y-50850D01*
X-64668Y-52984D01*
X-63449Y-54914D01*
X-61976Y-56540D01*
X-60147Y-57708D01*
X-58013Y-58521D01*
X-55626Y-58826D01*
X-53289Y-58724D01*
X-50952Y-58216D01*
X-48615Y-57302D01*
X-46583Y-55880D01*
X-45008Y-54152D01*
X-43942Y-52171D01*
X-43281Y-49936D01*
X-41605Y-37795D01*
X-41148Y-32156D01*
X-40995Y-26771D01*
X-41249Y-24485D01*
X-41859Y-22352D01*
X-42875Y-20421D01*
X-44297Y-18694D01*
X-46177Y-17119D01*
X-48209Y-16002D01*
X-50393Y-15341D01*
G37*
G36*
X93878Y-15087D02*
G01*
X91541Y-15341D01*
X89458Y-16002D01*
X87630Y-17119D01*
X84480Y-20421D01*
X83362Y-22352D01*
X82600Y-24485D01*
X82194Y-26771D01*
X81534Y-36220D01*
X80365Y-46126D01*
X80467Y-48564D01*
X80975Y-50850D01*
X81889Y-52984D01*
X83108Y-54914D01*
X84582Y-56540D01*
X86410Y-57708D01*
X88544Y-58521D01*
X90932Y-58826D01*
X93268Y-58724D01*
X95605Y-58216D01*
X97942Y-57302D01*
X99974Y-55880D01*
X101549Y-54152D01*
X102616Y-52171D01*
X103276Y-49936D01*
X104952Y-37795D01*
X105410Y-32156D01*
X105562Y-26771D01*
X105308Y-24485D01*
X104698Y-22352D01*
X103682Y-20421D01*
X102260Y-18694D01*
X100380Y-17119D01*
X98348Y-16002D01*
X96164Y-15341D01*
G37*
D10*
G01*
X1249679Y-586739D03*
D11*
G01*
X1550009Y1550009D03*
G01*
X1550009Y-1550009D03*
G01*
X-1550009Y-1550009D03*
G01*
X-1550009Y1550009D03*
D12*
G01*
X1086010Y31751D03*
G01*
X946010Y31751D03*
D13*
G01*
X753256Y-1623879D03*
G01*
X453256Y-1623879D03*
G01*
X553256Y-1623879D03*
G01*
X653256Y-1623879D03*
D14*
G01*
X863254Y-1963875D03*
G01*
X343255Y-1963875D03*
D15*
G01*
X-1759999Y889000D03*
G01*
X-1161000Y889000D03*
D16*
G01*
X1905000Y-1137005D03*
D18*
G01*
X1905000Y-1012012D03*
G01*
X1905000Y-886993D03*
G01*
X1905000Y-762000D03*
G01*
X1905000Y-637006D03*
G01*
X1905000Y-512013D03*
G01*
X1905000Y-386994D03*
D19*
G01*
X-1682724Y127000D03*
G01*
X-1682724Y-254025D03*
G01*
X-1682724Y-635025D03*
G01*
X-1682724Y-1016025D03*
D20*
G01*
X187246Y-670737D03*
G01*
X187246Y-1170736D03*
G01*
X-12753Y-670737D03*
G01*
X-12753Y-1170736D03*
G01*
X-212755Y-670737D03*
G01*
X-212755Y-1170736D03*
G01*
X-412755Y-670737D03*
G01*
X-412755Y-1170736D03*
G01*
X-612754Y-1170736D03*
G01*
X-1012753Y-1170736D03*
G01*
X-612754Y-670737D03*
G01*
X-1012753Y-670737D03*
G01*
X-812756Y-666724D03*
G01*
X-812756Y-1166723D03*
D21*
G01*
X-464425Y-476250D03*
G01*
X-615074Y-476250D03*
D22*
G01*
X2006279Y250379D03*
D23*
G01*
X1676273Y250366D03*
G01*
X1676273Y35355D03*
D22*
G01*
X2006279Y35368D03*
G01*
X2006495Y647268D03*
D23*
G01*
X1676501Y647268D03*
G01*
X1676501Y432255D03*
D22*
G01*
X2006495Y432255D03*
D24*
G01*
X-837538Y-1676501D03*
D25*
G01*
X-837538Y-2006495D03*
G01*
X-622527Y-2006495D03*
D24*
G01*
X-622527Y-1676501D03*
G01*
X-1186788Y-1676501D03*
D25*
G01*
X-1186788Y-2006495D03*
G01*
X-971777Y-2006495D03*
D24*
G01*
X-971777Y-1676501D03*
D26*
G01*
X334925Y1301648D03*
G01*
X534925Y1301648D03*
G01*
X734924Y1301648D03*
D27*
G01*
X109905Y1936648D03*
G01*
X1159916Y1936648D03*
D26*
G01*
X934899Y1301648D03*
D28*
G01*
X-864626Y-1428750D03*
G01*
X-754623Y-1428750D03*
G01*
X643498Y31750D03*
G01*
X753501Y31750D03*
D29*
G01*
X-715010Y285750D03*
G01*
X-1126489Y285750D03*
D30*
G01*
X-342772Y-1920875D03*
G01*
X-142875Y-1920875D03*
G01*
X57022Y-1920875D03*
D31*
G01*
X1166812Y-1118125D03*
G01*
X1166812Y-1508125D03*
G01*
X1039812Y-1118125D03*
G01*
X1039812Y-1508125D03*
G01*
X912812Y-1508125D03*
G01*
X912812Y-1118125D03*
D32*
G01*
X-414007Y285750D03*
G01*
X-93992Y285750D03*
D33*
G01*
X-349250Y764877D03*
G01*
X-349250Y1298872D03*
D34*
G01*
X743247Y666750D03*
G01*
X209252Y666750D03*
D33*
G01*
X-889000Y1870372D03*
G01*
X-889000Y1336377D03*
D35*
G01*
X1550009Y1550009D03*
G01*
X-1550009Y-1550009D03*
G01*
X-1550009Y1550009D03*
G01*
X1550009Y-1550009D03*
D36*
G01*
X-2299995Y1127252D03*
G01*
X7299997Y627253D03*
G01*
X-2299995Y-19209009D03*
G01*
X7299997Y-18709010D03*
M02*
