G04 Layer: TopLayer*
G04 Panelize: V-CUT, Column: 2, Row: 5, Board Size: 42mm x 42.27mm, Panelized Board Size: 92mm x 223.36mm*
G04 EasyEDA v6.5.54, 2026-06-22 22:14:46*
G04 820ba6ca1dbf42d8ad26d6661cbbd738,d3e2394e42c544d094782fd7389e907f,10*
G04 Gerber Generator version 0.2*
G04 Scale: 100 percent, Rotated: No, Reflected: No *
G04 Dimensions in millimeters *
G04 leading zeros omitted , absolute positions ,4 integer and 5 decimal *
%FSLAX45Y45*%
%MOMM*%

%AMMACRO1*21,1,$1,$2,0,0,$3*%
%ADD10C,1.2700*%
%ADD11C,1.1430*%
%ADD12C,0.2540*%
%ADD13C,0.1524*%
%ADD14C,2.0320*%
%ADD15C,0.0142*%
%ADD16C,1.5240*%
%ADD17C,0.4064*%
%ADD18C,0.2032*%
%ADD19C,0.5080*%
%ADD20C,0.3048*%
%ADD21C,0.3556*%
%ADD22C,0.6096*%
%ADD23C,1.0160*%
%ADD24C,0.4572*%
%ADD25C,0.8000*%
%ADD26C,5.4000*%
%ADD27R,1.0000X1.1000*%
%ADD28R,0.5000X1.7000*%
%ADD29R,1.2000X2.5000*%
%ADD30MACRO1,5.5296X2.835X-90.0000*%
%ADD31R,0.8000X1.8000*%
%ADD32MACRO1,0.864X0.8065X90.0000*%
%ADD33R,1.4000X0.7000*%
%ADD34R,1.5240X0.7000*%
%ADD35R,0.7000X1.5240*%
%ADD36R,0.7000X1.4000*%
%ADD37R,0.9000X3.0000*%
%ADD38R,1.1000X3.0000*%
%ADD39R,0.6000X0.5000*%
%ADD40R,2.0000X2.0000*%
%ADD41R,0.8000X2.0000*%
%ADD42R,1.2000X1.9000*%
%ADD43R,1.2000X3.5000*%
%ADD44R,3.5000X1.2000*%
%ADD45C,1.0000*%
%ADD46C,0.7620*%
%ADD47C,0.8890*%
%ADD48R,1.0000X1.0000*%
%ADD49C,2.3000*%
%ADD50O,1.27X1.27*%
%ADD51C,4.3000*%
%ADD52C,2.0000*%

%LPD*%
G36*
X1389684Y1245616D02*
G01*
X1385824Y1246378D01*
X1382522Y1248613D01*
X1363319Y1267815D01*
X1358646Y1272133D01*
X1353820Y1276045D01*
X1348689Y1279550D01*
X1343355Y1282750D01*
X1337818Y1285494D01*
X1332128Y1287881D01*
X1326235Y1289862D01*
X1320190Y1291386D01*
X1314094Y1292453D01*
X1307947Y1293164D01*
X1301546Y1293368D01*
X1034389Y1293368D01*
X1030732Y1294079D01*
X1027531Y1296060D01*
X1025296Y1299057D01*
X1024280Y1302715D01*
X1021842Y1333398D01*
X1021842Y1352194D01*
X1020927Y1364894D01*
X1018235Y1377746D01*
X1015949Y1406347D01*
X1015949Y1451152D01*
X1015237Y1458671D01*
X1014171Y1462125D01*
X1013815Y1466443D01*
X1015288Y1470507D01*
X1018336Y1473555D01*
X1022400Y1475130D01*
X1026668Y1474825D01*
X1030478Y1472793D01*
X1033576Y1470202D01*
X1042466Y1464716D01*
X1052118Y1460754D01*
X1063040Y1458112D01*
X1066850Y1456283D01*
X1071727Y1452575D01*
X1084732Y1444701D01*
X1098550Y1438503D01*
X1112977Y1433982D01*
X1127861Y1431239D01*
X1143000Y1430324D01*
X1158138Y1431239D01*
X1173022Y1433982D01*
X1187450Y1438503D01*
X1201267Y1444701D01*
X1214221Y1452524D01*
X1226159Y1461871D01*
X1237081Y1472895D01*
X1240586Y1475740D01*
X1245006Y1476806D01*
X1249375Y1475841D01*
X1252982Y1473047D01*
X1254963Y1469034D01*
X1255725Y1465884D01*
X1263345Y1442770D01*
X1272794Y1420368D01*
X1283970Y1398727D01*
X1296822Y1378102D01*
X1311249Y1358493D01*
X1327251Y1340154D01*
X1344625Y1323086D01*
X1363268Y1307490D01*
X1383131Y1293418D01*
X1404061Y1280972D01*
X1425905Y1270254D01*
X1438554Y1265224D01*
X1441907Y1263040D01*
X1444142Y1259738D01*
X1444955Y1255877D01*
X1444244Y1251966D01*
X1442008Y1248613D01*
X1438706Y1246378D01*
X1434795Y1245616D01*
G37*

%LPD*%
G36*
X-1234033Y285750D02*
G01*
X-1237945Y286512D01*
X-1241247Y288747D01*
X-1298752Y346252D01*
X-1300988Y349554D01*
X-1301750Y353466D01*
X-1301750Y576427D01*
X-1300988Y580339D01*
X-1298752Y583641D01*
X-1295501Y585825D01*
X-1291590Y586587D01*
X-1224483Y586587D01*
X-1224483Y825500D01*
X-1291590Y825500D01*
X-1295501Y826262D01*
X-1298752Y828497D01*
X-1300988Y831748D01*
X-1301750Y835660D01*
X-1301750Y942340D01*
X-1300988Y946251D01*
X-1298752Y949502D01*
X-1295501Y951737D01*
X-1291590Y952500D01*
X-1224483Y952500D01*
X-1224483Y1191412D01*
X-1291590Y1191412D01*
X-1295501Y1192174D01*
X-1298752Y1194358D01*
X-1300988Y1197660D01*
X-1301750Y1201572D01*
X-1301750Y1378813D01*
X-1301292Y1381861D01*
X-1299972Y1384604D01*
X-1296466Y1389684D01*
X-1284376Y1410563D01*
X-1281684Y1416202D01*
X-1279702Y1419047D01*
X-1209497Y1489252D01*
X-1206195Y1491488D01*
X-1202283Y1492250D01*
X-985062Y1492250D01*
X-981202Y1491488D01*
X-977900Y1489252D01*
X-975664Y1486001D01*
X-974902Y1482090D01*
X-974902Y1399895D01*
X-952500Y1399895D01*
X-952500Y1482090D01*
X-951737Y1486001D01*
X-949502Y1489252D01*
X-946251Y1491488D01*
X-942340Y1492250D01*
X-835660Y1492250D01*
X-831748Y1491488D01*
X-828497Y1489252D01*
X-826262Y1486001D01*
X-825500Y1482090D01*
X-825500Y1399895D01*
X-803097Y1399895D01*
X-803097Y1482090D01*
X-802335Y1486001D01*
X-800100Y1489252D01*
X-796798Y1491488D01*
X-792937Y1492250D01*
X-444347Y1492250D01*
X-440182Y1491335D01*
X-436778Y1488846D01*
X-434644Y1485138D01*
X-434238Y1480921D01*
X-435152Y1473250D01*
X-435152Y1362354D01*
X-412750Y1362354D01*
X-412750Y1482090D01*
X-411988Y1486001D01*
X-409752Y1489252D01*
X-406501Y1491488D01*
X-402590Y1492250D01*
X-295910Y1492250D01*
X-291998Y1491488D01*
X-288747Y1489252D01*
X-286512Y1486001D01*
X-285750Y1482090D01*
X-285750Y1362354D01*
X-263347Y1362354D01*
X-263347Y1473250D01*
X-264261Y1480921D01*
X-263855Y1485138D01*
X-261721Y1488846D01*
X-258317Y1491335D01*
X-254152Y1492250D01*
X-35966Y1492250D01*
X-32054Y1491488D01*
X-28752Y1489252D01*
X155752Y1304747D01*
X157988Y1301445D01*
X158750Y1297533D01*
X158750Y1048766D01*
X159461Y1047038D01*
X285038Y921461D01*
X286766Y920750D01*
X887984Y920750D01*
X889711Y921461D01*
X981252Y1013002D01*
X984554Y1015237D01*
X988466Y1016000D01*
X1164590Y1016000D01*
X1168501Y1015237D01*
X1171752Y1013002D01*
X1173988Y1009751D01*
X1174750Y1005840D01*
X1174750Y861466D01*
X1173988Y857554D01*
X1171752Y854252D01*
X1114247Y796747D01*
X1110945Y794512D01*
X1107033Y793750D01*
X131216Y793750D01*
X127304Y794512D01*
X124002Y796747D01*
X-221538Y1142288D01*
X-223266Y1143000D01*
X-253187Y1143000D01*
X-257048Y1143762D01*
X-260350Y1145997D01*
X-262585Y1149248D01*
X-263347Y1153160D01*
X-263347Y1235354D01*
X-285750Y1235354D01*
X-285750Y1153160D01*
X-286512Y1149248D01*
X-288747Y1145997D01*
X-291998Y1143762D01*
X-295910Y1143000D01*
X-402590Y1143000D01*
X-406501Y1143762D01*
X-409752Y1145997D01*
X-411988Y1149248D01*
X-412750Y1153160D01*
X-412750Y1235354D01*
X-435152Y1235354D01*
X-435152Y1153160D01*
X-435914Y1149248D01*
X-438150Y1145997D01*
X-441451Y1143762D01*
X-445312Y1143000D01*
X-793750Y1143000D01*
X-797864Y1143863D01*
X-801268Y1146352D01*
X-803402Y1149959D01*
X-803859Y1154176D01*
X-803097Y1161897D01*
X-803097Y1272895D01*
X-825500Y1272895D01*
X-825500Y1135735D01*
X-822401Y1135430D01*
X-818794Y1133398D01*
X-816254Y1130096D01*
X-815238Y1126083D01*
X-815949Y1122019D01*
X-818235Y1118514D01*
X-856538Y1080211D01*
X-857250Y1078484D01*
X-857250Y861466D01*
X-858012Y857554D01*
X-860247Y854252D01*
X-920038Y794461D01*
X-920750Y792734D01*
X-920750Y353466D01*
X-921512Y349554D01*
X-923747Y346252D01*
X-981252Y288747D01*
X-984554Y286512D01*
X-988466Y285750D01*
G37*

%LPC*%
G36*
X-1062990Y349250D02*
G01*
X-1000556Y349250D01*
X-1000556Y385165D01*
X-1001318Y391515D01*
X-1003198Y396951D01*
X-1006297Y401878D01*
X-1010361Y405942D01*
X-1015288Y409041D01*
X-1020724Y410921D01*
X-1027074Y411632D01*
X-1062990Y411632D01*
G37*
G36*
X-1252372Y349250D02*
G01*
X-1189990Y349250D01*
X-1189990Y411632D01*
X-1225905Y411632D01*
X-1232255Y410921D01*
X-1237691Y409041D01*
X-1242618Y405942D01*
X-1246682Y401878D01*
X-1249781Y396951D01*
X-1251661Y391515D01*
X-1252372Y385165D01*
G37*
G36*
X-1097483Y586587D02*
G01*
X-1019810Y586587D01*
X-1013510Y587298D01*
X-1008024Y589229D01*
X-1003147Y592328D01*
X-999032Y596392D01*
X-995984Y601319D01*
X-994054Y606755D01*
X-993343Y613105D01*
X-993343Y825500D01*
X-1097483Y825500D01*
G37*
G36*
X-1097483Y952500D02*
G01*
X-993343Y952500D01*
X-993343Y1150569D01*
X-992530Y1154531D01*
X-990244Y1157833D01*
X-986840Y1160018D01*
X-982878Y1160678D01*
X-978916Y1159764D01*
X-975664Y1157376D01*
X-973582Y1153922D01*
X-972261Y1150162D01*
X-969213Y1145286D01*
X-965098Y1141171D01*
X-960221Y1138072D01*
X-954735Y1136192D01*
X-952500Y1135938D01*
X-952500Y1272895D01*
X-974902Y1272895D01*
X-974902Y1176324D01*
X-975715Y1172362D01*
X-978001Y1169009D01*
X-981405Y1166825D01*
X-985418Y1166164D01*
X-989330Y1167079D01*
X-992581Y1169466D01*
X-994664Y1172972D01*
X-995984Y1176680D01*
X-999032Y1181608D01*
X-1003147Y1185672D01*
X-1008024Y1188770D01*
X-1013510Y1190701D01*
X-1019810Y1191412D01*
X-1097483Y1191412D01*
G37*

%LPD*%
G36*
X-1731772Y95250D02*
G01*
X-1735683Y96012D01*
X-1738934Y98247D01*
X-1741170Y101498D01*
X-1741932Y105410D01*
X-1741932Y330098D01*
X-1741170Y334010D01*
X-1738934Y337261D01*
X-1639011Y437184D01*
X-1635760Y439420D01*
X-1631848Y440182D01*
X-1619504Y440182D01*
X-1615490Y440385D01*
X-1611731Y440994D01*
X-1608124Y441959D01*
X-1604568Y443331D01*
X-1601216Y445008D01*
X-1598066Y447090D01*
X-1595120Y449478D01*
X-1592478Y452120D01*
X-1590090Y455066D01*
X-1588008Y458216D01*
X-1586331Y461568D01*
X-1584960Y465124D01*
X-1583994Y468731D01*
X-1583385Y472490D01*
X-1583182Y476504D01*
X-1583182Y603148D01*
X-1582166Y613054D01*
X-1582166Y1164996D01*
X-1582928Y1172514D01*
X-1584960Y1179271D01*
X-1588312Y1185468D01*
X-1592783Y1190955D01*
X-1598218Y1195425D01*
X-1604467Y1198778D01*
X-1611223Y1200810D01*
X-1618742Y1201572D01*
X-1901240Y1201572D01*
X-1908759Y1200810D01*
X-1915515Y1198778D01*
X-1921764Y1195425D01*
X-1927199Y1190955D01*
X-1931720Y1185468D01*
X-1935022Y1179271D01*
X-1937054Y1172514D01*
X-1937816Y1164996D01*
X-1937816Y1117396D01*
X-1938883Y1112875D01*
X-2029409Y928827D01*
X-2032254Y925321D01*
X-2036318Y923391D01*
X-2040839Y923442D01*
X-2044903Y925423D01*
X-2047697Y928928D01*
X-2048713Y933348D01*
X-2048713Y1474571D01*
X-2047849Y1495653D01*
X-2045512Y1515008D01*
X-2041652Y1534160D01*
X-2036368Y1552956D01*
X-2029561Y1571244D01*
X-2021332Y1588973D01*
X-2011781Y1605991D01*
X-2000910Y1622196D01*
X-1988820Y1637538D01*
X-1975002Y1652422D01*
X-1652422Y1975002D01*
X-1636928Y1989328D01*
X-1621536Y2001367D01*
X-1605330Y2012188D01*
X-1588262Y2021738D01*
X-1570532Y2029866D01*
X-1552194Y2036572D01*
X-1533398Y2041855D01*
X-1514246Y2045614D01*
X-1494840Y2047900D01*
X-1474571Y2048713D01*
X-995222Y2048713D01*
X-991362Y2047900D01*
X-988060Y2045716D01*
X-985824Y2042414D01*
X-985062Y2038553D01*
X-985062Y1964232D01*
X-925372Y1964232D01*
X-925372Y2038553D01*
X-924560Y2042414D01*
X-922375Y2045716D01*
X-919073Y2047900D01*
X-915212Y2048713D01*
X-862787Y2048713D01*
X-858926Y2047900D01*
X-855624Y2045716D01*
X-853440Y2042414D01*
X-852627Y2038553D01*
X-852627Y1964232D01*
X-792937Y1964232D01*
X-792937Y2038553D01*
X-792175Y2042414D01*
X-789940Y2045716D01*
X-786638Y2047900D01*
X-782777Y2048713D01*
X-415493Y2048713D01*
X-411429Y2047849D01*
X-408076Y2045462D01*
X-405942Y2041906D01*
X-405384Y2037791D01*
X-406501Y2033828D01*
X-410464Y2026310D01*
X-413816Y2016150D01*
X-415543Y2005584D01*
X-415543Y1994916D01*
X-413816Y1984349D01*
X-410464Y1974189D01*
X-408889Y1970125D01*
X-408889Y1966874D01*
X-410464Y1962810D01*
X-413816Y1952650D01*
X-415543Y1942084D01*
X-415543Y1931416D01*
X-413816Y1920849D01*
X-410464Y1910689D01*
X-405485Y1901189D01*
X-399034Y1892655D01*
X-391312Y1885238D01*
X-382524Y1879142D01*
X-372821Y1874570D01*
X-362559Y1871573D01*
X-351942Y1870303D01*
X-341223Y1870710D01*
X-330758Y1872843D01*
X-320903Y1876602D01*
X-316890Y1877263D01*
X-312928Y1876247D01*
X-309321Y1874570D01*
X-299059Y1871573D01*
X-288442Y1870303D01*
X-277723Y1870710D01*
X-267258Y1872843D01*
X-257251Y1876653D01*
X-247954Y1881987D01*
X-239674Y1888794D01*
X-232562Y1896770D01*
X-226872Y1905863D01*
X-222656Y1915668D01*
X-220116Y1926082D01*
X-219252Y1936750D01*
X-220116Y1947418D01*
X-222656Y1957832D01*
X-225501Y1964537D01*
X-226314Y1968500D01*
X-225501Y1972462D01*
X-222656Y1979168D01*
X-220116Y1989582D01*
X-219252Y2000250D01*
X-220116Y2010918D01*
X-222656Y2021332D01*
X-226872Y2031136D01*
X-228092Y2033117D01*
X-229565Y2037130D01*
X-229209Y2041448D01*
X-227177Y2045207D01*
X-223723Y2047798D01*
X-219506Y2048713D01*
X8686Y2048713D01*
X12547Y2047900D01*
X15849Y2045716D01*
X18084Y2042414D01*
X18846Y2038553D01*
X18846Y2018030D01*
X76047Y2018030D01*
X76047Y2038553D01*
X76809Y2042414D01*
X79044Y2045716D01*
X82346Y2047900D01*
X86207Y2048713D01*
X133604Y2048713D01*
X137464Y2047900D01*
X140766Y2045716D01*
X143002Y2042414D01*
X143764Y2038553D01*
X143764Y2018030D01*
X200964Y2018030D01*
X200964Y2038553D01*
X201777Y2042414D01*
X203962Y2045716D01*
X207264Y2047900D01*
X211124Y2048713D01*
X224028Y2048713D01*
X227939Y2047900D01*
X231241Y2045716D01*
X263194Y2013712D01*
X265430Y2010410D01*
X266192Y2006549D01*
X266192Y1778457D01*
X267004Y1769313D01*
X269290Y1760677D01*
X271221Y1756054D01*
X274370Y1750314D01*
X279958Y1743049D01*
X335381Y1687575D01*
X337566Y1684324D01*
X338328Y1680514D01*
X337616Y1676654D01*
X335534Y1673402D01*
X332333Y1671116D01*
X322732Y1666798D01*
X309778Y1658975D01*
X297840Y1649628D01*
X287121Y1638909D01*
X277774Y1626971D01*
X269951Y1614017D01*
X263753Y1600200D01*
X259232Y1585772D01*
X256387Y1570278D01*
X255473Y1567535D01*
X252933Y1562404D01*
X251155Y1558188D01*
X249732Y1553514D01*
X248716Y1549095D01*
X248107Y1544269D01*
X247904Y1539544D01*
X247904Y1302207D01*
X248767Y1292402D01*
X251206Y1283360D01*
X252882Y1279702D01*
X253847Y1275384D01*
X253847Y1152144D01*
X254609Y1144625D01*
X256641Y1137869D01*
X259943Y1131671D01*
X264464Y1126185D01*
X269900Y1121714D01*
X276148Y1118362D01*
X282905Y1116330D01*
X290423Y1115568D01*
X379425Y1115568D01*
X386943Y1116330D01*
X393700Y1118362D01*
X399897Y1121714D01*
X405384Y1126185D01*
X409854Y1131671D01*
X413207Y1137869D01*
X415239Y1144625D01*
X416001Y1152144D01*
X416001Y1164590D01*
X416763Y1168501D01*
X418947Y1171752D01*
X422249Y1173988D01*
X426161Y1174750D01*
X443687Y1174750D01*
X447548Y1173988D01*
X450850Y1171752D01*
X453085Y1168501D01*
X453847Y1164590D01*
X453847Y1152144D01*
X454609Y1144625D01*
X456641Y1137869D01*
X459943Y1131671D01*
X464464Y1126185D01*
X469900Y1121714D01*
X476148Y1118362D01*
X482904Y1116330D01*
X490423Y1115568D01*
X579424Y1115568D01*
X586943Y1116330D01*
X593699Y1118362D01*
X599897Y1121714D01*
X605383Y1126185D01*
X609854Y1131671D01*
X613206Y1137869D01*
X615238Y1144625D01*
X616000Y1152144D01*
X616000Y1164590D01*
X616762Y1168501D01*
X618947Y1171752D01*
X622249Y1173988D01*
X626160Y1174750D01*
X643686Y1174750D01*
X647547Y1173988D01*
X650849Y1171752D01*
X653084Y1168501D01*
X653846Y1164590D01*
X653846Y1152144D01*
X654608Y1144625D01*
X656640Y1137869D01*
X659942Y1131671D01*
X664464Y1126185D01*
X669899Y1121714D01*
X676148Y1118362D01*
X682904Y1116330D01*
X690422Y1115568D01*
X779424Y1115568D01*
X786942Y1116330D01*
X793699Y1118362D01*
X799896Y1121714D01*
X805383Y1126185D01*
X809853Y1131671D01*
X813206Y1137869D01*
X815238Y1144625D01*
X816000Y1152144D01*
X816000Y1164590D01*
X816762Y1168501D01*
X818946Y1171752D01*
X822248Y1173988D01*
X826160Y1174750D01*
X843686Y1174750D01*
X847547Y1173988D01*
X850849Y1171752D01*
X853033Y1168501D01*
X853846Y1164590D01*
X853846Y1152144D01*
X854557Y1144625D01*
X856640Y1137869D01*
X859942Y1131671D01*
X864412Y1126185D01*
X869899Y1121714D01*
X876096Y1118362D01*
X882853Y1116330D01*
X890422Y1115568D01*
X979424Y1115568D01*
X986942Y1116330D01*
X996086Y1119327D01*
X998575Y1119632D01*
X1261567Y1119632D01*
X1265428Y1118870D01*
X1268730Y1116634D01*
X1287932Y1097432D01*
X1292606Y1093114D01*
X1297432Y1089202D01*
X1302562Y1085697D01*
X1307896Y1082497D01*
X1313434Y1079754D01*
X1319123Y1077366D01*
X1325016Y1075385D01*
X1331061Y1073861D01*
X1337157Y1072794D01*
X1343304Y1072083D01*
X1349705Y1071880D01*
X1502968Y1071880D01*
X1506474Y1071270D01*
X1509572Y1069441D01*
X1515872Y1064006D01*
X1528064Y1055928D01*
X1541170Y1049426D01*
X1554988Y1044549D01*
X1569262Y1041450D01*
X1583842Y1040079D01*
X1598472Y1040536D01*
X1612950Y1042771D01*
X1627022Y1046784D01*
X1640484Y1052474D01*
X1653133Y1059789D01*
X1664817Y1068628D01*
X1675333Y1078788D01*
X1684528Y1090218D01*
X1692198Y1102664D01*
X1698345Y1115923D01*
X1702765Y1129893D01*
X1705457Y1144270D01*
X1706372Y1158849D01*
X1705457Y1173480D01*
X1702765Y1187856D01*
X1698345Y1201826D01*
X1692198Y1215085D01*
X1684528Y1227531D01*
X1675333Y1238961D01*
X1664817Y1249121D01*
X1661464Y1252778D01*
X1660194Y1256741D01*
X1660702Y1260906D01*
X1662785Y1264564D01*
X1666189Y1267002D01*
X1685137Y1275384D01*
X1706524Y1287018D01*
X1726946Y1300276D01*
X1746199Y1315110D01*
X1764284Y1331468D01*
X1780946Y1349146D01*
X1796186Y1368145D01*
X1809851Y1388262D01*
X1821891Y1409446D01*
X1832203Y1431493D01*
X1840687Y1454251D01*
X1847392Y1477670D01*
X1852218Y1501546D01*
X1855114Y1525676D01*
X1856079Y1550009D01*
X1855114Y1574342D01*
X1852218Y1598472D01*
X1847392Y1622348D01*
X1840687Y1645767D01*
X1832203Y1668525D01*
X1821891Y1690573D01*
X1809851Y1711756D01*
X1796186Y1731873D01*
X1780946Y1750872D01*
X1764284Y1768551D01*
X1746199Y1784908D01*
X1726946Y1799742D01*
X1706524Y1813001D01*
X1685137Y1824634D01*
X1662887Y1834489D01*
X1639925Y1842566D01*
X1616405Y1848764D01*
X1592478Y1853133D01*
X1568246Y1855520D01*
X1543913Y1856028D01*
X1519631Y1854555D01*
X1495552Y1851202D01*
X1471777Y1845919D01*
X1448511Y1838756D01*
X1425905Y1829765D01*
X1404061Y1819046D01*
X1383131Y1806600D01*
X1363268Y1792528D01*
X1344625Y1776933D01*
X1327251Y1759864D01*
X1311249Y1741525D01*
X1296822Y1721916D01*
X1283970Y1701292D01*
X1272794Y1679651D01*
X1263345Y1657248D01*
X1257198Y1638554D01*
X1254963Y1634845D01*
X1251407Y1632356D01*
X1247140Y1631594D01*
X1242923Y1632712D01*
X1239570Y1635506D01*
X1236878Y1638909D01*
X1226159Y1649628D01*
X1214221Y1658975D01*
X1201267Y1666798D01*
X1187450Y1672996D01*
X1173022Y1677517D01*
X1158138Y1680260D01*
X1143000Y1681175D01*
X1127861Y1680260D01*
X1112977Y1677517D01*
X1104392Y1674825D01*
X1101344Y1674368D01*
X945946Y1674368D01*
X942086Y1675130D01*
X938784Y1677365D01*
X936548Y1680616D01*
X935786Y1684528D01*
X936548Y1688439D01*
X938784Y1691690D01*
X988466Y1741424D01*
X994359Y1748434D01*
X998829Y1756156D01*
X1000760Y1760778D01*
X1002588Y1767078D01*
X1003757Y1776171D01*
X1003808Y2006549D01*
X1004569Y2010410D01*
X1006805Y2013712D01*
X1038860Y2045766D01*
X1042162Y2048002D01*
X1046022Y2048764D01*
X1058672Y2048764D01*
X1062583Y2048002D01*
X1065885Y2045766D01*
X1068070Y2042464D01*
X1068832Y2038604D01*
X1068832Y2018030D01*
X1126032Y2018030D01*
X1126032Y2038604D01*
X1126845Y2042464D01*
X1129030Y2045766D01*
X1132332Y2048002D01*
X1136192Y2048764D01*
X1183589Y2048764D01*
X1187500Y2048002D01*
X1190802Y2045766D01*
X1192987Y2042464D01*
X1193749Y2038604D01*
X1193749Y2018030D01*
X1250950Y2018030D01*
X1250950Y2038604D01*
X1251762Y2042464D01*
X1253947Y2045766D01*
X1257249Y2048002D01*
X1261110Y2048764D01*
X1473200Y2048764D01*
X1495653Y2047849D01*
X1515008Y2045512D01*
X1534160Y2041652D01*
X1552956Y2036368D01*
X1571244Y2029561D01*
X1588973Y2021332D01*
X1605991Y2011781D01*
X1622196Y2000910D01*
X1637538Y1988820D01*
X1652422Y1975002D01*
X1975002Y1652422D01*
X1989328Y1636928D01*
X2001367Y1621536D01*
X2012188Y1605330D01*
X2021738Y1588262D01*
X2029866Y1570532D01*
X2036572Y1552194D01*
X2041855Y1533398D01*
X2045665Y1514246D01*
X2047900Y1494840D01*
X2048713Y1474571D01*
X2048713Y835660D01*
X2047900Y831748D01*
X2045716Y828497D01*
X2042414Y826262D01*
X2038553Y825500D01*
X1914906Y825500D01*
X1911299Y826160D01*
X1908200Y828040D01*
X1905914Y830935D01*
X1904847Y834440D01*
X1905050Y838098D01*
X1907133Y846582D01*
X1907997Y857250D01*
X1907133Y867918D01*
X1904593Y878332D01*
X1900377Y888136D01*
X1898294Y891489D01*
X1896872Y895045D01*
X1896872Y898855D01*
X1898294Y902360D01*
X1900377Y905713D01*
X1904593Y915568D01*
X1907133Y925931D01*
X1907997Y936599D01*
X1907133Y947318D01*
X1904593Y957681D01*
X1900377Y967536D01*
X1894687Y976579D01*
X1887575Y984605D01*
X1879295Y991362D01*
X1869998Y996696D01*
X1859991Y1000506D01*
X1849526Y1002639D01*
X1838807Y1003096D01*
X1828190Y1001776D01*
X1817928Y998829D01*
X1808225Y994206D01*
X1799437Y988161D01*
X1791716Y980744D01*
X1785264Y972159D01*
X1780286Y962710D01*
X1776933Y952550D01*
X1775206Y941984D01*
X1775206Y931265D01*
X1776933Y920699D01*
X1780286Y910539D01*
X1784959Y901649D01*
X1786026Y898550D01*
X1786026Y895299D01*
X1784959Y892200D01*
X1780286Y883310D01*
X1776933Y873150D01*
X1775206Y862584D01*
X1775206Y851916D01*
X1776933Y841349D01*
X1777746Y838860D01*
X1778254Y835101D01*
X1777288Y831392D01*
X1775104Y828294D01*
X1771853Y826211D01*
X1768093Y825500D01*
X1715516Y825500D01*
X1713788Y824788D01*
X1610309Y721309D01*
X1607007Y719124D01*
X1603146Y718312D01*
X1600809Y718312D01*
X1593291Y717600D01*
X1586534Y715518D01*
X1580286Y712216D01*
X1574850Y707745D01*
X1570380Y702259D01*
X1567027Y696061D01*
X1564995Y689305D01*
X1564233Y681786D01*
X1564233Y612749D01*
X1564995Y605231D01*
X1567027Y598474D01*
X1570380Y592277D01*
X1574850Y586790D01*
X1580286Y582320D01*
X1582115Y581355D01*
X1584960Y579069D01*
X1586839Y575970D01*
X1587500Y572363D01*
X1587500Y507136D01*
X1586839Y503580D01*
X1584960Y500430D01*
X1582115Y498195D01*
X1580286Y497230D01*
X1574850Y492709D01*
X1570380Y487273D01*
X1567027Y481025D01*
X1564995Y474268D01*
X1564233Y466750D01*
X1564233Y425450D01*
X1563471Y421589D01*
X1561287Y418287D01*
X1526997Y383997D01*
X1523695Y381762D01*
X1519783Y381000D01*
X10922Y381000D01*
X6705Y381914D01*
X3251Y384454D01*
X1168Y388213D01*
X-711Y394512D01*
X-4064Y400761D01*
X-8534Y406196D01*
X-13970Y410718D01*
X-20218Y414020D01*
X-26974Y416051D01*
X-34493Y416814D01*
X-153517Y416814D01*
X-161036Y416051D01*
X-167792Y414020D01*
X-173990Y410718D01*
X-179476Y406196D01*
X-183946Y400761D01*
X-187299Y394512D01*
X-189331Y387756D01*
X-189585Y384911D01*
X-190398Y381863D01*
X-192125Y379171D01*
X-319989Y235305D01*
X-323443Y232816D01*
X-327609Y231902D01*
X-377647Y231902D01*
X-377647Y174294D01*
X-378307Y170688D01*
X-380238Y167538D01*
X-432257Y109016D01*
X-435660Y106527D01*
X-439775Y105613D01*
X-443890Y106426D01*
X-447293Y108813D01*
X-449478Y112420D01*
X-449986Y116636D01*
X-449122Y127000D01*
X-449935Y136956D01*
X-451256Y141986D01*
X-451510Y145745D01*
X-450342Y149352D01*
X-450342Y231902D01*
X-510082Y231902D01*
X-510082Y194767D01*
X-510641Y191414D01*
X-512318Y188417D01*
X-514908Y186131D01*
X-518109Y184861D01*
X-525221Y183286D01*
X-534517Y179578D01*
X-543001Y174345D01*
X-550519Y167741D01*
X-556768Y159969D01*
X-561644Y151282D01*
X-564997Y141833D01*
X-566674Y131978D01*
X-566674Y122021D01*
X-564845Y111455D01*
X-565099Y107086D01*
X-567131Y103174D01*
X-570585Y100533D01*
X-574903Y99568D01*
X-666496Y99568D01*
X-670509Y99364D01*
X-674268Y98755D01*
X-677824Y97790D01*
X-682396Y95961D01*
X-686206Y95250D01*
X-835507Y95250D01*
X-838657Y95758D01*
X-842264Y97790D01*
X-851153Y102260D01*
X-860704Y105206D01*
X-870610Y106476D01*
X-880618Y106019D01*
X-890371Y103936D01*
X-899617Y100228D01*
X-905256Y96774D01*
X-907796Y95656D01*
X-910590Y95250D01*
X-1185926Y95250D01*
X-1189583Y95961D01*
X-1192784Y97942D01*
X-1195019Y100939D01*
X-1198575Y114858D01*
X-1202690Y123952D01*
X-1210665Y135788D01*
X-1211376Y139649D01*
X-1210564Y143510D01*
X-1208328Y146761D01*
X-1205077Y148945D01*
X-1201216Y149656D01*
X-1026972Y149656D01*
X-1019454Y150418D01*
X-1012698Y152450D01*
X-1006500Y155803D01*
X-1001014Y160274D01*
X-996543Y165760D01*
X-993190Y171958D01*
X-991158Y178714D01*
X-990396Y186232D01*
X-990396Y239928D01*
X-989736Y243586D01*
X-987806Y246735D01*
X-984859Y248970D01*
X-981303Y250037D01*
X-976782Y250545D01*
X-969619Y252831D01*
X-962964Y256692D01*
X-958443Y260553D01*
X-895603Y323392D01*
X-890524Y329641D01*
X-887120Y336346D01*
X-885139Y343763D01*
X-884682Y349656D01*
X-884631Y774649D01*
X-883869Y778510D01*
X-881684Y781812D01*
X-832103Y831392D01*
X-827024Y837641D01*
X-823620Y844346D01*
X-821639Y851763D01*
X-821182Y857656D01*
X-821182Y1060348D01*
X-820419Y1064260D01*
X-818184Y1067511D01*
X-794461Y1091234D01*
X-791210Y1093470D01*
X-787298Y1094232D01*
X-638200Y1094232D01*
X-410362Y1087831D01*
X-287832Y1087831D01*
X-224942Y1090117D01*
X-220878Y1089406D01*
X-217373Y1087120D01*
X85039Y784656D01*
X87376Y781100D01*
X88036Y776935D01*
X86918Y772820D01*
X84226Y769569D01*
X80416Y767638D01*
X63042Y763168D01*
X60502Y762812D01*
X34747Y762812D01*
X27228Y762101D01*
X20472Y760018D01*
X14224Y756716D01*
X8788Y752195D01*
X4318Y746760D01*
X965Y740511D01*
X-1066Y733755D01*
X-1828Y726236D01*
X-1828Y607263D01*
X-1066Y599744D01*
X965Y592988D01*
X4318Y586740D01*
X8788Y581304D01*
X14224Y576783D01*
X20472Y573481D01*
X27228Y571398D01*
X34747Y570687D01*
X383743Y570687D01*
X391261Y571398D01*
X398018Y573481D01*
X404266Y576783D01*
X409701Y581304D01*
X414223Y586740D01*
X417525Y592988D01*
X419557Y599744D01*
X420319Y607263D01*
X420319Y726236D01*
X419557Y733755D01*
X417525Y740613D01*
X417068Y743559D01*
X417068Y747522D01*
X417830Y751433D01*
X420065Y754684D01*
X423316Y756920D01*
X427228Y757682D01*
X527202Y757682D01*
X531266Y756818D01*
X534670Y754430D01*
X536803Y750874D01*
X537311Y746709D01*
X536143Y742746D01*
X534974Y740511D01*
X532942Y733755D01*
X532180Y726236D01*
X532180Y703122D01*
X649376Y703122D01*
X649376Y747522D01*
X650189Y751433D01*
X652373Y754684D01*
X655675Y756920D01*
X659536Y757682D01*
X826922Y757682D01*
X830834Y756920D01*
X834136Y754684D01*
X836320Y751433D01*
X837082Y747522D01*
X837082Y703122D01*
X954328Y703122D01*
X954328Y726236D01*
X953566Y733755D01*
X951534Y740511D01*
X950366Y742746D01*
X949198Y746709D01*
X949706Y750874D01*
X951839Y754430D01*
X955243Y756818D01*
X959307Y757682D01*
X1110742Y757682D01*
X1118717Y758545D01*
X1126236Y760882D01*
X1129741Y761593D01*
X1139748Y765403D01*
X1149045Y770737D01*
X1157325Y777544D01*
X1164437Y785520D01*
X1170127Y794613D01*
X1174597Y805078D01*
X1176782Y808278D01*
X1199896Y831392D01*
X1204976Y837641D01*
X1208379Y844346D01*
X1210360Y851763D01*
X1210818Y857656D01*
X1210818Y1015746D01*
X1210614Y1019759D01*
X1210005Y1023518D01*
X1209040Y1027125D01*
X1207668Y1030681D01*
X1205992Y1034034D01*
X1203909Y1037183D01*
X1201521Y1040130D01*
X1198880Y1042771D01*
X1195933Y1045159D01*
X1192784Y1047242D01*
X1189431Y1048918D01*
X1185875Y1050290D01*
X1182268Y1051255D01*
X1178509Y1051864D01*
X1174496Y1052068D01*
X984758Y1052068D01*
X976782Y1051204D01*
X969619Y1048918D01*
X962964Y1045057D01*
X958443Y1041196D01*
X902411Y985215D01*
X899160Y982980D01*
X895248Y982218D01*
X279501Y982218D01*
X275590Y982980D01*
X272338Y985215D01*
X197815Y1059738D01*
X195580Y1062990D01*
X194818Y1066901D01*
X194818Y1301242D01*
X193954Y1309217D01*
X191668Y1316380D01*
X187807Y1323035D01*
X183946Y1327556D01*
X-1879Y1513433D01*
X-4013Y1516481D01*
X-4876Y1520037D01*
X-4368Y1523746D01*
X-2590Y1526997D01*
X203Y1529384D01*
X6045Y1532737D01*
X14325Y1539544D01*
X21437Y1547520D01*
X27127Y1556613D01*
X31343Y1566418D01*
X33883Y1576832D01*
X34747Y1587500D01*
X33883Y1598168D01*
X31343Y1608582D01*
X28498Y1615287D01*
X27686Y1619250D01*
X28498Y1623212D01*
X31343Y1629918D01*
X33883Y1640332D01*
X34747Y1651000D01*
X33883Y1661668D01*
X31343Y1672082D01*
X28498Y1678787D01*
X27686Y1682750D01*
X28498Y1686712D01*
X31343Y1693418D01*
X33883Y1703832D01*
X34747Y1714500D01*
X33883Y1725168D01*
X31343Y1735582D01*
X29718Y1739392D01*
X28905Y1743151D01*
X29514Y1746910D01*
X31495Y1750161D01*
X34544Y1752498D01*
X38201Y1753514D01*
X42011Y1753107D01*
X47904Y1751330D01*
X55422Y1750568D01*
X76047Y1750568D01*
X76047Y1855317D01*
X9347Y1855317D01*
X5486Y1856079D01*
X2184Y1858264D01*
X-50Y1861566D01*
X-3302Y1869338D01*
X-4064Y1873300D01*
X-3251Y1877212D01*
X-406Y1883918D01*
X2133Y1894332D01*
X2997Y1905000D01*
X2133Y1915668D01*
X-406Y1926082D01*
X-4622Y1935886D01*
X-10312Y1944979D01*
X-17424Y1952955D01*
X-25704Y1959762D01*
X-35001Y1965096D01*
X-45008Y1968906D01*
X-55473Y1971039D01*
X-66192Y1971446D01*
X-76809Y1970176D01*
X-87071Y1967179D01*
X-96774Y1962607D01*
X-105562Y1956511D01*
X-113283Y1949094D01*
X-119735Y1940560D01*
X-124714Y1931060D01*
X-128066Y1920900D01*
X-129794Y1910334D01*
X-129794Y1899666D01*
X-128066Y1889099D01*
X-124714Y1878939D01*
X-123139Y1874875D01*
X-123139Y1871624D01*
X-124714Y1867560D01*
X-128066Y1857400D01*
X-129794Y1846834D01*
X-129794Y1836166D01*
X-128066Y1825599D01*
X-124714Y1815439D01*
X-123139Y1811375D01*
X-123139Y1808124D01*
X-124714Y1804060D01*
X-128066Y1793900D01*
X-129794Y1783334D01*
X-129794Y1772666D01*
X-128066Y1762099D01*
X-124714Y1751939D01*
X-119735Y1742439D01*
X-113283Y1733905D01*
X-105562Y1726488D01*
X-102412Y1724304D01*
X-100076Y1722069D01*
X-98552Y1719173D01*
X-98044Y1715973D01*
X-98044Y1709166D01*
X-96316Y1698599D01*
X-92964Y1688439D01*
X-91389Y1684375D01*
X-91389Y1681124D01*
X-92964Y1677060D01*
X-96316Y1666900D01*
X-98044Y1656334D01*
X-98044Y1645666D01*
X-96316Y1635099D01*
X-92964Y1624939D01*
X-91389Y1620875D01*
X-91389Y1617624D01*
X-92964Y1613560D01*
X-96316Y1603400D01*
X-98044Y1592834D01*
X-98044Y1582166D01*
X-96316Y1571599D01*
X-92964Y1561439D01*
X-87985Y1551940D01*
X-82448Y1544574D01*
X-80619Y1540510D01*
X-80670Y1536039D01*
X-82702Y1532077D01*
X-86207Y1529283D01*
X-90576Y1528318D01*
X-791718Y1528318D01*
X-796086Y1529283D01*
X-799592Y1532026D01*
X-803554Y1536852D01*
X-808990Y1541322D01*
X-815238Y1544675D01*
X-821994Y1546707D01*
X-829513Y1547418D01*
X-948486Y1547418D01*
X-956005Y1546707D01*
X-962761Y1544675D01*
X-969010Y1541322D01*
X-974445Y1536852D01*
X-978408Y1532026D01*
X-981913Y1529283D01*
X-986282Y1528318D01*
X-1205992Y1528318D01*
X-1213967Y1527454D01*
X-1221130Y1525168D01*
X-1231442Y1519174D01*
X-1235303Y1518716D01*
X-1239062Y1519682D01*
X-1242161Y1522018D01*
X-1244193Y1525371D01*
X-1244752Y1529232D01*
X-1243939Y1550009D01*
X-1244904Y1574342D01*
X-1247800Y1598472D01*
X-1252626Y1622348D01*
X-1259332Y1645767D01*
X-1267815Y1668525D01*
X-1278128Y1690573D01*
X-1290167Y1711756D01*
X-1303832Y1731873D01*
X-1319072Y1750872D01*
X-1335735Y1768551D01*
X-1353820Y1784908D01*
X-1373073Y1799742D01*
X-1393494Y1813001D01*
X-1414881Y1824634D01*
X-1437132Y1834489D01*
X-1460093Y1842566D01*
X-1483614Y1848764D01*
X-1507540Y1853133D01*
X-1531772Y1855520D01*
X-1556105Y1856028D01*
X-1580388Y1854555D01*
X-1604467Y1851202D01*
X-1628241Y1845919D01*
X-1651507Y1838756D01*
X-1674114Y1829765D01*
X-1695957Y1819046D01*
X-1716887Y1806600D01*
X-1736750Y1792528D01*
X-1755393Y1776933D01*
X-1772767Y1759864D01*
X-1788769Y1741525D01*
X-1803196Y1721916D01*
X-1816049Y1701292D01*
X-1827225Y1679651D01*
X-1836674Y1657248D01*
X-1844293Y1634134D01*
X-1850034Y1610461D01*
X-1853895Y1586433D01*
X-1855825Y1562201D01*
X-1855825Y1537817D01*
X-1853895Y1513586D01*
X-1850034Y1489557D01*
X-1844293Y1465884D01*
X-1836674Y1442770D01*
X-1827225Y1420368D01*
X-1816049Y1398727D01*
X-1803196Y1378102D01*
X-1788769Y1358493D01*
X-1772767Y1340154D01*
X-1755393Y1323086D01*
X-1736750Y1307490D01*
X-1716887Y1293418D01*
X-1695957Y1280972D01*
X-1674114Y1270254D01*
X-1651507Y1261262D01*
X-1628241Y1254099D01*
X-1604467Y1248816D01*
X-1580388Y1245463D01*
X-1563065Y1244447D01*
X-1559407Y1243482D01*
X-1556308Y1241298D01*
X-1554276Y1238148D01*
X-1553514Y1234440D01*
X-1554175Y1230731D01*
X-1555546Y1227023D01*
X-1556867Y1222451D01*
X-1557985Y1216914D01*
X-1558594Y1211884D01*
X-1558798Y1206296D01*
X-1558798Y1143203D01*
X-1558594Y1137615D01*
X-1557985Y1132586D01*
X-1556867Y1127048D01*
X-1555546Y1122476D01*
X-1553464Y1116888D01*
X-1551584Y1112824D01*
X-1548434Y1107389D01*
X-1546148Y1103934D01*
X-1541983Y1098804D01*
X-1539392Y1096010D01*
X-1534261Y1091387D01*
X-1531467Y1089253D01*
X-1525422Y1085291D01*
X-1522577Y1083767D01*
X-1515719Y1080719D01*
X-1512976Y1079754D01*
X-1505407Y1077772D01*
X-1502816Y1077315D01*
X-1494739Y1076502D01*
X-1365656Y1076452D01*
X-1354836Y1077315D01*
X-1351330Y1078128D01*
X-1347724Y1078331D01*
X-1344218Y1077264D01*
X-1341374Y1074978D01*
X-1339494Y1071829D01*
X-1338834Y1068273D01*
X-1338834Y613054D01*
X-1337818Y603148D01*
X-1337818Y349758D01*
X-1336954Y341782D01*
X-1334668Y334619D01*
X-1330807Y327964D01*
X-1326946Y323443D01*
X-1265529Y262026D01*
X-1263345Y258724D01*
X-1262532Y254863D01*
X-1262532Y186232D01*
X-1261821Y178714D01*
X-1259789Y171958D01*
X-1257554Y167792D01*
X-1256385Y164236D01*
X-1256639Y160477D01*
X-1258214Y157124D01*
X-1260906Y154533D01*
X-1264361Y153060D01*
X-1271371Y151536D01*
X-1280617Y147828D01*
X-1289151Y142595D01*
X-1296619Y135991D01*
X-1302918Y128219D01*
X-1307795Y119532D01*
X-1311097Y110083D01*
X-1312214Y103682D01*
X-1313434Y100380D01*
X-1315669Y97637D01*
X-1318717Y95859D01*
X-1322222Y95250D01*
G37*

%LPC*%
G36*
X-814527Y149656D02*
G01*
X-771347Y149656D01*
X-771347Y229412D01*
X-851052Y229412D01*
X-851052Y186232D01*
X-850341Y178714D01*
X-848309Y171958D01*
X-844956Y165760D01*
X-840486Y160274D01*
X-834999Y155803D01*
X-828802Y152450D01*
X-822045Y150418D01*
G37*
G36*
X-658672Y149656D02*
G01*
X-615492Y149656D01*
X-607974Y150418D01*
X-601218Y152450D01*
X-595020Y155803D01*
X-589534Y160274D01*
X-585063Y165760D01*
X-581710Y171958D01*
X-579678Y178714D01*
X-578916Y186232D01*
X-578916Y229412D01*
X-658672Y229412D01*
G37*
G36*
X-1618894Y190855D02*
G01*
X-1545945Y190855D01*
X-1546656Y192532D01*
X-1554835Y207365D01*
X-1564640Y221183D01*
X-1575917Y233832D01*
X-1588566Y245110D01*
X-1602384Y254914D01*
X-1617218Y263093D01*
X-1618894Y263804D01*
G37*
G36*
X-377647Y339598D02*
G01*
X-317957Y339598D01*
X-317957Y380238D01*
X-318668Y387756D01*
X-320751Y394512D01*
X-324053Y400761D01*
X-328523Y406196D01*
X-334010Y410718D01*
X-340207Y414020D01*
X-346964Y416051D01*
X-354482Y416814D01*
X-377647Y416814D01*
G37*
G36*
X-510082Y339598D02*
G01*
X-450342Y339598D01*
X-450342Y416814D01*
X-473506Y416814D01*
X-481025Y416051D01*
X-487781Y414020D01*
X-494030Y410718D01*
X-499465Y406196D01*
X-503935Y400761D01*
X-507288Y394512D01*
X-509320Y387756D01*
X-510082Y380238D01*
G37*
G36*
X-851052Y342087D02*
G01*
X-771347Y342087D01*
X-771347Y421792D01*
X-814527Y421792D01*
X-822045Y421081D01*
X-828802Y419049D01*
X-834999Y415696D01*
X-840486Y411226D01*
X-844956Y405739D01*
X-848309Y399542D01*
X-850341Y392785D01*
X-851052Y385267D01*
G37*
G36*
X-658672Y342087D02*
G01*
X-578916Y342087D01*
X-578916Y385267D01*
X-579678Y392785D01*
X-581710Y399542D01*
X-585063Y405739D01*
X-589534Y411226D01*
X-595020Y415696D01*
X-601218Y419049D01*
X-607974Y421081D01*
X-615492Y421792D01*
X-658672Y421792D01*
G37*
G36*
X-312877Y553821D02*
G01*
X-289763Y553821D01*
X-282244Y554532D01*
X-275488Y556615D01*
X-269240Y559917D01*
X-263804Y564388D01*
X-259283Y569874D01*
X-255981Y576072D01*
X-253898Y582828D01*
X-253187Y590397D01*
X-253187Y671017D01*
X-312877Y671017D01*
G37*
G36*
X-408736Y553821D02*
G01*
X-385622Y553821D01*
X-385622Y671017D01*
X-445312Y671017D01*
X-445312Y590397D01*
X-444601Y582828D01*
X-442518Y576072D01*
X-439216Y569874D01*
X-434695Y564388D01*
X-429259Y559917D01*
X-423011Y556615D01*
X-416255Y554532D01*
G37*
G36*
X568756Y570687D02*
G01*
X649376Y570687D01*
X649376Y630377D01*
X532180Y630377D01*
X532180Y607263D01*
X532942Y599744D01*
X534974Y592988D01*
X538276Y586740D01*
X542798Y581304D01*
X548233Y576783D01*
X554482Y573481D01*
X561238Y571398D01*
G37*
G36*
X837082Y570687D02*
G01*
X917752Y570687D01*
X925271Y571398D01*
X932027Y573481D01*
X938276Y576783D01*
X943711Y581304D01*
X948182Y586740D01*
X951534Y592988D01*
X953566Y599744D01*
X954328Y607263D01*
X954328Y630377D01*
X837082Y630377D01*
G37*
G36*
X-445312Y858723D02*
G01*
X-385622Y858723D01*
X-385622Y975918D01*
X-408736Y975918D01*
X-416255Y975207D01*
X-423011Y973175D01*
X-429259Y969822D01*
X-434695Y965352D01*
X-439216Y959866D01*
X-442518Y953668D01*
X-444601Y946912D01*
X-445312Y939393D01*
G37*
G36*
X-312877Y858723D02*
G01*
X-253187Y858723D01*
X-253187Y939393D01*
X-253898Y946912D01*
X-255981Y953668D01*
X-259283Y959866D01*
X-263804Y965352D01*
X-269240Y969822D01*
X-275488Y973175D01*
X-282244Y975207D01*
X-289763Y975918D01*
X-312877Y975918D01*
G37*
G36*
X-852627Y1659331D02*
G01*
X-829513Y1659331D01*
X-821994Y1660042D01*
X-815238Y1662074D01*
X-808990Y1665427D01*
X-803554Y1669897D01*
X-799033Y1675384D01*
X-795731Y1681581D01*
X-793648Y1688338D01*
X-792937Y1695856D01*
X-792937Y1776526D01*
X-852627Y1776526D01*
G37*
G36*
X-948486Y1659331D02*
G01*
X-925372Y1659331D01*
X-925372Y1776526D01*
X-985062Y1776526D01*
X-985062Y1695856D01*
X-984351Y1688338D01*
X-982268Y1681581D01*
X-978966Y1675384D01*
X-974445Y1669897D01*
X-969010Y1665427D01*
X-962761Y1662074D01*
X-956005Y1660042D01*
G37*
G36*
X143764Y1750568D02*
G01*
X164388Y1750568D01*
X171958Y1751330D01*
X178714Y1753362D01*
X184912Y1756714D01*
X190398Y1761185D01*
X194868Y1766671D01*
X198170Y1772869D01*
X200253Y1779625D01*
X200964Y1787143D01*
X200964Y1855317D01*
X143764Y1855317D01*
G37*
G36*
X1193749Y1750568D02*
G01*
X1214424Y1750568D01*
X1221943Y1751330D01*
X1228699Y1753362D01*
X1234897Y1756714D01*
X1240383Y1761185D01*
X1244854Y1766671D01*
X1248206Y1772869D01*
X1250238Y1779625D01*
X1250950Y1787143D01*
X1250950Y1855317D01*
X1193749Y1855317D01*
G37*
G36*
X1105408Y1750568D02*
G01*
X1126032Y1750568D01*
X1126032Y1855317D01*
X1068832Y1855317D01*
X1068832Y1787143D01*
X1069594Y1779625D01*
X1071626Y1772869D01*
X1074978Y1766671D01*
X1079449Y1761185D01*
X1084884Y1756714D01*
X1091133Y1753362D01*
X1097889Y1751330D01*
G37*

%LPD*%
G36*
X1979574Y-346659D02*
G01*
X1975561Y-345338D01*
X1972411Y-342493D01*
X1967230Y-335229D01*
X1959051Y-326694D01*
X1949653Y-319481D01*
X1939340Y-313690D01*
X1928317Y-309473D01*
X1916785Y-306882D01*
X1905000Y-306019D01*
X1893214Y-306882D01*
X1881682Y-309473D01*
X1870659Y-313690D01*
X1860245Y-319532D01*
X1853996Y-324205D01*
X1829714Y-341426D01*
X1826920Y-342849D01*
X1823821Y-343306D01*
X1790446Y-343306D01*
X1786534Y-342544D01*
X1783232Y-340309D01*
X1723745Y-280822D01*
X1722069Y-278638D01*
X1719630Y-274370D01*
X1718665Y-271983D01*
X1717446Y-267360D01*
X1713484Y-258825D01*
X1708099Y-251155D01*
X1701444Y-244551D01*
X1693773Y-239166D01*
X1685289Y-235204D01*
X1676196Y-232765D01*
X1666900Y-231952D01*
X1657553Y-232765D01*
X1648460Y-235204D01*
X1639976Y-239166D01*
X1632305Y-244551D01*
X1625650Y-251155D01*
X1621485Y-257098D01*
X1618234Y-260096D01*
X1614068Y-261416D01*
X1609699Y-260807D01*
X1605991Y-258470D01*
X1570685Y-223113D01*
X1568450Y-219811D01*
X1567688Y-215950D01*
X1567688Y-195478D01*
X1568196Y-192227D01*
X1570228Y-186436D01*
X1574546Y-177139D01*
X1576984Y-168097D01*
X1577797Y-158750D01*
X1576984Y-149402D01*
X1574546Y-140360D01*
X1570583Y-131826D01*
X1565198Y-124155D01*
X1558594Y-117551D01*
X1550924Y-112166D01*
X1542389Y-108204D01*
X1533347Y-105765D01*
X1524000Y-104952D01*
X1515211Y-105714D01*
X1511096Y-105206D01*
X1507490Y-103073D01*
X1505051Y-99669D01*
X1504188Y-95605D01*
X1504137Y160426D01*
X1502968Y168757D01*
X1500428Y176377D01*
X1496517Y183438D01*
X1491081Y189992D01*
X1457553Y223520D01*
X1455521Y226364D01*
X1454607Y229717D01*
X1454861Y233171D01*
X1457604Y243890D01*
X1458417Y254000D01*
X1457604Y264109D01*
X1455115Y273964D01*
X1451051Y283260D01*
X1445463Y291744D01*
X1438452Y299313D01*
X1435760Y302514D01*
X1434541Y306476D01*
X1435100Y310642D01*
X1437233Y314198D01*
X1440586Y316636D01*
X1444701Y317500D01*
X1565402Y317500D01*
X1569466Y316636D01*
X1572869Y314248D01*
X1575003Y310692D01*
X1575511Y306527D01*
X1574342Y302564D01*
X1571498Y297230D01*
X1569770Y291388D01*
X1569110Y284886D01*
X1569110Y280873D01*
X1645818Y280873D01*
X1645818Y316382D01*
X1610918Y316382D01*
X1607007Y317144D01*
X1603705Y319328D01*
X1601520Y322630D01*
X1600758Y326542D01*
X1601520Y330403D01*
X1603705Y333705D01*
X1633321Y363321D01*
X1636572Y365506D01*
X1640484Y366268D01*
X1752193Y366268D01*
X1758746Y366928D01*
X1764538Y368706D01*
X1769922Y371551D01*
X1774596Y375412D01*
X1778457Y380085D01*
X1781302Y385419D01*
X1783080Y391210D01*
X1783689Y397764D01*
X1783689Y466750D01*
X1783080Y473303D01*
X1781302Y479094D01*
X1778457Y484428D01*
X1774596Y489153D01*
X1769922Y493014D01*
X1764538Y495858D01*
X1758746Y497585D01*
X1752193Y498246D01*
X1724660Y498246D01*
X1720748Y499008D01*
X1717497Y501243D01*
X1715262Y504545D01*
X1714500Y508406D01*
X1714500Y571093D01*
X1715262Y575005D01*
X1717497Y578307D01*
X1720748Y580491D01*
X1724660Y581253D01*
X1752193Y581253D01*
X1758746Y581914D01*
X1764538Y583692D01*
X1769922Y586536D01*
X1774596Y590397D01*
X1778457Y595071D01*
X1781302Y600405D01*
X1783080Y606247D01*
X1783689Y612749D01*
X1783689Y616762D01*
X1724660Y616762D01*
X1720748Y617575D01*
X1717497Y619760D01*
X1715262Y623062D01*
X1714500Y626922D01*
X1714500Y667562D01*
X1715262Y671474D01*
X1717497Y674776D01*
X1720748Y676960D01*
X1724660Y677722D01*
X1783689Y677722D01*
X1783689Y681786D01*
X1783080Y688289D01*
X1781302Y694080D01*
X1778457Y699465D01*
X1774596Y704138D01*
X1769922Y707999D01*
X1764030Y711149D01*
X1760677Y714044D01*
X1758848Y718108D01*
X1758950Y722579D01*
X1760982Y726541D01*
X1764487Y729284D01*
X1768805Y730250D01*
X1920392Y730250D01*
X1924761Y729284D01*
X1928266Y726541D01*
X1930247Y722579D01*
X1930400Y718108D01*
X1928571Y714044D01*
X1925218Y711149D01*
X1919325Y707999D01*
X1914652Y704138D01*
X1910791Y699465D01*
X1907946Y694080D01*
X1906168Y688289D01*
X1905507Y681736D01*
X1905507Y677722D01*
X1976018Y677722D01*
X1976018Y720090D01*
X1976780Y724001D01*
X1979015Y727252D01*
X1982317Y729488D01*
X1986178Y730250D01*
X2000453Y730250D01*
X2004314Y729488D01*
X2007616Y727252D01*
X2009800Y724001D01*
X2010613Y720090D01*
X2010613Y508406D01*
X2009800Y504494D01*
X2007616Y501243D01*
X2004314Y499008D01*
X2000453Y498246D01*
X1937004Y498246D01*
X1930450Y497585D01*
X1924659Y495858D01*
X1919325Y492963D01*
X1914652Y489153D01*
X1910791Y484428D01*
X1907895Y479094D01*
X1906168Y473303D01*
X1905507Y466750D01*
X1905507Y438200D01*
X1904949Y434848D01*
X1899462Y419100D01*
X1897075Y415239D01*
X1874215Y392430D01*
X1868779Y385775D01*
X1865020Y378714D01*
X1862683Y370992D01*
X1862378Y368096D01*
X1861464Y364744D01*
X1859432Y361899D01*
X1812747Y315214D01*
X1807311Y308559D01*
X1803552Y301498D01*
X1801368Y294386D01*
X1799285Y290677D01*
X1795830Y288086D01*
X1791665Y287172D01*
X1787448Y288086D01*
X1784045Y290677D01*
X1781962Y294386D01*
X1781098Y297230D01*
X1778203Y302564D01*
X1774393Y307238D01*
X1769668Y311099D01*
X1764334Y313944D01*
X1758543Y315722D01*
X1751990Y316382D01*
X1706778Y316382D01*
X1706778Y280873D01*
X1790192Y280873D01*
X1794103Y280060D01*
X1797354Y277876D01*
X1799589Y274574D01*
X1800352Y270713D01*
X1800352Y230073D01*
X1799589Y226161D01*
X1797354Y222859D01*
X1794103Y220675D01*
X1790192Y219913D01*
X1706778Y219913D01*
X1706778Y184404D01*
X1751990Y184404D01*
X1758543Y185013D01*
X1764334Y186791D01*
X1769668Y189636D01*
X1774393Y193497D01*
X1778203Y198170D01*
X1781251Y203809D01*
X1784146Y207162D01*
X1788210Y208991D01*
X1792681Y208889D01*
X1796643Y206857D01*
X1799386Y203352D01*
X1800352Y199034D01*
X1800352Y86715D01*
X1799386Y82397D01*
X1796643Y78892D01*
X1792681Y76860D01*
X1788210Y76758D01*
X1784146Y78587D01*
X1781251Y81940D01*
X1778203Y87579D01*
X1774393Y92252D01*
X1769668Y96113D01*
X1764334Y98958D01*
X1758543Y100736D01*
X1751990Y101346D01*
X1600606Y101346D01*
X1594053Y100736D01*
X1588262Y98958D01*
X1582928Y96113D01*
X1578203Y92252D01*
X1574393Y87579D01*
X1571498Y82194D01*
X1569770Y76403D01*
X1569110Y69900D01*
X1569110Y863D01*
X1569770Y-5638D01*
X1571498Y-11480D01*
X1574393Y-16814D01*
X1578203Y-21488D01*
X1582928Y-25349D01*
X1592630Y-30429D01*
X1595018Y-33375D01*
X1596186Y-36931D01*
X1595983Y-40640D01*
X1594408Y-44043D01*
X1588516Y-52476D01*
X1584553Y-60960D01*
X1582115Y-70053D01*
X1581302Y-79400D01*
X1582115Y-88696D01*
X1584553Y-97790D01*
X1588516Y-106273D01*
X1593900Y-113944D01*
X1600555Y-120599D01*
X1608226Y-125983D01*
X1616710Y-129946D01*
X1625803Y-132384D01*
X1635150Y-133197D01*
X1644446Y-132384D01*
X1653539Y-129946D01*
X1662023Y-125983D01*
X1665833Y-123596D01*
X1670659Y-121462D01*
X1674723Y-120650D01*
X1729739Y-120650D01*
X1738274Y-119786D01*
X1745996Y-117449D01*
X1753057Y-113690D01*
X1759712Y-108254D01*
X1870252Y2286D01*
X1875688Y8940D01*
X1879447Y16002D01*
X1881784Y23723D01*
X1882648Y32258D01*
X1882648Y264515D01*
X1883410Y268376D01*
X1885645Y271678D01*
X1891792Y277876D01*
X1895093Y280060D01*
X1899005Y280873D01*
X1975815Y280873D01*
X1975815Y316382D01*
X1949805Y316382D01*
X1945741Y317195D01*
X1942338Y319633D01*
X1940204Y323189D01*
X1939696Y327304D01*
X1943252Y339191D01*
X1943557Y342087D01*
X1944471Y345440D01*
X1946503Y348284D01*
X1955698Y357479D01*
X1957578Y358952D01*
X1959711Y359968D01*
X1977643Y365760D01*
X1980793Y366268D01*
X2000453Y366268D01*
X2004314Y365506D01*
X2007616Y363270D01*
X2009800Y360019D01*
X2010613Y356108D01*
X2010613Y111506D01*
X2009800Y107645D01*
X2007616Y104343D01*
X2004314Y102108D01*
X2000453Y101346D01*
X1936800Y101346D01*
X1930247Y100736D01*
X1924456Y98958D01*
X1919122Y96113D01*
X1914398Y92252D01*
X1910588Y87579D01*
X1907692Y82194D01*
X1905965Y76403D01*
X1905304Y69850D01*
X1905304Y863D01*
X1905965Y-5689D01*
X1907692Y-11480D01*
X1910588Y-16814D01*
X1914398Y-21488D01*
X1919122Y-25349D01*
X1924456Y-28194D01*
X1930247Y-29971D01*
X1936800Y-30632D01*
X1955038Y-30632D01*
X1958949Y-31394D01*
X1962200Y-33578D01*
X1964436Y-36880D01*
X1965198Y-40792D01*
X1965198Y-69088D01*
X1966061Y-77622D01*
X1968398Y-85344D01*
X1972157Y-92405D01*
X1977593Y-99060D01*
X1987854Y-109321D01*
X1990089Y-112623D01*
X1990852Y-116484D01*
X1990852Y-336550D01*
X1989988Y-340715D01*
X1987448Y-344119D01*
X1983790Y-346252D01*
G37*

%LPC*%
G36*
X1936800Y184404D02*
G01*
X1975815Y184404D01*
X1975815Y219913D01*
X1905304Y219913D01*
X1905304Y215849D01*
X1905965Y209346D01*
X1907692Y203555D01*
X1910588Y198170D01*
X1914398Y193497D01*
X1919122Y189636D01*
X1924456Y186791D01*
X1930247Y185013D01*
G37*
G36*
X1600606Y184404D02*
G01*
X1645818Y184404D01*
X1645818Y219913D01*
X1569110Y219913D01*
X1569110Y215900D01*
X1569770Y209346D01*
X1571498Y203555D01*
X1574393Y198170D01*
X1578203Y193497D01*
X1582928Y189636D01*
X1588262Y186791D01*
X1594053Y185013D01*
G37*
G36*
X1937004Y581253D02*
G01*
X1976018Y581253D01*
X1976018Y616762D01*
X1905507Y616762D01*
X1905507Y612749D01*
X1906168Y606247D01*
X1907946Y600405D01*
X1910791Y595071D01*
X1914652Y590397D01*
X1919325Y586536D01*
X1924659Y583692D01*
X1930450Y581914D01*
G37*

%LPD*%
G36*
X-2028393Y-571500D02*
G01*
X-2032254Y-570738D01*
X-2035556Y-568502D01*
X-2037740Y-565251D01*
X-2038553Y-561340D01*
X-2038553Y720090D01*
X-2037740Y724001D01*
X-2035556Y727252D01*
X-2032254Y729488D01*
X-2028393Y730250D01*
X-1953056Y730250D01*
X-1949145Y729488D01*
X-1945893Y727252D01*
X-1943658Y724001D01*
X-1942896Y720090D01*
X-1942896Y613003D01*
X-1942033Y604520D01*
X-1939696Y596798D01*
X-1935937Y589686D01*
X-1930806Y583438D01*
X-1924557Y578358D01*
X-1917496Y574548D01*
X-1909775Y572211D01*
X-1901240Y571347D01*
X-1837232Y571347D01*
X-1837232Y720090D01*
X-1836470Y724001D01*
X-1834235Y727252D01*
X-1830933Y729488D01*
X-1827072Y730250D01*
X-1692910Y730250D01*
X-1689049Y729488D01*
X-1685747Y727252D01*
X-1683562Y724001D01*
X-1682750Y720090D01*
X-1682750Y571347D01*
X-1629410Y571347D01*
X-1625498Y570585D01*
X-1622247Y568401D01*
X-1620012Y565099D01*
X-1619250Y561187D01*
X-1619250Y512216D01*
X-1620012Y508304D01*
X-1622247Y505002D01*
X-1777288Y349961D01*
X-1778000Y348234D01*
X-1778000Y299262D01*
X-1779422Y294030D01*
X-1783791Y281076D01*
X-1787448Y262636D01*
X-1803958Y225653D01*
X-1805381Y223316D01*
X-1808530Y219456D01*
X-1817928Y205079D01*
X-1825701Y189738D01*
X-1831746Y173634D01*
X-1835962Y156921D01*
X-1838350Y139903D01*
X-1838807Y122732D01*
X-1837385Y105562D01*
X-1834083Y88696D01*
X-1828952Y72288D01*
X-1822043Y56489D01*
X-1813458Y41605D01*
X-1803247Y27736D01*
X-1791614Y15087D01*
X-1781149Y5994D01*
X-1779016Y3454D01*
X-1777847Y152D01*
X-1773275Y-457D01*
X-1770532Y-1828D01*
X-1764487Y-5994D01*
X-1749348Y-14173D01*
X-1733448Y-20675D01*
X-1716887Y-25349D01*
X-1699920Y-28194D01*
X-1682750Y-29108D01*
X-1665579Y-28194D01*
X-1648612Y-25349D01*
X-1632051Y-20675D01*
X-1616100Y-14173D01*
X-1600962Y-5994D01*
X-1596440Y-2844D01*
X-1593240Y-1371D01*
X-1589735Y-1066D01*
X-1586331Y-2032D01*
X-1583486Y-4013D01*
X-1463497Y-124002D01*
X-1461262Y-127304D01*
X-1460500Y-131216D01*
X-1460500Y-185623D01*
X-1460957Y-191770D01*
X-1460500Y-197916D01*
X-1460500Y-256438D01*
X-1460957Y-259486D01*
X-1462328Y-262229D01*
X-1464411Y-264464D01*
X-1472082Y-270408D01*
X-1479245Y-278231D01*
X-1485036Y-287070D01*
X-1489252Y-296722D01*
X-1491843Y-306984D01*
X-1492707Y-317500D01*
X-1491843Y-328015D01*
X-1489252Y-338277D01*
X-1485036Y-347929D01*
X-1479245Y-356768D01*
X-1472082Y-364591D01*
X-1464411Y-370535D01*
X-1462328Y-372770D01*
X-1460957Y-375513D01*
X-1460500Y-378561D01*
X-1460500Y-472033D01*
X-1461262Y-475945D01*
X-1463497Y-479247D01*
X-1536192Y-551942D01*
X-1539951Y-554329D01*
X-1544421Y-554837D01*
X-1548638Y-553415D01*
X-1551838Y-550316D01*
X-1556918Y-542544D01*
X-1567891Y-529234D01*
X-1580184Y-517245D01*
X-1593748Y-506679D01*
X-1608429Y-497687D01*
X-1623974Y-490321D01*
X-1640230Y-484733D01*
X-1657045Y-480974D01*
X-1674114Y-479094D01*
X-1691335Y-479094D01*
X-1708454Y-480974D01*
X-1725218Y-484733D01*
X-1741474Y-490321D01*
X-1757070Y-497687D01*
X-1771700Y-506679D01*
X-1785264Y-517245D01*
X-1797608Y-529234D01*
X-1808530Y-542544D01*
X-1817928Y-556920D01*
X-1822500Y-565912D01*
X-1824736Y-568858D01*
X-1827936Y-570839D01*
X-1831543Y-571500D01*
G37*

%LPC*%
G36*
X-1746605Y-396290D02*
G01*
X-1746605Y-317855D01*
X-1824939Y-317855D01*
X-1822043Y-324510D01*
X-1813458Y-339394D01*
X-1803247Y-353263D01*
X-1791614Y-365912D01*
X-1778660Y-377190D01*
X-1764487Y-386994D01*
X-1749399Y-395173D01*
G37*
G36*
X-1618894Y-396290D02*
G01*
X-1616100Y-395173D01*
X-1600962Y-386994D01*
X-1586839Y-377190D01*
X-1573885Y-365912D01*
X-1562201Y-353263D01*
X-1552041Y-339394D01*
X-1543405Y-324510D01*
X-1540510Y-317855D01*
X-1618894Y-317855D01*
G37*
G36*
X-1825142Y-190144D02*
G01*
X-1746605Y-190144D01*
X-1746605Y-111760D01*
X-1757070Y-116687D01*
X-1771700Y-125679D01*
X-1785264Y-136245D01*
X-1797608Y-148234D01*
X-1808530Y-161544D01*
X-1817928Y-175920D01*
G37*
G36*
X-1618894Y-190144D02*
G01*
X-1540306Y-190144D01*
X-1547520Y-175920D01*
X-1556918Y-161544D01*
X-1567891Y-148234D01*
X-1580184Y-136245D01*
X-1593748Y-125679D01*
X-1608429Y-116687D01*
X-1618894Y-111760D01*
G37*

%LPD*%
G36*
X450596Y-648563D02*
G01*
X446785Y-647750D01*
X443585Y-645515D01*
X441451Y-642264D01*
X440690Y-638454D01*
X440690Y-450799D01*
X441451Y-446938D01*
X443687Y-443636D01*
X562762Y-324561D01*
X566064Y-322326D01*
X569925Y-321564D01*
X700278Y-321564D01*
X704138Y-322326D01*
X707440Y-324510D01*
X709676Y-327812D01*
X710438Y-331673D01*
X710488Y-343154D01*
X711657Y-351383D01*
X714197Y-359003D01*
X718108Y-366064D01*
X723544Y-372618D01*
X778814Y-427888D01*
X781050Y-431190D01*
X781812Y-435051D01*
X781812Y-456641D01*
X781050Y-460552D01*
X778865Y-463804D01*
X775563Y-466039D01*
X771652Y-466801D01*
X767791Y-466039D01*
X764489Y-463854D01*
X733958Y-433476D01*
X727811Y-428447D01*
X721106Y-424891D01*
X713892Y-422706D01*
X705866Y-421893D01*
X693420Y-421893D01*
X690727Y-421538D01*
X688238Y-420471D01*
X681177Y-416204D01*
X677722Y-413766D01*
X669290Y-409803D01*
X660196Y-407365D01*
X650900Y-406552D01*
X641553Y-407365D01*
X632460Y-409803D01*
X623976Y-413766D01*
X616305Y-419150D01*
X609650Y-425805D01*
X604266Y-433476D01*
X600303Y-441959D01*
X597865Y-451053D01*
X597052Y-460400D01*
X597865Y-469696D01*
X599541Y-475996D01*
X599795Y-480212D01*
X598271Y-484174D01*
X595274Y-487172D01*
X591362Y-488645D01*
X587146Y-488442D01*
X580847Y-486765D01*
X571500Y-485952D01*
X562152Y-486765D01*
X553110Y-489204D01*
X544576Y-493166D01*
X536905Y-498551D01*
X530301Y-505155D01*
X524916Y-512826D01*
X520954Y-521360D01*
X518515Y-530402D01*
X517702Y-539750D01*
X518515Y-549097D01*
X520954Y-558139D01*
X524865Y-566623D01*
X527659Y-570585D01*
X531469Y-576986D01*
X532536Y-579475D01*
X532892Y-582168D01*
X532892Y-604672D01*
X532231Y-608330D01*
X530301Y-611479D01*
X527354Y-613714D01*
X523798Y-614781D01*
X520090Y-614476D01*
X517347Y-613765D01*
X508000Y-612952D01*
X498652Y-613765D01*
X489610Y-616204D01*
X481076Y-620166D01*
X473405Y-625551D01*
X466801Y-632155D01*
X461416Y-639826D01*
X460044Y-642721D01*
X457758Y-645871D01*
X454456Y-647954D01*
G37*

%LPD*%
G36*
X101803Y-766064D02*
G01*
X97942Y-765302D01*
X94640Y-763066D01*
X70866Y-739343D01*
X69392Y-737463D01*
X68376Y-735279D01*
X58724Y-705256D01*
X58216Y-702106D01*
X58216Y-581253D01*
X57607Y-574700D01*
X55829Y-568909D01*
X52984Y-563524D01*
X49123Y-558850D01*
X44450Y-554990D01*
X39065Y-552145D01*
X33274Y-550418D01*
X26771Y-549757D01*
X-4622Y-549757D01*
X-8026Y-549148D01*
X-30886Y-540969D01*
X-34645Y-538581D01*
X-70205Y-502970D01*
X-72440Y-499719D01*
X-73202Y-495808D01*
X-72440Y-491896D01*
X-70205Y-488645D01*
X-66903Y-486409D01*
X-63042Y-485648D01*
X153365Y-485648D01*
X157276Y-486409D01*
X160578Y-488645D01*
X196799Y-524865D01*
X199085Y-528370D01*
X201168Y-533806D01*
X203454Y-542290D01*
X207416Y-550773D01*
X212801Y-558444D01*
X214731Y-560425D01*
X216966Y-563727D01*
X217728Y-567639D01*
X217728Y-640283D01*
X258216Y-640283D01*
X258216Y-586028D01*
X259181Y-581761D01*
X261874Y-578256D01*
X265785Y-576224D01*
X272389Y-574446D01*
X280873Y-570484D01*
X289509Y-564337D01*
X293573Y-562660D01*
X297992Y-562813D01*
X301904Y-564845D01*
X304596Y-568350D01*
X305562Y-572668D01*
X305562Y-707999D01*
X304800Y-711860D01*
X302615Y-715162D01*
X275590Y-742238D01*
X272288Y-744474D01*
X268427Y-745236D01*
X264515Y-744474D01*
X261213Y-742289D01*
X259029Y-738987D01*
X258216Y-735076D01*
X258216Y-701243D01*
X217728Y-701243D01*
X217728Y-755904D01*
X216966Y-759815D01*
X214731Y-763066D01*
X211429Y-765302D01*
X207568Y-766064D01*
X166928Y-766064D01*
X163017Y-765302D01*
X159766Y-763066D01*
X157530Y-759815D01*
X156768Y-755904D01*
X156768Y-701243D01*
X116281Y-701243D01*
X116281Y-755904D01*
X115468Y-759815D01*
X113283Y-763066D01*
X109982Y-765302D01*
X106121Y-766064D01*
G37*

%LPC*%
G36*
X116281Y-640283D02*
G01*
X156768Y-640283D01*
X156768Y-549757D01*
X147726Y-549757D01*
X141224Y-550418D01*
X135382Y-552145D01*
X130048Y-554990D01*
X125374Y-558850D01*
X121513Y-563524D01*
X118668Y-568909D01*
X116890Y-574700D01*
X116281Y-581253D01*
G37*

%LPD*%
G36*
X1923135Y-808329D02*
G01*
X1916785Y-806907D01*
X1905000Y-806043D01*
X1892706Y-806958D01*
X1885899Y-807770D01*
X1881682Y-807415D01*
X1877923Y-805281D01*
X1875434Y-801878D01*
X1874520Y-797712D01*
X1874520Y-792480D01*
X1850593Y-792480D01*
X1846732Y-791718D01*
X1843430Y-789533D01*
X1704543Y-650697D01*
X1697837Y-645617D01*
X1690624Y-642061D01*
X1682902Y-639826D01*
X1674418Y-639064D01*
X1582369Y-639064D01*
X1578254Y-638200D01*
X1574850Y-635762D01*
X1572717Y-632206D01*
X1572209Y-628040D01*
X1573428Y-624078D01*
X1576120Y-620877D01*
X1581505Y-616712D01*
X1588363Y-609244D01*
X1593900Y-600760D01*
X1597964Y-591464D01*
X1600454Y-581609D01*
X1601317Y-571500D01*
X1600454Y-561390D01*
X1597964Y-551535D01*
X1593900Y-542239D01*
X1589278Y-535025D01*
X1584553Y-525068D01*
X1583588Y-520700D01*
X1583588Y-384149D01*
X1584350Y-380238D01*
X1586534Y-376936D01*
X1589836Y-374751D01*
X1593748Y-373989D01*
X1597609Y-374751D01*
X1600911Y-376936D01*
X1768093Y-544068D01*
X1774799Y-549097D01*
X1782013Y-552704D01*
X1789734Y-554939D01*
X1798218Y-555701D01*
X1823821Y-555701D01*
X1826920Y-556158D01*
X1829714Y-557580D01*
X1843684Y-567436D01*
X1846580Y-570687D01*
X1847900Y-574802D01*
X1847392Y-579120D01*
X1845106Y-582777D01*
X1842770Y-585216D01*
X1835912Y-594817D01*
X1830476Y-605332D01*
X1826666Y-616508D01*
X1824532Y-628142D01*
X1824075Y-639978D01*
X1825396Y-651713D01*
X1828393Y-663143D01*
X1833016Y-674014D01*
X1839163Y-684123D01*
X1846681Y-693115D01*
X1848459Y-696366D01*
X1849018Y-700024D01*
X1848205Y-703630D01*
X1846173Y-706678D01*
X1842770Y-710234D01*
X1835912Y-719836D01*
X1830476Y-730351D01*
X1830070Y-731520D01*
X1874520Y-731520D01*
X1874520Y-725830D01*
X1875434Y-721563D01*
X1878075Y-718108D01*
X1881886Y-716076D01*
X1886204Y-715772D01*
X1899107Y-717753D01*
X1910892Y-717753D01*
X1923796Y-715772D01*
X1928114Y-716076D01*
X1931924Y-718108D01*
X1934565Y-721563D01*
X1935480Y-725830D01*
X1935480Y-731520D01*
X1980692Y-731520D01*
X1984603Y-732282D01*
X1987854Y-734517D01*
X1990089Y-737819D01*
X1990852Y-741680D01*
X1990852Y-782320D01*
X1990089Y-786231D01*
X1987854Y-789533D01*
X1984603Y-791718D01*
X1980692Y-792480D01*
X1935480Y-792480D01*
X1935480Y-798423D01*
X1934464Y-802792D01*
X1931670Y-806348D01*
X1927606Y-808278D01*
G37*

%LPD*%
G36*
X-1416913Y-816864D02*
G01*
X-1420825Y-816102D01*
X-1424127Y-813866D01*
X-1522374Y-715619D01*
X-1524304Y-712978D01*
X-1525270Y-709828D01*
X-1534058Y-646582D01*
X-1533753Y-642264D01*
X-1531670Y-638505D01*
X-1528216Y-635914D01*
X-1524000Y-635000D01*
X-1493266Y-635000D01*
X-1491538Y-634288D01*
X-1397711Y-540461D01*
X-1397000Y-538734D01*
X-1397000Y53340D01*
X-1396238Y57251D01*
X-1394002Y60502D01*
X-1390751Y62738D01*
X-1386840Y63500D01*
X-1302410Y63500D01*
X-1298498Y62738D01*
X-1295196Y60502D01*
X-1288694Y54051D01*
X-1281023Y48666D01*
X-1272540Y44704D01*
X-1263446Y42265D01*
X-1254099Y41452D01*
X-1244803Y42265D01*
X-1235710Y44704D01*
X-1227226Y48666D01*
X-1219555Y54051D01*
X-1213053Y60502D01*
X-1209751Y62738D01*
X-1205839Y63500D01*
X-445871Y63500D01*
X-440943Y64668D01*
X-438048Y64973D01*
X-431901Y67005D01*
X-426313Y70205D01*
X-420979Y75082D01*
X-345998Y159461D01*
X-343154Y161696D01*
X-336804Y165049D01*
X-332130Y168859D01*
X-328269Y173583D01*
X-325424Y178917D01*
X-324408Y182321D01*
X-322275Y186131D01*
X-208534Y314096D01*
X-205079Y316585D01*
X-200914Y317500D01*
X-195173Y317500D01*
X-192633Y317195D01*
X-190246Y316230D01*
X-119227Y316230D01*
X-116839Y317195D01*
X-114300Y317500D01*
X-73660Y317500D01*
X-71120Y317195D01*
X-68783Y316230D01*
X2235Y316230D01*
X4622Y317195D01*
X7162Y317500D01*
X367436Y317500D01*
X371348Y316687D01*
X374700Y314452D01*
X376885Y311099D01*
X377596Y307187D01*
X376732Y303276D01*
X373684Y296316D01*
X371195Y286461D01*
X370382Y276352D01*
X371195Y266242D01*
X373684Y256387D01*
X377748Y247091D01*
X383336Y238607D01*
X390194Y231140D01*
X398221Y224942D01*
X407111Y220116D01*
X416712Y216814D01*
X426720Y215138D01*
X436880Y215138D01*
X446887Y216814D01*
X456488Y220116D01*
X465378Y224942D01*
X473405Y231140D01*
X480263Y238607D01*
X485851Y247091D01*
X489915Y256387D01*
X492404Y266242D01*
X493217Y276352D01*
X492404Y286461D01*
X489915Y296316D01*
X486867Y303276D01*
X486003Y307187D01*
X486714Y311099D01*
X488899Y314452D01*
X492251Y316687D01*
X496163Y317500D01*
X619048Y317500D01*
X623163Y316636D01*
X626516Y314198D01*
X628650Y310642D01*
X629208Y306476D01*
X627989Y302514D01*
X618286Y291744D01*
X612698Y283260D01*
X608634Y273964D01*
X606145Y264109D01*
X605332Y254000D01*
X606145Y243890D01*
X608634Y234035D01*
X612698Y224739D01*
X618286Y216255D01*
X625144Y208788D01*
X633171Y202590D01*
X642061Y197764D01*
X651662Y194462D01*
X657453Y193344D01*
X667969Y189585D01*
X671779Y187198D01*
X753872Y105105D01*
X756107Y101803D01*
X756869Y97891D01*
X756107Y94030D01*
X753872Y90728D01*
X750570Y88493D01*
X746709Y87731D01*
X724001Y87731D01*
X717448Y87071D01*
X711657Y85344D01*
X706323Y82499D01*
X701903Y79654D01*
X698500Y79044D01*
X695096Y79654D01*
X690676Y82499D01*
X685342Y85344D01*
X679551Y87071D01*
X672998Y87731D01*
X614019Y87731D01*
X607466Y87071D01*
X601675Y85344D01*
X596290Y82499D01*
X591616Y78638D01*
X587756Y73914D01*
X584911Y68580D01*
X583133Y62788D01*
X582523Y56235D01*
X582523Y7264D01*
X583133Y711D01*
X584911Y-5080D01*
X587756Y-10414D01*
X591616Y-15138D01*
X596290Y-18999D01*
X599389Y-20624D01*
X602234Y-22910D01*
X604113Y-26009D01*
X604774Y-29565D01*
X604774Y-31750D01*
X605586Y-39776D01*
X607771Y-46990D01*
X611327Y-53695D01*
X616458Y-59893D01*
X639114Y-82550D01*
X645312Y-87680D01*
X652018Y-91236D01*
X659231Y-93421D01*
X667258Y-94234D01*
X708050Y-94234D01*
X710742Y-94589D01*
X713232Y-95656D01*
X720293Y-99872D01*
X723595Y-102209D01*
X732078Y-106121D01*
X741121Y-108559D01*
X750468Y-109372D01*
X759815Y-108559D01*
X768858Y-106121D01*
X777392Y-102158D01*
X785063Y-96774D01*
X791667Y-90170D01*
X797052Y-82499D01*
X801014Y-73964D01*
X803452Y-64922D01*
X804265Y-55575D01*
X803452Y-46228D01*
X801014Y-37185D01*
X798118Y-30937D01*
X797204Y-26619D01*
X798169Y-22301D01*
X800912Y-18796D01*
X805383Y-15138D01*
X809091Y-10566D01*
X812647Y-7823D01*
X816965Y-6858D01*
X854862Y-6858D01*
X858723Y-7620D01*
X862025Y-9855D01*
X864260Y-13106D01*
X865022Y-17018D01*
X865022Y-22758D01*
X865632Y-29260D01*
X867410Y-35102D01*
X870254Y-40436D01*
X874115Y-45110D01*
X878789Y-48971D01*
X884174Y-51816D01*
X889965Y-53593D01*
X896518Y-54254D01*
X995476Y-54254D01*
X1002030Y-53593D01*
X1007821Y-51816D01*
X1011224Y-50038D01*
X1014323Y-48971D01*
X1017676Y-48971D01*
X1020775Y-50038D01*
X1024178Y-51816D01*
X1029969Y-53593D01*
X1036523Y-54254D01*
X1055522Y-54254D01*
X1055522Y1270D01*
X1037132Y1270D01*
X1033271Y2032D01*
X1029969Y4267D01*
X1027734Y7518D01*
X1026972Y11430D01*
X1026972Y52069D01*
X1027734Y55981D01*
X1029969Y59232D01*
X1033271Y61467D01*
X1037132Y62230D01*
X1055522Y62230D01*
X1055522Y73152D01*
X1056284Y77063D01*
X1058519Y80314D01*
X1061770Y82550D01*
X1065682Y83312D01*
X1106322Y83312D01*
X1110234Y82550D01*
X1113485Y80314D01*
X1115720Y77063D01*
X1116482Y73152D01*
X1116482Y62230D01*
X1166977Y62230D01*
X1166977Y73152D01*
X1167739Y77063D01*
X1169974Y80314D01*
X1173276Y82550D01*
X1177137Y83312D01*
X1184198Y83312D01*
X1188059Y82550D01*
X1191361Y80314D01*
X1202893Y68834D01*
X1205026Y65735D01*
X1205839Y62077D01*
X1205331Y58369D01*
X1203452Y55067D01*
X1200556Y52730D01*
X1198168Y51409D01*
X1190142Y45212D01*
X1183284Y37744D01*
X1177747Y29260D01*
X1173683Y19964D01*
X1170940Y8991D01*
X1168958Y4978D01*
X1165453Y2235D01*
X1161084Y1270D01*
X1116482Y1270D01*
X1116482Y-54254D01*
X1135481Y-54254D01*
X1142034Y-53593D01*
X1147826Y-51816D01*
X1153210Y-48971D01*
X1157884Y-45110D01*
X1161745Y-40436D01*
X1164132Y-35915D01*
X1166825Y-32715D01*
X1170584Y-30886D01*
X1174750Y-30683D01*
X1178661Y-32207D01*
X1181608Y-35153D01*
X1183284Y-37744D01*
X1190142Y-45212D01*
X1198168Y-51409D01*
X1207109Y-56235D01*
X1216710Y-59537D01*
X1226718Y-61214D01*
X1236827Y-61214D01*
X1246835Y-59537D01*
X1256436Y-56235D01*
X1259078Y-54864D01*
X1263040Y-53644D01*
X1267206Y-54152D01*
X1270762Y-56286D01*
X1273200Y-59690D01*
X1274064Y-63754D01*
X1274064Y-215900D01*
X1273302Y-219811D01*
X1271066Y-223113D01*
X1148080Y-345948D01*
X1144270Y-348335D01*
X1133703Y-352094D01*
X1127912Y-353212D01*
X1118311Y-356514D01*
X1109421Y-361340D01*
X1101394Y-367538D01*
X1094536Y-375005D01*
X1088948Y-383489D01*
X1084884Y-392785D01*
X1082395Y-402640D01*
X1082141Y-405993D01*
X1080820Y-410209D01*
X1077772Y-413461D01*
X1073658Y-415137D01*
X1064412Y-416712D01*
X1054811Y-420014D01*
X1045921Y-424840D01*
X1037894Y-431038D01*
X1031036Y-438505D01*
X1025448Y-446989D01*
X1021384Y-456285D01*
X1018895Y-466140D01*
X1018641Y-469392D01*
X1017524Y-473201D01*
X1015034Y-476300D01*
X1011580Y-478231D01*
X1007618Y-478688D01*
X1000150Y-478028D01*
X990803Y-478840D01*
X981710Y-481279D01*
X973226Y-485241D01*
X965555Y-490626D01*
X958900Y-497230D01*
X953516Y-504901D01*
X952042Y-508050D01*
X949756Y-511200D01*
X946454Y-513283D01*
X942594Y-513943D01*
X938784Y-513080D01*
X935583Y-510895D01*
X933450Y-507593D01*
X932687Y-503783D01*
X932637Y-379323D01*
X931468Y-370992D01*
X928928Y-363372D01*
X925017Y-356311D01*
X919581Y-349758D01*
X890320Y-320548D01*
X888644Y-318363D01*
X886206Y-314045D01*
X885240Y-311658D01*
X884021Y-307035D01*
X879297Y-296824D01*
X877620Y-292100D01*
X877062Y-288696D01*
X877011Y-236728D01*
X875893Y-228396D01*
X873353Y-220725D01*
X869442Y-213715D01*
X864057Y-207111D01*
X823417Y-166319D01*
X816711Y-161290D01*
X809498Y-157683D01*
X801776Y-155448D01*
X793292Y-154686D01*
X531977Y-154686D01*
X524256Y-155549D01*
X520598Y-155397D01*
X517245Y-153974D01*
X514604Y-151434D01*
X513029Y-148132D01*
X510946Y-140360D01*
X506984Y-131826D01*
X501599Y-124155D01*
X494944Y-117551D01*
X487273Y-112166D01*
X478790Y-108204D01*
X469696Y-105765D01*
X460400Y-104952D01*
X451053Y-105765D01*
X441959Y-108204D01*
X433476Y-112166D01*
X425805Y-117551D01*
X419150Y-124155D01*
X413766Y-131826D01*
X409803Y-140360D01*
X407365Y-149402D01*
X406552Y-158750D01*
X407365Y-168097D01*
X409803Y-177139D01*
X413766Y-185674D01*
X419150Y-193344D01*
X425805Y-199948D01*
X433476Y-205333D01*
X440537Y-208635D01*
X443687Y-210921D01*
X445719Y-214223D01*
X446379Y-218033D01*
X445617Y-221843D01*
X443433Y-225044D01*
X317195Y-351332D01*
X312166Y-358038D01*
X308559Y-365252D01*
X306324Y-372973D01*
X305562Y-381457D01*
X305562Y-475081D01*
X304596Y-479399D01*
X301904Y-482904D01*
X297992Y-484936D01*
X293573Y-485089D01*
X289509Y-483412D01*
X280873Y-477266D01*
X272389Y-473303D01*
X262890Y-470712D01*
X258470Y-468985D01*
X255016Y-466699D01*
X204063Y-415747D01*
X197459Y-410311D01*
X190347Y-406552D01*
X182626Y-404215D01*
X174142Y-403352D01*
X-261924Y-403352D01*
X-265988Y-402488D01*
X-272542Y-399389D01*
X-274726Y-397916D01*
X-283210Y-393954D01*
X-292303Y-391515D01*
X-301599Y-390702D01*
X-310946Y-391515D01*
X-320040Y-393954D01*
X-328676Y-397967D01*
X-332333Y-398932D01*
X-336092Y-398424D01*
X-339445Y-396595D01*
X-341884Y-393700D01*
X-344982Y-388061D01*
X-350418Y-381508D01*
X-387654Y-344322D01*
X-389280Y-342138D01*
X-391718Y-337870D01*
X-392684Y-335483D01*
X-393954Y-330860D01*
X-397916Y-322326D01*
X-403301Y-314655D01*
X-409905Y-308051D01*
X-417576Y-302666D01*
X-426110Y-298704D01*
X-435152Y-296265D01*
X-444500Y-295452D01*
X-453847Y-296265D01*
X-462889Y-298704D01*
X-471424Y-302666D01*
X-479094Y-308051D01*
X-485698Y-314655D01*
X-491083Y-322326D01*
X-495046Y-330860D01*
X-497484Y-339902D01*
X-498297Y-349250D01*
X-497484Y-358597D01*
X-495046Y-367639D01*
X-491083Y-376174D01*
X-482650Y-388010D01*
X-481888Y-391922D01*
X-482650Y-395782D01*
X-484835Y-399084D01*
X-488137Y-401269D01*
X-492048Y-402082D01*
X-504240Y-402082D01*
X-510793Y-402691D01*
X-516585Y-404469D01*
X-521919Y-407314D01*
X-526643Y-411175D01*
X-533603Y-419760D01*
X-537565Y-421589D01*
X-541934Y-421589D01*
X-545896Y-419760D01*
X-552856Y-411175D01*
X-557580Y-407314D01*
X-562914Y-404469D01*
X-568706Y-402691D01*
X-575259Y-402082D01*
X-655116Y-402082D01*
X-658571Y-402234D01*
X-662736Y-402945D01*
X-693521Y-410108D01*
X-697839Y-410209D01*
X-701802Y-408432D01*
X-704697Y-405180D01*
X-705967Y-401015D01*
X-705358Y-396697D01*
X-703021Y-393039D01*
X-687019Y-377037D01*
X-680364Y-369265D01*
X-676097Y-362458D01*
X-675132Y-360578D01*
X-672033Y-353110D01*
X-669594Y-343306D01*
X-669290Y-341172D01*
X-668782Y-333044D01*
X-668782Y-317703D01*
X-668985Y-312420D01*
X-669645Y-307390D01*
X-670661Y-302412D01*
X-672134Y-297535D01*
X-673963Y-292811D01*
X-676198Y-288239D01*
X-678789Y-283870D01*
X-681736Y-279755D01*
X-685038Y-275894D01*
X-688644Y-272288D01*
X-692505Y-268986D01*
X-696620Y-266039D01*
X-700989Y-263448D01*
X-705561Y-261213D01*
X-710285Y-259384D01*
X-715162Y-257911D01*
X-720140Y-256895D01*
X-725170Y-256235D01*
X-730453Y-256032D01*
X-777544Y-256032D01*
X-785672Y-256540D01*
X-787806Y-256844D01*
X-797610Y-259283D01*
X-805078Y-262382D01*
X-806958Y-263347D01*
X-813765Y-267614D01*
X-821537Y-274269D01*
X-852881Y-305562D01*
X-858266Y-311658D01*
X-863803Y-320192D01*
X-864768Y-322072D01*
X-867816Y-329488D01*
X-868476Y-331520D01*
X-870305Y-339344D01*
X-870610Y-341426D01*
X-871067Y-349554D01*
X-871067Y-364896D01*
X-870864Y-370179D01*
X-870254Y-375259D01*
X-869187Y-380187D01*
X-867765Y-385064D01*
X-865886Y-389788D01*
X-863701Y-394360D01*
X-861060Y-398729D01*
X-858113Y-402894D01*
X-854862Y-406755D01*
X-851255Y-410362D01*
X-847394Y-413613D01*
X-843229Y-416559D01*
X-838860Y-419201D01*
X-834288Y-421385D01*
X-829564Y-423265D01*
X-824687Y-424688D01*
X-819759Y-425754D01*
X-815035Y-426313D01*
X-810768Y-427888D01*
X-807618Y-431088D01*
X-806196Y-435305D01*
X-806704Y-439775D01*
X-809091Y-443585D01*
X-852525Y-487019D01*
X-855980Y-490829D01*
X-858977Y-494690D01*
X-861618Y-498856D01*
X-863904Y-503224D01*
X-865784Y-507746D01*
X-867257Y-512470D01*
X-868324Y-517245D01*
X-869137Y-522325D01*
X-882345Y-567588D01*
X-883564Y-573684D01*
X-883767Y-576986D01*
X-883767Y-734364D01*
X-884478Y-738124D01*
X-886561Y-741375D01*
X-927760Y-784148D01*
X-931519Y-786587D01*
X-935990Y-787196D01*
X-940257Y-785825D01*
X-943508Y-782675D01*
X-945134Y-778459D01*
X-944727Y-773988D01*
X-942390Y-766673D01*
X-941781Y-760222D01*
X-941781Y-581253D01*
X-942390Y-574700D01*
X-944168Y-568909D01*
X-947013Y-563524D01*
X-950874Y-558850D01*
X-955548Y-554990D01*
X-960932Y-552145D01*
X-966724Y-550418D01*
X-973277Y-549757D01*
X-1052271Y-549757D01*
X-1058773Y-550418D01*
X-1064615Y-552145D01*
X-1069949Y-554990D01*
X-1074623Y-558850D01*
X-1078484Y-563524D01*
X-1081328Y-568909D01*
X-1083056Y-574649D01*
X-1083767Y-582777D01*
X-1084630Y-586079D01*
X-1086561Y-588924D01*
X-1089355Y-590956D01*
X-1134110Y-613359D01*
X-1138682Y-614426D01*
X-1151991Y-614629D01*
X-1156868Y-615289D01*
X-1161643Y-616356D01*
X-1166368Y-617829D01*
X-1170889Y-619709D01*
X-1175258Y-621995D01*
X-1179423Y-624636D01*
X-1183284Y-627634D01*
X-1187094Y-631088D01*
X-1277975Y-721969D01*
X-1281430Y-725779D01*
X-1284427Y-729640D01*
X-1287068Y-733806D01*
X-1289354Y-738174D01*
X-1291234Y-742696D01*
X-1292707Y-747420D01*
X-1293774Y-752195D01*
X-1294434Y-757072D01*
X-1294638Y-762000D01*
X-1294434Y-766927D01*
X-1293774Y-771804D01*
X-1292707Y-776579D01*
X-1291234Y-781304D01*
X-1289354Y-785825D01*
X-1287068Y-790194D01*
X-1284427Y-794359D01*
X-1279956Y-799846D01*
X-1277924Y-803148D01*
X-1277315Y-807008D01*
X-1278178Y-810818D01*
X-1280363Y-813968D01*
X-1283665Y-816102D01*
X-1287475Y-816864D01*
G37*

%LPC*%
G36*
X-1222146Y-299618D02*
G01*
X-1174953Y-299618D01*
X-1169670Y-299364D01*
X-1164640Y-298754D01*
X-1159662Y-297688D01*
X-1154785Y-296265D01*
X-1150061Y-294386D01*
X-1145489Y-292201D01*
X-1141120Y-289560D01*
X-1137005Y-286613D01*
X-1133144Y-283362D01*
X-1129538Y-279755D01*
X-1126236Y-275894D01*
X-1123289Y-271729D01*
X-1120698Y-267360D01*
X-1118463Y-262788D01*
X-1116634Y-258064D01*
X-1115161Y-253187D01*
X-1114145Y-248259D01*
X-1113485Y-243179D01*
X-1113282Y-237896D01*
X-1113282Y-190703D01*
X-1113485Y-185420D01*
X-1114145Y-180390D01*
X-1115161Y-175412D01*
X-1116634Y-170535D01*
X-1118463Y-165811D01*
X-1120698Y-161239D01*
X-1123289Y-156870D01*
X-1126236Y-152755D01*
X-1129538Y-148894D01*
X-1133144Y-145288D01*
X-1137005Y-141986D01*
X-1141120Y-139039D01*
X-1145489Y-136448D01*
X-1150061Y-134213D01*
X-1154785Y-132384D01*
X-1159662Y-130911D01*
X-1164640Y-129895D01*
X-1169670Y-129235D01*
X-1174953Y-129032D01*
X-1222146Y-129032D01*
X-1227429Y-129235D01*
X-1232509Y-129895D01*
X-1237437Y-130911D01*
X-1242314Y-132384D01*
X-1247038Y-134213D01*
X-1251610Y-136448D01*
X-1255979Y-139039D01*
X-1260144Y-141986D01*
X-1264005Y-145288D01*
X-1267612Y-148894D01*
X-1270863Y-152755D01*
X-1273810Y-156870D01*
X-1276451Y-161239D01*
X-1278636Y-165811D01*
X-1280515Y-170535D01*
X-1281938Y-175412D01*
X-1283004Y-180390D01*
X-1283614Y-185420D01*
X-1283817Y-190703D01*
X-1283817Y-237896D01*
X-1283614Y-243179D01*
X-1283004Y-248259D01*
X-1281938Y-253187D01*
X-1280515Y-258064D01*
X-1278636Y-262788D01*
X-1276451Y-267360D01*
X-1273810Y-271729D01*
X-1270863Y-275894D01*
X-1267612Y-279755D01*
X-1264005Y-283362D01*
X-1260144Y-286613D01*
X-1255979Y-289560D01*
X-1251610Y-292201D01*
X-1247038Y-294386D01*
X-1242314Y-296265D01*
X-1237437Y-297688D01*
X-1232509Y-298754D01*
X-1227429Y-299364D01*
G37*
G36*
X-63500Y159766D02*
G01*
X-34493Y159766D01*
X-27990Y160426D01*
X-22148Y162153D01*
X-16814Y165049D01*
X-12141Y168859D01*
X-8280Y173583D01*
X-5435Y178917D01*
X-3657Y184708D01*
X-2997Y191262D01*
X-2997Y255270D01*
X-63500Y255270D01*
G37*
G36*
X-153517Y159766D02*
G01*
X-124460Y159766D01*
X-124460Y255270D01*
X-185013Y255270D01*
X-185013Y191262D01*
X-184353Y184708D01*
X-182575Y178917D01*
X-179730Y173583D01*
X-175869Y168859D01*
X-171196Y165049D01*
X-165862Y162153D01*
X-160020Y160426D01*
G37*

%LPD*%
G36*
X-183946Y-924814D02*
G01*
X-187807Y-924052D01*
X-191109Y-921816D01*
X-203098Y-909878D01*
X-205384Y-906271D01*
X-206044Y-902055D01*
X-204876Y-897940D01*
X-202133Y-894689D01*
X-198272Y-892810D01*
X-191414Y-891184D01*
X-181406Y-887018D01*
X-172161Y-881380D01*
X-163931Y-874318D01*
X-156870Y-866089D01*
X-151231Y-856843D01*
X-147066Y-846836D01*
X-144526Y-836320D01*
X-143713Y-825500D01*
X-144526Y-814679D01*
X-147116Y-804011D01*
X-147269Y-800150D01*
X-142138Y-765657D01*
X-141782Y-760374D01*
X-141782Y-581253D01*
X-141427Y-576326D01*
X-139395Y-572719D01*
X-136093Y-570230D01*
X-132080Y-569264D01*
X-128016Y-569976D01*
X-124561Y-572211D01*
X-95453Y-601319D01*
X-93929Y-603250D01*
X-92964Y-605434D01*
X-84226Y-632561D01*
X-83718Y-635660D01*
X-83718Y-760222D01*
X-83108Y-766775D01*
X-81330Y-772566D01*
X-78486Y-777951D01*
X-74625Y-782624D01*
X-69951Y-786485D01*
X-64617Y-789330D01*
X-58775Y-791057D01*
X-52273Y-791718D01*
X-17018Y-791718D01*
X-13157Y-792480D01*
X7823Y-801014D01*
X11176Y-803249D01*
X49834Y-841806D01*
X56540Y-846836D01*
X63754Y-850442D01*
X71475Y-852678D01*
X79959Y-853440D01*
X235000Y-853440D01*
X238861Y-854202D01*
X242163Y-856437D01*
X244398Y-859688D01*
X245160Y-863600D01*
X244398Y-867511D01*
X242163Y-870762D01*
X191109Y-921816D01*
X187807Y-924052D01*
X183946Y-924814D01*
G37*

%LPD*%
G36*
X1796237Y-968248D02*
G01*
X1792376Y-967486D01*
X1789074Y-965250D01*
X1567586Y-743762D01*
X1565351Y-740460D01*
X1564589Y-736600D01*
X1565351Y-732688D01*
X1567586Y-729437D01*
X1570837Y-727202D01*
X1574749Y-726440D01*
X1652574Y-726440D01*
X1656435Y-727202D01*
X1659737Y-729437D01*
X1812391Y-882040D01*
X1814372Y-884783D01*
X1830476Y-918108D01*
X1833016Y-924001D01*
X1839163Y-934110D01*
X1845564Y-941781D01*
X1847494Y-945438D01*
X1847799Y-949604D01*
X1846427Y-953516D01*
X1843582Y-956564D01*
X1829714Y-966368D01*
X1826971Y-967790D01*
X1823872Y-968248D01*
G37*

%LPD*%
G36*
X-532180Y-1273403D02*
G01*
X-536194Y-1272438D01*
X-539496Y-1269949D01*
X-541528Y-1266342D01*
X-541985Y-1262227D01*
X-541782Y-1260246D01*
X-541782Y-1081227D01*
X-542391Y-1074724D01*
X-544169Y-1068882D01*
X-547014Y-1063548D01*
X-550875Y-1058875D01*
X-556056Y-1054608D01*
X-626618Y-1007871D01*
X-628192Y-1006602D01*
X-659688Y-975055D01*
X-661924Y-971753D01*
X-662686Y-967841D01*
X-662686Y-932332D01*
X-660298Y-801674D01*
X-659434Y-797864D01*
X-657250Y-794613D01*
X-653948Y-792480D01*
X-650138Y-791718D01*
X-573176Y-791718D01*
X-566724Y-791057D01*
X-560933Y-789330D01*
X-555548Y-786485D01*
X-550875Y-782624D01*
X-547014Y-777951D01*
X-543864Y-773430D01*
X-540766Y-771550D01*
X-537159Y-770890D01*
X-513283Y-770890D01*
X-503021Y-769975D01*
X-493064Y-767334D01*
X-488543Y-767130D01*
X-484428Y-768959D01*
X-481482Y-772363D01*
X-478485Y-777951D01*
X-474624Y-782624D01*
X-469950Y-786485D01*
X-464616Y-789330D01*
X-458774Y-791057D01*
X-452272Y-791718D01*
X-373278Y-791718D01*
X-368147Y-792124D01*
X-364540Y-794207D01*
X-362051Y-797610D01*
X-361188Y-801725D01*
X-361137Y-858926D01*
X-359968Y-867257D01*
X-357428Y-874877D01*
X-353517Y-881938D01*
X-348081Y-888492D01*
X-280517Y-956005D01*
X-278282Y-959459D01*
X-277571Y-963472D01*
X-278485Y-967486D01*
X-280974Y-970787D01*
X-284530Y-972819D01*
X-288594Y-973328D01*
X-292557Y-972108D01*
X-300736Y-967689D01*
X-310337Y-964387D01*
X-320344Y-962710D01*
X-330504Y-962710D01*
X-340512Y-964387D01*
X-350113Y-967689D01*
X-359003Y-972515D01*
X-367030Y-978763D01*
X-373888Y-986231D01*
X-379476Y-994714D01*
X-383540Y-1004011D01*
X-386029Y-1013815D01*
X-386842Y-1023975D01*
X-386029Y-1034084D01*
X-385267Y-1037082D01*
X-385013Y-1040739D01*
X-386080Y-1044295D01*
X-388366Y-1047191D01*
X-391464Y-1049070D01*
X-395122Y-1049731D01*
X-452272Y-1049731D01*
X-458774Y-1050391D01*
X-464616Y-1052169D01*
X-469950Y-1055014D01*
X-474624Y-1058875D01*
X-478485Y-1063548D01*
X-481330Y-1068882D01*
X-483108Y-1074724D01*
X-483768Y-1081227D01*
X-483768Y-1207312D01*
X-484174Y-1210157D01*
X-485343Y-1212799D01*
X-517855Y-1263294D01*
X-519226Y-1264970D01*
X-524662Y-1270406D01*
X-528116Y-1272692D01*
G37*

%LPD*%
G36*
X-134213Y-1327404D02*
G01*
X-138074Y-1327048D01*
X-141478Y-1325321D01*
X-144018Y-1322374D01*
X-145288Y-1318768D01*
X-145135Y-1314907D01*
X-144526Y-1312570D01*
X-143713Y-1301750D01*
X-144526Y-1290929D01*
X-145745Y-1286002D01*
X-145745Y-1281328D01*
X-142443Y-1267104D01*
X-141782Y-1260246D01*
X-141782Y-1081227D01*
X-142392Y-1074724D01*
X-144170Y-1068882D01*
X-147015Y-1063548D01*
X-150876Y-1058875D01*
X-155549Y-1055014D01*
X-160934Y-1052169D01*
X-166725Y-1050391D01*
X-173278Y-1049731D01*
X-252272Y-1049731D01*
X-254812Y-1049985D01*
X-258673Y-1049629D01*
X-262128Y-1047851D01*
X-264668Y-1044905D01*
X-265887Y-1041247D01*
X-265684Y-1037386D01*
X-264820Y-1034084D01*
X-264007Y-1023975D01*
X-264820Y-1013815D01*
X-267309Y-1004011D01*
X-271373Y-994714D01*
X-273558Y-991412D01*
X-275082Y-987450D01*
X-274878Y-983234D01*
X-272948Y-979474D01*
X-269646Y-976833D01*
X-265582Y-975715D01*
X-261416Y-976376D01*
X-257860Y-978662D01*
X-235915Y-1000556D01*
X-229209Y-1005586D01*
X-221996Y-1009192D01*
X-214274Y-1011428D01*
X-205790Y-1012190D01*
X-69799Y-1012190D01*
X-65938Y-1012952D01*
X-62636Y-1015187D01*
X-59385Y-1018438D01*
X-57150Y-1021740D01*
X-56388Y-1025601D01*
X-56388Y-1032916D01*
X-57454Y-1037488D01*
X-63449Y-1049426D01*
X-65227Y-1051966D01*
X-69951Y-1055014D01*
X-74625Y-1058875D01*
X-78486Y-1063548D01*
X-81330Y-1068882D01*
X-83108Y-1074724D01*
X-83718Y-1081227D01*
X-83718Y-1260246D01*
X-83108Y-1266748D01*
X-81330Y-1272590D01*
X-78486Y-1277924D01*
X-74625Y-1282598D01*
X-69951Y-1286459D01*
X-64617Y-1289304D01*
X-58775Y-1291082D01*
X-52273Y-1291742D01*
X26771Y-1291742D01*
X33274Y-1291082D01*
X39065Y-1289304D01*
X44450Y-1286459D01*
X49123Y-1282598D01*
X52984Y-1277924D01*
X55829Y-1272590D01*
X57607Y-1266748D01*
X58216Y-1260246D01*
X58216Y-1081227D01*
X57607Y-1074724D01*
X55829Y-1068882D01*
X52984Y-1063548D01*
X49123Y-1058875D01*
X44450Y-1055014D01*
X39878Y-1052017D01*
X38100Y-1049477D01*
X32816Y-1039012D01*
X31800Y-1034948D01*
X32461Y-1030833D01*
X34747Y-1027277D01*
X46888Y-1015187D01*
X50190Y-1012952D01*
X54051Y-1012190D01*
X207924Y-1012139D01*
X216255Y-1010970D01*
X223875Y-1008430D01*
X230936Y-1004519D01*
X237490Y-999083D01*
X396443Y-840130D01*
X399694Y-837895D01*
X403606Y-837133D01*
X407517Y-837895D01*
X410768Y-840130D01*
X413004Y-843432D01*
X413766Y-847293D01*
X413766Y-892657D01*
X413004Y-896569D01*
X410768Y-899871D01*
X290576Y-1020114D01*
X285445Y-1026312D01*
X281889Y-1033018D01*
X279704Y-1040231D01*
X278892Y-1048258D01*
X278892Y-1281531D01*
X278130Y-1285443D01*
X275894Y-1288745D01*
X240995Y-1323644D01*
X237693Y-1325880D01*
X233781Y-1326642D01*
X-126492Y-1326642D01*
G37*

%LPC*%
G36*
X217728Y-1291742D02*
G01*
X226771Y-1291742D01*
X233273Y-1291082D01*
X239064Y-1289304D01*
X244449Y-1286459D01*
X249123Y-1282598D01*
X252984Y-1277924D01*
X255828Y-1272590D01*
X257606Y-1266748D01*
X258216Y-1260246D01*
X258216Y-1201216D01*
X217728Y-1201216D01*
G37*
G36*
X147726Y-1291742D02*
G01*
X156768Y-1291742D01*
X156768Y-1201216D01*
X116281Y-1201216D01*
X116281Y-1260246D01*
X116890Y-1266748D01*
X118668Y-1272590D01*
X121513Y-1277924D01*
X125374Y-1282598D01*
X130048Y-1286459D01*
X135382Y-1289304D01*
X141224Y-1291082D01*
G37*
G36*
X116281Y-1140256D02*
G01*
X156768Y-1140256D01*
X156768Y-1049731D01*
X147726Y-1049731D01*
X141224Y-1050391D01*
X135382Y-1052169D01*
X130048Y-1055014D01*
X125374Y-1058875D01*
X121513Y-1063548D01*
X118668Y-1068882D01*
X116890Y-1074724D01*
X116281Y-1081227D01*
G37*
G36*
X217728Y-1140256D02*
G01*
X258216Y-1140256D01*
X258216Y-1081227D01*
X257606Y-1074724D01*
X255828Y-1068882D01*
X252984Y-1063548D01*
X249123Y-1058875D01*
X244449Y-1055014D01*
X239064Y-1052169D01*
X233273Y-1050391D01*
X226771Y-1049731D01*
X217728Y-1049731D01*
G37*

%LPD*%
G36*
X297637Y-1399133D02*
G01*
X293471Y-1397558D01*
X290423Y-1394307D01*
X289001Y-1390091D01*
X289560Y-1385671D01*
X291947Y-1381912D01*
X344424Y-1329385D01*
X349554Y-1323187D01*
X353110Y-1316482D01*
X355295Y-1309268D01*
X356108Y-1301242D01*
X356108Y-1067968D01*
X356870Y-1064056D01*
X359105Y-1060754D01*
X376326Y-1043482D01*
X379882Y-1041196D01*
X384048Y-1040536D01*
X388162Y-1041653D01*
X391414Y-1044295D01*
X393344Y-1048054D01*
X393954Y-1050290D01*
X397916Y-1058773D01*
X403301Y-1066444D01*
X409905Y-1073099D01*
X417576Y-1078484D01*
X426110Y-1082446D01*
X435152Y-1084884D01*
X444500Y-1085697D01*
X453847Y-1084884D01*
X462889Y-1082446D01*
X471424Y-1078484D01*
X479094Y-1073099D01*
X485698Y-1066444D01*
X491083Y-1058773D01*
X495046Y-1050290D01*
X497687Y-1040739D01*
X499414Y-1036370D01*
X501700Y-1032865D01*
X544677Y-989888D01*
X550113Y-983234D01*
X553923Y-976172D01*
X556260Y-968451D01*
X557123Y-959916D01*
X557123Y-801725D01*
X557936Y-797661D01*
X561035Y-791057D01*
X562559Y-788924D01*
X566521Y-780389D01*
X568960Y-771347D01*
X570128Y-756716D01*
X572160Y-753160D01*
X575462Y-750671D01*
X579475Y-749757D01*
X583539Y-750468D01*
X586943Y-752703D01*
X655116Y-820724D01*
X661314Y-825804D01*
X668020Y-829360D01*
X675233Y-831545D01*
X683260Y-832358D01*
X733907Y-832358D01*
X737819Y-833119D01*
X741121Y-835355D01*
X871270Y-965504D01*
X873506Y-968806D01*
X874268Y-972718D01*
X874268Y-977950D01*
X873353Y-982167D01*
X870813Y-985621D01*
X867054Y-987704D01*
X860958Y-989533D01*
X855624Y-992378D01*
X850950Y-996238D01*
X847090Y-1000912D01*
X844245Y-1006297D01*
X842467Y-1012088D01*
X841806Y-1018641D01*
X841806Y-1213358D01*
X841044Y-1217269D01*
X838860Y-1220520D01*
X835558Y-1222756D01*
X831646Y-1223518D01*
X675132Y-1223518D01*
X667105Y-1224330D01*
X659892Y-1226515D01*
X653186Y-1230071D01*
X646988Y-1235202D01*
X580796Y-1301343D01*
X577240Y-1303680D01*
X573074Y-1304340D01*
X568960Y-1303223D01*
X565708Y-1300581D01*
X563778Y-1296771D01*
X563575Y-1292555D01*
X565099Y-1288643D01*
X568553Y-1283360D01*
X572617Y-1274064D01*
X575106Y-1264259D01*
X575919Y-1254150D01*
X575106Y-1243990D01*
X572617Y-1234186D01*
X568553Y-1224889D01*
X562965Y-1216406D01*
X556107Y-1208938D01*
X548081Y-1202690D01*
X539191Y-1197864D01*
X529590Y-1194562D01*
X519582Y-1192885D01*
X509422Y-1192885D01*
X499414Y-1194562D01*
X489813Y-1197864D01*
X480923Y-1202690D01*
X472897Y-1208938D01*
X466039Y-1216406D01*
X460451Y-1224889D01*
X456387Y-1234186D01*
X453898Y-1243990D01*
X453085Y-1254150D01*
X453898Y-1264259D01*
X456387Y-1274064D01*
X460451Y-1283360D01*
X466039Y-1291844D01*
X472897Y-1299311D01*
X480923Y-1305560D01*
X489813Y-1310386D01*
X499414Y-1313688D01*
X509422Y-1315364D01*
X519582Y-1315364D01*
X529590Y-1313688D01*
X539191Y-1310386D01*
X548894Y-1305102D01*
X552805Y-1303934D01*
X556920Y-1304391D01*
X560476Y-1306423D01*
X562965Y-1309725D01*
X563880Y-1313738D01*
X563168Y-1317802D01*
X560933Y-1321206D01*
X487121Y-1395018D01*
X483819Y-1397254D01*
X479907Y-1398016D01*
X310134Y-1398016D01*
G37*

%LPD*%
G36*
X-295910Y-1612392D02*
G01*
X-299974Y-1611579D01*
X-303326Y-1609191D01*
X-305460Y-1605635D01*
X-306070Y-1601571D01*
X-304952Y-1597609D01*
X-302361Y-1594358D01*
X-297738Y-1590548D01*
X-113995Y-1406855D01*
X-110693Y-1404620D01*
X-106781Y-1403858D01*
X253492Y-1403858D01*
X265988Y-1402740D01*
X270154Y-1404315D01*
X273202Y-1407566D01*
X274624Y-1411782D01*
X274066Y-1416202D01*
X271678Y-1419961D01*
X82245Y-1609394D01*
X78943Y-1611630D01*
X75031Y-1612392D01*
G37*

%LPD*%
G36*
X-1473809Y-2010613D02*
G01*
X-1492656Y-2009851D01*
X-1509064Y-2007870D01*
X-1525270Y-2004618D01*
X-1541170Y-2000097D01*
X-1556664Y-1994357D01*
X-1571650Y-1987397D01*
X-1586077Y-1979269D01*
X-1599793Y-1970074D01*
X-1612747Y-1959813D01*
X-1615998Y-1956816D01*
X-1618386Y-1953412D01*
X-1619250Y-1949348D01*
X-1619250Y-1855368D01*
X-1618335Y-1851101D01*
X-1615694Y-1847646D01*
X-1611833Y-1845614D01*
X-1607464Y-1845360D01*
X-1586280Y-1848815D01*
X-1562150Y-1850745D01*
X-1537868Y-1850745D01*
X-1513738Y-1848815D01*
X-1489811Y-1844903D01*
X-1466291Y-1839112D01*
X-1443278Y-1831441D01*
X-1420977Y-1821942D01*
X-1399540Y-1810664D01*
X-1379016Y-1797710D01*
X-1359662Y-1783130D01*
X-1341526Y-1767078D01*
X-1324711Y-1749602D01*
X-1309370Y-1730806D01*
X-1295603Y-1710893D01*
X-1283512Y-1689862D01*
X-1273098Y-1667967D01*
X-1267256Y-1652574D01*
X-1265072Y-1649120D01*
X-1261770Y-1646834D01*
X-1257757Y-1646021D01*
X-1217269Y-1646021D01*
X-1217269Y-1569313D01*
X-1221282Y-1569313D01*
X-1227836Y-1569923D01*
X-1238656Y-1573428D01*
X-1242872Y-1572818D01*
X-1246479Y-1570583D01*
X-1248816Y-1567027D01*
X-1249527Y-1562862D01*
X-1249019Y-1550009D01*
X-1249984Y-1525778D01*
X-1252931Y-1501749D01*
X-1257757Y-1477975D01*
X-1264513Y-1454708D01*
X-1273098Y-1432052D01*
X-1283512Y-1410157D01*
X-1295603Y-1389126D01*
X-1309370Y-1369212D01*
X-1324711Y-1350416D01*
X-1341526Y-1332941D01*
X-1359662Y-1316888D01*
X-1379016Y-1302308D01*
X-1399540Y-1289354D01*
X-1420977Y-1278077D01*
X-1443278Y-1268577D01*
X-1466291Y-1260906D01*
X-1489811Y-1255115D01*
X-1513738Y-1251204D01*
X-1537868Y-1249273D01*
X-1562150Y-1249273D01*
X-1586280Y-1251204D01*
X-1610207Y-1255115D01*
X-1633728Y-1260906D01*
X-1656740Y-1268577D01*
X-1679041Y-1278077D01*
X-1691030Y-1284376D01*
X-1694992Y-1285494D01*
X-1699107Y-1284986D01*
X-1702663Y-1282852D01*
X-1705051Y-1279448D01*
X-1708099Y-1272489D01*
X-1713636Y-1264005D01*
X-1720494Y-1256538D01*
X-1728520Y-1250340D01*
X-1737461Y-1245514D01*
X-1747062Y-1242212D01*
X-1757070Y-1240536D01*
X-1767179Y-1240536D01*
X-1777187Y-1242212D01*
X-1786788Y-1245514D01*
X-1795729Y-1250340D01*
X-1803755Y-1256538D01*
X-1810613Y-1264005D01*
X-1816150Y-1272489D01*
X-1820214Y-1281785D01*
X-1822704Y-1291640D01*
X-1823008Y-1294993D01*
X-1824329Y-1299210D01*
X-1827326Y-1302461D01*
X-1831441Y-1304137D01*
X-1840687Y-1305712D01*
X-1850288Y-1309014D01*
X-1862124Y-1315212D01*
X-1866392Y-1315974D01*
X-1870608Y-1314958D01*
X-1874012Y-1312214D01*
X-1875942Y-1308354D01*
X-1878634Y-1297686D01*
X-1882698Y-1288389D01*
X-1888286Y-1279906D01*
X-1895144Y-1272438D01*
X-1903171Y-1266190D01*
X-1912061Y-1261364D01*
X-1921662Y-1258062D01*
X-1931670Y-1256385D01*
X-1941830Y-1256385D01*
X-1951837Y-1258062D01*
X-1961438Y-1261364D01*
X-1970328Y-1266190D01*
X-1978355Y-1272438D01*
X-1985213Y-1279906D01*
X-1993392Y-1292402D01*
X-1996693Y-1294536D01*
X-2000554Y-1295247D01*
X-2004415Y-1294434D01*
X-2007666Y-1292250D01*
X-2009851Y-1288948D01*
X-2010613Y-1285087D01*
X-2010613Y-645160D01*
X-2009800Y-641248D01*
X-2007616Y-637997D01*
X-2004314Y-635762D01*
X-2000453Y-635000D01*
X-1838299Y-635000D01*
X-1834540Y-635711D01*
X-1831339Y-637794D01*
X-1829104Y-640892D01*
X-1828190Y-644601D01*
X-1827784Y-651357D01*
X-1825040Y-667461D01*
X-1820519Y-683209D01*
X-1814271Y-698347D01*
X-1806346Y-712673D01*
X-1796846Y-726033D01*
X-1785975Y-738225D01*
X-1773732Y-749147D01*
X-1760423Y-758596D01*
X-1746046Y-766521D01*
X-1730959Y-772769D01*
X-1715211Y-777290D01*
X-1698955Y-780084D01*
X-1694180Y-780491D01*
X-1607921Y-792480D01*
X-1604772Y-793445D01*
X-1602130Y-795375D01*
X-1484528Y-912977D01*
X-1480718Y-916432D01*
X-1476857Y-919429D01*
X-1472692Y-922070D01*
X-1468323Y-924356D01*
X-1463802Y-926236D01*
X-1459077Y-927709D01*
X-1454302Y-928776D01*
X-1449425Y-929436D01*
X-1446123Y-929538D01*
X-1442364Y-930452D01*
X-1439164Y-932738D01*
X-1437081Y-936040D01*
X-1436420Y-939850D01*
X-1437233Y-943660D01*
X-1439367Y-946912D01*
X-1449120Y-956614D01*
X-1452422Y-958850D01*
X-1456334Y-959612D01*
X-1512366Y-959612D01*
X-1515618Y-959103D01*
X-1518513Y-957580D01*
X-1588008Y-905052D01*
X-1591665Y-901903D01*
X-1605076Y-892403D01*
X-1619402Y-884478D01*
X-1634540Y-878230D01*
X-1650238Y-873658D01*
X-1666392Y-870915D01*
X-1682750Y-870000D01*
X-1699056Y-870915D01*
X-1715211Y-873658D01*
X-1730959Y-878230D01*
X-1746046Y-884478D01*
X-1760423Y-892403D01*
X-1773732Y-901852D01*
X-1785975Y-912774D01*
X-1796846Y-924966D01*
X-1806346Y-938326D01*
X-1814271Y-952652D01*
X-1820519Y-967790D01*
X-1825040Y-983487D01*
X-1827784Y-999642D01*
X-1828698Y-1016000D01*
X-1827784Y-1032306D01*
X-1825040Y-1048461D01*
X-1820519Y-1064209D01*
X-1814271Y-1079347D01*
X-1806346Y-1093673D01*
X-1796846Y-1106982D01*
X-1785975Y-1119225D01*
X-1773732Y-1130096D01*
X-1760423Y-1139596D01*
X-1746046Y-1147521D01*
X-1730959Y-1153769D01*
X-1715211Y-1158290D01*
X-1699056Y-1161034D01*
X-1682750Y-1161948D01*
X-1666392Y-1161034D01*
X-1650238Y-1158290D01*
X-1634540Y-1153769D01*
X-1619402Y-1147521D01*
X-1605076Y-1139596D01*
X-1591614Y-1130046D01*
X-1587957Y-1126998D01*
X-1518462Y-1074420D01*
X-1515567Y-1072896D01*
X-1512366Y-1072388D01*
X-1428953Y-1072388D01*
X-1423822Y-1072184D01*
X-1418945Y-1071524D01*
X-1414170Y-1070457D01*
X-1409446Y-1068984D01*
X-1404924Y-1067104D01*
X-1400556Y-1064818D01*
X-1396390Y-1062177D01*
X-1392529Y-1059180D01*
X-1388719Y-1055725D01*
X-1376629Y-1043635D01*
X-1373327Y-1041400D01*
X-1369415Y-1040637D01*
X-1281328Y-1040637D01*
X-1277518Y-1041400D01*
X-1274267Y-1043533D01*
X-1272032Y-1046734D01*
X-1271219Y-1050544D01*
X-1271828Y-1054404D01*
X-1273911Y-1057706D01*
X-1277061Y-1059992D01*
X-1282293Y-1062431D01*
X-1290370Y-1068070D01*
X-1297279Y-1075029D01*
X-1302918Y-1083056D01*
X-1307084Y-1091996D01*
X-1309624Y-1101445D01*
X-1310487Y-1111250D01*
X-1309624Y-1121054D01*
X-1307084Y-1130503D01*
X-1302918Y-1139444D01*
X-1297279Y-1147470D01*
X-1290370Y-1154430D01*
X-1282293Y-1160068D01*
X-1273403Y-1164183D01*
X-1263904Y-1166723D01*
X-1253693Y-1167638D01*
X-1202334Y-1167638D01*
X-1198422Y-1168400D01*
X-1195120Y-1170635D01*
X-1155344Y-1210411D01*
X-1151534Y-1213866D01*
X-1147673Y-1216863D01*
X-1143508Y-1219504D01*
X-1139139Y-1221790D01*
X-1134618Y-1223670D01*
X-1127252Y-1225753D01*
X-1124204Y-1226972D01*
X-1088593Y-1248613D01*
X-1086002Y-1250899D01*
X-1084326Y-1253896D01*
X-1083716Y-1257300D01*
X-1083716Y-1260246D01*
X-1083106Y-1266748D01*
X-1081328Y-1272590D01*
X-1078484Y-1277924D01*
X-1074623Y-1282598D01*
X-1069949Y-1286459D01*
X-1064615Y-1289304D01*
X-1061059Y-1290421D01*
X-1057960Y-1291945D01*
X-1055573Y-1294434D01*
X-1054150Y-1297584D01*
X-1053134Y-1311097D01*
X-1050696Y-1320139D01*
X-1046734Y-1328674D01*
X-1041349Y-1336344D01*
X-1034694Y-1342948D01*
X-1031798Y-1345031D01*
X-1029106Y-1347825D01*
X-1027633Y-1351432D01*
X-1027633Y-1355293D01*
X-1029106Y-1358900D01*
X-1031798Y-1361694D01*
X-1034694Y-1363726D01*
X-1041349Y-1370380D01*
X-1046734Y-1378051D01*
X-1050696Y-1386535D01*
X-1053134Y-1395628D01*
X-1053947Y-1404975D01*
X-1053134Y-1414272D01*
X-1050696Y-1423365D01*
X-1046734Y-1431848D01*
X-1041349Y-1439519D01*
X-1034694Y-1446174D01*
X-1027023Y-1451559D01*
X-1013714Y-1457655D01*
X-1007719Y-1462735D01*
X-1000709Y-1468018D01*
X-993038Y-1471828D01*
X-984859Y-1474165D01*
X-975918Y-1474978D01*
X-944676Y-1474978D01*
X-942594Y-1475181D01*
X-901090Y-1484071D01*
X-894130Y-1484731D01*
X-835101Y-1484731D01*
X-828598Y-1484071D01*
X-822807Y-1482344D01*
X-817422Y-1479499D01*
X-813053Y-1476654D01*
X-809599Y-1476044D01*
X-806196Y-1476654D01*
X-801827Y-1479499D01*
X-796442Y-1482344D01*
X-790651Y-1484071D01*
X-784148Y-1484731D01*
X-724865Y-1484731D01*
X-717905Y-1484020D01*
X-676706Y-1475181D01*
X-674573Y-1474978D01*
X-667359Y-1475028D01*
X-662533Y-1475638D01*
X-659434Y-1476502D01*
X-653389Y-1479296D01*
X-644347Y-1481734D01*
X-635000Y-1482547D01*
X-625652Y-1481734D01*
X-616610Y-1479296D01*
X-608076Y-1475333D01*
X-600405Y-1469948D01*
X-593801Y-1463344D01*
X-588416Y-1455674D01*
X-584454Y-1447139D01*
X-582015Y-1438097D01*
X-581202Y-1428750D01*
X-582015Y-1419402D01*
X-584454Y-1410360D01*
X-587248Y-1404366D01*
X-588162Y-1400403D01*
X-587502Y-1396390D01*
X-585317Y-1392986D01*
X-582015Y-1390700D01*
X-578002Y-1389888D01*
X-508203Y-1389888D01*
X-503072Y-1389684D01*
X-498195Y-1389024D01*
X-493420Y-1387957D01*
X-488696Y-1386484D01*
X-484174Y-1384604D01*
X-479806Y-1382318D01*
X-475640Y-1379677D01*
X-471779Y-1376680D01*
X-467969Y-1373225D01*
X-428040Y-1333296D01*
X-426364Y-1331925D01*
X-356463Y-1287119D01*
X-350875Y-1282598D01*
X-346913Y-1277721D01*
X-343916Y-1271981D01*
X-342188Y-1265631D01*
X-341782Y-1260348D01*
X-341782Y-1095298D01*
X-340969Y-1091387D01*
X-338785Y-1088085D01*
X-335483Y-1085900D01*
X-331571Y-1085138D01*
X-320344Y-1085189D01*
X-310337Y-1083513D01*
X-300736Y-1080211D01*
X-298754Y-1079144D01*
X-294741Y-1077925D01*
X-290626Y-1078433D01*
X-287020Y-1080566D01*
X-284581Y-1083970D01*
X-283718Y-1088034D01*
X-283718Y-1260449D01*
X-283565Y-1263904D01*
X-282905Y-1267968D01*
X-279755Y-1281480D01*
X-279806Y-1286154D01*
X-280974Y-1290929D01*
X-281787Y-1301750D01*
X-280974Y-1312570D01*
X-278434Y-1323086D01*
X-274269Y-1333093D01*
X-268630Y-1342339D01*
X-261569Y-1350568D01*
X-253339Y-1357630D01*
X-244094Y-1363268D01*
X-234086Y-1367434D01*
X-223570Y-1369974D01*
X-212445Y-1370787D01*
X-208381Y-1371295D01*
X-204825Y-1373378D01*
X-202387Y-1376680D01*
X-201472Y-1380642D01*
X-202184Y-1384655D01*
X-204419Y-1388110D01*
X-338378Y-1522018D01*
X-341680Y-1524254D01*
X-345592Y-1525016D01*
X-690118Y-1525016D01*
X-698144Y-1525828D01*
X-705256Y-1527962D01*
X-710692Y-1531010D01*
X-713181Y-1532026D01*
X-723696Y-1534515D01*
X-732790Y-1536954D01*
X-741273Y-1540916D01*
X-748944Y-1546301D01*
X-755599Y-1552905D01*
X-760984Y-1560576D01*
X-764946Y-1569110D01*
X-765759Y-1572056D01*
X-767537Y-1575663D01*
X-770585Y-1578305D01*
X-774446Y-1579524D01*
X-778459Y-1579168D01*
X-782015Y-1577289D01*
X-785317Y-1574546D01*
X-790702Y-1571701D01*
X-796493Y-1569923D01*
X-803046Y-1569313D01*
X-807059Y-1569313D01*
X-807059Y-1646021D01*
X-771550Y-1646021D01*
X-771550Y-1630680D01*
X-770788Y-1626768D01*
X-768553Y-1623466D01*
X-765251Y-1621282D01*
X-761390Y-1620520D01*
X-757478Y-1621282D01*
X-754176Y-1623466D01*
X-748944Y-1628698D01*
X-741273Y-1634083D01*
X-732790Y-1638046D01*
X-723696Y-1640484D01*
X-714349Y-1641297D01*
X-705053Y-1640484D01*
X-701294Y-1639468D01*
X-697636Y-1639214D01*
X-694080Y-1640230D01*
X-691134Y-1642516D01*
X-689203Y-1645666D01*
X-688492Y-1649323D01*
X-688492Y-1729232D01*
X-689305Y-1733143D01*
X-691489Y-1736394D01*
X-694791Y-1738630D01*
X-698652Y-1739392D01*
X-761390Y-1739392D01*
X-765251Y-1738630D01*
X-768553Y-1736394D01*
X-770788Y-1733143D01*
X-771550Y-1729232D01*
X-771550Y-1706981D01*
X-807059Y-1706981D01*
X-807059Y-1729232D01*
X-807821Y-1733143D01*
X-810006Y-1736394D01*
X-813308Y-1738630D01*
X-817219Y-1739392D01*
X-857859Y-1739392D01*
X-861720Y-1738630D01*
X-865022Y-1736394D01*
X-867257Y-1733143D01*
X-868019Y-1729232D01*
X-868019Y-1706981D01*
X-895654Y-1706981D01*
X-899515Y-1706168D01*
X-902817Y-1703984D01*
X-905002Y-1700682D01*
X-905814Y-1696821D01*
X-905814Y-1656181D01*
X-905002Y-1652270D01*
X-902817Y-1648968D01*
X-899515Y-1646783D01*
X-895654Y-1646021D01*
X-868019Y-1646021D01*
X-868019Y-1569313D01*
X-872032Y-1569313D01*
X-878586Y-1569923D01*
X-884377Y-1571701D01*
X-889711Y-1574546D01*
X-894384Y-1578406D01*
X-896823Y-1581302D01*
X-900328Y-1584045D01*
X-904646Y-1585061D01*
X-909015Y-1584045D01*
X-912520Y-1581302D01*
X-914908Y-1578406D01*
X-919581Y-1574546D01*
X-924915Y-1571701D01*
X-930757Y-1569923D01*
X-937260Y-1569313D01*
X-1006297Y-1569313D01*
X-1012799Y-1569923D01*
X-1018641Y-1571701D01*
X-1023975Y-1574546D01*
X-1028649Y-1578406D01*
X-1032510Y-1583080D01*
X-1035354Y-1588465D01*
X-1037132Y-1594256D01*
X-1037742Y-1600809D01*
X-1037742Y-1752193D01*
X-1037132Y-1758746D01*
X-1035354Y-1764538D01*
X-1032510Y-1769872D01*
X-1028649Y-1774545D01*
X-1023975Y-1778406D01*
X-1018641Y-1781251D01*
X-1012799Y-1783029D01*
X-1006297Y-1783689D01*
X-967994Y-1783689D01*
X-963980Y-1784502D01*
X-960628Y-1786839D01*
X-958494Y-1790344D01*
X-957834Y-1794357D01*
X-958900Y-1798320D01*
X-961390Y-1801571D01*
X-969568Y-1808530D01*
X-976630Y-1816760D01*
X-982268Y-1826006D01*
X-986434Y-1836013D01*
X-988974Y-1846580D01*
X-989787Y-1857400D01*
X-988974Y-1868170D01*
X-986434Y-1878736D01*
X-982268Y-1888743D01*
X-981506Y-1890014D01*
X-980084Y-1894078D01*
X-980440Y-1898294D01*
X-982522Y-1902053D01*
X-985977Y-1904593D01*
X-990142Y-1905507D01*
X-1006297Y-1905507D01*
X-1012799Y-1906117D01*
X-1018641Y-1907895D01*
X-1023975Y-1910740D01*
X-1028649Y-1914601D01*
X-1032510Y-1919274D01*
X-1035354Y-1924659D01*
X-1037132Y-1930450D01*
X-1037793Y-1936953D01*
X-1037793Y-2000453D01*
X-1038555Y-2004314D01*
X-1040739Y-2007616D01*
X-1044041Y-2009800D01*
X-1047953Y-2010613D01*
G37*

%LPC*%
G36*
X-1252778Y-1976018D02*
G01*
X-1217269Y-1976018D01*
X-1217269Y-1905507D01*
X-1221282Y-1905507D01*
X-1227836Y-1906117D01*
X-1233627Y-1907895D01*
X-1238961Y-1910740D01*
X-1243685Y-1914601D01*
X-1247495Y-1919274D01*
X-1250391Y-1924659D01*
X-1252118Y-1930450D01*
X-1252778Y-1936953D01*
G37*
G36*
X-1156309Y-1976018D02*
G01*
X-1120800Y-1976018D01*
X-1120800Y-1936953D01*
X-1121460Y-1930450D01*
X-1123188Y-1924659D01*
X-1126083Y-1919274D01*
X-1129893Y-1914601D01*
X-1134618Y-1910740D01*
X-1139952Y-1907895D01*
X-1145743Y-1906117D01*
X-1152296Y-1905507D01*
X-1156309Y-1905507D01*
G37*
G36*
X-1270000Y-1894687D02*
G01*
X-1259179Y-1893824D01*
X-1248664Y-1891284D01*
X-1238656Y-1887169D01*
X-1229410Y-1881479D01*
X-1221181Y-1874469D01*
X-1214120Y-1866239D01*
X-1208481Y-1856993D01*
X-1204315Y-1846986D01*
X-1201775Y-1836420D01*
X-1200962Y-1825650D01*
X-1201775Y-1814830D01*
X-1204315Y-1804263D01*
X-1208481Y-1794256D01*
X-1216609Y-1781149D01*
X-1217269Y-1777644D01*
X-1217269Y-1706981D01*
X-1252778Y-1706981D01*
X-1252778Y-1746910D01*
X-1253642Y-1751025D01*
X-1256030Y-1754378D01*
X-1259586Y-1756511D01*
X-1263700Y-1757070D01*
X-1270000Y-1756562D01*
X-1280820Y-1757425D01*
X-1291336Y-1759966D01*
X-1301343Y-1764080D01*
X-1310589Y-1769770D01*
X-1318818Y-1776780D01*
X-1325880Y-1785010D01*
X-1331518Y-1794256D01*
X-1335684Y-1804263D01*
X-1338224Y-1814830D01*
X-1339037Y-1825650D01*
X-1338224Y-1836420D01*
X-1335684Y-1846986D01*
X-1331518Y-1856993D01*
X-1325880Y-1866239D01*
X-1318818Y-1874469D01*
X-1310589Y-1881479D01*
X-1301343Y-1887169D01*
X-1291336Y-1891284D01*
X-1280820Y-1893824D01*
G37*
G36*
X-1156309Y-1783689D02*
G01*
X-1152296Y-1783689D01*
X-1145743Y-1783029D01*
X-1139952Y-1781251D01*
X-1134567Y-1778406D01*
X-1129893Y-1774545D01*
X-1126032Y-1769872D01*
X-1123188Y-1764538D01*
X-1121410Y-1758746D01*
X-1120800Y-1752193D01*
X-1120800Y-1706981D01*
X-1156309Y-1706981D01*
G37*
G36*
X-1156309Y-1646021D02*
G01*
X-1120800Y-1646021D01*
X-1120800Y-1600809D01*
X-1121410Y-1594256D01*
X-1123188Y-1588465D01*
X-1126032Y-1583080D01*
X-1129893Y-1578406D01*
X-1134567Y-1574546D01*
X-1139952Y-1571701D01*
X-1145743Y-1569923D01*
X-1152296Y-1569313D01*
X-1156309Y-1569313D01*
G37*

%LPD*%
G36*
X-895654Y-2010613D02*
G01*
X-899515Y-2009800D01*
X-902817Y-2007616D01*
X-905002Y-2004314D01*
X-905814Y-2000453D01*
X-905814Y-1986178D01*
X-905002Y-1982266D01*
X-902817Y-1978964D01*
X-899515Y-1976780D01*
X-895654Y-1976018D01*
X-868019Y-1976018D01*
X-868019Y-1905406D01*
X-867410Y-1901850D01*
X-859231Y-1888743D01*
X-855065Y-1878736D01*
X-852525Y-1868170D01*
X-851712Y-1857400D01*
X-852525Y-1846580D01*
X-855065Y-1836013D01*
X-857300Y-1830679D01*
X-858062Y-1826768D01*
X-857300Y-1822856D01*
X-855116Y-1819605D01*
X-851814Y-1817370D01*
X-847902Y-1816607D01*
X-540258Y-1816607D01*
X-532231Y-1815795D01*
X-525018Y-1813610D01*
X-518312Y-1810054D01*
X-512114Y-1804924D01*
X-463245Y-1756105D01*
X-459943Y-1753870D01*
X-456031Y-1753107D01*
X94742Y-1753107D01*
X102768Y-1752295D01*
X109982Y-1750110D01*
X116687Y-1746554D01*
X122885Y-1741424D01*
X330504Y-1533855D01*
X333806Y-1531620D01*
X337718Y-1530858D01*
X387096Y-1530858D01*
X391007Y-1531620D01*
X394309Y-1533855D01*
X396494Y-1537106D01*
X397256Y-1541018D01*
X397256Y-1708657D01*
X398018Y-1715617D01*
X406857Y-1756867D01*
X407060Y-1758950D01*
X407111Y-1797710D01*
X406349Y-1801622D01*
X404164Y-1804924D01*
X400862Y-1807108D01*
X396951Y-1807870D01*
X373735Y-1807870D01*
X373735Y-1933397D01*
X434238Y-1933397D01*
X434238Y-1904746D01*
X435101Y-1900631D01*
X437540Y-1897227D01*
X441147Y-1895093D01*
X445312Y-1894586D01*
X453288Y-1895297D01*
X462635Y-1894484D01*
X471678Y-1892046D01*
X480212Y-1888083D01*
X487883Y-1882698D01*
X497738Y-1872742D01*
X501345Y-1871268D01*
X505206Y-1871268D01*
X508812Y-1872742D01*
X518718Y-1882698D01*
X526389Y-1888083D01*
X534873Y-1892046D01*
X543966Y-1894484D01*
X553313Y-1895297D01*
X562610Y-1894484D01*
X571703Y-1892046D01*
X580186Y-1888083D01*
X587857Y-1882698D01*
X597763Y-1872742D01*
X601370Y-1871268D01*
X605231Y-1871268D01*
X608838Y-1872742D01*
X618693Y-1882698D01*
X626364Y-1888083D01*
X634898Y-1892046D01*
X643940Y-1894484D01*
X653288Y-1895297D01*
X662635Y-1894484D01*
X671677Y-1892046D01*
X680212Y-1888083D01*
X687882Y-1882698D01*
X697738Y-1872742D01*
X701344Y-1871268D01*
X705205Y-1871268D01*
X708812Y-1872742D01*
X718718Y-1882698D01*
X726389Y-1888083D01*
X734872Y-1892046D01*
X743966Y-1894484D01*
X753313Y-1895297D01*
X761238Y-1894636D01*
X765403Y-1895093D01*
X768959Y-1897227D01*
X771398Y-1900631D01*
X772261Y-1904746D01*
X772261Y-1933397D01*
X832764Y-1933397D01*
X832764Y-1807870D01*
X809752Y-1807870D01*
X805840Y-1807108D01*
X802589Y-1804924D01*
X800354Y-1801622D01*
X799592Y-1797710D01*
X799592Y-1758899D01*
X799795Y-1756765D01*
X808634Y-1715109D01*
X809244Y-1708607D01*
X809244Y-1539392D01*
X808583Y-1532839D01*
X806856Y-1527048D01*
X803960Y-1521714D01*
X800150Y-1516989D01*
X795426Y-1513128D01*
X790092Y-1510284D01*
X784301Y-1508556D01*
X777748Y-1507896D01*
X728776Y-1507896D01*
X722223Y-1508556D01*
X716432Y-1510284D01*
X711047Y-1513128D01*
X706678Y-1515973D01*
X703275Y-1516583D01*
X699820Y-1515973D01*
X695452Y-1513128D01*
X690118Y-1510284D01*
X687171Y-1507947D01*
X685292Y-1504645D01*
X684733Y-1500936D01*
X685596Y-1497279D01*
X687730Y-1494129D01*
X830630Y-1351229D01*
X833932Y-1348994D01*
X837844Y-1348232D01*
X866648Y-1348232D01*
X870356Y-1348943D01*
X873506Y-1350924D01*
X875792Y-1353972D01*
X876757Y-1357579D01*
X876350Y-1361338D01*
X875080Y-1365605D01*
X874725Y-1368806D01*
X873607Y-1372616D01*
X871067Y-1375664D01*
X867562Y-1377543D01*
X860958Y-1379524D01*
X855624Y-1382420D01*
X850950Y-1386230D01*
X847090Y-1390954D01*
X844245Y-1396288D01*
X842467Y-1402080D01*
X841806Y-1408633D01*
X841806Y-1607616D01*
X842467Y-1614170D01*
X844245Y-1619961D01*
X847090Y-1625295D01*
X850950Y-1630019D01*
X855624Y-1633829D01*
X860958Y-1636725D01*
X866800Y-1638452D01*
X873302Y-1639112D01*
X952296Y-1639112D01*
X958850Y-1638452D01*
X964641Y-1636725D01*
X970889Y-1633372D01*
X973226Y-1632457D01*
X976934Y-1632153D01*
X979424Y-1632457D01*
X981760Y-1633372D01*
X987958Y-1636725D01*
X993800Y-1638452D01*
X1000302Y-1639112D01*
X1079296Y-1639112D01*
X1085850Y-1638452D01*
X1091641Y-1636725D01*
X1097889Y-1633372D01*
X1100226Y-1632457D01*
X1103934Y-1632153D01*
X1106424Y-1632457D01*
X1108760Y-1633372D01*
X1114958Y-1636725D01*
X1120800Y-1638452D01*
X1127302Y-1639112D01*
X1136345Y-1639112D01*
X1136345Y-1538630D01*
X1120952Y-1538630D01*
X1117092Y-1537817D01*
X1113790Y-1535633D01*
X1111554Y-1532331D01*
X1110792Y-1528470D01*
X1110792Y-1487830D01*
X1111554Y-1483918D01*
X1113790Y-1480616D01*
X1117092Y-1478432D01*
X1120952Y-1477670D01*
X1136345Y-1477670D01*
X1136345Y-1390142D01*
X1137107Y-1386230D01*
X1139291Y-1382979D01*
X1142593Y-1380744D01*
X1146505Y-1379982D01*
X1174242Y-1379982D01*
X1182268Y-1379169D01*
X1184198Y-1378610D01*
X1187907Y-1378204D01*
X1191564Y-1379169D01*
X1194612Y-1381455D01*
X1196594Y-1384655D01*
X1197305Y-1388313D01*
X1197305Y-1477670D01*
X1238300Y-1477670D01*
X1237792Y-1475282D01*
X1237792Y-1408633D01*
X1237132Y-1402080D01*
X1235405Y-1396288D01*
X1232560Y-1390954D01*
X1228699Y-1386230D01*
X1224026Y-1382420D01*
X1218641Y-1379524D01*
X1213815Y-1378051D01*
X1210157Y-1376070D01*
X1207617Y-1372768D01*
X1206601Y-1368755D01*
X1207262Y-1364640D01*
X1209548Y-1361186D01*
X1273048Y-1297635D01*
X1278178Y-1291437D01*
X1281734Y-1284732D01*
X1283919Y-1277518D01*
X1284732Y-1269492D01*
X1284732Y-984758D01*
X1283919Y-976731D01*
X1281734Y-969518D01*
X1278178Y-962812D01*
X1273048Y-956614D01*
X1107744Y-791260D01*
X1105560Y-788009D01*
X1104798Y-784098D01*
X1105560Y-780186D01*
X1107744Y-776935D01*
X1111046Y-774700D01*
X1114958Y-773938D01*
X1469948Y-773938D01*
X1473809Y-774700D01*
X1477111Y-776935D01*
X1560576Y-860348D01*
X1562658Y-863447D01*
X1563522Y-867105D01*
X1562963Y-870813D01*
X1561134Y-874115D01*
X1558188Y-876452D01*
X1553921Y-878789D01*
X1545894Y-885037D01*
X1536242Y-895299D01*
X1532636Y-896874D01*
X1528724Y-896924D01*
X1525066Y-895451D01*
X1522222Y-892759D01*
X1517599Y-886155D01*
X1510944Y-879551D01*
X1503273Y-874166D01*
X1494790Y-870203D01*
X1485696Y-867765D01*
X1476400Y-866952D01*
X1467053Y-867765D01*
X1457960Y-870203D01*
X1449476Y-874166D01*
X1441805Y-879551D01*
X1435150Y-886155D01*
X1429766Y-893826D01*
X1425803Y-902360D01*
X1423365Y-911402D01*
X1422552Y-920750D01*
X1423365Y-930097D01*
X1424787Y-935380D01*
X1425041Y-939546D01*
X1423517Y-943508D01*
X1420571Y-946505D01*
X1416659Y-948029D01*
X1413662Y-948537D01*
X1404061Y-951839D01*
X1395171Y-956665D01*
X1387144Y-962863D01*
X1380286Y-970330D01*
X1374698Y-978814D01*
X1370634Y-988110D01*
X1368145Y-997966D01*
X1367332Y-1008075D01*
X1368145Y-1018184D01*
X1370634Y-1028039D01*
X1374698Y-1037336D01*
X1380286Y-1045819D01*
X1387144Y-1053287D01*
X1395171Y-1059484D01*
X1404061Y-1064310D01*
X1413662Y-1067612D01*
X1423670Y-1069289D01*
X1433830Y-1069289D01*
X1443837Y-1067612D01*
X1453438Y-1064310D01*
X1462328Y-1059484D01*
X1470355Y-1053287D01*
X1477213Y-1045819D01*
X1482801Y-1037336D01*
X1486865Y-1028039D01*
X1489354Y-1018184D01*
X1489557Y-1015644D01*
X1490573Y-1011986D01*
X1492910Y-1008938D01*
X1496161Y-1006957D01*
X1499971Y-1006348D01*
X1503680Y-1007160D01*
X1506880Y-1009294D01*
X1663192Y-1165656D01*
X1669846Y-1171092D01*
X1676907Y-1174851D01*
X1684629Y-1177188D01*
X1693164Y-1178052D01*
X1813966Y-1178052D01*
X1817624Y-1178712D01*
X1820773Y-1180693D01*
X1823059Y-1183640D01*
X1824075Y-1187196D01*
X1824634Y-1193038D01*
X1826412Y-1198829D01*
X1829257Y-1204214D01*
X1833118Y-1208887D01*
X1837791Y-1212748D01*
X1843176Y-1215593D01*
X1848967Y-1217371D01*
X1855520Y-1217980D01*
X1954479Y-1217980D01*
X1961032Y-1217371D01*
X1966823Y-1215593D01*
X1972208Y-1212748D01*
X1976882Y-1208887D01*
X1980742Y-1204214D01*
X1983587Y-1198829D01*
X1985365Y-1193038D01*
X1985975Y-1186484D01*
X1985975Y-1183284D01*
X1986635Y-1179677D01*
X1988515Y-1176578D01*
X1991360Y-1174343D01*
X1995627Y-1172006D01*
X1999640Y-1170838D01*
X2003755Y-1171397D01*
X2007311Y-1173530D01*
X2009749Y-1176934D01*
X2010613Y-1180998D01*
X2010613Y-1473809D01*
X2009851Y-1492656D01*
X2007870Y-1509064D01*
X2004618Y-1525270D01*
X2000097Y-1541170D01*
X1994357Y-1556664D01*
X1987397Y-1571650D01*
X1979269Y-1586077D01*
X1970074Y-1599793D01*
X1959813Y-1612747D01*
X1947570Y-1626006D01*
X1626006Y-1947570D01*
X1612138Y-1960321D01*
X1599133Y-1970532D01*
X1585366Y-1979675D01*
X1570939Y-1987753D01*
X1555902Y-1994662D01*
X1540408Y-2000351D01*
X1524508Y-2004771D01*
X1508252Y-2007971D01*
X1491843Y-2009902D01*
X1473809Y-2010613D01*
X964387Y-2010613D01*
X960526Y-2009800D01*
X957224Y-2007616D01*
X955040Y-2004314D01*
X954227Y-2000453D01*
X954227Y-1994357D01*
X893724Y-1994357D01*
X893724Y-2000453D01*
X892962Y-2004314D01*
X890778Y-2007616D01*
X887476Y-2009800D01*
X883564Y-2010613D01*
X842924Y-2010613D01*
X839063Y-2009800D01*
X835761Y-2007616D01*
X833577Y-2004314D01*
X832764Y-2000453D01*
X832764Y-1994357D01*
X772261Y-1994357D01*
X772261Y-2000453D01*
X771499Y-2004314D01*
X769315Y-2007616D01*
X766013Y-2009800D01*
X762101Y-2010613D01*
X444398Y-2010613D01*
X440537Y-2009800D01*
X437235Y-2007616D01*
X435000Y-2004314D01*
X434238Y-2000453D01*
X434238Y-1994357D01*
X373735Y-1994357D01*
X373735Y-2000453D01*
X372973Y-2004314D01*
X370738Y-2007616D01*
X367487Y-2009800D01*
X363575Y-2010613D01*
X322935Y-2010613D01*
X319024Y-2009800D01*
X315772Y-2007616D01*
X313537Y-2004314D01*
X312775Y-2000453D01*
X312775Y-1994357D01*
X252272Y-1994357D01*
X252272Y-2000453D01*
X251510Y-2004314D01*
X249275Y-2007616D01*
X245973Y-2009800D01*
X242112Y-2010613D01*
X124663Y-2010613D01*
X120599Y-2009749D01*
X117246Y-2007362D01*
X115112Y-2003856D01*
X114554Y-1999742D01*
X115671Y-1995779D01*
X118262Y-1992528D01*
X121513Y-1989937D01*
X130302Y-1980488D01*
X137718Y-1969973D01*
X143662Y-1958492D01*
X147980Y-1946351D01*
X150622Y-1933752D01*
X151485Y-1920900D01*
X150622Y-1907997D01*
X147980Y-1895398D01*
X143662Y-1883257D01*
X137718Y-1871776D01*
X130302Y-1861261D01*
X121513Y-1851812D01*
X111506Y-1843684D01*
X100482Y-1836978D01*
X88646Y-1831848D01*
X76250Y-1828393D01*
X63449Y-1826615D01*
X50596Y-1826615D01*
X37795Y-1828393D01*
X25400Y-1831848D01*
X13563Y-1836978D01*
X2540Y-1843684D01*
X-7467Y-1851812D01*
X-16256Y-1861261D01*
X-23672Y-1871776D01*
X-29616Y-1883257D01*
X-33375Y-1893722D01*
X-35814Y-1897532D01*
X-35509Y-1898142D01*
X-35458Y-1902612D01*
X-36576Y-1907997D01*
X-37439Y-1920900D01*
X-36576Y-1933752D01*
X-35458Y-1939137D01*
X-35509Y-1944471D01*
X-33375Y-1948027D01*
X-29616Y-1958492D01*
X-23672Y-1969973D01*
X-16256Y-1980488D01*
X-7467Y-1989937D01*
X-4216Y-1992528D01*
X-1625Y-1995779D01*
X-508Y-1999742D01*
X-1066Y-2003856D01*
X-3200Y-2007362D01*
X-6553Y-2009749D01*
X-10617Y-2010613D01*
X-75234Y-2010613D01*
X-79298Y-2009749D01*
X-82651Y-2007362D01*
X-84785Y-2003856D01*
X-85344Y-1999742D01*
X-84226Y-1995779D01*
X-81635Y-1992528D01*
X-78384Y-1989937D01*
X-69596Y-1980488D01*
X-62179Y-1969973D01*
X-56235Y-1958492D01*
X-53695Y-1951380D01*
X-112369Y-1951380D01*
X-112369Y-2000453D01*
X-113182Y-2004314D01*
X-115366Y-2007616D01*
X-118668Y-2009800D01*
X-122529Y-2010613D01*
X-163169Y-2010613D01*
X-167081Y-2009800D01*
X-170383Y-2007616D01*
X-172567Y-2004314D01*
X-173329Y-2000453D01*
X-173329Y-1951380D01*
X-232054Y-1951380D01*
X-229514Y-1958492D01*
X-223570Y-1969973D01*
X-216154Y-1980488D01*
X-207365Y-1989937D01*
X-204114Y-1992528D01*
X-201523Y-1995779D01*
X-200406Y-1999742D01*
X-200964Y-2003856D01*
X-203098Y-2007362D01*
X-206451Y-2009749D01*
X-210515Y-2010613D01*
X-275132Y-2010613D01*
X-279196Y-2009749D01*
X-282549Y-2007362D01*
X-284683Y-2003856D01*
X-285242Y-1999742D01*
X-284124Y-1995779D01*
X-281533Y-1992528D01*
X-278282Y-1989937D01*
X-269494Y-1980488D01*
X-262077Y-1969973D01*
X-256133Y-1958492D01*
X-252374Y-1948027D01*
X-249936Y-1944217D01*
X-250240Y-1943607D01*
X-250291Y-1939137D01*
X-249174Y-1933752D01*
X-248310Y-1920900D01*
X-249174Y-1907997D01*
X-250291Y-1902612D01*
X-250240Y-1897278D01*
X-252374Y-1893722D01*
X-256133Y-1883257D01*
X-262077Y-1871776D01*
X-269494Y-1861261D01*
X-278282Y-1851812D01*
X-288290Y-1843684D01*
X-299313Y-1836978D01*
X-311150Y-1831848D01*
X-323545Y-1828393D01*
X-336346Y-1826615D01*
X-349199Y-1826615D01*
X-362000Y-1828393D01*
X-374396Y-1831848D01*
X-386232Y-1836978D01*
X-397256Y-1843684D01*
X-407263Y-1851812D01*
X-416051Y-1861261D01*
X-423468Y-1871776D01*
X-429412Y-1883257D01*
X-433730Y-1895398D01*
X-436372Y-1907997D01*
X-437235Y-1920900D01*
X-436372Y-1933752D01*
X-433730Y-1946351D01*
X-429412Y-1958492D01*
X-423468Y-1969973D01*
X-416051Y-1980488D01*
X-407263Y-1989937D01*
X-404012Y-1992528D01*
X-401421Y-1995779D01*
X-400304Y-1999742D01*
X-400862Y-2003856D01*
X-402996Y-2007362D01*
X-406349Y-2009749D01*
X-410413Y-2010613D01*
X-546404Y-2010613D01*
X-550265Y-2009800D01*
X-553567Y-2007616D01*
X-555752Y-2004314D01*
X-556564Y-2000453D01*
X-556564Y-1936953D01*
X-557174Y-1930450D01*
X-558952Y-1924659D01*
X-561797Y-1919274D01*
X-565658Y-1914601D01*
X-570331Y-1910740D01*
X-575716Y-1907895D01*
X-581507Y-1906117D01*
X-588010Y-1905507D01*
X-657047Y-1905507D01*
X-663549Y-1906117D01*
X-669391Y-1907895D01*
X-674725Y-1910740D01*
X-679399Y-1914601D01*
X-683260Y-1919274D01*
X-686104Y-1924659D01*
X-687882Y-1930450D01*
X-688543Y-1936953D01*
X-688543Y-2000453D01*
X-689305Y-2004314D01*
X-691489Y-2007616D01*
X-694791Y-2009800D01*
X-698703Y-2010613D01*
G37*

%LPC*%
G36*
X-807059Y-1976018D02*
G01*
X-771550Y-1976018D01*
X-771550Y-1936953D01*
X-772210Y-1930450D01*
X-773938Y-1924659D01*
X-776833Y-1919274D01*
X-780643Y-1914601D01*
X-785368Y-1910740D01*
X-790702Y-1907895D01*
X-796493Y-1906117D01*
X-803046Y-1905507D01*
X-807059Y-1905507D01*
G37*
G36*
X252272Y-1933397D02*
G01*
X312775Y-1933397D01*
X312775Y-1807870D01*
X283768Y-1807870D01*
X277215Y-1808530D01*
X271424Y-1810308D01*
X266090Y-1813153D01*
X261366Y-1817014D01*
X257556Y-1821688D01*
X254660Y-1827022D01*
X252933Y-1832864D01*
X252272Y-1839366D01*
G37*
G36*
X893724Y-1933397D02*
G01*
X954227Y-1933397D01*
X954227Y-1839366D01*
X953617Y-1832864D01*
X951839Y-1827022D01*
X948994Y-1821688D01*
X945134Y-1817014D01*
X940460Y-1813153D01*
X935126Y-1810308D01*
X929284Y-1808530D01*
X922782Y-1807870D01*
X893724Y-1807870D01*
G37*
G36*
X-232054Y-1890420D02*
G01*
X-173329Y-1890420D01*
X-173329Y-1831543D01*
X-174498Y-1831848D01*
X-186334Y-1836978D01*
X-197358Y-1843684D01*
X-207365Y-1851812D01*
X-216154Y-1861261D01*
X-223570Y-1871776D01*
X-229514Y-1883257D01*
G37*
G36*
X-112369Y-1890420D02*
G01*
X-53695Y-1890420D01*
X-56235Y-1883257D01*
X-62179Y-1871776D01*
X-69596Y-1861261D01*
X-78384Y-1851812D01*
X-88392Y-1843684D01*
X-99415Y-1836978D01*
X-111252Y-1831848D01*
X-112369Y-1831543D01*
G37*
G36*
X1537868Y-1850745D02*
G01*
X1562100Y-1850745D01*
X1586280Y-1848764D01*
X1610207Y-1844903D01*
X1633728Y-1839112D01*
X1656740Y-1831441D01*
X1679041Y-1821942D01*
X1700479Y-1810664D01*
X1720951Y-1797710D01*
X1740357Y-1783130D01*
X1758492Y-1767078D01*
X1775307Y-1749602D01*
X1790598Y-1730806D01*
X1804365Y-1710842D01*
X1816506Y-1689862D01*
X1826869Y-1667967D01*
X1835505Y-1645310D01*
X1842211Y-1622044D01*
X1847088Y-1598269D01*
X1849983Y-1574241D01*
X1850999Y-1550009D01*
X1849983Y-1525778D01*
X1847088Y-1501698D01*
X1842211Y-1477975D01*
X1835505Y-1454708D01*
X1826869Y-1432001D01*
X1816506Y-1410106D01*
X1804365Y-1389126D01*
X1790598Y-1369212D01*
X1775307Y-1350416D01*
X1758492Y-1332941D01*
X1740357Y-1316837D01*
X1720951Y-1302308D01*
X1700479Y-1289354D01*
X1679041Y-1278077D01*
X1656740Y-1268577D01*
X1633728Y-1260906D01*
X1610207Y-1255115D01*
X1586280Y-1251204D01*
X1562100Y-1249273D01*
X1537868Y-1249273D01*
X1513738Y-1251204D01*
X1489811Y-1255115D01*
X1466240Y-1260906D01*
X1443278Y-1268577D01*
X1420977Y-1278077D01*
X1399489Y-1289354D01*
X1379016Y-1302308D01*
X1359662Y-1316837D01*
X1341526Y-1332941D01*
X1324711Y-1350416D01*
X1309370Y-1369212D01*
X1295603Y-1389126D01*
X1283512Y-1410106D01*
X1273098Y-1432001D01*
X1264513Y-1454708D01*
X1257706Y-1478127D01*
X1255776Y-1481785D01*
X1254150Y-1483106D01*
X1255268Y-1485392D01*
X1255318Y-1489862D01*
X1252931Y-1501698D01*
X1249984Y-1525778D01*
X1249883Y-1528876D01*
X1248968Y-1532636D01*
X1246733Y-1535785D01*
X1243533Y-1537868D01*
X1239723Y-1538630D01*
X1197305Y-1538630D01*
X1197305Y-1639112D01*
X1206296Y-1639112D01*
X1212850Y-1638452D01*
X1218641Y-1636725D01*
X1224026Y-1633829D01*
X1228699Y-1630019D01*
X1232560Y-1625295D01*
X1235405Y-1619961D01*
X1236878Y-1615135D01*
X1239062Y-1611274D01*
X1242669Y-1608683D01*
X1247038Y-1607921D01*
X1251356Y-1609090D01*
X1254709Y-1611985D01*
X1256538Y-1616049D01*
X1257757Y-1622044D01*
X1264513Y-1645310D01*
X1273098Y-1667967D01*
X1283512Y-1689862D01*
X1295603Y-1710842D01*
X1309370Y-1730806D01*
X1324711Y-1749602D01*
X1341526Y-1767078D01*
X1359662Y-1783130D01*
X1379016Y-1797710D01*
X1399489Y-1810664D01*
X1420977Y-1821942D01*
X1443278Y-1831441D01*
X1466240Y-1839112D01*
X1489811Y-1844903D01*
X1513738Y-1848764D01*
G37*

%LPD*%
G36*
X152146Y749046D02*
G01*
X66395Y726744D01*
X352145Y726744D01*
X266446Y749046D01*
G37*
G36*
X-289255Y1397000D02*
G01*
X-289255Y1123848D01*
X-111252Y1130300D01*
X-111252Y1282700D01*
G37*
G36*
X-409244Y1397000D02*
G01*
X-637844Y1282700D01*
X-637844Y1130300D01*
X-409244Y1123848D01*
G37*
G36*
X905256Y-995273D02*
G01*
X893826Y-1018133D01*
X931926Y-1018133D01*
X920496Y-995273D01*
G37*
G36*
X905256Y-1385265D02*
G01*
X893826Y-1408125D01*
X931926Y-1408125D01*
X920496Y-1385265D01*
G37*
G36*
X1019556Y-1397000D02*
G01*
X999794Y-1408125D01*
X1079804Y-1408125D01*
X1060196Y-1397000D01*
G37*
G36*
X1032256Y-995273D02*
G01*
X1020826Y-1018133D01*
X1058926Y-1018133D01*
X1047496Y-995273D01*
G37*
G36*
X1159256Y-995273D02*
G01*
X1147826Y-1018133D01*
X1185926Y-1018133D01*
X1174496Y-995273D01*
G37*
G36*
X783488Y50800D02*
G01*
X783488Y12700D01*
X806348Y24130D01*
X806348Y39370D01*
G37*
G36*
X624332Y6756D02*
G01*
X635762Y-16103D01*
X651002Y-16103D01*
X662432Y6756D01*
G37*
G36*
X-724611Y-1403756D02*
G01*
X-724611Y-1453743D01*
X-678891Y-1443990D01*
X-678891Y-1413510D01*
G37*
G36*
X-894638Y-1403756D02*
G01*
X-940358Y-1413510D01*
X-940358Y-1443990D01*
X-894638Y-1453743D01*
G37*
G36*
X979881Y1404467D02*
G01*
X960069Y1198727D01*
X990549Y1272032D01*
G37*
G36*
X960069Y1198727D02*
G01*
X948334Y1170584D01*
X955497Y1151636D01*
G37*
G36*
X573633Y1505762D02*
G01*
X489915Y1451660D01*
X579932Y1391716D01*
X625398Y1471269D01*
G37*
G36*
X-936802Y-1715566D02*
G01*
X-945387Y-1752701D01*
X-925474Y-1768093D01*
X-921410Y-1750568D01*
G37*
G36*
X-587552Y-1657350D02*
G01*
X-587552Y-1695450D01*
X-564692Y-1684020D01*
X-564692Y-1668780D01*
G37*
G36*
X1936496Y431241D02*
G01*
X1925624Y399999D01*
X1940763Y386384D01*
X1974240Y397256D01*
G37*
G36*
X1980946Y355D02*
G01*
X1996186Y-30124D01*
X2016506Y-30124D01*
X2031746Y355D01*
G37*
G36*
X-655370Y-433070D02*
G01*
X-731570Y-450850D01*
X-731570Y-501650D01*
X-655370Y-519430D01*
G37*
G36*
X-504748Y-519430D02*
G01*
X-489712Y-567436D01*
X-438912Y-567436D01*
X-424129Y-519430D01*
G37*
G36*
X-846226Y-1038758D02*
G01*
X-885393Y-1071422D01*
X-852728Y-1143406D01*
X-772769Y-1076706D01*
G37*
G36*
X-772769Y-1253744D02*
G01*
X-852728Y-1256741D01*
X-769772Y-1329893D01*
X-700532Y-1327302D01*
G37*
G36*
X-852728Y-750925D02*
G01*
X-921512Y-822350D01*
X-854506Y-827227D01*
X-772769Y-756716D01*
G37*
G36*
X-838200Y-527050D02*
G01*
X-852728Y-576732D01*
X-772769Y-576732D01*
X-787400Y-527050D01*
G37*
G36*
X-1052779Y-607314D02*
G01*
X-1128979Y-645414D01*
X-1128979Y-696214D01*
X-1052779Y-734314D01*
G37*
G36*
X-572770Y-647192D02*
G01*
X-572770Y-689965D01*
X-568960Y-678586D01*
G37*
G36*
X-572770Y-689965D02*
G01*
X-586892Y-732485D01*
X-572770Y-760730D01*
G37*
G36*
X-1052779Y-1107186D02*
G01*
X-1115314Y-1145286D01*
X-1115314Y-1196086D01*
X-1052779Y-1234186D01*
G37*
G36*
X-647141Y-1031392D02*
G01*
X-696112Y-1054303D01*
X-652729Y-1118158D01*
X-572770Y-1080719D01*
G37*
G36*
X-452729Y-1219403D02*
G01*
X-494182Y-1283766D01*
X-446836Y-1308252D01*
X-372770Y-1260754D01*
G37*
G36*
X-446328Y-549452D02*
G01*
X-481685Y-585978D01*
X-452729Y-666089D01*
X-372770Y-580745D01*
G37*
G36*
X-252729Y-1260754D02*
G01*
X-243332Y-1301750D01*
X-182372Y-1301750D01*
X-172770Y-1260754D01*
G37*
G36*
X-252729Y-760730D02*
G01*
X-243332Y-825500D01*
X-182372Y-825500D01*
X-172770Y-760730D01*
G37*
G36*
X-25400Y-1042619D02*
G01*
X-44450Y-1080719D01*
X19050Y-1080719D01*
X0Y-1042619D01*
G37*
G36*
X-25400Y-1042619D02*
G01*
X-44450Y-1080719D01*
X19050Y-1080719D01*
X0Y-1042619D01*
G37*
G36*
X27228Y-708558D02*
G01*
X-8991Y-760730D01*
X27228Y-775411D01*
X41910Y-754227D01*
G37*
G36*
X-50038Y-566978D02*
G01*
X-66497Y-586486D01*
X-52730Y-629259D01*
X-11785Y-580745D01*
G37*
G36*
X1954987Y-1111504D02*
G01*
X1954987Y-1162304D01*
X1974596Y-1147064D01*
X1974596Y-1126744D01*
G37*
G36*
X1855012Y-1111504D02*
G01*
X1824532Y-1126744D01*
X1824532Y-1147064D01*
X1855012Y-1162304D01*
G37*
G36*
X-1019251Y1079500D02*
G01*
X-1019251Y698500D01*
X-984250Y812800D01*
X-984250Y965200D01*
G37*
G36*
X-1901748Y1106627D02*
G01*
X-2008581Y889457D01*
X-1901748Y782624D01*
G37*
G36*
X-1901748Y782624D02*
G01*
X-1901748Y612495D01*
X-1864918Y745794D01*
G37*
G36*
X-1901748Y1028700D02*
G01*
X-1905000Y982980D01*
X-1905000Y922019D01*
X-1901748Y876300D01*
G37*
G36*
X628243Y-1708861D02*
G01*
X638048Y-1754581D01*
X668528Y-1754581D01*
X678230Y-1708861D01*
G37*
G36*
X528269Y-1708861D02*
G01*
X537972Y-1754581D01*
X568452Y-1754581D01*
X578256Y-1708861D01*
G37*
G36*
X428243Y-1708861D02*
G01*
X438048Y-1754581D01*
X468528Y-1754581D01*
X478282Y-1708861D01*
G37*
G36*
X728268Y-1708861D02*
G01*
X738124Y-1754581D01*
X768604Y-1754581D01*
X778256Y-1708861D01*
G37*
G36*
X896010Y50800D02*
G01*
X873150Y39370D01*
X873150Y24130D01*
X896010Y12700D01*
G37*
G36*
X485190Y-665327D02*
G01*
X480618Y-683361D01*
X491388Y-694131D01*
X509422Y-689559D01*
G37*
G36*
X459333Y-1002690D02*
G01*
X443077Y-1009040D01*
X467309Y-1033322D01*
X473709Y-1017066D01*
G37*
G36*
X738124Y-1810359D02*
G01*
X736193Y-1826361D01*
X770483Y-1826412D01*
X768604Y-1810410D01*
G37*
G36*
X1062685Y-1417116D02*
G01*
X1016965Y-1417167D01*
X1019556Y-1438503D01*
X1060196Y-1438452D01*
G37*
G36*
X-182372Y-773582D02*
G01*
X-243332Y-773684D01*
X-241350Y-800354D01*
X-184200Y-800252D01*
G37*
G36*
X-182372Y-1249832D02*
G01*
X-243332Y-1249934D01*
X-241350Y-1276604D01*
X-184200Y-1276502D01*
G37*
G36*
X239166Y-494690D02*
G01*
X224790Y-509066D01*
X231190Y-525322D01*
X255422Y-501040D01*
G37*
G36*
X-286512Y-427329D02*
G01*
X-286512Y-461670D01*
X-270510Y-454659D01*
X-270510Y-434340D01*
G37*
G36*
X-334670Y-634238D02*
G01*
X-330200Y-650240D01*
X-304800Y-650240D01*
X-300329Y-634238D01*
G37*
G36*
X-421690Y-347827D02*
G01*
X-445922Y-372059D01*
X-431495Y-380238D01*
X-413512Y-362254D01*
G37*
G36*
X-977290Y-1403553D02*
G01*
X-1001572Y-1427784D01*
X-988923Y-1437741D01*
X-967333Y-1416202D01*
G37*
G36*
X-650138Y-1411579D02*
G01*
X-666140Y-1413510D01*
X-666140Y-1443990D01*
X-650138Y-1445920D01*
G37*
G36*
X-697839Y-1560068D02*
G01*
X-715873Y-1564690D01*
X-691540Y-1588871D01*
X-687019Y-1570837D01*
G37*
G36*
X1072642Y1554480D02*
G01*
X1072642Y1493520D01*
X1091082Y1501140D01*
X1091082Y1546860D01*
G37*
G36*
X1088390Y930503D02*
G01*
X1088390Y909167D01*
X1134110Y909167D01*
X1134110Y930503D01*
G37*
G36*
X1088390Y868832D02*
G01*
X1088390Y847496D01*
X1134110Y847496D01*
X1134110Y868832D01*
G37*
G36*
X604570Y1525930D02*
G01*
X584098Y1516227D01*
X627227Y1473098D01*
X636930Y1493570D01*
G37*
G36*
X318820Y1589328D02*
G01*
X307390Y1570634D01*
X332587Y1545539D01*
X351231Y1557070D01*
G37*
G36*
X1088390Y867003D02*
G01*
X1088390Y845667D01*
X1134110Y845667D01*
X1134110Y867003D01*
G37*
G36*
X1728470Y327253D02*
G01*
X1723389Y305917D01*
X1769110Y305917D01*
X1764030Y327253D01*
G37*
G36*
X1761236Y329438D02*
G01*
X1744319Y316179D01*
X1776679Y283819D01*
X1789938Y300736D01*
G37*
G36*
X1163370Y-374446D02*
G01*
X1141120Y-382320D01*
X1173429Y-414680D01*
X1181354Y-392430D01*
G37*
G36*
X1099667Y-453390D02*
G01*
X1099667Y-499109D01*
X1121003Y-488950D01*
X1121003Y-463550D01*
G37*
G36*
X1447800Y-498246D02*
G01*
X1437640Y-519582D01*
X1483360Y-519582D01*
X1473200Y-498246D01*
G37*
G36*
X1527200Y-529996D02*
G01*
X1516989Y-551332D01*
X1562760Y-551332D01*
X1552600Y-529996D01*
G37*
G36*
X1300429Y255930D02*
G01*
X1268069Y223570D01*
X1290370Y215696D01*
X1308303Y233629D01*
G37*
G36*
X1374140Y233832D02*
G01*
X1384300Y222250D01*
X1409700Y222250D01*
X1419860Y233832D01*
G37*
G36*
X824179Y255930D02*
G01*
X791819Y223570D01*
X814120Y215696D01*
X832053Y233629D01*
G37*
G36*
X697179Y255930D02*
G01*
X664819Y223570D01*
X687120Y215696D01*
X705053Y233629D01*
G37*
G36*
X856284Y-324002D02*
G01*
X832002Y-348284D01*
X846480Y-356412D01*
X864412Y-338480D01*
G37*
G36*
X846074Y-294284D02*
G01*
X820674Y-294335D01*
X816254Y-310388D01*
X850544Y-310286D01*
G37*
G36*
X738936Y-260705D02*
G01*
X722934Y-265176D01*
X722985Y-290576D01*
X738987Y-294995D01*
G37*
G36*
X771245Y-292912D02*
G01*
X736955Y-292963D01*
X741426Y-308965D01*
X766826Y-308914D01*
G37*
G36*
X1506829Y-173888D02*
G01*
X1511300Y-189890D01*
X1536700Y-189890D01*
X1541170Y-173888D01*
G37*
G36*
X1689709Y-284327D02*
G01*
X1665427Y-308559D01*
X1679905Y-316738D01*
X1697837Y-298754D01*
G37*
G36*
X554329Y-554888D02*
G01*
X563880Y-570890D01*
X579120Y-570890D01*
X588670Y-554888D01*
G37*
G36*
X699820Y-610362D02*
G01*
X665530Y-610514D01*
X675132Y-626465D01*
X690372Y-626414D01*
G37*
G36*
X683310Y-506780D02*
G01*
X667359Y-516382D01*
X667410Y-531622D01*
X683463Y-541070D01*
G37*
G36*
X666038Y-443280D02*
G01*
X665937Y-477570D01*
X681990Y-468122D01*
X682040Y-452882D01*
G37*
G36*
X498805Y-777138D02*
G01*
X505764Y-793140D01*
X526084Y-793140D01*
X533095Y-777138D01*
G37*
G36*
X961186Y-1244955D02*
G01*
X945184Y-1254506D01*
X945235Y-1269746D01*
X961237Y-1279245D01*
G37*
G36*
X1080516Y-1260652D02*
G01*
X1075944Y-1278686D01*
X1086713Y-1289456D01*
X1104747Y-1284884D01*
G37*
G36*
X1499209Y-919276D02*
G01*
X1475028Y-943559D01*
X1491284Y-949909D01*
X1505610Y-935482D01*
G37*
G36*
X1022959Y-530402D02*
G01*
X998677Y-554634D01*
X1013155Y-562813D01*
X1031087Y-544830D01*
G37*
G36*
X638048Y-1810359D02*
G01*
X636117Y-1826361D01*
X670407Y-1826361D01*
X668528Y-1810359D01*
G37*
G36*
X568452Y-1810359D02*
G01*
X537972Y-1810410D01*
X536092Y-1826412D01*
X570382Y-1826361D01*
G37*
G36*
X438099Y-1810359D02*
G01*
X436168Y-1826361D01*
X470458Y-1826412D01*
X468579Y-1810410D01*
G37*
G36*
X-1406753Y1236980D02*
G01*
X-1406753Y1176020D01*
X-1385417Y1183640D01*
X-1385417Y1229360D01*
G37*
G36*
X-1388110Y1186332D02*
G01*
X-1395730Y1164996D01*
X-1334770Y1164996D01*
X-1342390Y1186332D01*
G37*
G36*
X-1406753Y1236980D02*
G01*
X-1406753Y1176020D01*
X-1385417Y1183640D01*
X-1385417Y1229360D01*
G37*
G36*
X-1373022Y1193901D02*
G01*
X-1416151Y1150772D01*
X-1395679Y1141069D01*
X-1363319Y1173429D01*
G37*
G36*
X-1406753Y1173480D02*
G01*
X-1406753Y1112520D01*
X-1385417Y1120140D01*
X-1385417Y1165860D01*
G37*
G36*
X-1395730Y1184503D02*
G01*
X-1388110Y1163167D01*
X-1342390Y1163167D01*
X-1334770Y1184503D01*
G37*
G36*
X-1459179Y1208430D02*
G01*
X-1479651Y1198727D01*
X-1436522Y1155598D01*
X-1426819Y1176070D01*
G37*
G36*
X-1387246Y1236980D02*
G01*
X-1408582Y1229360D01*
X-1408582Y1183640D01*
X-1387246Y1176020D01*
G37*
G36*
X-1398320Y1208430D02*
G01*
X-1430680Y1176070D01*
X-1420977Y1155598D01*
X-1377848Y1198727D01*
G37*
G36*
X-1470253Y1236980D02*
G01*
X-1470253Y1176020D01*
X-1448917Y1183640D01*
X-1448917Y1229360D01*
G37*
G36*
X-1451610Y1186332D02*
G01*
X-1459230Y1164996D01*
X-1398270Y1164996D01*
X-1405890Y1186332D01*
G37*
G36*
X-1470253Y1236980D02*
G01*
X-1470253Y1176020D01*
X-1448917Y1183640D01*
X-1448917Y1229360D01*
G37*
G36*
X-1387246Y1236980D02*
G01*
X-1408582Y1229360D01*
X-1408582Y1183640D01*
X-1387246Y1176020D01*
G37*
G36*
X-1459230Y1184503D02*
G01*
X-1451610Y1163167D01*
X-1405890Y1163167D01*
X-1398270Y1184503D01*
G37*
G36*
X-1387246Y1173480D02*
G01*
X-1408582Y1165860D01*
X-1408582Y1120140D01*
X-1387246Y1112520D01*
G37*
G36*
X-1470253Y1173480D02*
G01*
X-1470253Y1112520D01*
X-1448917Y1120140D01*
X-1448917Y1165860D01*
G37*
G36*
X1650288Y-62280D02*
G01*
X1650187Y-96570D01*
X1666189Y-89662D01*
X1666290Y-69342D01*
G37*
G36*
X-1450746Y1236980D02*
G01*
X-1472082Y1229360D01*
X-1472082Y1183640D01*
X-1450746Y1176020D01*
G37*
G36*
X-1515110Y1186332D02*
G01*
X-1522730Y1164996D01*
X-1461770Y1164996D01*
X-1469390Y1186332D01*
G37*
G36*
X-1450746Y1236980D02*
G01*
X-1472082Y1229360D01*
X-1472082Y1183640D01*
X-1450746Y1176020D01*
G37*
G36*
X-1484477Y1193901D02*
G01*
X-1494180Y1173429D01*
X-1461820Y1141069D01*
X-1441348Y1150772D01*
G37*
G36*
X-1522730Y1184503D02*
G01*
X-1515110Y1163167D01*
X-1469390Y1163167D01*
X-1461770Y1184503D01*
G37*
G36*
X-1450746Y1173480D02*
G01*
X-1472082Y1165860D01*
X-1472082Y1120140D01*
X-1450746Y1112520D01*
G37*
G36*
X1088390Y932332D02*
G01*
X1088390Y910996D01*
X1134110Y910996D01*
X1134110Y932332D01*
G37*
G36*
X735330Y-38455D02*
G01*
X719328Y-48006D01*
X719378Y-63246D01*
X735380Y-72745D01*
G37*
G36*
X-1606651Y-929741D02*
G01*
X-1606651Y-1102258D01*
X-1526133Y-1041400D01*
X-1526184Y-990600D01*
G37*
G36*
X-1567942Y-627837D02*
G01*
X-1689912Y-749808D01*
X-1589989Y-763676D01*
X-1554073Y-727760D01*
G37*
G36*
X-1803857Y-100330D02*
G01*
X-1864207Y-327253D01*
X-1778406Y-317804D01*
X-1734057Y-151130D01*
G37*
G36*
X-1616913Y282600D02*
G01*
X-1689963Y241757D01*
X-1567942Y119786D01*
X-1527098Y192836D01*
G37*
G36*
X-1746250Y254000D02*
G01*
X-1769008Y203047D01*
X-1596491Y203098D01*
X-1619250Y254000D01*
G37*
G36*
X1871929Y-349504D02*
G01*
X1836928Y-374294D01*
X1836928Y-399694D01*
X1871929Y-424484D01*
G37*
G36*
X1871929Y-474522D02*
G01*
X1836928Y-499313D01*
X1836928Y-524713D01*
X1871929Y-549503D01*
G37*
G36*
X1894586Y-838098D02*
G01*
X1852168Y-842060D01*
X1839214Y-865073D01*
X1857756Y-903427D01*
G37*
G36*
X1871980Y-974496D02*
G01*
X1836928Y-999236D01*
X1836928Y-1024636D01*
X1871878Y-1049477D01*
G37*
G36*
X1223213Y-556717D02*
G01*
X1195222Y-574040D01*
X1195222Y-599440D01*
X1223213Y-616762D01*
G37*
D10*
X-1682750Y127000D02*
G01*
X-1682750Y254000D01*
X-1605534Y331215D01*
X-1478534Y331215D01*
X-1682750Y127000D01*
D11*
X222250Y889000D02*
G01*
X1047750Y889000D01*
X475234Y889000D02*
G01*
X349250Y889000D01*
X241045Y780795D01*
X101092Y920750D01*
X95250Y920750D01*
X241045Y780795D02*
G01*
X209295Y749045D01*
X209295Y666750D01*
D12*
X833450Y-325450D02*
G01*
X889000Y-381000D01*
X889000Y-539750D01*
X1031999Y-682749D01*
X1674873Y-682749D01*
X1881126Y-889000D01*
X1920999Y-889000D01*
D13*
X571500Y-539750D02*
G01*
X571500Y-682752D01*
X682752Y-793750D01*
X754126Y-793750D01*
X912876Y-952500D01*
X912876Y-1118107D01*
D14*
X-1682750Y-254000D02*
G01*
X-1793747Y-254000D01*
X-1936750Y-111252D01*
X-1936750Y817626D01*
X-1865376Y889000D01*
X-1759965Y889000D01*
D13*
X682752Y-595376D02*
G01*
X682752Y-666750D01*
X738123Y-722376D01*
X833628Y-722376D01*
X936752Y-825500D01*
X1008126Y-825500D01*
X1166876Y-984250D01*
X1166876Y-1118107D01*
X651002Y-460502D02*
G01*
X706373Y-460502D01*
X754126Y-508000D01*
X754126Y-642873D01*
X793750Y-682752D01*
X865123Y-682752D01*
X952500Y-769873D01*
X1031747Y-769873D01*
X1246123Y-984250D01*
X1246123Y-1270000D01*
X1174750Y-1341373D01*
X944626Y-1341373D01*
X912876Y-1373123D01*
X912876Y-1508252D01*
X-622807Y-1676400D02*
G01*
X-501650Y-1676400D01*
X-476250Y-1651000D01*
X95250Y-1651000D01*
X309626Y-1436623D01*
X500126Y-1436623D01*
X674623Y-1262126D01*
X976376Y-1262126D01*
X1103376Y-1262126D02*
G01*
X1055623Y-1309623D01*
X817626Y-1309623D01*
X635000Y-1492250D01*
X317500Y-1492250D01*
X95250Y-1714500D01*
X-476250Y-1714500D01*
X-539750Y-1778000D01*
X-904747Y-1778000D01*
X-972057Y-1710689D01*
X-972057Y-1676400D01*
D16*
X-1161034Y889000D02*
G01*
X-984250Y889000D01*
X-968247Y872997D01*
X-968247Y1190752D01*
X-952500Y1206500D01*
X-111252Y1206500D01*
X31750Y1063497D01*
D13*
X698500Y-524002D02*
G01*
X666750Y-524002D01*
X627126Y-563626D01*
X627126Y-690626D01*
X690626Y-754126D01*
X801623Y-754126D01*
X1039876Y-992123D01*
X1039876Y-1118107D01*
D17*
X1039876Y-1397000D02*
G01*
X1039876Y-1508252D01*
X1039876Y-1508252D01*
D13*
X508000Y-666750D02*
G01*
X452373Y-722376D01*
X452373Y-912876D01*
X317500Y-1047750D01*
X317500Y-1301750D01*
X254000Y-1365250D01*
X-127000Y-1365250D01*
X-325373Y-1563623D01*
X-690626Y-1563623D01*
X-714247Y-1587500D01*
D12*
X754126Y-277876D02*
G01*
X547623Y-277876D01*
X397002Y-428497D01*
X397002Y-777747D01*
X206247Y-968502D01*
X31750Y-968502D01*
X-12700Y-1012952D01*
X-12700Y-1170686D01*
X754126Y-277876D02*
G01*
X754126Y-341376D01*
X825500Y-412750D01*
X825500Y-555752D01*
X999997Y-730250D01*
X1492250Y-730250D01*
X1773936Y-1011936D01*
X1905000Y-1011936D01*
X833373Y-325373D02*
G01*
X833373Y-238252D01*
X793750Y-198373D01*
X531876Y-198373D01*
X349250Y-381000D01*
X349250Y-730250D01*
X270002Y-809752D01*
X79502Y-809752D01*
X-12700Y-717550D01*
X-12700Y-670813D01*
D18*
X515950Y-762000D02*
G01*
X515950Y-960424D01*
X444500Y-1031875D01*
D13*
X753618Y31750D02*
G01*
X945895Y31750D01*
X750570Y-55626D02*
G01*
X666750Y-55626D01*
X643381Y-32257D01*
X643381Y31750D01*
D19*
X-612647Y-670813D02*
G01*
X-568960Y-714502D01*
X-512826Y-714502D01*
D20*
X753363Y-1841500D02*
G01*
X753363Y-1623821D01*
X653287Y-1841500D02*
G01*
X653287Y-1623821D01*
X553212Y-1841500D02*
G01*
X553212Y-1623821D01*
X453389Y-1841500D02*
G01*
X453136Y-1623821D01*
D21*
X1746250Y285750D02*
G01*
X1746250Y349250D01*
D12*
X-444500Y-349250D02*
G01*
X-381000Y-412750D01*
X-381000Y-460502D01*
X-333247Y-508000D01*
X-127000Y-508000D01*
X-12700Y-622300D01*
X-12700Y-670813D01*
X-317500Y-619252D02*
G01*
X-317500Y-857250D01*
X-206247Y-968502D01*
X-47497Y-968502D01*
X-12700Y-1003300D01*
X-12700Y-1170686D01*
X-11422Y-968502D02*
G01*
X-11422Y-993005D01*
X-2087Y-1002339D01*
X31750Y-968502D02*
G01*
X-74254Y-968502D01*
D22*
X-212852Y-670560D02*
G01*
X-212852Y-825500D01*
D18*
X-301625Y-444500D02*
G01*
X174625Y-444500D01*
X254000Y-523875D01*
D19*
X-612647Y-1170686D02*
G01*
X-612647Y-1101852D01*
X-719073Y-995426D01*
X-719073Y-931926D01*
X-712723Y-587502D01*
X-1682750Y-1016000D02*
G01*
X-1428750Y-1016000D01*
X-1397000Y-984250D01*
X-936497Y-984250D01*
X-812800Y-1108202D01*
X-812800Y-1166621D01*
X-412750Y-1170686D02*
G01*
X-412750Y-1238250D01*
X-508000Y-1333500D01*
X-730250Y-1333500D01*
X-812800Y-1250950D01*
X-812800Y-1166621D01*
D22*
X-212852Y-1170686D02*
G01*
X-212852Y-1301750D01*
D19*
X-1682750Y-635000D02*
G01*
X-1444497Y-873252D01*
X-936497Y-873252D01*
X-812800Y-749554D01*
X-812800Y-666750D01*
D12*
X1539875Y-571500D02*
G01*
X1539875Y-349374D01*
X1460500Y-269999D01*
X1460500Y158750D01*
X1397000Y222250D01*
X1397000Y254000D01*
D17*
X1746250Y285750D02*
G01*
X1778000Y317500D01*
X1778000Y254000D01*
D22*
X1111250Y1524000D02*
G01*
X1072662Y1524000D01*
X1009162Y1587500D01*
D23*
X1143000Y1524000D02*
G01*
X1143000Y1555750D01*
X1111250Y1587500D01*
X873252Y1587500D01*
X735076Y1449323D01*
X735076Y1352550D01*
X534923Y1352550D02*
G01*
X534670Y1486662D01*
X603250Y1555750D01*
D21*
X349250Y1587500D02*
G01*
X301752Y1539747D01*
X301752Y1301750D01*
X335026Y1301750D01*
D22*
X635000Y1524000D02*
G01*
X534923Y1423923D01*
X534923Y1301750D01*
D24*
X1111250Y952500D02*
G01*
X1111250Y825500D01*
D22*
X-1365250Y1206500D02*
G01*
X-1428750Y1206500D01*
X-1492250Y1143000D01*
X-1492250Y1206500D02*
G01*
X-1428750Y1206500D01*
X-1365250Y1143000D01*
X-1428750Y1206500D02*
G01*
X-1428750Y1143000D01*
X-1492250Y1206500D02*
G01*
X-1492250Y1143000D01*
X-1365250Y1143000D02*
G01*
X-1492250Y1143000D01*
X-1365250Y1206500D02*
G01*
X-1365250Y1143000D01*
X-1492250Y1206500D02*
G01*
X-1365250Y1206500D01*
X-809625Y-365125D02*
G01*
X-809625Y-349250D01*
X-777875Y-317500D01*
X-762000Y-365125D02*
G01*
X-809625Y-365125D01*
X-730250Y-317500D02*
G01*
X-730250Y-333375D01*
X-762000Y-365125D01*
X-777875Y-317500D02*
G01*
X-730250Y-317500D01*
X-1222375Y-238125D02*
G01*
X-1222375Y-190500D01*
X-1174750Y-238125D02*
G01*
X-1222375Y-238125D01*
X-1174750Y-190500D02*
G01*
X-1174750Y-238125D01*
X-1222375Y-190500D02*
G01*
X-1174750Y-190500D01*
X-1905000Y952500D02*
G01*
X-1651000Y952500D01*
D19*
X-1012697Y-1170686D02*
G01*
X-1115313Y-1170686D01*
X-1174750Y-1111250D01*
X-1253997Y-1111250D01*
X-615187Y-476250D02*
G01*
X-762000Y-476250D01*
X-812800Y-527050D01*
X-812800Y-666750D01*
X-1012697Y-670813D02*
G01*
X-1147063Y-670813D01*
X-1238250Y-762000D01*
X-464312Y-476250D02*
G01*
X-464312Y-567436D01*
X-412750Y-618997D01*
X-412750Y-670813D01*
D18*
X1635252Y-79502D02*
G01*
X1730247Y-79502D01*
X1841500Y31750D01*
X1841500Y285750D01*
X1902968Y347218D01*
X1902968Y362965D01*
X1972310Y432307D01*
X2006600Y432307D01*
X1905000Y-1136904D02*
G01*
X1974595Y-1136904D01*
X2032000Y-1079500D01*
X2032000Y-95250D01*
X2006345Y-69595D01*
X2006345Y35305D01*
D12*
X1460500Y-539750D02*
G01*
X1460500Y-349250D01*
X1412999Y-301749D01*
X1412999Y111000D01*
X1270000Y254000D01*
X1524000Y-158750D02*
G01*
X1524000Y-238249D01*
X1797763Y-512013D01*
X1905000Y-512013D01*
D22*
X-1044493Y-670737D02*
G01*
X-1012748Y-670737D01*
X-1012748Y-670737D01*
D12*
X1000125Y-531825D02*
G01*
X1055042Y-586742D01*
X1249679Y-586742D01*
D18*
X1476502Y-920750D02*
G01*
X1692655Y-1136904D01*
X1905000Y-1136904D01*
D23*
X381000Y1571497D02*
G01*
X381000Y1492250D01*
X335026Y1446276D01*
X335026Y1352550D01*
X1587500Y1158747D02*
G01*
X1349502Y1158747D01*
X1301750Y1206500D01*
X984250Y1206500D01*
X934973Y1255776D01*
X934973Y1352550D01*
D12*
X1666875Y-285750D02*
G01*
X1768119Y-386994D01*
X1905000Y-386994D01*
X1079500Y-476250D02*
G01*
X1174750Y-476250D01*
X1365250Y-285750D01*
X1365250Y47500D01*
X1222250Y190500D01*
X857250Y190500D01*
X793750Y254000D01*
X1143000Y-412750D02*
G01*
X1317749Y-238249D01*
X1317749Y15750D01*
X1206500Y127000D01*
X793750Y127000D01*
X666750Y254000D01*
D20*
X-864615Y-1428750D02*
G01*
X-976376Y-1428750D01*
X-999997Y-1404873D01*
X-635000Y-1428750D02*
G01*
X-754634Y-1428750D01*
D25*
G01*
X1249679Y-586739D03*
D26*
G01*
X1550009Y1550009D03*
G01*
X1550009Y-1550009D03*
G01*
X-1550009Y-1550009D03*
G01*
X-1550009Y1550009D03*
D27*
G01*
X1086002Y31750D03*
G01*
X946022Y31750D03*
D28*
G01*
X753262Y-1623872D03*
G01*
X453262Y-1623872D03*
G01*
X553262Y-1623872D03*
G01*
X653262Y-1623872D03*
D29*
G01*
X863244Y-1963877D03*
G01*
X343255Y-1963877D03*
D30*
G01*
X-1759999Y889000D03*
G01*
X-1161000Y889000D03*
D31*
G01*
X187248Y-670737D03*
G01*
X187248Y-1170736D03*
G01*
X-12750Y-670737D03*
G01*
X-12750Y-1170736D03*
G01*
X-212750Y-670737D03*
G01*
X-212750Y-1170736D03*
G01*
X-412750Y-670737D03*
G01*
X-412750Y-1170736D03*
G01*
X-612749Y-1170736D03*
G01*
X-1012748Y-1170736D03*
G01*
X-612749Y-670737D03*
G01*
X-1012748Y-670737D03*
G01*
X-812749Y-666724D03*
G01*
X-812749Y-1166723D03*
D32*
G01*
X-464425Y-476250D03*
G01*
X-615074Y-476250D03*
D33*
G01*
X2006269Y250367D03*
D34*
G01*
X1676272Y250367D03*
G01*
X1676272Y35356D03*
D33*
G01*
X2006269Y35356D03*
G01*
X2006498Y647268D03*
D34*
G01*
X1676501Y647268D03*
G01*
X1676501Y432257D03*
D33*
G01*
X2006498Y432257D03*
D35*
G01*
X-837539Y-1676501D03*
D36*
G01*
X-837539Y-2006498D03*
G01*
X-622528Y-2006498D03*
D35*
G01*
X-622528Y-1676501D03*
G01*
X-1186789Y-1676501D03*
D36*
G01*
X-1186789Y-2006498D03*
G01*
X-971778Y-2006498D03*
D35*
G01*
X-971778Y-1676501D03*
D37*
G01*
X334924Y1301648D03*
G01*
X534923Y1301648D03*
G01*
X734923Y1301648D03*
D38*
G01*
X109905Y1936648D03*
G01*
X1159916Y1936648D03*
D37*
G01*
X934897Y1301648D03*
D39*
G01*
X-864615Y-1428750D03*
G01*
X-754634Y-1428750D03*
G01*
X643509Y31750D03*
G01*
X753490Y31750D03*
D40*
G01*
X-715010Y285750D03*
G01*
X-1126489Y285750D03*
D41*
G01*
X1166825Y-1118133D03*
G01*
X1166825Y-1508125D03*
G01*
X1039825Y-1118133D03*
G01*
X1039825Y-1508125D03*
G01*
X912825Y-1508125D03*
G01*
X912825Y-1118133D03*
D42*
G01*
X-413994Y285750D03*
G01*
X-93979Y285750D03*
D43*
G01*
X-349250Y764870D03*
G01*
X-349250Y1298879D03*
D44*
G01*
X743254Y666750D03*
G01*
X209245Y666750D03*
D43*
G01*
X-889000Y1870379D03*
G01*
X-889000Y1336370D03*
D45*
G01*
X-2299995Y1127252D03*
G01*
X7299997Y627253D03*
G01*
X-2299995Y-19209009D03*
G01*
X7299997Y-18709010D03*
D46*
G75*
G01
X1632204Y1158875D02*
G03X1632204Y1158875I-44704J0D01*
D47*
G75*
G01
X1187907Y1555750D02*
G03X1187907Y1555750I-44907J0D01*
G75*
G01
X648157Y1555750D02*
G03X648157Y1555750I-44907J0D01*
G75*
G01
X425907Y1555750D02*
G03X425907Y1555750I-44907J0D01*
G36*
X-1778000Y635000D02*
G01*
X-1619250Y635000D01*
X-1619250Y476250D01*
X-1778000Y476250D01*
G37*
G36*
X-571500Y1778000D02*
G01*
X-412750Y1778000D01*
X-412750Y1714500D01*
X-571500Y1714500D01*
G37*
G36*
X127000Y1873250D02*
G01*
X190500Y1873250D01*
X190500Y1714500D01*
X127000Y1714500D01*
G37*
G36*
X-666750Y63500D02*
G01*
X-571500Y63500D01*
X-571500Y-31750D01*
X-666750Y-31750D01*
G37*
G36*
X63500Y539750D02*
G01*
X857250Y539750D01*
X857250Y381000D01*
X63500Y381000D01*
G37*
G36*
X-1135049Y833424D02*
G01*
X-920724Y833424D01*
X-920724Y500049D01*
X-1135049Y500049D01*
G37*
G36*
X127000Y825500D02*
G01*
X381000Y825500D01*
X381000Y666750D01*
X127000Y666750D01*
G37*
G36*
X-142875Y285750D02*
G01*
X-47625Y285750D01*
X-47625Y95250D01*
X-142875Y95250D01*
G37*
G36*
X-206375Y285750D02*
G01*
X79375Y285750D01*
X79375Y206375D01*
X-206375Y206375D01*
G37*
D48*
G01*
X1905000Y-1137005D03*
D45*
G01*
X1905000Y-1012012D03*
G01*
X1905000Y-886993D03*
G01*
X1905000Y-762000D03*
G01*
X1905000Y-637006D03*
G01*
X1905000Y-512013D03*
G01*
X1905000Y-386994D03*
D49*
G01*
X-1682724Y127000D03*
G01*
X-1682724Y-254025D03*
G01*
X-1682724Y-635025D03*
G01*
X-1682724Y-1016025D03*
D50*
G01*
X-342772Y-1920875D03*
G01*
X-142875Y-1920875D03*
G01*
X57022Y-1920875D03*
D51*
G01*
X1550009Y1550009D03*
G01*
X-1550009Y-1550009D03*
G01*
X-1550009Y1550009D03*
G01*
X1550009Y-1550009D03*
D24*
G01*
X-111125Y-650875D03*
D22*
G01*
X0Y-111125D03*
G01*
X-63500Y1905000D03*
G01*
X-31750Y1587500D03*
G01*
X1047750Y-381000D03*
D24*
G01*
X269875Y-381000D03*
G01*
X269875Y-269875D03*
G01*
X762000Y-1095375D03*
G01*
X666750Y-873125D03*
G01*
X750468Y-55575D03*
G01*
X-190500Y-333375D03*
G01*
X-762000Y-365125D03*
D22*
G01*
X1111250Y952500D03*
G01*
X-1492250Y1143000D03*
G01*
X-1492250Y1206500D03*
G01*
X-349250Y952500D03*
G01*
X-476250Y952500D03*
G01*
X-127000Y952500D03*
G01*
X-476250Y825500D03*
G01*
X-127000Y825500D03*
G01*
X381000Y1079500D03*
G01*
X254000Y1079500D03*
G01*
X-793750Y1778000D03*
G01*
X-666750Y1682750D03*
G01*
X1841500Y857250D03*
G01*
X1841500Y936625D03*
G01*
X158750Y2000250D03*
G01*
X412750Y1016000D03*
G01*
X-539750Y1841500D03*
D46*
G01*
X-920750Y-1857375D03*
G01*
X-1270000Y-1825625D03*
D22*
G01*
X-325424Y-1023950D03*
G01*
X-1920875Y-1524000D03*
G01*
X-1762125Y-1301750D03*
D24*
G01*
X1635125Y-79375D03*
D22*
G01*
X-63500Y1778000D03*
G01*
X-31750Y1714500D03*
G01*
X-31750Y1651000D03*
G01*
X-63500Y1841500D03*
G01*
X-285750Y1936750D03*
G01*
X-349250Y1936750D03*
G01*
X-285750Y2000250D03*
G01*
X-349250Y2000250D03*
G01*
X-1825625Y-1365250D03*
G01*
X-539750Y1746250D03*
D24*
G01*
X-1905000Y952500D03*
G01*
X-1841500Y952500D03*
G01*
X-1778000Y952500D03*
G01*
X-1714500Y952500D03*
G01*
X-1651000Y952500D03*
D22*
G01*
X63500Y1016000D03*
G01*
X127000Y1016000D03*
G01*
X-1270000Y1905000D03*
G01*
X-1428750Y1143000D03*
G01*
X-1428750Y1206500D03*
G01*
X-1365250Y1143000D03*
G01*
X-1365250Y1206500D03*
G01*
X-1714500Y571500D03*
G01*
X-1651000Y571500D03*
D24*
G01*
X365125Y-1746250D03*
D22*
G01*
X514502Y-1254125D03*
G01*
X-1746250Y1841500D03*
G01*
X-1651000Y1936750D03*
G01*
X-1270000Y2000250D03*
G01*
X-1524000Y2000250D03*
G01*
X1587500Y-930224D03*
G01*
X1412875Y-1143000D03*
D24*
G01*
X453288Y-1841500D03*
G01*
X553288Y-1841500D03*
G01*
X653287Y-1841500D03*
D22*
G01*
X1746250Y-857250D03*
G01*
X1651000Y-571500D03*
D24*
G01*
X1000125Y-531825D03*
G01*
X714375Y-873125D03*
G01*
X1476375Y-920750D03*
D22*
G01*
X1428750Y-1008075D03*
D24*
G01*
X1103325Y-1262075D03*
G01*
X976325Y-1262075D03*
G01*
X515950Y-762000D03*
D46*
G01*
X1111250Y1341424D03*
D24*
G01*
X650875Y-460375D03*
D22*
G01*
X1492250Y-1936750D03*
G01*
X1333500Y-1936750D03*
D24*
G01*
X698500Y-523875D03*
G01*
X682625Y-595325D03*
G01*
X571500Y-539750D03*
D22*
G01*
X1539875Y-31750D03*
D24*
G01*
X1666875Y-285750D03*
G01*
X1524000Y-158750D03*
G01*
X754075Y-277825D03*
G01*
X833450Y-325450D03*
D22*
G01*
X1047750Y-39700D03*
D24*
G01*
X460375Y-158750D03*
D22*
G01*
X1231772Y0D03*
D24*
G01*
X127000Y-381000D03*
D22*
G01*
X666750Y254000D03*
G01*
X793750Y254000D03*
G01*
X1397000Y254000D03*
G01*
X1270000Y254000D03*
G01*
X1539875Y-571500D03*
G01*
X1460500Y-539750D03*
G01*
X1079500Y-476250D03*
G01*
X1143000Y-412750D03*
G01*
X1746250Y285750D03*
D24*
G01*
X1841500Y381000D03*
D22*
G01*
X1174750Y1905000D03*
G01*
X1174750Y1809750D03*
G01*
X1174750Y2000250D03*
G01*
X1047750Y1714500D03*
G01*
X1050340Y1800732D03*
G01*
X1050340Y1895982D03*
G01*
X1047750Y2000250D03*
G01*
X254000Y1714500D03*
G01*
X254000Y1809750D03*
G01*
X254000Y1905000D03*
G01*
X254000Y2000250D03*
G01*
X285750Y1016000D03*
G01*
X1936750Y1174750D03*
G01*
X1936750Y1270000D03*
G01*
X1936750Y1365250D03*
G01*
X1841500Y1365250D03*
G01*
X1841500Y1174750D03*
G01*
X1841500Y1270000D03*
G01*
X349250Y1016000D03*
G01*
X317500Y1079500D03*
G01*
X1111250Y825500D03*
G01*
X1047750Y825500D03*
G01*
X1047750Y889000D03*
G01*
X1047750Y952500D03*
G01*
X412750Y1524000D03*
G01*
X412750Y1587500D03*
G01*
X349250Y1587500D03*
G01*
X635000Y1524000D03*
G01*
X635000Y1587500D03*
G01*
X571500Y1587500D03*
G01*
X1111250Y889000D03*
G01*
X571500Y1524000D03*
G01*
X349250Y1524000D03*
G01*
X1555750Y1127125D03*
G01*
X1619250Y1127125D03*
G01*
X1619250Y1190625D03*
G01*
X1555750Y1190625D03*
G01*
X1111250Y1524000D03*
G01*
X1174750Y1524000D03*
G01*
X1174750Y1587500D03*
G01*
X1111250Y1587500D03*
G01*
X190500Y31750D03*
G01*
X476250Y127000D03*
G01*
X431800Y276352D03*
G01*
X127000Y1143000D03*
G01*
X984250Y539750D03*
G01*
X984250Y635000D03*
G01*
X984250Y730250D03*
G01*
X1079500Y539750D03*
G01*
X1079500Y635000D03*
G01*
X1079500Y730250D03*
G01*
X63500Y1206500D03*
G01*
X63500Y1270000D03*
G01*
X63500Y1143000D03*
G01*
X63500Y1079500D03*
G01*
X127000Y1206500D03*
G01*
X127000Y1079500D03*
G01*
X127000Y1270000D03*
D46*
G01*
X1408582Y1691436D03*
G01*
X1691436Y1691436D03*
G01*
X1350010Y1550009D03*
G01*
X1408582Y1408582D03*
G01*
X1550009Y1350010D03*
G01*
X1691436Y1408582D03*
G01*
X1750009Y1550009D03*
G01*
X1550009Y1750009D03*
G01*
X-1691817Y1690852D03*
G01*
X-1408480Y1691335D03*
G01*
X-1749907Y1549907D03*
G01*
X-1691335Y1408480D03*
G01*
X-1549907Y1349908D03*
G01*
X-1408480Y1408480D03*
G01*
X-1349908Y1549907D03*
G01*
X-1549907Y1749907D03*
G01*
X1408582Y-1408582D03*
G01*
X1691436Y-1408582D03*
G01*
X1350010Y-1550009D03*
G01*
X1408582Y-1691436D03*
G01*
X1550009Y-1750009D03*
G01*
X1691436Y-1691436D03*
G01*
X1750009Y-1550009D03*
G01*
X1550009Y-1350010D03*
G01*
X-1691436Y-1408582D03*
G01*
X-1408582Y-1408582D03*
G01*
X-1750009Y-1550009D03*
G01*
X-1691436Y-1691436D03*
G01*
X-1550009Y-1750009D03*
G01*
X-1408582Y-1691436D03*
G01*
X-1350010Y-1550009D03*
G01*
X-1550009Y-1350010D03*
D22*
G01*
X889000Y539750D03*
G01*
X698500Y539750D03*
G01*
X793750Y539750D03*
G01*
X793750Y635000D03*
G01*
X698500Y635000D03*
G01*
X889000Y635000D03*
G01*
X698500Y730250D03*
G01*
X571500Y539750D03*
G01*
X571500Y635000D03*
G01*
X571500Y730250D03*
G01*
X889000Y730250D03*
G01*
X1476375Y635000D03*
G01*
X1476375Y539750D03*
G01*
X1476375Y730250D03*
G01*
X1381125Y635000D03*
G01*
X1285875Y730250D03*
G01*
X1190625Y539750D03*
G01*
X1285875Y539750D03*
G01*
X1381125Y539750D03*
G01*
X1381125Y730250D03*
G01*
X1285875Y635000D03*
G01*
X793750Y730250D03*
G01*
X1190625Y730250D03*
G01*
X1190625Y635000D03*
G01*
X-1714500Y508000D03*
G01*
X-1651000Y508000D03*
D24*
G01*
X-714375Y-1587500D03*
D22*
G01*
X-555625Y-920750D03*
G01*
X-381000Y-920750D03*
G01*
X-127000Y730250D03*
G01*
X-127000Y635000D03*
G01*
X-127000Y539750D03*
G01*
X-476250Y730250D03*
G01*
X-476250Y635000D03*
G01*
X-476250Y539750D03*
D24*
G01*
X-777875Y-317500D03*
G01*
X-809625Y-365125D03*
G01*
X-730250Y-317500D03*
G01*
X-635000Y-1428750D03*
D22*
G01*
X-444500Y1746250D03*
G01*
X-444500Y1841500D03*
D24*
G01*
X-1000125Y-1404950D03*
D22*
G01*
X-424230Y-1505991D03*
D24*
G01*
X-1000125Y-1301750D03*
G01*
X-714375Y-1714500D03*
G01*
X-952500Y-1492250D03*
D22*
G01*
X1936750Y276377D03*
D24*
G01*
X381000Y-1270000D03*
D22*
G01*
X-1270000Y1778000D03*
D52*
G01*
X-333375Y0D03*
D22*
G01*
X-1127125Y-1841500D03*
D24*
G01*
X269875Y-460375D03*
D22*
G01*
X-1936750Y-1317625D03*
D24*
G01*
X-1222375Y-238125D03*
G01*
X-1174750Y-190500D03*
G01*
X-1174750Y-238125D03*
G01*
X-1222375Y-190500D03*
D19*
G01*
X-1254125Y-1111250D03*
G01*
X-1238250Y-762000D03*
D22*
G01*
X-127000Y-111125D03*
D24*
G01*
X-1174750Y0D03*
D19*
G01*
X-512749Y-714375D03*
G01*
X-712749Y-587375D03*
D24*
G01*
X-1238250Y31750D03*
G01*
X-539750Y-47625D03*
G01*
X-444500Y-349250D03*
G01*
X-317500Y-619125D03*
G01*
X-301625Y-444500D03*
G01*
X254000Y-523875D03*
D22*
G01*
X-1392732Y-695629D03*
G01*
X-1492250Y-698500D03*
G01*
X-1301750Y-666750D03*
D24*
G01*
X-857250Y-47625D03*
G01*
X-857250Y-206375D03*
G01*
X-539750Y-206375D03*
G01*
X-508000Y127000D03*
G01*
X-607263Y38252D03*
D46*
G01*
X-212750Y-1301750D03*
G01*
X-212750Y-825500D03*
D24*
G01*
X-1254125Y95250D03*
G01*
X-873125Y47625D03*
G01*
X-127000Y31750D03*
G01*
X-142875Y-238125D03*
G01*
X0Y-381000D03*
G01*
X-873125Y-317500D03*
G01*
X-873125Y-428625D03*
G01*
X-1365250Y-317500D03*
G01*
X-1333500Y-63500D03*
G01*
X-1428750Y-317500D03*
G01*
X-1397000Y-191770D03*
G01*
X-1333500Y-190500D03*
G01*
X95250Y-666750D03*
G01*
X127000Y-508000D03*
G01*
X246075Y-1301750D03*
G01*
X-127000Y-365125D03*
D22*
G01*
X1039825Y-1397000D03*
G01*
X1349375Y-1270000D03*
D24*
G01*
X508000Y-412750D03*
G01*
X222250Y-1428750D03*
D22*
G01*
X-762000Y825500D03*
G01*
X-762000Y730250D03*
G01*
X-762000Y635000D03*
G01*
X-762000Y539750D03*
G01*
X-984250Y1778000D03*
G01*
X-1079500Y1778000D03*
G01*
X-1174750Y1778000D03*
D24*
G01*
X753287Y-1841500D03*
D22*
G01*
X1143000Y-1809750D03*
G01*
X1238250Y-1714500D03*
D24*
G01*
X863244Y-1963877D03*
G01*
X444500Y-1031875D03*
G01*
X1050544Y-235457D03*
G01*
X508000Y-666750D03*
G01*
X-111125Y-1206500D03*
G01*
X-111125Y-1301750D03*
G01*
X87325Y-1039825D03*
G01*
X-95250Y-857250D03*
G01*
X1144143Y-796544D03*
G01*
X1460500Y-796544D03*
G01*
X254000Y-1651000D03*
G01*
X785825Y-1476375D03*
G01*
X857250Y-1873250D03*
M02*
